<?xml version="1.0" encoding="utf-8"?>
<!-- Generator: Adobe Illustrator 25.3.1, SVG Export Plug-In . SVG Version: 6.00 Build 0)  -->
<svg version="1.1" id="圖層_1" xmlns="http://www.w3.org/2000/svg" xmlns:xlink="http://www.w3.org/1999/xlink" x="0px" y="0px"
	 viewBox="0 0 54.86 74.7" style="enable-background:new 0 0 54.86 74.7;" xml:space="preserve">
<style type="text/css">
	.st0{fill:#004593;stroke:#000000;}
	.st1{fill:url(#SVGID_1_);}
	.st2{fill:url(#SVGID_2_);}
</style>
<g>
	<path class="st0" d="M48.69,0.5H6.17C3.05,0.5,0.5,3.05,0.5,6.17v62.36c0,3.12,2.55,5.67,5.67,5.67h42.52
		c3.12,0,5.67-2.55,5.67-5.67V6.17C54.36,3.05,51.81,0.5,48.69,0.5L48.69,0.5z"/>
	<g>
		<linearGradient id="SVGID_1_" gradientUnits="userSpaceOnUse" x1="-0.678" y1="65.4577" x2="55.5364" y2="9.2434">
			<stop  offset="0" style="stop-color:#004EA2"/>
			<stop  offset="1" style="stop-color:#2C61AD"/>
		</linearGradient>
		<path class="st1" d="M48.69,3.5c1.47,0,2.67,1.2,2.67,2.67v62.36c0,1.47-1.2,2.67-2.67,2.67H6.17C4.7,71.2,3.5,70,3.5,68.53V6.17
			C3.5,4.7,4.7,3.5,6.17,3.5H48.69"/>
	</g>
	<linearGradient id="SVGID_2_" gradientUnits="userSpaceOnUse" x1="13.3433" y1="4.217" x2="50.9344" y2="4.217">
		<stop  offset="0" style="stop-color:#004EA2"/>
		<stop  offset="0.76" style="stop-color:#6F94CD"/>
		<stop  offset="1" style="stop-color:#EAF6FD"/>
	</linearGradient>
	<path class="st2" d="M48.26,3.58H13.34c0,0,23.23,0.44,28.29,0.63c5.07,0.19,5.81,0.16,7.58,0.54C51.89,5.31,51.34,3.58,48.26,3.58
		z"/>
</g>
</svg>
