<?xml version="1.0" encoding="utf-8"?>
<!-- Generator: Adobe Illustrator 25.3.1, SVG Export Plug-In . SVG Version: 6.00 Build 0)  -->
<svg version="1.1" id="圖層_1" xmlns="http://www.w3.org/2000/svg" xmlns:xlink="http://www.w3.org/1999/xlink" x="0px" y="0px"
	 viewBox="0 0 54.86 74.7" style="enable-background:new 0 0 54.86 74.7;" xml:space="preserve">
<style type="text/css">
	.st0{fill:#EFEEE8;stroke:#000000;}
	.st1{fill:#FFFFFF;}
	.st2{fill:url(#SVGID_1_);}
	.st3{fill:#002D12;}
	.st4{fill:#004A2A;}
	.st5{fill:none;stroke:#002D12;stroke-width:0.7166;stroke-miterlimit:10;}
	.st6{fill:none;stroke:#FFFFFF;stroke-width:0.7166;stroke-miterlimit:10;}
	.st7{fill:url(#SVGID_2_);}
	.st8{fill:url(#SVGID_3_);}
	.st9{fill:url(#SVGID_4_);}
	.st10{fill:url(#SVGID_5_);}
	.st11{fill:url(#SVGID_6_);}
	.st12{fill:none;stroke:#002D12;stroke-width:0.65;stroke-miterlimit:10;}
	.st13{fill:#6F0005;}
	.st14{fill:#99161C;}
	.st15{fill:none;stroke:#FFFFFF;stroke-width:0.65;stroke-miterlimit:10;}
	.st16{fill:url(#SVGID_7_);}
	.st17{fill:url(#SVGID_8_);}
	.st18{fill:url(#SVGID_9_);}
	.st19{fill:url(#SVGID_10_);}
	.st20{fill:url(#SVGID_11_);}
</style>
<g>
	<g>
		<g>
			<path class="st0" d="M48.69,0.5H6.17C3.05,0.5,0.5,3.05,0.5,6.17v62.36c0,3.12,2.55,5.67,5.67,5.67h42.52
				c3.12,0,5.67-2.55,5.67-5.67V6.17C54.36,3.05,51.81,0.5,48.69,0.5L48.69,0.5z"/>
		</g>
		<path class="st1" d="M48.69,3.5c1.47,0,2.67,1.2,2.67,2.67v62.36c0,1.47-1.2,2.67-2.67,2.67H6.17C4.7,71.2,3.5,70,3.5,68.53V6.17
			C3.5,4.7,4.7,3.5,6.17,3.5H48.69"/>
		<linearGradient id="SVGID_1_" gradientUnits="userSpaceOnUse" x1="0.0346" y1="64.7454" x2="54.8237" y2="9.9562">
			<stop  offset="0" style="stop-color:#F8F7F0"/>
			<stop  offset="0.6031" style="stop-color:#FFFFFF"/>
			<stop  offset="1" style="stop-color:#FFFFFF"/>
		</linearGradient>
		<path class="st2" d="M48.69,4.5c0.9,0,1.67,0.76,1.67,1.67v62.36c0,0.91-0.76,1.67-1.67,1.67H6.17c-0.9,0-1.67-0.76-1.67-1.67
			V6.17c0-0.91,0.76-1.67,1.67-1.67H48.69"/>
	</g>
	<g>
		<g>
			<g>
				<g>
					<path class="st3" d="M38.73,22.02c0,6.24-5.06,11.3-11.3,11.3c-6.24,0-11.3-5.06-11.3-11.3s5.06-11.3,11.3-11.3
						C33.67,10.72,38.73,15.78,38.73,22.02z"/>
				</g>
				<g>
					<path class="st4" d="M38.36,22.22c0,5.93-4.81,10.73-10.74,10.73c-5.93,0-10.73-4.8-10.73-10.73c0-5.93,4.81-10.74,10.73-10.74
						C33.56,11.48,38.36,16.29,38.36,22.22z"/>
				</g>
			</g>
			<g>
				<path class="st5" d="M18.64,22.44c0-5.09,4.13-9.22,9.22-9.21c5.09,0,9.22,4.12,9.22,9.21c0,5.09-4.13,9.21-9.22,9.21
					C22.77,31.66,18.64,27.53,18.64,22.44z"/>
				<path class="st6" d="M18.21,22.02c0-5.09,4.13-9.22,9.22-9.22c5.09,0,9.22,4.12,9.22,9.21c0,5.09-4.13,9.21-9.22,9.21
					C22.34,31.23,18.21,27.11,18.21,22.02z"/>
			</g>
			<g>
				<g>
					<path class="st3" d="M25.29,16.11c1.02-1.42,2.42-0.35,2.42-0.35c0.06,0.04,0.09,0.09,0.14,0.12c0.05-0.04,0.09-0.09,0.15-0.12
						c0,0,1.4-1.07,2.42,0.35c1.02,1.42-0.06,3.14-0.95,3.77c-0.5,0.35-0.92,0.74-1.48,0.81c-0.04,0-0.09,0.01-0.14,0.01
						c-0.05,0-0.09-0.01-0.14-0.01c-0.55-0.06-0.98-0.46-1.48-0.81C25.35,19.25,24.27,17.53,25.29,16.11z"/>
					<path class="st3" d="M21.04,22.93c-1.03-1.41,0.41-2.41,0.41-2.41c0.05-0.04,0.11-0.06,0.16-0.1
						c-0.02-0.06-0.06-0.11-0.07-0.18c0,0-0.58-1.66,1.08-2.19c1.66-0.53,2.97,1.03,3.3,2.07c0.18,0.59,0.42,1.11,0.31,1.65
						c-0.01,0.05-0.01,0.09-0.03,0.13c-0.02,0.05-0.04,0.08-0.06,0.13c-0.23,0.51-0.73,0.79-1.22,1.16
						C24.05,23.84,22.07,24.34,21.04,22.93z"/>
					<path class="st3" d="M26.21,29.07c-1.66,0.55-2.16-1.14-2.16-1.14c-0.03-0.06-0.03-0.12-0.04-0.19c-0.07,0-0.12,0.02-0.19,0.01
						c0,0-1.76,0.04-1.75-1.7c0.01-1.74,1.89-2.51,2.99-2.5c0.61,0.01,1.18-0.06,1.67,0.22c0.04,0.02,0.08,0.04,0.12,0.07
						c0.04,0.03,0.07,0.06,0.1,0.09c0.41,0.38,0.52,0.94,0.72,1.52C28.01,26.5,27.87,28.53,26.21,29.07z"/>
					<path class="st3" d="M33.65,26.06c0.01,1.75-1.75,1.71-1.75,1.71c-0.07,0-0.12-0.01-0.19-0.02c-0.02,0.06-0.02,0.12-0.05,0.19
						c0,0-0.5,1.68-2.16,1.14c-1.66-0.54-1.8-2.58-1.45-3.61c0.2-0.58,0.31-1.14,0.72-1.52c0.03-0.03,0.06-0.07,0.1-0.09
						c0.04-0.03,0.08-0.05,0.12-0.07c0.49-0.28,1.06-0.21,1.67-0.22C31.76,23.54,33.65,24.31,33.65,26.06z"/>
					<path class="st3" d="M33.08,18.04c1.66,0.53,1.08,2.19,1.08,2.19c-0.02,0.07-0.05,0.11-0.07,0.17c0.05,0.04,0.11,0.06,0.16,0.1
						c0,0,1.44,1,0.42,2.41c-1.03,1.41-3.01,0.92-3.88,0.26c-0.49-0.37-0.99-0.65-1.22-1.16c-0.02-0.04-0.04-0.07-0.06-0.12
						c-0.02-0.05-0.02-0.09-0.03-0.14c-0.12-0.55,0.13-1.07,0.31-1.65C30.11,19.07,31.42,17.51,33.08,18.04z"/>
				</g>
				<g>
					
						<linearGradient id="SVGID_2_" gradientUnits="userSpaceOnUse" x1="-1509.2156" y1="17.6147" x2="-1503.2555" y2="17.6147" gradientTransform="matrix(-1 0 0 1 -1478.8063 0)">
						<stop  offset="0" style="stop-color:#F8F7F0"/>
						<stop  offset="0.6031" style="stop-color:#FFFFFF"/>
						<stop  offset="1" style="stop-color:#FFFFFF"/>
					</linearGradient>
					<path class="st7" d="M24.86,15.68c1.02-1.41,2.42-0.35,2.42-0.35c0.06,0.04,0.09,0.08,0.14,0.12c0.05-0.04,0.09-0.09,0.15-0.12
						c0,0,1.4-1.07,2.42,0.35c1.02,1.42-0.06,3.14-0.95,3.77c-0.5,0.35-0.92,0.74-1.48,0.81c-0.04,0.01-0.09,0.01-0.14,0.01
						c-0.05,0-0.09-0.01-0.14-0.01c-0.55-0.06-0.98-0.45-1.48-0.81C24.92,18.83,23.84,17.1,24.86,15.68z"/>
					
						<linearGradient id="SVGID_3_" gradientUnits="userSpaceOnUse" x1="-1424.9833" y1="1070.1541" x2="-1419.0243" y2="1070.1541" gradientTransform="matrix(-0.309 0.9511 0.9511 0.309 -1433.9792 1042.4485)">
						<stop  offset="0" style="stop-color:#F8F7F0"/>
						<stop  offset="0.6031" style="stop-color:#FFFFFF"/>
						<stop  offset="1" style="stop-color:#FFFFFF"/>
					</linearGradient>
					<path class="st8" d="M20.62,22.5c-1.03-1.41,0.41-2.41,0.41-2.41c0.05-0.04,0.11-0.06,0.16-0.1c-0.02-0.06-0.06-0.11-0.07-0.18
						c0,0-0.58-1.66,1.08-2.19c1.66-0.53,2.97,1.03,3.3,2.07c0.18,0.58,0.42,1.11,0.31,1.65c-0.01,0.04-0.01,0.09-0.03,0.13
						c-0.02,0.05-0.04,0.09-0.06,0.13c-0.23,0.51-0.73,0.79-1.22,1.16C23.62,23.42,21.65,23.91,20.62,22.5z"/>
					
						<linearGradient id="SVGID_4_" gradientUnits="userSpaceOnUse" x1="-397.5823" y1="1316.2351" x2="-391.6229" y2="1316.2351" gradientTransform="matrix(0.809 0.5878 0.5878 -0.809 -429.6049 1322.3607)">
						<stop  offset="0" style="stop-color:#F8F7F0"/>
						<stop  offset="0.6031" style="stop-color:#FFFFFF"/>
						<stop  offset="1" style="stop-color:#FFFFFF"/>
					</linearGradient>
					<path class="st9" d="M25.79,28.65c-1.66,0.54-2.16-1.14-2.16-1.14c-0.03-0.06-0.03-0.12-0.04-0.19c-0.07,0-0.12,0.02-0.19,0.01
						c0,0-1.76,0.04-1.75-1.71c0.01-1.74,1.89-2.51,2.99-2.5c0.61,0.01,1.18-0.06,1.67,0.22c0.04,0.02,0.08,0.04,0.12,0.07
						c0.04,0.03,0.07,0.06,0.1,0.09c0.41,0.38,0.52,0.94,0.72,1.52C27.59,26.07,27.44,28.1,25.79,28.65z"/>
					
						<linearGradient id="SVGID_5_" gradientUnits="userSpaceOnUse" x1="153.6481" y1="414.3888" x2="159.6073" y2="414.3888" gradientTransform="matrix(0.809 -0.5878 -0.5878 -0.809 146.8864 452.8834)">
						<stop  offset="0" style="stop-color:#F8F7F0"/>
						<stop  offset="0.6031" style="stop-color:#FFFFFF"/>
						<stop  offset="1" style="stop-color:#FFFFFF"/>
					</linearGradient>
					<path class="st10" d="M33.23,25.63c0.01,1.75-1.75,1.71-1.75,1.71c-0.07,0-0.12-0.01-0.19-0.02c-0.02,0.06-0.02,0.12-0.05,0.19
						c0,0-0.5,1.68-2.16,1.14c-1.66-0.54-1.8-2.58-1.45-3.61c0.2-0.58,0.31-1.14,0.72-1.52c0.03-0.03,0.06-0.07,0.1-0.09
						c0.04-0.03,0.08-0.05,0.12-0.07c0.49-0.28,1.06-0.21,1.67-0.22C31.33,23.12,33.22,23.88,33.23,25.63z"/>
					
						<linearGradient id="SVGID_6_" gradientUnits="userSpaceOnUse" x1="-534.2211" y1="-387.9367" x2="-528.2625" y2="-387.9367" gradientTransform="matrix(-0.309 -0.9511 -0.9511 0.309 -501.5038 -364.7375)">
						<stop  offset="0" style="stop-color:#F8F7F0"/>
						<stop  offset="0.6031" style="stop-color:#FFFFFF"/>
						<stop  offset="1" style="stop-color:#FFFFFF"/>
					</linearGradient>
					<path class="st11" d="M32.66,17.62c1.66,0.53,1.08,2.19,1.08,2.19c-0.02,0.07-0.05,0.11-0.07,0.18
						c0.05,0.04,0.11,0.06,0.16,0.1c0,0,1.44,1,0.42,2.41c-1.03,1.41-3.01,0.92-3.88,0.26c-0.49-0.37-0.99-0.65-1.22-1.16
						c-0.02-0.04-0.04-0.07-0.06-0.12c-0.02-0.05-0.02-0.09-0.03-0.14c-0.12-0.55,0.13-1.07,0.31-1.65
						C29.69,18.64,31,17.08,32.66,17.62z"/>
				</g>
			</g>
			<polygon class="st3" points="31.29,22.02 30.03,22.34 31.18,22.95 29.88,22.95 30.85,23.82 29.58,23.5 30.32,24.58 29.16,23.98 
				29.62,25.2 28.65,24.33 28.8,25.63 28.06,24.56 27.9,25.85 27.43,24.63 26.97,25.85 26.8,24.56 26.06,25.63 26.21,24.33 
				25.24,25.2 25.7,23.98 24.54,24.58 25.28,23.5 24.01,23.82 24.98,22.95 23.68,22.95 24.83,22.34 23.57,22.02 24.83,21.7 
				23.68,21.09 24.98,21.09 24.01,20.22 25.28,20.53 24.54,19.46 25.7,20.06 25.24,18.84 26.22,19.7 26.06,18.4 26.81,19.48 
				26.97,18.18 27.43,19.4 27.9,18.18 28.06,19.48 28.8,18.41 28.65,19.7 29.63,18.84 29.17,20.06 30.32,19.46 29.58,20.53 
				30.85,20.23 29.88,21.09 31.18,21.1 30.03,21.7 			"/>
			<g>
				<path class="st12" d="M29.83,22.3c0,1.17-0.95,2.11-2.11,2.11c-1.17,0-2.11-0.95-2.11-2.11c0-1.17,0.95-2.12,2.11-2.12
					C28.88,20.19,29.83,21.14,29.83,22.3z"/>
				<path class="st13" d="M29.54,22.02c0,1.17-0.95,2.11-2.11,2.11c-1.17,0-2.11-0.95-2.11-2.11c0-1.17,0.95-2.12,2.11-2.12
					C28.6,19.9,29.54,20.85,29.54,22.02z"/>
				<path class="st14" d="M29.19,22.3c0,0.82-0.66,1.48-1.48,1.48c-0.82,0-1.48-0.66-1.48-1.48s0.66-1.48,1.48-1.48
					C28.53,20.82,29.19,21.49,29.19,22.3z"/>
				<path class="st15" d="M29.54,22.02c0,1.17-0.95,2.11-2.11,2.11c-1.17,0-2.11-0.95-2.11-2.11c0-1.17,0.95-2.12,2.11-2.12
					C28.6,19.9,29.54,20.85,29.54,22.02z"/>
			</g>
		</g>
		<g>
			<g>
				<g>
					<path class="st3" d="M38.73,52.68c0,6.24-5.06,11.3-11.3,11.3c-6.24,0-11.3-5.06-11.3-11.3c0-6.24,5.06-11.3,11.3-11.3
						C33.67,41.38,38.73,46.44,38.73,52.68z"/>
				</g>
				<g>
					<path class="st4" d="M38.36,52.88c0,5.93-4.81,10.73-10.74,10.73c-5.93,0-10.73-4.8-10.73-10.73c0-5.93,4.81-10.74,10.73-10.74
						C33.56,42.15,38.36,46.96,38.36,52.88z"/>
				</g>
			</g>
			<g>
				<path class="st5" d="M18.64,53.11c0-5.09,4.13-9.22,9.22-9.22c5.09,0,9.22,4.12,9.22,9.21c0,5.09-4.13,9.21-9.22,9.21
					C22.77,62.32,18.64,58.2,18.64,53.11z"/>
				<path class="st6" d="M18.21,52.69c0-5.09,4.13-9.22,9.22-9.22c5.09,0,9.22,4.12,9.22,9.21c0,5.09-4.13,9.21-9.22,9.21
					C22.34,61.9,18.21,57.78,18.21,52.69z"/>
			</g>
			<g>
				<g>
					<path class="st3" d="M25.29,46.78c1.02-1.42,2.42-0.35,2.42-0.35c0.06,0.04,0.09,0.08,0.14,0.12c0.05-0.04,0.09-0.09,0.15-0.12
						c0,0,1.4-1.06,2.42,0.35c1.02,1.41-0.06,3.14-0.95,3.77c-0.5,0.35-0.92,0.74-1.48,0.81c-0.04,0.01-0.09,0.02-0.14,0.02
						c-0.05,0-0.09-0.01-0.14-0.02c-0.55-0.06-0.98-0.45-1.48-0.81C25.35,49.92,24.27,48.19,25.29,46.78z"/>
					<path class="st3" d="M21.04,53.59c-1.03-1.41,0.41-2.41,0.41-2.41c0.05-0.04,0.11-0.06,0.16-0.1
						c-0.02-0.06-0.06-0.11-0.07-0.18c0,0-0.58-1.66,1.08-2.19c1.66-0.53,2.97,1.03,3.3,2.07c0.18,0.58,0.42,1.11,0.31,1.65
						c-0.01,0.04-0.01,0.09-0.03,0.13c-0.02,0.05-0.04,0.09-0.06,0.13c-0.23,0.51-0.73,0.79-1.22,1.16
						C24.05,54.51,22.07,55,21.04,53.59z"/>
					<path class="st3" d="M26.21,59.74c-1.66,0.54-2.16-1.14-2.16-1.14c-0.03-0.06-0.03-0.12-0.04-0.19c-0.07,0-0.12,0.02-0.19,0.01
						c0,0-1.76,0.04-1.75-1.71c0.01-1.74,1.89-2.51,2.99-2.5c0.61,0.01,1.18-0.06,1.67,0.22c0.04,0.02,0.08,0.04,0.12,0.07
						c0.04,0.03,0.07,0.06,0.1,0.09c0.41,0.38,0.52,0.94,0.72,1.52C28.01,57.16,27.87,59.19,26.21,59.74z"/>
					<path class="st3" d="M33.65,56.72c0.01,1.75-1.75,1.71-1.75,1.71c-0.07,0-0.12-0.01-0.19-0.02c-0.02,0.06-0.02,0.12-0.05,0.19
						c0,0-0.5,1.68-2.16,1.14c-1.66-0.55-1.8-2.58-1.45-3.61c0.2-0.58,0.31-1.14,0.72-1.52c0.03-0.03,0.06-0.07,0.1-0.09
						c0.04-0.03,0.08-0.05,0.12-0.07c0.49-0.28,1.06-0.21,1.67-0.22C31.76,54.21,33.65,54.98,33.65,56.72z"/>
					<path class="st3" d="M33.08,48.71c1.66,0.53,1.08,2.19,1.08,2.19c-0.02,0.07-0.05,0.12-0.07,0.18c0.05,0.04,0.11,0.06,0.16,0.1
						c0,0,1.44,1,0.42,2.41c-1.03,1.41-3.01,0.92-3.88,0.26c-0.49-0.37-0.99-0.65-1.22-1.16c-0.02-0.04-0.04-0.07-0.06-0.12
						c-0.02-0.05-0.02-0.09-0.03-0.14c-0.12-0.55,0.13-1.07,0.31-1.66C30.11,49.74,31.42,48.18,33.08,48.71z"/>
				</g>
				<g>
					
						<linearGradient id="SVGID_7_" gradientUnits="userSpaceOnUse" x1="-1509.2156" y1="48.2817" x2="-1503.2555" y2="48.2817" gradientTransform="matrix(-1 0 0 1 -1478.8063 0)">
						<stop  offset="0" style="stop-color:#F8F7F0"/>
						<stop  offset="0.6031" style="stop-color:#FFFFFF"/>
						<stop  offset="1" style="stop-color:#FFFFFF"/>
					</linearGradient>
					<path class="st16" d="M24.86,46.35c1.02-1.42,2.42-0.35,2.42-0.35c0.06,0.04,0.09,0.08,0.14,0.12
						c0.05-0.04,0.09-0.09,0.15-0.12c0,0,1.4-1.06,2.42,0.35c1.02,1.41-0.06,3.14-0.95,3.77c-0.5,0.35-0.92,0.74-1.48,0.81
						c-0.04,0.01-0.09,0.02-0.14,0.02c-0.05,0-0.09-0.01-0.14-0.02c-0.55-0.06-0.98-0.45-1.48-0.81
						C24.92,49.5,23.84,47.77,24.86,46.35z"/>
					
						<linearGradient id="SVGID_8_" gradientUnits="userSpaceOnUse" x1="-1395.818" y1="1079.6294" x2="-1389.8596" y2="1079.6294" gradientTransform="matrix(-0.309 0.9511 0.9511 0.309 -1433.9792 1042.4485)">
						<stop  offset="0" style="stop-color:#F8F7F0"/>
						<stop  offset="0.6031" style="stop-color:#FFFFFF"/>
						<stop  offset="1" style="stop-color:#FFFFFF"/>
					</linearGradient>
					<path class="st17" d="M20.62,53.17c-1.03-1.41,0.41-2.41,0.41-2.41c0.05-0.04,0.11-0.06,0.16-0.1
						c-0.02-0.06-0.06-0.11-0.07-0.18c0,0-0.58-1.66,1.08-2.19c1.66-0.53,2.97,1.03,3.3,2.07c0.18,0.59,0.42,1.11,0.31,1.65
						c-0.01,0.04-0.01,0.09-0.03,0.13c-0.02,0.05-0.04,0.08-0.06,0.13c-0.23,0.51-0.73,0.79-1.22,1.16
						C23.62,54.09,21.65,54.58,20.62,53.17z"/>
					
						<linearGradient id="SVGID_9_" gradientUnits="userSpaceOnUse" x1="-379.5557" y1="1291.425" x2="-373.5972" y2="1291.425" gradientTransform="matrix(0.809 0.5878 0.5878 -0.809 -429.6049 1322.3607)">
						<stop  offset="0" style="stop-color:#F8F7F0"/>
						<stop  offset="0.6031" style="stop-color:#FFFFFF"/>
						<stop  offset="1" style="stop-color:#FFFFFF"/>
					</linearGradient>
					<path class="st18" d="M25.79,59.31c-1.66,0.55-2.16-1.14-2.16-1.14c-0.03-0.06-0.03-0.12-0.04-0.19
						c-0.07,0-0.12,0.02-0.19,0.02c0,0-1.76,0.04-1.75-1.71c0.01-1.74,1.89-2.51,2.99-2.5c0.61,0.01,1.18-0.06,1.67,0.22
						c0.04,0.02,0.08,0.04,0.12,0.07c0.04,0.03,0.07,0.06,0.1,0.09c0.41,0.38,0.52,0.94,0.72,1.52
						C27.59,56.74,27.44,58.77,25.79,59.31z"/>
					
						<linearGradient id="SVGID_10_" gradientUnits="userSpaceOnUse" x1="135.6216" y1="389.5794" x2="141.5811" y2="389.5794" gradientTransform="matrix(0.809 -0.5878 -0.5878 -0.809 146.8864 452.8834)">
						<stop  offset="0" style="stop-color:#F8F7F0"/>
						<stop  offset="0.6031" style="stop-color:#FFFFFF"/>
						<stop  offset="1" style="stop-color:#FFFFFF"/>
					</linearGradient>
					<path class="st19" d="M33.23,56.3c0.01,1.75-1.75,1.71-1.75,1.71c-0.07,0.01-0.12-0.01-0.19-0.02
						c-0.02,0.06-0.02,0.12-0.05,0.19c0,0-0.5,1.68-2.16,1.14c-1.66-0.55-1.8-2.58-1.45-3.61c0.2-0.58,0.31-1.14,0.72-1.52
						c0.03-0.03,0.06-0.07,0.1-0.09c0.04-0.03,0.08-0.05,0.12-0.07c0.49-0.28,1.06-0.21,1.67-0.22
						C31.33,53.79,33.22,54.55,33.23,56.3z"/>
					
						<linearGradient id="SVGID_11_" gradientUnits="userSpaceOnUse" x1="-563.3871" y1="-378.4615" x2="-557.4274" y2="-378.4615" gradientTransform="matrix(-0.309 -0.9511 -0.9511 0.309 -501.5038 -364.7375)">
						<stop  offset="0" style="stop-color:#F8F7F0"/>
						<stop  offset="0.6031" style="stop-color:#FFFFFF"/>
						<stop  offset="1" style="stop-color:#FFFFFF"/>
					</linearGradient>
					<path class="st20" d="M32.66,48.29c1.66,0.54,1.08,2.19,1.08,2.19c-0.02,0.07-0.05,0.11-0.07,0.17
						c0.05,0.04,0.11,0.06,0.16,0.1c0,0,1.44,1,0.42,2.41c-1.03,1.41-3.01,0.92-3.88,0.26c-0.49-0.37-0.99-0.65-1.22-1.16
						c-0.02-0.04-0.04-0.07-0.06-0.12c-0.02-0.05-0.02-0.09-0.03-0.13c-0.12-0.55,0.13-1.07,0.31-1.66
						C29.69,49.31,31,47.75,32.66,48.29z"/>
				</g>
			</g>
			<polygon class="st3" points="31.29,52.69 30.03,53 31.18,53.61 29.88,53.61 30.85,54.48 29.58,54.17 30.32,55.25 29.16,54.64 
				29.62,55.86 28.65,55 28.8,56.3 28.06,55.22 27.9,56.52 27.43,55.3 26.97,56.52 26.8,55.22 26.06,56.3 26.21,55 25.24,55.86 
				25.7,54.64 24.54,55.25 25.28,54.17 24.01,54.48 24.98,53.62 23.68,53.61 24.83,53 23.57,52.69 24.83,52.37 23.68,51.76 
				24.98,51.76 24.01,50.89 25.28,51.2 24.54,50.12 25.7,50.73 25.24,49.5 26.22,50.37 26.06,49.07 26.81,50.14 26.97,48.85 
				27.43,50.07 27.9,48.85 28.06,50.14 28.8,49.07 28.65,50.37 29.63,49.51 29.17,50.73 30.32,50.13 29.58,51.2 30.85,50.89 
				29.88,51.76 31.18,51.76 30.03,52.37 			"/>
			<g>
				<path class="st12" d="M29.83,52.97c0,1.17-0.95,2.12-2.11,2.12c-1.17,0-2.11-0.95-2.11-2.12c0-1.17,0.95-2.11,2.11-2.11
					C28.88,50.85,29.83,51.8,29.83,52.97z"/>
				<path class="st13" d="M29.54,52.68c0,1.17-0.95,2.11-2.11,2.11c-1.17,0-2.11-0.95-2.11-2.11c0-1.17,0.95-2.11,2.11-2.11
					C28.6,50.57,29.54,51.52,29.54,52.68z"/>
				<path class="st14" d="M29.19,52.97c0,0.82-0.66,1.48-1.48,1.48c-0.82,0-1.48-0.66-1.48-1.48c0-0.82,0.66-1.48,1.48-1.48
					C28.53,51.49,29.19,52.15,29.19,52.97z"/>
				<path class="st15" d="M29.54,52.68c0,1.17-0.95,2.11-2.11,2.11c-1.17,0-2.11-0.95-2.11-2.11c0-1.17,0.95-2.11,2.11-2.11
					C28.6,50.57,29.54,51.52,29.54,52.68z"/>
			</g>
		</g>
	</g>
</g>
</svg>
