<?xml version="1.0" encoding="utf-8"?>
<!-- Generator: Adobe Illustrator 25.3.1, SVG Export Plug-In . SVG Version: 6.00 Build 0)  -->
<svg version="1.1" id="圖層_1" xmlns="http://www.w3.org/2000/svg" xmlns:xlink="http://www.w3.org/1999/xlink" x="0px" y="0px"
	 viewBox="0 0 54.86 74.7" style="enable-background:new 0 0 54.86 74.7;" xml:space="preserve">
<style type="text/css">
	.st0{fill:#EEEEE8;stroke:#1A0B08;}
	.st1{fill:#FFFFFF;}
	.st2{fill:url(#SVGID_1_);}
	.st3{fill:#002D12;}
	.st4{fill:#004A2A;}
	.st5{fill:none;stroke:#002D12;stroke-width:0.65;stroke-miterlimit:10;}
	.st6{fill:none;stroke:#FFFFFF;stroke-width:0.65;stroke-miterlimit:10;}
	.st7{fill:url(#SVGID_2_);}
	.st8{fill:url(#SVGID_3_);}
	.st9{fill:url(#SVGID_4_);}
	.st10{fill:url(#SVGID_5_);}
	.st11{fill:url(#SVGID_6_);}
	.st12{fill:#6E0005;}
	.st13{fill:#98161C;}
	.st14{fill:url(#SVGID_7_);}
	.st15{fill:url(#SVGID_8_);}
	.st16{fill:url(#SVGID_9_);}
	.st17{fill:url(#SVGID_10_);}
	.st18{fill:url(#SVGID_11_);}
	.st19{fill:url(#SVGID_12_);}
	.st20{fill:url(#SVGID_13_);}
	.st21{fill:url(#SVGID_14_);}
	.st22{fill:url(#SVGID_15_);}
	.st23{fill:url(#SVGID_16_);}
	.st24{fill:url(#SVGID_17_);}
	.st25{fill:url(#SVGID_18_);}
	.st26{fill:url(#SVGID_19_);}
	.st27{fill:url(#SVGID_20_);}
	.st28{fill:url(#SVGID_21_);}
	.st29{fill:url(#SVGID_22_);}
	.st30{fill:url(#SVGID_23_);}
	.st31{fill:url(#SVGID_24_);}
	.st32{fill:url(#SVGID_25_);}
	.st33{fill:url(#SVGID_26_);}
	.st34{fill:url(#SVGID_27_);}
	.st35{fill:url(#SVGID_28_);}
	.st36{fill:url(#SVGID_29_);}
	.st37{fill:url(#SVGID_30_);}
	.st38{fill:url(#SVGID_31_);}
</style>
<g>
	<g>
		<g>
			<path class="st0" d="M48.69,0.5H6.17C3.05,0.5,0.5,3.05,0.5,6.17v62.36c0,3.12,2.55,5.67,5.67,5.67h42.52
				c3.12,0,5.67-2.55,5.67-5.67V6.17C54.36,3.05,51.81,0.5,48.69,0.5L48.69,0.5z"/>
		</g>
		<path class="st1" d="M48.69,3.5c1.47,0,2.67,1.2,2.67,2.67v62.36c0,1.47-1.2,2.67-2.67,2.67H6.17C4.7,71.2,3.5,70,3.5,68.53V6.17
			C3.5,4.7,4.7,3.5,6.17,3.5H48.69"/>
		<linearGradient id="SVGID_1_" gradientUnits="userSpaceOnUse" x1="0.0356" y1="64.7448" x2="54.8247" y2="9.9557">
			<stop  offset="0" style="stop-color:#F7F7F0"/>
			<stop  offset="0.6031" style="stop-color:#FFFFFF"/>
			<stop  offset="1" style="stop-color:#FFFFFF"/>
		</linearGradient>
		<path class="st2" d="M48.69,4.5c0.9,0,1.67,0.76,1.67,1.67v62.36c0,0.91-0.76,1.67-1.67,1.67H6.17c-0.91,0-1.67-0.76-1.67-1.67
			V6.17c0-0.91,0.76-1.67,1.67-1.67H48.69"/>
	</g>
	<g>
		<g>
			<g>
				<g>
					<path class="st3" d="M44.05,17.82c0,4.53-3.67,8.2-8.21,8.2c-4.53,0-8.2-3.67-8.2-8.2c0-4.53,3.67-8.2,8.2-8.2
						C40.37,9.62,44.05,13.29,44.05,17.82z"/>
					<path class="st4" d="M43.84,18.02c0,4.31-3.49,7.79-7.79,7.79c-4.3,0-7.79-3.49-7.79-7.79c0-4.3,3.49-7.79,7.79-7.79
						C40.35,10.23,43.84,13.72,43.84,18.02z"/>
				</g>
				<g>
					<path class="st5" d="M29.67,18.11c0-3.56,2.89-6.45,6.45-6.45c3.56,0,6.46,2.89,6.46,6.45c0,3.56-2.89,6.45-6.46,6.45
						C32.56,24.56,29.68,21.67,29.67,18.11z"/>
					<path class="st3" d="M29.39,17.82c0-3.56,2.89-6.45,6.45-6.45c3.56,0,6.46,2.89,6.46,6.45c0,3.57-2.89,6.45-6.46,6.45
						C32.28,24.28,29.39,21.39,29.39,17.82z"/>
					<path class="st4" d="M30.01,18.25c0-3.46,2.8-6.26,6.26-6.26c3.46,0,6.26,2.81,6.26,6.26c0,3.46-2.81,6.26-6.26,6.26
						C32.81,24.51,30.01,21.71,30.01,18.25z"/>
					<path class="st6" d="M29.39,17.82c0-3.56,2.89-6.45,6.45-6.45c3.56,0,6.46,2.89,6.46,6.45c0,3.57-2.89,6.45-6.46,6.45
						C32.28,24.28,29.39,21.39,29.39,17.82z"/>
				</g>
				<g>
					<g>
						<path class="st3" d="M34.49,14.04c0.65-0.9,1.55-0.22,1.55-0.22c0.04,0.02,0.06,0.05,0.09,0.08c0.03-0.03,0.05-0.06,0.09-0.08
							c0,0,0.89-0.68,1.55,0.22c0.65,0.91-0.04,2.01-0.61,2.41c-0.32,0.23-0.59,0.48-0.94,0.52c-0.03,0.01-0.06,0.01-0.09,0.01
							c-0.03,0-0.06-0.01-0.09-0.01c-0.36-0.04-0.63-0.29-0.95-0.51C34.52,16.05,33.84,14.95,34.49,14.04z"/>
						<path class="st3" d="M31.77,18.4c-0.66-0.9,0.27-1.54,0.27-1.54c0.03-0.03,0.07-0.04,0.1-0.06c-0.01-0.04-0.04-0.07-0.05-0.11
							c0,0-0.37-1.06,0.69-1.4c1.06-0.34,1.9,0.66,2.11,1.33c0.11,0.37,0.27,0.71,0.2,1.05c0,0.03-0.01,0.06-0.02,0.09
							c-0.01,0.03-0.02,0.05-0.04,0.08c-0.15,0.32-0.47,0.5-0.78,0.74C33.69,18.98,32.43,19.3,31.77,18.4z"/>
						<path class="st3" d="M35.08,22.33c-1.06,0.35-1.38-0.73-1.38-0.73c-0.02-0.04-0.02-0.08-0.03-0.12
							c-0.04,0-0.08,0.02-0.12,0.01c0,0-1.12,0.03-1.12-1.09c0-1.12,1.21-1.6,1.91-1.6c0.39,0.01,0.75-0.04,1.06,0.14
							c0.03,0.01,0.05,0.02,0.08,0.04c0.03,0.02,0.05,0.04,0.07,0.06c0.26,0.24,0.34,0.6,0.46,0.97
							C36.23,20.68,36.14,21.98,35.08,22.33z"/>
						<path class="st3" d="M39.83,20.4c0,1.12-1.12,1.09-1.12,1.09c-0.04,0-0.08-0.01-0.12-0.01c-0.01,0.04-0.01,0.08-0.03,0.12
							c0,0-0.32,1.07-1.38,0.73c-1.06-0.35-1.15-1.65-0.92-2.31c0.12-0.37,0.2-0.73,0.46-0.97c0.02-0.02,0.04-0.04,0.06-0.06
							c0.03-0.02,0.05-0.03,0.08-0.04c0.31-0.18,0.67-0.13,1.07-0.14C38.62,18.79,39.83,19.28,39.83,20.4z"/>
						<path class="st3" d="M39.47,15.28c1.06,0.34,0.69,1.4,0.69,1.4c-0.01,0.04-0.03,0.07-0.05,0.11c0.04,0.02,0.07,0.04,0.11,0.07
							c0,0,0.92,0.64,0.26,1.54c-0.66,0.9-1.92,0.58-2.48,0.17c-0.31-0.24-0.63-0.42-0.78-0.74c-0.02-0.03-0.03-0.05-0.04-0.08
							c-0.01-0.03-0.01-0.06-0.02-0.09c-0.07-0.35,0.08-0.68,0.2-1.06C37.57,15.93,38.41,14.93,39.47,15.28z"/>
					</g>
					<g>
						
							<linearGradient id="SVGID_2_" gradientUnits="userSpaceOnUse" x1="-485.5559" y1="10.9308" x2="-481.7471" y2="10.9308" gradientTransform="matrix(-1 0 0 1 -447.8076 4.0605)">
							<stop  offset="0" style="stop-color:#F7F7F0"/>
							<stop  offset="0.6031" style="stop-color:#FFFFFF"/>
							<stop  offset="1" style="stop-color:#FFFFFF"/>
						</linearGradient>
						<path class="st7" d="M34.2,13.76c0.65-0.9,1.55-0.22,1.55-0.22c0.04,0.02,0.06,0.05,0.09,0.08c0.03-0.03,0.05-0.06,0.09-0.08
							c0,0,0.89-0.68,1.55,0.22c0.65,0.91-0.04,2.01-0.61,2.41c-0.32,0.23-0.59,0.48-0.94,0.52c-0.03,0-0.06,0.01-0.09,0.01
							c-0.03,0-0.06-0.01-0.09-0.01c-0.36-0.04-0.63-0.29-0.95-0.51C34.24,15.77,33.55,14.66,34.2,13.76z"/>
						
							<linearGradient id="SVGID_3_" gradientUnits="userSpaceOnUse" x1="-507.0631" y1="412.5174" x2="-503.2536" y2="412.5174" gradientTransform="matrix(-0.309 0.9511 0.9511 0.309 -515.2704 369.9239)">
							<stop  offset="0" style="stop-color:#F7F7F0"/>
							<stop  offset="0.6031" style="stop-color:#FFFFFF"/>
							<stop  offset="1" style="stop-color:#FFFFFF"/>
						</linearGradient>
						<path class="st8" d="M31.49,18.11c-0.66-0.9,0.27-1.54,0.27-1.54c0.03-0.03,0.07-0.04,0.1-0.06
							c-0.01-0.04-0.04-0.07-0.05-0.11c0,0-0.37-1.06,0.69-1.4c1.06-0.34,1.9,0.66,2.11,1.33c0.11,0.37,0.27,0.71,0.2,1.05
							c0,0.03-0.01,0.06-0.02,0.09c-0.01,0.03-0.02,0.05-0.04,0.08c-0.15,0.32-0.47,0.5-0.78,0.74
							C33.41,18.7,32.15,19.01,31.49,18.11z"/>
						
							<linearGradient id="SVGID_4_" gradientUnits="userSpaceOnUse" x1="-131.3896" y1="557.971" x2="-127.5801" y2="557.971" gradientTransform="matrix(0.809 0.5878 0.5878 -0.809 -189.0307 547.5911)">
							<stop  offset="0" style="stop-color:#F7F7F0"/>
							<stop  offset="0.6031" style="stop-color:#FFFFFF"/>
							<stop  offset="1" style="stop-color:#FFFFFF"/>
						</linearGradient>
						<path class="st9" d="M34.79,22.04c-1.06,0.35-1.38-0.73-1.38-0.73c-0.02-0.04-0.02-0.08-0.03-0.12
							c-0.04,0-0.08,0.02-0.12,0.01c0,0-1.12,0.03-1.12-1.09c0-1.12,1.21-1.6,1.91-1.6c0.39,0.01,0.75-0.04,1.06,0.14
							c0.03,0.01,0.05,0.02,0.08,0.04c0.03,0.02,0.05,0.04,0.07,0.06c0.26,0.24,0.34,0.6,0.46,0.97
							C35.94,20.39,35.85,21.69,34.79,22.04z"/>
						
							<linearGradient id="SVGID_5_" gradientUnits="userSpaceOnUse" x1="122.7325" y1="244.9166" x2="126.5401" y2="244.9166" gradientTransform="matrix(0.809 -0.5878 -0.5878 -0.809 80.6303 291.4781)">
							<stop  offset="0" style="stop-color:#F7F7F0"/>
							<stop  offset="0.6031" style="stop-color:#FFFFFF"/>
							<stop  offset="1" style="stop-color:#FFFFFF"/>
						</linearGradient>
						<path class="st10" d="M39.55,20.11c0,1.12-1.12,1.09-1.12,1.09c-0.04,0-0.08-0.01-0.12-0.01c-0.01,0.04-0.01,0.08-0.03,0.12
							c0,0-0.32,1.07-1.38,0.73c-1.06-0.35-1.15-1.65-0.92-2.31c0.12-0.37,0.2-0.73,0.46-0.97c0.02-0.02,0.04-0.04,0.06-0.06
							c0.03-0.02,0.05-0.03,0.08-0.04c0.31-0.18,0.67-0.13,1.07-0.14C38.34,18.51,39.55,19,39.55,20.11z"/>
						
							<linearGradient id="SVGID_6_" gradientUnits="userSpaceOnUse" x1="-97.0024" y1="-92.9484" x2="-93.1943" y2="-92.9484" gradientTransform="matrix(-0.309 -0.9511 -0.9511 0.309 -79.2696 -44.794)">
							<stop  offset="0" style="stop-color:#F7F7F0"/>
							<stop  offset="0.6031" style="stop-color:#FFFFFF"/>
							<stop  offset="1" style="stop-color:#FFFFFF"/>
						</linearGradient>
						<path class="st11" d="M39.19,14.99c1.06,0.34,0.69,1.4,0.69,1.4c-0.01,0.04-0.03,0.07-0.05,0.11
							c0.04,0.02,0.07,0.04,0.11,0.07c0,0,0.92,0.64,0.26,1.54c-0.66,0.9-1.92,0.59-2.48,0.17c-0.31-0.24-0.63-0.42-0.78-0.74
							c-0.02-0.03-0.03-0.05-0.04-0.08c-0.01-0.03-0.01-0.06-0.02-0.09c-0.07-0.35,0.08-0.68,0.2-1.06
							C37.28,15.65,38.12,14.65,39.19,14.99z"/>
					</g>
				</g>
				<g>
					<path class="st12" d="M37.94,17.82c0,1.16-0.94,2.1-2.09,2.1c-1.16,0-2.1-0.94-2.1-2.1c0-1.16,0.94-2.1,2.1-2.1
						C37,15.72,37.94,16.67,37.94,17.82z"/>
					<path class="st13" d="M37.6,18.11c0,0.81-0.66,1.47-1.46,1.47c-0.81,0-1.47-0.66-1.47-1.47c0-0.81,0.66-1.47,1.47-1.47
						C36.94,16.64,37.6,17.3,37.6,18.11z"/>
					<path class="st6" d="M37.94,17.82c0,1.16-0.94,2.1-2.09,2.1c-1.16,0-2.1-0.94-2.1-2.1c0-1.16,0.94-2.1,2.1-2.1
						C37,15.72,37.94,16.67,37.94,17.82z"/>
				</g>
			</g>
			<g>
				<g>
					<path class="st3" d="M27.22,17.82c0,4.53-3.67,8.2-8.21,8.2c-4.53,0-8.2-3.67-8.2-8.2c0-4.53,3.67-8.2,8.2-8.2
						C23.54,9.62,27.22,13.29,27.22,17.82z"/>
					<path class="st4" d="M27.01,18.02c0,4.31-3.49,7.79-7.79,7.79c-4.3,0-7.79-3.49-7.79-7.79c0-4.3,3.49-7.79,7.79-7.79
						C23.52,10.23,27.01,13.72,27.01,18.02z"/>
				</g>
				<g>
					<path class="st5" d="M12.84,18.11c0-3.56,2.89-6.45,6.45-6.45c3.56,0,6.46,2.89,6.46,6.45c0,3.56-2.89,6.45-6.46,6.45
						C15.73,24.56,12.84,21.67,12.84,18.11z"/>
					<path class="st3" d="M12.56,17.82c0-3.56,2.89-6.45,6.45-6.45c3.56,0,6.46,2.89,6.46,6.45c0,3.57-2.89,6.45-6.46,6.45
						C15.45,24.28,12.56,21.39,12.56,17.82z"/>
					<path class="st4" d="M13.18,18.25c0-3.46,2.8-6.26,6.26-6.26c3.46,0,6.26,2.81,6.26,6.26c0,3.46-2.81,6.26-6.27,6.26
						C15.98,24.51,13.18,21.71,13.18,18.25z"/>
					<path class="st6" d="M12.56,17.82c0-3.56,2.89-6.45,6.45-6.45c3.56,0,6.46,2.89,6.46,6.45c0,3.57-2.89,6.45-6.46,6.45
						C15.45,24.28,12.56,21.39,12.56,17.82z"/>
				</g>
				<g>
					<g>
						<path class="st3" d="M17.66,14.04c0.65-0.9,1.54-0.22,1.54-0.22c0.04,0.02,0.06,0.05,0.09,0.08c0.03-0.03,0.06-0.06,0.1-0.08
							c0,0,0.89-0.68,1.54,0.22c0.65,0.91-0.04,2.01-0.61,2.41c-0.32,0.23-0.59,0.48-0.95,0.52c-0.03,0.01-0.06,0.01-0.09,0.01
							c-0.03,0-0.06-0.01-0.09-0.01c-0.36-0.04-0.62-0.29-0.95-0.51C17.69,16.05,17.01,14.95,17.66,14.04z"/>
						<path class="st3" d="M14.94,18.4c-0.66-0.9,0.27-1.54,0.27-1.54c0.04-0.03,0.07-0.04,0.11-0.06
							c-0.01-0.04-0.04-0.07-0.05-0.11c0,0-0.37-1.06,0.69-1.4c1.06-0.34,1.9,0.66,2.1,1.33c0.12,0.37,0.27,0.71,0.2,1.05
							c0,0.03-0.01,0.06-0.02,0.09c-0.01,0.03-0.03,0.05-0.04,0.08c-0.15,0.32-0.47,0.5-0.78,0.74C16.86,18.98,15.6,19.3,14.94,18.4
							z"/>
						<path class="st3" d="M18.25,22.33c-1.06,0.35-1.38-0.73-1.38-0.73c-0.02-0.04-0.02-0.08-0.03-0.12
							c-0.04,0-0.08,0.02-0.12,0.01c0,0-1.12,0.03-1.12-1.09c0-1.12,1.21-1.6,1.91-1.6c0.39,0.01,0.76-0.04,1.07,0.14
							c0.03,0.01,0.05,0.02,0.08,0.04c0.03,0.02,0.04,0.04,0.07,0.06c0.26,0.24,0.34,0.6,0.46,0.97
							C19.4,20.68,19.31,21.98,18.25,22.33z"/>
						<path class="st3" d="M23,20.4c0.01,1.12-1.12,1.09-1.12,1.09c-0.04,0-0.08-0.01-0.12-0.01c-0.01,0.04-0.01,0.08-0.03,0.12
							c0,0-0.32,1.07-1.38,0.73c-1.06-0.35-1.15-1.65-0.93-2.31c0.12-0.37,0.2-0.73,0.46-0.97c0.02-0.02,0.04-0.04,0.06-0.06
							c0.03-0.02,0.05-0.03,0.08-0.04c0.31-0.18,0.67-0.13,1.07-0.14C21.79,18.79,23,19.28,23,20.4z"/>
						<path class="st3" d="M22.64,15.28c1.06,0.34,0.69,1.4,0.69,1.4c-0.01,0.04-0.03,0.07-0.05,0.11c0.04,0.02,0.07,0.04,0.11,0.07
							c0,0,0.92,0.64,0.26,1.54c-0.66,0.9-1.92,0.58-2.48,0.17c-0.31-0.24-0.63-0.42-0.78-0.74c-0.02-0.03-0.03-0.05-0.04-0.08
							c-0.01-0.03-0.01-0.06-0.02-0.09c-0.07-0.35,0.08-0.68,0.2-1.06C20.74,15.93,21.58,14.93,22.64,15.28z"/>
					</g>
					<g>
						
							<linearGradient id="SVGID_7_" gradientUnits="userSpaceOnUse" x1="-468.7243" y1="10.9308" x2="-464.9169" y2="10.9308" gradientTransform="matrix(-1 0 0 1 -447.8076 4.0605)">
							<stop  offset="0" style="stop-color:#F7F7F0"/>
							<stop  offset="0.6031" style="stop-color:#FFFFFF"/>
							<stop  offset="1" style="stop-color:#FFFFFF"/>
						</linearGradient>
						<path class="st14" d="M17.37,13.76c0.65-0.9,1.54-0.22,1.54-0.22c0.04,0.02,0.06,0.05,0.09,0.08c0.03-0.03,0.06-0.06,0.1-0.08
							c0,0,0.89-0.68,1.54,0.22c0.65,0.91-0.04,2.01-0.61,2.41c-0.32,0.23-0.59,0.48-0.95,0.52c-0.03,0-0.06,0.01-0.09,0.01
							c-0.03,0-0.06-0.01-0.09-0.01c-0.36-0.04-0.62-0.29-0.95-0.51C17.41,15.77,16.72,14.66,17.37,13.76z"/>
						
							<linearGradient id="SVGID_8_" gradientUnits="userSpaceOnUse" x1="-501.8629" y1="396.5107" x2="-498.0533" y2="396.5107" gradientTransform="matrix(-0.309 0.9511 0.9511 0.309 -515.2704 369.9239)">
							<stop  offset="0" style="stop-color:#F7F7F0"/>
							<stop  offset="0.6031" style="stop-color:#FFFFFF"/>
							<stop  offset="1" style="stop-color:#FFFFFF"/>
						</linearGradient>
						<path class="st15" d="M14.66,18.11c-0.66-0.9,0.27-1.54,0.27-1.54c0.04-0.03,0.07-0.04,0.11-0.06
							c-0.01-0.04-0.04-0.07-0.05-0.11c0,0-0.37-1.06,0.69-1.4c1.06-0.34,1.9,0.66,2.1,1.33c0.12,0.37,0.27,0.71,0.2,1.05
							c0,0.03-0.01,0.06-0.02,0.09c-0.01,0.03-0.03,0.05-0.04,0.08c-0.15,0.32-0.47,0.5-0.78,0.74
							C16.58,18.7,15.32,19.01,14.66,18.11z"/>
						
							<linearGradient id="SVGID_9_" gradientUnits="userSpaceOnUse" x1="-145.0053" y1="548.0778" x2="-141.1958" y2="548.0778" gradientTransform="matrix(0.809 0.5878 0.5878 -0.809 -189.0307 547.5911)">
							<stop  offset="0" style="stop-color:#F7F7F0"/>
							<stop  offset="0.6031" style="stop-color:#FFFFFF"/>
							<stop  offset="1" style="stop-color:#FFFFFF"/>
						</linearGradient>
						<path class="st16" d="M17.96,22.04c-1.06,0.35-1.38-0.73-1.38-0.73c-0.02-0.04-0.02-0.08-0.03-0.12
							c-0.04,0-0.08,0.02-0.12,0.01c0,0-1.12,0.03-1.12-1.09c0-1.12,1.21-1.6,1.91-1.6c0.39,0.01,0.76-0.04,1.07,0.14
							c0.03,0.01,0.05,0.02,0.08,0.04c0.03,0.02,0.04,0.04,0.07,0.06c0.26,0.24,0.34,0.6,0.46,0.97
							C19.11,20.39,19.02,21.69,17.96,22.04z"/>
						
							<linearGradient id="SVGID_10_" gradientUnits="userSpaceOnUse" x1="109.1158" y1="254.8098" x2="112.9239" y2="254.8098" gradientTransform="matrix(0.809 -0.5878 -0.5878 -0.809 80.6303 291.4781)">
							<stop  offset="0" style="stop-color:#F7F7F0"/>
							<stop  offset="0.6031" style="stop-color:#FFFFFF"/>
							<stop  offset="1" style="stop-color:#FFFFFF"/>
						</linearGradient>
						<path class="st17" d="M22.72,20.11c0.01,1.12-1.12,1.09-1.12,1.09c-0.04,0-0.08-0.01-0.12-0.01
							c-0.01,0.04-0.01,0.08-0.03,0.12c0,0-0.32,1.07-1.38,0.73c-1.06-0.35-1.15-1.65-0.93-2.31c0.12-0.37,0.2-0.73,0.46-0.97
							c0.02-0.02,0.04-0.04,0.06-0.06c0.03-0.02,0.05-0.03,0.08-0.04c0.31-0.18,0.67-0.13,1.07-0.14
							C21.51,18.51,22.72,19,22.72,20.11z"/>
						
							<linearGradient id="SVGID_11_" gradientUnits="userSpaceOnUse" x1="-91.8017" y1="-76.9415" x2="-87.9939" y2="-76.9415" gradientTransform="matrix(-0.309 -0.9511 -0.9511 0.309 -79.2696 -44.794)">
							<stop  offset="0" style="stop-color:#F7F7F0"/>
							<stop  offset="0.6031" style="stop-color:#FFFFFF"/>
							<stop  offset="1" style="stop-color:#FFFFFF"/>
						</linearGradient>
						<path class="st18" d="M22.35,14.99c1.06,0.34,0.69,1.4,0.69,1.4c-0.01,0.04-0.03,0.07-0.05,0.11
							c0.04,0.02,0.07,0.04,0.11,0.07c0,0,0.92,0.64,0.26,1.54c-0.66,0.9-1.92,0.59-2.48,0.17c-0.31-0.24-0.63-0.42-0.78-0.74
							c-0.02-0.03-0.03-0.05-0.04-0.08c-0.01-0.03-0.01-0.06-0.02-0.09c-0.07-0.35,0.08-0.68,0.2-1.06
							C20.45,15.65,21.29,14.65,22.35,14.99z"/>
					</g>
				</g>
				<g>
					<path class="st12" d="M21.11,17.82c0,1.16-0.94,2.1-2.09,2.1c-1.16,0-2.1-0.94-2.1-2.1c0-1.16,0.94-2.1,2.1-2.1
						C20.17,15.72,21.11,16.67,21.11,17.82z"/>
					<path class="st13" d="M20.76,18.11c0,0.81-0.66,1.47-1.46,1.47c-0.81,0-1.47-0.66-1.47-1.47c0-0.81,0.66-1.47,1.47-1.47
						C20.11,16.64,20.77,17.3,20.76,18.11z"/>
					<path class="st6" d="M21.11,17.82c0,1.16-0.94,2.1-2.09,2.1c-1.16,0-2.1-0.94-2.1-2.1c0-1.16,0.94-2.1,2.1-2.1
						C20.17,15.72,21.11,16.67,21.11,17.82z"/>
				</g>
			</g>
		</g>
		<g>
			<g>
				<g>
					<g>
						<path class="st3" d="M44.05,60.42c0,4.53-3.67,8.21-8.21,8.21c-4.53,0-8.2-3.67-8.2-8.21c0-4.53,3.67-8.2,8.2-8.2
							C40.37,52.22,44.05,55.89,44.05,60.42z"/>
						<path class="st4" d="M43.84,60.62c0,4.31-3.49,7.79-7.79,7.79c-4.3,0-7.79-3.49-7.79-7.79c0-4.3,3.49-7.79,7.79-7.79
							C40.35,52.82,43.84,56.31,43.84,60.62z"/>
					</g>
					<g>
						<path class="st5" d="M29.67,60.7c0-3.56,2.89-6.46,6.45-6.46c3.56,0,6.46,2.89,6.46,6.45c0,3.57-2.89,6.45-6.46,6.45
							C32.56,67.16,29.67,64.27,29.67,60.7z"/>
						<path class="st12" d="M29.39,60.42c0-3.56,2.89-6.46,6.45-6.46c3.56,0,6.46,2.89,6.46,6.45c0,3.56-2.89,6.45-6.46,6.45
							C32.28,66.87,29.39,63.98,29.39,60.42z"/>
						<path class="st13" d="M30.01,60.85c0-3.46,2.8-6.26,6.26-6.26c3.46,0,6.26,2.81,6.26,6.26c0,3.46-2.81,6.26-6.27,6.26
							C32.81,67.1,30.01,64.3,30.01,60.85z"/>
						<path class="st6" d="M29.39,60.42c0-3.56,2.89-6.46,6.45-6.46c3.56,0,6.46,2.89,6.46,6.45c0,3.56-2.89,6.45-6.46,6.45
							C32.28,66.87,29.39,63.98,29.39,60.42z"/>
					</g>
					<g>
						<g>
							<path class="st3" d="M34.49,56.64c0.65-0.9,1.54-0.22,1.54-0.22c0.04,0.02,0.06,0.05,0.09,0.08c0.03-0.03,0.06-0.06,0.1-0.08
								c0,0,0.89-0.68,1.54,0.22c0.65,0.91-0.04,2.01-0.61,2.41c-0.32,0.23-0.59,0.47-0.95,0.51c-0.03,0.01-0.06,0.01-0.09,0.01
								c-0.03,0-0.06-0.01-0.09-0.01c-0.36-0.04-0.62-0.29-0.95-0.51C34.52,58.65,33.84,57.54,34.49,56.64z"/>
							<path class="st3" d="M31.77,60.99c-0.66-0.9,0.27-1.54,0.27-1.54c0.04-0.03,0.07-0.04,0.11-0.06
								c-0.01-0.04-0.04-0.07-0.05-0.11c0,0-0.37-1.06,0.69-1.4c1.06-0.34,1.9,0.66,2.1,1.33c0.12,0.37,0.27,0.71,0.2,1.05
								c0,0.03-0.01,0.06-0.02,0.09c-0.01,0.03-0.03,0.05-0.04,0.08c-0.15,0.32-0.47,0.5-0.78,0.74
								C33.69,61.58,32.43,61.89,31.77,60.99z"/>
							<path class="st3" d="M35.08,64.92c-1.06,0.35-1.38-0.73-1.38-0.73c-0.02-0.04-0.02-0.08-0.03-0.12
								c-0.04,0-0.08,0.01-0.12,0.01c0,0-1.12,0.02-1.12-1.09c0-1.11,1.21-1.6,1.91-1.59c0.39,0.01,0.76-0.04,1.07,0.14
								c0.03,0.01,0.05,0.02,0.08,0.05c0.03,0.02,0.04,0.04,0.07,0.06c0.26,0.24,0.34,0.6,0.46,0.97
								C36.23,63.27,36.14,64.57,35.08,64.92z"/>
							<path class="st3" d="M39.83,62.99c0.01,1.12-1.12,1.09-1.12,1.09c-0.04,0-0.08-0.01-0.12-0.01
								c-0.01,0.04-0.01,0.08-0.03,0.12c0,0-0.32,1.07-1.38,0.73c-1.06-0.35-1.15-1.65-0.93-2.31c0.12-0.37,0.2-0.73,0.46-0.97
								c0.02-0.03,0.04-0.04,0.06-0.06c0.03-0.02,0.05-0.03,0.08-0.04c0.31-0.18,0.67-0.13,1.07-0.14
								C38.62,61.39,39.83,61.88,39.83,62.99z"/>
							<path class="st3" d="M39.47,57.87c1.06,0.34,0.69,1.4,0.69,1.4c-0.01,0.04-0.03,0.07-0.05,0.11
								c0.04,0.02,0.07,0.04,0.11,0.06c0,0,0.92,0.64,0.26,1.54c-0.66,0.9-1.92,0.59-2.48,0.17c-0.31-0.24-0.63-0.42-0.78-0.74
								c-0.02-0.03-0.03-0.05-0.04-0.08c-0.01-0.03-0.01-0.06-0.02-0.09c-0.07-0.35,0.08-0.68,0.2-1.06
								C37.57,58.53,38.41,57.53,39.47,57.87z"/>
						</g>
						<g>
							
								<linearGradient id="SVGID_12_" gradientUnits="userSpaceOnUse" x1="-485.5544" y1="53.5281" x2="-481.747" y2="53.5281" gradientTransform="matrix(-1 0 0 1 -447.8076 4.0605)">
								<stop  offset="0" style="stop-color:#F7F7F0"/>
								<stop  offset="0.6031" style="stop-color:#FFFFFF"/>
								<stop  offset="1" style="stop-color:#FFFFFF"/>
							</linearGradient>
							<path class="st19" d="M34.2,56.35c0.65-0.9,1.54-0.22,1.54-0.22c0.04,0.02,0.06,0.05,0.09,0.08c0.03-0.03,0.06-0.06,0.1-0.08
								c0,0,0.89-0.68,1.54,0.22c0.65,0.91-0.04,2.01-0.61,2.41c-0.32,0.22-0.59,0.47-0.95,0.51c-0.03,0.01-0.06,0.01-0.09,0.01
								c-0.03,0-0.06-0.01-0.09-0.01c-0.36-0.04-0.62-0.29-0.95-0.51C34.24,58.36,33.55,57.26,34.2,56.35z"/>
							
								<linearGradient id="SVGID_13_" gradientUnits="userSpaceOnUse" x1="-466.5516" y1="425.678" x2="-462.7432" y2="425.678" gradientTransform="matrix(-0.309 0.9511 0.9511 0.309 -515.2704 369.9239)">
								<stop  offset="0" style="stop-color:#F7F7F0"/>
								<stop  offset="0.6031" style="stop-color:#FFFFFF"/>
								<stop  offset="1" style="stop-color:#FFFFFF"/>
							</linearGradient>
							<path class="st20" d="M31.49,60.71c-0.66-0.9,0.27-1.54,0.27-1.54c0.04-0.03,0.07-0.04,0.11-0.06
								c-0.01-0.04-0.04-0.07-0.05-0.12c0,0-0.37-1.06,0.69-1.4c1.06-0.34,1.9,0.66,2.1,1.32c0.12,0.37,0.27,0.71,0.2,1.05
								c0,0.03-0.01,0.06-0.02,0.09c-0.01,0.03-0.03,0.05-0.04,0.08c-0.15,0.32-0.47,0.5-0.78,0.74
								C33.41,61.3,32.15,61.61,31.49,60.71z"/>
							
								<linearGradient id="SVGID_14_" gradientUnits="userSpaceOnUse" x1="-106.3511" y1="523.5094" x2="-102.542" y2="523.5094" gradientTransform="matrix(0.809 0.5878 0.5878 -0.809 -189.0307 547.5911)">
								<stop  offset="0" style="stop-color:#F7F7F0"/>
								<stop  offset="0.6031" style="stop-color:#FFFFFF"/>
								<stop  offset="1" style="stop-color:#FFFFFF"/>
							</linearGradient>
							<path class="st21" d="M34.79,64.64c-1.06,0.35-1.38-0.73-1.38-0.73c-0.02-0.04-0.02-0.08-0.03-0.12
								c-0.04,0-0.08,0.01-0.12,0.01c0,0-1.12,0.02-1.12-1.09c0-1.11,1.21-1.6,1.91-1.59c0.39,0.01,0.76-0.04,1.07,0.14
								c0.03,0.01,0.05,0.03,0.08,0.05c0.03,0.02,0.04,0.04,0.07,0.06c0.26,0.24,0.34,0.6,0.46,0.97
								C35.94,62.99,35.85,64.29,34.79,64.64z"/>
							
								<linearGradient id="SVGID_15_" gradientUnits="userSpaceOnUse" x1="97.6923" y1="210.4563" x2="101.501" y2="210.4563" gradientTransform="matrix(0.809 -0.5878 -0.5878 -0.809 80.6303 291.4781)">
								<stop  offset="0" style="stop-color:#F7F7F0"/>
								<stop  offset="0.6031" style="stop-color:#FFFFFF"/>
								<stop  offset="1" style="stop-color:#FFFFFF"/>
							</linearGradient>
							<path class="st22" d="M39.55,62.71c0.01,1.12-1.12,1.09-1.12,1.09c-0.04,0-0.08-0.01-0.12-0.01
								c-0.01,0.04-0.01,0.08-0.03,0.12c0,0-0.32,1.07-1.38,0.73c-1.06-0.35-1.15-1.65-0.93-2.31c0.12-0.37,0.2-0.73,0.46-0.97
								c0.02-0.03,0.04-0.04,0.06-0.06c0.03-0.02,0.05-0.03,0.08-0.04c0.31-0.18,0.67-0.13,1.07-0.14
								C38.34,61.1,39.55,61.6,39.55,62.71z"/>
							
								<linearGradient id="SVGID_16_" gradientUnits="userSpaceOnUse" x1="-137.5127" y1="-79.7862" x2="-133.7055" y2="-79.7862" gradientTransform="matrix(-0.309 -0.9511 -0.9511 0.309 -79.2696 -44.794)">
								<stop  offset="0" style="stop-color:#F7F7F0"/>
								<stop  offset="0.6031" style="stop-color:#FFFFFF"/>
								<stop  offset="1" style="stop-color:#FFFFFF"/>
							</linearGradient>
							<path class="st23" d="M39.18,57.59c1.06,0.34,0.69,1.4,0.69,1.4c-0.01,0.04-0.03,0.07-0.05,0.11
								c0.04,0.02,0.07,0.04,0.11,0.06c0,0,0.92,0.64,0.26,1.54c-0.66,0.9-1.92,0.59-2.48,0.17c-0.31-0.24-0.63-0.42-0.78-0.74
								c-0.02-0.03-0.03-0.05-0.04-0.08c-0.01-0.03-0.01-0.06-0.02-0.09c-0.07-0.35,0.08-0.68,0.2-1.06
								C37.28,58.24,38.12,57.25,39.18,57.59z"/>
						</g>
					</g>
					<g>
						<path class="st12" d="M37.94,60.42c0,1.16-0.94,2.1-2.09,2.1c-1.16,0-2.1-0.94-2.1-2.1c0-1.16,0.94-2.1,2.1-2.1
							C37,58.32,37.94,59.26,37.94,60.42z"/>
						<path class="st13" d="M37.59,60.7c0,0.81-0.66,1.47-1.46,1.47c-0.81,0-1.47-0.66-1.47-1.47c0-0.81,0.66-1.47,1.47-1.47
							C36.94,59.23,37.6,59.89,37.59,60.7z"/>
						<path class="st6" d="M37.94,60.42c0,1.16-0.94,2.1-2.09,2.1c-1.16,0-2.1-0.94-2.1-2.1c0-1.16,0.94-2.1,2.1-2.1
							C37,58.32,37.94,59.26,37.94,60.42z"/>
					</g>
				</g>
				<g>
					<g>
						<path class="st3" d="M27.22,60.42c0,4.53-3.67,8.21-8.21,8.21c-4.53,0-8.2-3.67-8.2-8.21c0-4.53,3.67-8.2,8.2-8.2
							C23.54,52.22,27.22,55.89,27.22,60.42z"/>
						<path class="st4" d="M27.01,60.62c0,4.31-3.49,7.79-7.79,7.79c-4.3,0-7.79-3.49-7.79-7.79c0-4.3,3.49-7.79,7.79-7.79
							C23.52,52.82,27.01,56.31,27.01,60.62z"/>
					</g>
					<g>
						<path class="st5" d="M12.84,60.7c0-3.56,2.89-6.46,6.45-6.46c3.56,0,6.46,2.89,6.46,6.45c0,3.57-2.89,6.45-6.46,6.45
							C15.73,67.16,12.84,64.27,12.84,60.7z"/>
						<path class="st12" d="M12.56,60.42c0-3.56,2.89-6.46,6.45-6.46c3.56,0,6.46,2.89,6.46,6.45c0,3.56-2.89,6.45-6.46,6.45
							C15.45,66.87,12.56,63.98,12.56,60.42z"/>
						<path class="st13" d="M13.18,60.85c0-3.46,2.8-6.26,6.26-6.26c3.46,0,6.26,2.81,6.26,6.26c0,3.46-2.81,6.26-6.26,6.26
							C15.98,67.1,13.18,64.3,13.18,60.85z"/>
						<path class="st6" d="M12.56,60.42c0-3.56,2.89-6.46,6.45-6.46c3.56,0,6.46,2.89,6.46,6.45c0,3.56-2.89,6.45-6.46,6.45
							C15.45,66.87,12.56,63.98,12.56,60.42z"/>
					</g>
					<g>
						<g>
							<path class="st3" d="M17.66,56.64c0.65-0.9,1.55-0.22,1.55-0.22c0.04,0.02,0.06,0.05,0.09,0.08
								c0.03-0.03,0.05-0.06,0.09-0.08c0,0,0.89-0.68,1.55,0.22c0.65,0.91-0.04,2.01-0.61,2.41c-0.32,0.23-0.59,0.47-0.95,0.51
								c-0.03,0.01-0.06,0.01-0.09,0.01c-0.03,0-0.06-0.01-0.09-0.01c-0.36-0.04-0.62-0.29-0.95-0.51
								C17.69,58.65,17,57.54,17.66,56.64z"/>
							<path class="st3" d="M14.94,60.99c-0.66-0.9,0.27-1.54,0.27-1.54c0.03-0.03,0.07-0.04,0.1-0.06
								c-0.01-0.04-0.04-0.07-0.05-0.11c0,0-0.37-1.06,0.69-1.4c1.06-0.34,1.9,0.66,2.11,1.33c0.12,0.37,0.27,0.71,0.2,1.05
								c0,0.03-0.01,0.06-0.02,0.09c-0.01,0.03-0.02,0.05-0.04,0.08c-0.15,0.32-0.47,0.5-0.78,0.74
								C16.86,61.58,15.6,61.89,14.94,60.99z"/>
							<path class="st3" d="M18.25,64.92c-1.06,0.35-1.38-0.73-1.38-0.73c-0.02-0.04-0.02-0.08-0.03-0.12
								c-0.04,0-0.08,0.01-0.12,0.01c0,0-1.12,0.02-1.12-1.09c0.01-1.11,1.21-1.6,1.91-1.59c0.39,0.01,0.75-0.04,1.06,0.14
								c0.03,0.01,0.05,0.02,0.08,0.05c0.03,0.02,0.05,0.04,0.07,0.06c0.26,0.24,0.34,0.6,0.46,0.97
								C19.4,63.27,19.31,64.57,18.25,64.92z"/>
							<path class="st3" d="M23,62.99c0,1.12-1.12,1.09-1.12,1.09c-0.04,0-0.08-0.01-0.12-0.01c-0.01,0.04-0.01,0.08-0.03,0.12
								c0,0-0.32,1.07-1.38,0.73c-1.06-0.35-1.15-1.65-0.92-2.31c0.12-0.37,0.2-0.73,0.46-0.97c0.02-0.03,0.04-0.04,0.06-0.06
								c0.03-0.02,0.05-0.03,0.08-0.04c0.31-0.18,0.67-0.13,1.07-0.14C21.79,61.39,23,61.88,23,62.99z"/>
							<path class="st3" d="M22.64,57.87c1.06,0.34,0.69,1.4,0.69,1.4c-0.01,0.04-0.03,0.07-0.05,0.11
								c0.04,0.02,0.07,0.04,0.11,0.06c0,0,0.92,0.64,0.26,1.54c-0.66,0.9-1.92,0.59-2.48,0.17c-0.31-0.24-0.63-0.42-0.78-0.74
								c-0.02-0.03-0.03-0.05-0.04-0.08c-0.01-0.03-0.01-0.06-0.02-0.09c-0.07-0.35,0.08-0.68,0.2-1.06
								C20.74,58.53,21.57,57.53,22.64,57.87z"/>
						</g>
						<g>
							
								<linearGradient id="SVGID_17_" gradientUnits="userSpaceOnUse" x1="-468.724" y1="53.5281" x2="-464.915" y2="53.5281" gradientTransform="matrix(-1 0 0 1 -447.8076 4.0605)">
								<stop  offset="0" style="stop-color:#F7F7F0"/>
								<stop  offset="0.6031" style="stop-color:#FFFFFF"/>
								<stop  offset="1" style="stop-color:#FFFFFF"/>
							</linearGradient>
							<path class="st24" d="M17.37,56.35c0.65-0.9,1.55-0.22,1.55-0.22c0.04,0.02,0.06,0.05,0.09,0.08
								c0.03-0.03,0.05-0.06,0.09-0.08c0,0,0.89-0.68,1.55,0.22c0.65,0.91-0.04,2.01-0.61,2.41c-0.32,0.22-0.59,0.47-0.95,0.51
								c-0.03,0.01-0.06,0.01-0.09,0.01c-0.03,0-0.06-0.01-0.09-0.01c-0.36-0.04-0.62-0.29-0.95-0.51
								C17.41,58.36,16.72,57.26,17.37,56.35z"/>
							
								<linearGradient id="SVGID_18_" gradientUnits="userSpaceOnUse" x1="-461.3509" y1="409.671" x2="-457.5427" y2="409.671" gradientTransform="matrix(-0.309 0.9511 0.9511 0.309 -515.2704 369.9239)">
								<stop  offset="0" style="stop-color:#F7F7F0"/>
								<stop  offset="0.6031" style="stop-color:#FFFFFF"/>
								<stop  offset="1" style="stop-color:#FFFFFF"/>
							</linearGradient>
							<path class="st25" d="M14.66,60.71c-0.66-0.9,0.27-1.54,0.27-1.54c0.03-0.03,0.07-0.04,0.1-0.06
								c-0.01-0.04-0.04-0.07-0.05-0.12c0,0-0.37-1.06,0.69-1.4c1.06-0.34,1.9,0.66,2.11,1.32c0.12,0.37,0.27,0.71,0.2,1.05
								c0,0.03-0.01,0.06-0.02,0.09c-0.01,0.03-0.02,0.05-0.04,0.08c-0.15,0.32-0.47,0.5-0.78,0.74
								C16.58,61.3,15.32,61.61,14.66,60.71z"/>
							
								<linearGradient id="SVGID_19_" gradientUnits="userSpaceOnUse" x1="-119.9676" y1="513.6158" x2="-116.1585" y2="513.6158" gradientTransform="matrix(0.809 0.5878 0.5878 -0.809 -189.0307 547.5911)">
								<stop  offset="0" style="stop-color:#F7F7F0"/>
								<stop  offset="0.6031" style="stop-color:#FFFFFF"/>
								<stop  offset="1" style="stop-color:#FFFFFF"/>
							</linearGradient>
							<path class="st26" d="M17.96,64.64c-1.06,0.35-1.38-0.73-1.38-0.73c-0.02-0.04-0.02-0.08-0.03-0.12
								c-0.04,0-0.08,0.01-0.12,0.01c0,0-1.12,0.02-1.12-1.09c0.01-1.11,1.21-1.6,1.91-1.59c0.39,0.01,0.75-0.04,1.06,0.14
								c0.03,0.01,0.05,0.03,0.08,0.05c0.03,0.02,0.05,0.04,0.07,0.06c0.26,0.24,0.34,0.6,0.46,0.97
								C19.11,62.99,19.02,64.29,17.96,64.64z"/>
							
								<linearGradient id="SVGID_20_" gradientUnits="userSpaceOnUse" x1="84.0761" y1="220.3497" x2="87.8844" y2="220.3497" gradientTransform="matrix(0.809 -0.5878 -0.5878 -0.809 80.6303 291.4781)">
								<stop  offset="0" style="stop-color:#F7F7F0"/>
								<stop  offset="0.6031" style="stop-color:#FFFFFF"/>
								<stop  offset="1" style="stop-color:#FFFFFF"/>
							</linearGradient>
							<path class="st27" d="M22.72,62.71c0,1.12-1.12,1.09-1.12,1.09c-0.04,0-0.08-0.01-0.12-0.01c-0.01,0.04-0.01,0.08-0.03,0.12
								c0,0-0.32,1.07-1.38,0.73c-1.06-0.35-1.15-1.65-0.92-2.31c0.12-0.37,0.2-0.73,0.46-0.97c0.02-0.03,0.04-0.04,0.06-0.06
								c0.03-0.02,0.05-0.03,0.08-0.04c0.31-0.18,0.67-0.13,1.07-0.14C21.51,61.1,22.71,61.6,22.72,62.71z"/>
							
								<linearGradient id="SVGID_21_" gradientUnits="userSpaceOnUse" x1="-132.3126" y1="-63.7793" x2="-128.505" y2="-63.7793" gradientTransform="matrix(-0.309 -0.9511 -0.9511 0.309 -79.2696 -44.794)">
								<stop  offset="0" style="stop-color:#F7F7F0"/>
								<stop  offset="0.6031" style="stop-color:#FFFFFF"/>
								<stop  offset="1" style="stop-color:#FFFFFF"/>
							</linearGradient>
							<path class="st28" d="M22.35,57.59c1.06,0.34,0.69,1.4,0.69,1.4c-0.01,0.04-0.03,0.07-0.05,0.11
								c0.04,0.02,0.07,0.04,0.11,0.06c0,0,0.92,0.64,0.26,1.54c-0.66,0.9-1.92,0.59-2.48,0.17c-0.31-0.24-0.63-0.42-0.78-0.74
								c-0.02-0.03-0.03-0.05-0.04-0.08c-0.01-0.03-0.01-0.06-0.02-0.09c-0.07-0.35,0.08-0.68,0.2-1.06
								C20.45,58.24,21.29,57.25,22.35,57.59z"/>
						</g>
					</g>
					<g>
						<path class="st12" d="M21.11,60.42c0,1.16-0.94,2.1-2.09,2.1c-1.16,0-2.1-0.94-2.1-2.1c0-1.16,0.94-2.1,2.1-2.1
							C20.17,58.32,21.11,59.26,21.11,60.42z"/>
						<path class="st13" d="M20.76,60.7c0,0.81-0.66,1.47-1.46,1.47c-0.81,0-1.47-0.66-1.47-1.47c0-0.81,0.66-1.47,1.47-1.47
							C20.11,59.23,20.76,59.89,20.76,60.7z"/>
						<path class="st6" d="M21.11,60.42c0,1.16-0.94,2.1-2.09,2.1c-1.16,0-2.1-0.94-2.1-2.1c0-1.16,0.94-2.1,2.1-2.1
							C20.17,58.32,21.11,59.26,21.11,60.42z"/>
					</g>
				</g>
			</g>
			<g>
				<g>
					<g>
						<path class="st3" d="M44.05,43.59c0,4.53-3.67,8.21-8.21,8.21c-4.53,0-8.2-3.67-8.2-8.21c0-4.53,3.67-8.2,8.2-8.2
							C40.37,35.39,44.05,39.06,44.05,43.59z"/>
						<path class="st4" d="M43.84,43.79c0,4.31-3.49,7.79-7.79,7.79c-4.3,0-7.79-3.49-7.79-7.79c0-4.3,3.49-7.79,7.79-7.79
							C40.35,35.99,43.84,39.48,43.84,43.79z"/>
					</g>
					<g>
						<path class="st5" d="M29.67,43.87c0-3.56,2.89-6.45,6.45-6.45c3.56,0,6.46,2.89,6.46,6.45c0,3.57-2.89,6.45-6.46,6.45
							C32.56,50.33,29.67,47.44,29.67,43.87z"/>
						<path class="st12" d="M29.39,43.59c0-3.56,2.89-6.46,6.45-6.46c3.56,0,6.46,2.89,6.46,6.45c0,3.57-2.89,6.46-6.46,6.46
							C32.28,50.04,29.39,47.15,29.39,43.59z"/>
						<path class="st13" d="M30.01,44.01c0-3.46,2.8-6.26,6.26-6.26c3.46,0,6.26,2.81,6.26,6.26c0,3.46-2.81,6.26-6.27,6.26
							C32.81,50.27,30.01,47.47,30.01,44.01z"/>
						<path class="st6" d="M29.39,43.59c0-3.56,2.89-6.46,6.45-6.46c3.56,0,6.46,2.89,6.46,6.45c0,3.57-2.89,6.46-6.46,6.46
							C32.28,50.04,29.39,47.15,29.39,43.59z"/>
					</g>
					<g>
						<g>
							<path class="st3" d="M34.49,39.81c0.65-0.9,1.54-0.22,1.54-0.22c0.04,0.02,0.06,0.05,0.09,0.08c0.03-0.03,0.06-0.06,0.1-0.08
								c0,0,0.89-0.68,1.54,0.22c0.65,0.91-0.04,2.01-0.61,2.41c-0.32,0.23-0.59,0.48-0.95,0.52c-0.03,0.01-0.06,0.01-0.09,0.01
								c-0.03,0-0.06-0.01-0.09-0.01c-0.36-0.04-0.62-0.29-0.95-0.51C34.52,41.82,33.84,40.71,34.49,39.81z"/>
							<path class="st3" d="M31.77,44.16c-0.66-0.9,0.27-1.54,0.27-1.54c0.04-0.03,0.07-0.04,0.11-0.06
								c-0.01-0.04-0.04-0.07-0.05-0.11c0,0-0.37-1.06,0.69-1.4c1.06-0.34,1.9,0.66,2.1,1.33c0.12,0.37,0.27,0.71,0.2,1.05
								c0,0.03-0.01,0.06-0.02,0.09c-0.01,0.03-0.03,0.05-0.04,0.08c-0.15,0.32-0.47,0.5-0.78,0.74
								C33.69,44.75,32.43,45.06,31.77,44.16z"/>
							<path class="st3" d="M35.08,48.09c-1.06,0.35-1.38-0.73-1.38-0.73c-0.02-0.04-0.02-0.08-0.03-0.12
								c-0.04,0-0.08,0.02-0.12,0.01c0,0-1.12,0.02-1.12-1.09c0-1.12,1.21-1.6,1.91-1.6c0.39,0.01,0.76-0.04,1.07,0.14
								c0.03,0.01,0.05,0.02,0.08,0.04c0.03,0.02,0.04,0.04,0.07,0.06c0.26,0.24,0.34,0.6,0.46,0.97
								C36.23,46.44,36.14,47.74,35.08,48.09z"/>
							<path class="st3" d="M39.83,46.16c0.01,1.12-1.12,1.09-1.12,1.09c-0.04,0-0.08-0.01-0.12-0.01
								c-0.01,0.04-0.01,0.08-0.03,0.12c0,0-0.32,1.07-1.38,0.73c-1.06-0.35-1.15-1.65-0.93-2.31c0.12-0.37,0.2-0.73,0.46-0.97
								c0.02-0.02,0.04-0.04,0.06-0.06c0.03-0.02,0.05-0.03,0.08-0.04c0.31-0.18,0.67-0.13,1.07-0.14
								C38.62,44.56,39.83,45.05,39.83,46.16z"/>
							<path class="st3" d="M39.47,41.04c1.06,0.34,0.69,1.4,0.69,1.4c-0.01,0.04-0.03,0.07-0.05,0.11
								c0.04,0.02,0.07,0.04,0.11,0.07c0,0,0.92,0.64,0.26,1.54c-0.66,0.9-1.92,0.58-2.48,0.17c-0.31-0.24-0.63-0.42-0.78-0.74
								c-0.02-0.03-0.03-0.05-0.04-0.08c-0.01-0.03-0.01-0.06-0.02-0.09c-0.07-0.35,0.08-0.68,0.2-1.06
								C37.57,41.7,38.41,40.7,39.47,41.04z"/>
						</g>
						<g>
							
								<linearGradient id="SVGID_22_" gradientUnits="userSpaceOnUse" x1="-485.5544" y1="36.6966" x2="-481.747" y2="36.6966" gradientTransform="matrix(-1 0 0 1 -447.8076 4.0605)">
								<stop  offset="0" style="stop-color:#F7F7F0"/>
								<stop  offset="0.6031" style="stop-color:#FFFFFF"/>
								<stop  offset="1" style="stop-color:#FFFFFF"/>
							</linearGradient>
							<path class="st29" d="M34.2,39.52c0.65-0.9,1.54-0.22,1.54-0.22c0.04,0.02,0.06,0.05,0.09,0.08c0.03-0.03,0.06-0.06,0.1-0.08
								c0,0,0.89-0.68,1.54,0.22c0.65,0.91-0.04,2.01-0.61,2.41c-0.32,0.23-0.59,0.48-0.95,0.52c-0.03,0.01-0.06,0.01-0.09,0.01
								c-0.03,0-0.06-0.01-0.09-0.01c-0.36-0.04-0.62-0.29-0.95-0.51C34.24,41.53,33.55,40.43,34.2,39.52z"/>
							
								<linearGradient id="SVGID_23_" gradientUnits="userSpaceOnUse" x1="-482.5593" y1="420.4775" x2="-478.7491" y2="420.4775" gradientTransform="matrix(-0.309 0.9511 0.9511 0.309 -515.2704 369.9239)">
								<stop  offset="0" style="stop-color:#F7F7F0"/>
								<stop  offset="0.6031" style="stop-color:#FFFFFF"/>
								<stop  offset="1" style="stop-color:#FFFFFF"/>
							</linearGradient>
							<path class="st30" d="M31.49,43.88c-0.66-0.9,0.27-1.54,0.27-1.54c0.04-0.03,0.07-0.04,0.11-0.06
								c-0.01-0.04-0.04-0.07-0.05-0.11c0,0-0.37-1.06,0.69-1.4c1.06-0.34,1.9,0.66,2.1,1.33c0.12,0.37,0.27,0.7,0.2,1.05
								c0,0.03-0.01,0.06-0.02,0.09c-0.01,0.03-0.03,0.05-0.04,0.08c-0.15,0.32-0.47,0.5-0.78,0.74
								C33.41,44.47,32.15,44.78,31.49,43.88z"/>
							
								<linearGradient id="SVGID_24_" gradientUnits="userSpaceOnUse" x1="-116.2444" y1="537.126" x2="-112.4348" y2="537.126" gradientTransform="matrix(0.809 0.5878 0.5878 -0.809 -189.0307 547.5911)">
								<stop  offset="0" style="stop-color:#F7F7F0"/>
								<stop  offset="0.6031" style="stop-color:#FFFFFF"/>
								<stop  offset="1" style="stop-color:#FFFFFF"/>
							</linearGradient>
							<path class="st31" d="M34.79,47.81c-1.06,0.35-1.38-0.73-1.38-0.73c-0.02-0.04-0.02-0.08-0.03-0.12
								c-0.04,0-0.08,0.02-0.12,0.01c0,0-1.12,0.03-1.12-1.09c0-1.12,1.21-1.6,1.91-1.6c0.39,0.01,0.76-0.04,1.07,0.14
								c0.03,0.01,0.05,0.02,0.08,0.04c0.03,0.02,0.04,0.04,0.07,0.06c0.26,0.24,0.34,0.6,0.46,0.97
								C35.94,46.16,35.85,47.46,34.79,47.81z"/>
							
								<linearGradient id="SVGID_25_" gradientUnits="userSpaceOnUse" x1="107.5863" y1="224.0725" x2="111.3943" y2="224.0725" gradientTransform="matrix(0.809 -0.5878 -0.5878 -0.809 80.6303 291.4781)">
								<stop  offset="0" style="stop-color:#F7F7F0"/>
								<stop  offset="0.6031" style="stop-color:#FFFFFF"/>
								<stop  offset="1" style="stop-color:#FFFFFF"/>
							</linearGradient>
							<path class="st32" d="M39.55,45.88c0.01,1.12-1.12,1.09-1.12,1.09c-0.04,0-0.08-0.01-0.12-0.01
								c-0.01,0.04-0.01,0.08-0.03,0.12c0,0-0.32,1.07-1.38,0.73c-1.06-0.35-1.15-1.65-0.93-2.31c0.12-0.37,0.2-0.73,0.46-0.97
								c0.02-0.02,0.04-0.04,0.06-0.06c0.03-0.02,0.05-0.03,0.08-0.04c0.31-0.18,0.67-0.13,1.07-0.14
								C38.34,44.27,39.55,44.76,39.55,45.88z"/>
							
								<linearGradient id="SVGID_26_" gradientUnits="userSpaceOnUse" x1="-121.5056" y1="-84.9865" x2="-117.6981" y2="-84.9865" gradientTransform="matrix(-0.309 -0.9511 -0.9511 0.309 -79.2696 -44.794)">
								<stop  offset="0" style="stop-color:#F7F7F0"/>
								<stop  offset="0.6031" style="stop-color:#FFFFFF"/>
								<stop  offset="1" style="stop-color:#FFFFFF"/>
							</linearGradient>
							<path class="st33" d="M39.18,40.76c1.06,0.34,0.69,1.4,0.69,1.4c-0.01,0.04-0.03,0.07-0.05,0.11
								c0.04,0.02,0.07,0.04,0.11,0.07c0,0,0.92,0.64,0.26,1.54c-0.66,0.9-1.92,0.58-2.48,0.17c-0.31-0.24-0.63-0.42-0.78-0.74
								c-0.02-0.03-0.03-0.05-0.04-0.08c-0.01-0.03-0.01-0.06-0.02-0.09c-0.07-0.35,0.08-0.68,0.2-1.06
								C37.28,41.41,38.12,40.42,39.18,40.76z"/>
						</g>
					</g>
					<g>
						<path class="st12" d="M37.94,43.59c0,1.16-0.94,2.1-2.09,2.1c-1.16,0-2.1-0.94-2.1-2.1c0-1.16,0.94-2.1,2.1-2.1
							C37,41.49,37.94,42.43,37.94,43.59z"/>
						<path class="st13" d="M37.59,43.87c0,0.81-0.66,1.47-1.46,1.47c-0.81,0-1.47-0.66-1.47-1.47c0-0.81,0.66-1.47,1.47-1.47
							C36.94,42.4,37.6,43.06,37.59,43.87z"/>
						<path class="st6" d="M37.94,43.59c0,1.16-0.94,2.1-2.09,2.1c-1.16,0-2.1-0.94-2.1-2.1c0-1.16,0.94-2.1,2.1-2.1
							C37,41.49,37.94,42.43,37.94,43.59z"/>
					</g>
				</g>
				<g>
					<g>
						<path class="st3" d="M27.22,43.59c0,4.53-3.67,8.21-8.21,8.21c-4.53,0-8.2-3.67-8.2-8.21c0-4.53,3.67-8.2,8.2-8.2
							C23.54,35.39,27.22,39.06,27.22,43.59z"/>
						<path class="st4" d="M27.01,43.79c0,4.31-3.49,7.79-7.79,7.79c-4.3,0-7.79-3.49-7.79-7.79c0-4.3,3.49-7.79,7.79-7.79
							C23.52,35.99,27.01,39.48,27.01,43.79z"/>
					</g>
					<g>
						<path class="st5" d="M12.84,43.87c0-3.56,2.89-6.45,6.45-6.45c3.56,0,6.46,2.89,6.46,6.45c0,3.57-2.89,6.45-6.46,6.45
							C15.73,50.33,12.84,47.44,12.84,43.87z"/>
						<path class="st12" d="M12.56,43.59c0-3.56,2.89-6.46,6.45-6.46c3.56,0,6.46,2.89,6.46,6.45c0,3.57-2.89,6.46-6.46,6.46
							C15.45,50.04,12.56,47.15,12.56,43.59z"/>
						<path class="st13" d="M13.18,44.01c0-3.46,2.8-6.26,6.26-6.26c3.46,0,6.26,2.81,6.26,6.26c0,3.46-2.81,6.26-6.26,6.26
							C15.98,50.27,13.18,47.47,13.18,44.01z"/>
						<path class="st6" d="M12.56,43.59c0-3.56,2.89-6.46,6.45-6.46c3.56,0,6.46,2.89,6.46,6.45c0,3.57-2.89,6.46-6.46,6.46
							C15.45,50.04,12.56,47.15,12.56,43.59z"/>
					</g>
					<g>
						<g>
							<path class="st3" d="M17.66,39.81c0.65-0.9,1.55-0.22,1.55-0.22c0.04,0.02,0.06,0.05,0.09,0.08
								c0.03-0.03,0.05-0.06,0.09-0.08c0,0,0.89-0.68,1.55,0.22c0.65,0.91-0.04,2.01-0.61,2.41c-0.32,0.23-0.59,0.48-0.95,0.52
								c-0.03,0.01-0.06,0.01-0.09,0.01c-0.03,0-0.06-0.01-0.09-0.01c-0.36-0.04-0.62-0.29-0.95-0.51
								C17.69,41.82,17,40.71,17.66,39.81z"/>
							<path class="st3" d="M14.94,44.16c-0.66-0.9,0.27-1.54,0.27-1.54c0.03-0.03,0.07-0.04,0.1-0.06
								c-0.01-0.04-0.04-0.07-0.05-0.11c0,0-0.37-1.06,0.69-1.4c1.06-0.34,1.9,0.66,2.11,1.33c0.12,0.37,0.27,0.71,0.2,1.05
								c0,0.03-0.01,0.06-0.02,0.09c-0.01,0.03-0.02,0.05-0.04,0.08c-0.15,0.32-0.47,0.5-0.78,0.74
								C16.86,44.75,15.6,45.06,14.94,44.16z"/>
							<path class="st3" d="M18.25,48.09c-1.06,0.35-1.38-0.73-1.38-0.73c-0.02-0.04-0.02-0.08-0.03-0.12
								c-0.04,0-0.08,0.02-0.12,0.01c0,0-1.12,0.02-1.12-1.09c0.01-1.12,1.21-1.6,1.91-1.6c0.39,0.01,0.75-0.04,1.06,0.14
								c0.03,0.01,0.05,0.02,0.08,0.04c0.03,0.02,0.05,0.04,0.07,0.06c0.26,0.24,0.34,0.6,0.46,0.97
								C19.4,46.44,19.31,47.74,18.25,48.09z"/>
							<path class="st3" d="M23,46.16c0,1.12-1.12,1.09-1.12,1.09c-0.04,0-0.08-0.01-0.12-0.01c-0.01,0.04-0.01,0.08-0.03,0.12
								c0,0-0.32,1.07-1.38,0.73c-1.06-0.35-1.15-1.65-0.92-2.31c0.12-0.37,0.2-0.73,0.46-0.97c0.02-0.02,0.04-0.04,0.06-0.06
								c0.03-0.02,0.05-0.03,0.08-0.04c0.31-0.18,0.67-0.13,1.07-0.14C21.79,44.56,23,45.05,23,46.16z"/>
							<path class="st3" d="M22.64,41.04c1.06,0.34,0.69,1.4,0.69,1.4c-0.01,0.04-0.03,0.07-0.05,0.11
								c0.04,0.02,0.07,0.04,0.11,0.07c0,0,0.92,0.64,0.26,1.54c-0.66,0.9-1.92,0.58-2.48,0.17c-0.31-0.24-0.63-0.42-0.78-0.74
								c-0.02-0.03-0.03-0.05-0.04-0.08c-0.01-0.03-0.01-0.06-0.02-0.09c-0.07-0.35,0.08-0.68,0.2-1.06
								C20.74,41.7,21.57,40.7,22.64,41.04z"/>
						</g>
						<g>
							
								<linearGradient id="SVGID_27_" gradientUnits="userSpaceOnUse" x1="-468.724" y1="36.6966" x2="-464.915" y2="36.6966" gradientTransform="matrix(-1 0 0 1 -447.8076 4.0605)">
								<stop  offset="0" style="stop-color:#F7F7F0"/>
								<stop  offset="0.6031" style="stop-color:#FFFFFF"/>
								<stop  offset="1" style="stop-color:#FFFFFF"/>
							</linearGradient>
							<path class="st34" d="M17.37,39.52c0.65-0.9,1.55-0.22,1.55-0.22c0.04,0.02,0.06,0.05,0.09,0.08
								c0.03-0.03,0.05-0.06,0.09-0.08c0,0,0.89-0.68,1.55,0.22c0.65,0.91-0.04,2.01-0.61,2.41c-0.32,0.23-0.59,0.48-0.95,0.52
								c-0.03,0.01-0.06,0.01-0.09,0.01c-0.03,0-0.06-0.01-0.09-0.01c-0.36-0.04-0.62-0.29-0.95-0.51
								C17.41,41.53,16.72,40.43,17.37,39.52z"/>
							
								<linearGradient id="SVGID_28_" gradientUnits="userSpaceOnUse" x1="-477.3586" y1="404.4706" x2="-473.5486" y2="404.4706" gradientTransform="matrix(-0.309 0.9511 0.9511 0.309 -515.2704 369.9239)">
								<stop  offset="0" style="stop-color:#F7F7F0"/>
								<stop  offset="0.6031" style="stop-color:#FFFFFF"/>
								<stop  offset="1" style="stop-color:#FFFFFF"/>
							</linearGradient>
							<path class="st35" d="M14.66,43.88c-0.66-0.9,0.27-1.54,0.27-1.54c0.03-0.03,0.07-0.04,0.1-0.06
								c-0.01-0.04-0.04-0.07-0.05-0.11c0,0-0.37-1.06,0.69-1.4c1.06-0.34,1.9,0.66,2.11,1.33c0.12,0.37,0.27,0.7,0.2,1.05
								c0,0.03-0.01,0.06-0.02,0.09c-0.01,0.03-0.02,0.05-0.04,0.08c-0.15,0.32-0.47,0.5-0.78,0.74
								C16.58,44.47,15.32,44.78,14.66,43.88z"/>
							
								<linearGradient id="SVGID_29_" gradientUnits="userSpaceOnUse" x1="-129.8609" y1="527.2324" x2="-126.0514" y2="527.2324" gradientTransform="matrix(0.809 0.5878 0.5878 -0.809 -189.0307 547.5911)">
								<stop  offset="0" style="stop-color:#F7F7F0"/>
								<stop  offset="0.6031" style="stop-color:#FFFFFF"/>
								<stop  offset="1" style="stop-color:#FFFFFF"/>
							</linearGradient>
							<path class="st36" d="M17.96,47.81c-1.06,0.35-1.38-0.73-1.38-0.73c-0.02-0.04-0.02-0.08-0.03-0.12
								c-0.04,0-0.08,0.02-0.12,0.01c0,0-1.12,0.03-1.12-1.09c0.01-1.12,1.21-1.6,1.91-1.6c0.39,0.01,0.75-0.04,1.06,0.14
								c0.03,0.01,0.05,0.02,0.08,0.04c0.03,0.02,0.05,0.04,0.07,0.06c0.26,0.24,0.34,0.6,0.46,0.97
								C19.11,46.16,19.02,47.46,17.96,47.81z"/>
							
								<linearGradient id="SVGID_30_" gradientUnits="userSpaceOnUse" x1="93.9701" y1="233.9661" x2="97.7777" y2="233.9661" gradientTransform="matrix(0.809 -0.5878 -0.5878 -0.809 80.6303 291.4781)">
								<stop  offset="0" style="stop-color:#F7F7F0"/>
								<stop  offset="0.6031" style="stop-color:#FFFFFF"/>
								<stop  offset="1" style="stop-color:#FFFFFF"/>
							</linearGradient>
							<path class="st37" d="M22.72,45.88c0,1.12-1.12,1.09-1.12,1.09c-0.04,0-0.08-0.01-0.12-0.01c-0.01,0.04-0.01,0.08-0.03,0.12
								c0,0-0.32,1.07-1.38,0.73c-1.06-0.35-1.15-1.65-0.92-2.31c0.12-0.37,0.2-0.73,0.46-0.97c0.02-0.02,0.04-0.04,0.06-0.06
								c0.03-0.02,0.05-0.03,0.08-0.04c0.31-0.18,0.67-0.13,1.07-0.14C21.51,44.27,22.71,44.76,22.72,45.88z"/>
							
								<linearGradient id="SVGID_31_" gradientUnits="userSpaceOnUse" x1="-116.3055" y1="-68.9796" x2="-112.4976" y2="-68.9796" gradientTransform="matrix(-0.309 -0.9511 -0.9511 0.309 -79.2696 -44.794)">
								<stop  offset="0" style="stop-color:#F7F7F0"/>
								<stop  offset="0.6031" style="stop-color:#FFFFFF"/>
								<stop  offset="1" style="stop-color:#FFFFFF"/>
							</linearGradient>
							<path class="st38" d="M22.35,40.76c1.06,0.34,0.69,1.4,0.69,1.4c-0.01,0.04-0.03,0.07-0.05,0.11
								c0.04,0.02,0.07,0.04,0.11,0.07c0,0,0.92,0.64,0.26,1.54c-0.66,0.9-1.92,0.58-2.48,0.17c-0.31-0.24-0.63-0.42-0.78-0.74
								c-0.02-0.03-0.03-0.05-0.04-0.08c-0.01-0.03-0.01-0.06-0.02-0.09c-0.07-0.35,0.08-0.68,0.2-1.06
								C20.45,41.41,21.29,40.42,22.35,40.76z"/>
						</g>
					</g>
					<g>
						<path class="st12" d="M21.11,43.59c0,1.16-0.94,2.1-2.09,2.1c-1.16,0-2.1-0.94-2.1-2.1c0-1.16,0.94-2.1,2.1-2.1
							C20.17,41.49,21.11,42.43,21.11,43.59z"/>
						<path class="st13" d="M20.76,43.87c0,0.81-0.66,1.47-1.46,1.47c-0.81,0-1.47-0.66-1.47-1.47c0-0.81,0.66-1.47,1.47-1.47
							C20.11,42.4,20.76,43.06,20.76,43.87z"/>
						<path class="st6" d="M21.11,43.59c0,1.16-0.94,2.1-2.09,2.1c-1.16,0-2.1-0.94-2.1-2.1c0-1.16,0.94-2.1,2.1-2.1
							C20.17,41.49,21.11,42.43,21.11,43.59z"/>
					</g>
				</g>
			</g>
		</g>
	</g>
</g>
</svg>
