<?xml version="1.0" encoding="utf-8"?>
<!-- Generator: Adobe Illustrator 25.3.1, SVG Export Plug-In . SVG Version: 6.00 Build 0)  -->
<svg version="1.1" id="圖層_1" xmlns="http://www.w3.org/2000/svg" xmlns:xlink="http://www.w3.org/1999/xlink" x="0px" y="0px"
	 viewBox="0 0 54.86 74.7" style="enable-background:new 0 0 54.86 74.7;" xml:space="preserve">
<style type="text/css">
	.st0{fill:#EEEEE8;stroke:#1A0B08;}
	.st1{fill:#FFFFFF;}
	.st2{fill:url(#SVGID_1_);}
	.st3{fill:#002D12;}
	.st4{fill:#004A2A;}
	.st5{fill:none;stroke:#002D12;stroke-width:0.65;stroke-miterlimit:10;}
	.st6{fill:none;stroke:#FFFFFF;stroke-width:0.65;stroke-miterlimit:10;}
	.st7{fill:url(#SVGID_2_);}
	.st8{fill:url(#SVGID_3_);}
	.st9{fill:url(#SVGID_4_);}
	.st10{fill:url(#SVGID_5_);}
	.st11{fill:url(#SVGID_6_);}
	.st12{fill:#6E0005;}
	.st13{fill:#98161C;}
	.st14{fill:url(#SVGID_7_);}
	.st15{fill:url(#SVGID_8_);}
	.st16{fill:url(#SVGID_9_);}
	.st17{fill:url(#SVGID_10_);}
	.st18{fill:url(#SVGID_11_);}
	.st19{fill:url(#SVGID_12_);}
	.st20{fill:url(#SVGID_13_);}
	.st21{fill:url(#SVGID_14_);}
	.st22{fill:url(#SVGID_15_);}
	.st23{fill:url(#SVGID_16_);}
	.st24{fill:url(#SVGID_17_);}
	.st25{fill:url(#SVGID_18_);}
	.st26{fill:url(#SVGID_19_);}
	.st27{fill:url(#SVGID_20_);}
	.st28{fill:url(#SVGID_21_);}
	.st29{fill:url(#SVGID_22_);}
	.st30{fill:url(#SVGID_23_);}
	.st31{fill:url(#SVGID_24_);}
	.st32{fill:url(#SVGID_25_);}
	.st33{fill:url(#SVGID_26_);}
	.st34{fill:url(#SVGID_27_);}
	.st35{fill:url(#SVGID_28_);}
	.st36{fill:url(#SVGID_29_);}
	.st37{fill:url(#SVGID_30_);}
	.st38{fill:url(#SVGID_31_);}
	.st39{fill:url(#SVGID_32_);}
	.st40{fill:url(#SVGID_33_);}
	.st41{fill:url(#SVGID_34_);}
	.st42{fill:url(#SVGID_35_);}
	.st43{fill:url(#SVGID_36_);}
</style>
<g>
	<g>
		<g>
			<path class="st0" d="M48.69,0.5H6.17C3.05,0.5,0.5,3.05,0.5,6.17v62.36c0,3.12,2.55,5.67,5.67,5.67h42.52
				c3.12,0,5.67-2.55,5.67-5.67V6.17C54.36,3.05,51.81,0.5,48.69,0.5L48.69,0.5z"/>
		</g>
		<path class="st1" d="M48.69,3.5c1.47,0,2.67,1.2,2.67,2.67v62.36c0,1.47-1.2,2.67-2.67,2.67H6.17C4.7,71.2,3.5,70,3.5,68.53V6.17
			C3.5,4.7,4.7,3.5,6.17,3.5H48.69"/>
		<linearGradient id="SVGID_1_" gradientUnits="userSpaceOnUse" x1="0.0345" y1="64.7448" x2="54.8236" y2="9.9557">
			<stop  offset="0" style="stop-color:#F7F7F0"/>
			<stop  offset="0.6031" style="stop-color:#FFFFFF"/>
			<stop  offset="1" style="stop-color:#FFFFFF"/>
		</linearGradient>
		<path class="st2" d="M48.69,4.5c0.9,0,1.67,0.76,1.67,1.67v62.36c0,0.91-0.77,1.67-1.67,1.67H6.17c-0.9,0-1.67-0.76-1.67-1.67
			V6.17c0-0.91,0.77-1.67,1.67-1.67H48.69"/>
	</g>
	<g>
		<g>
			<g>
				<g>
					<path class="st3" d="M35.74,21.09c0,4.53-3.67,8.2-8.2,8.2c-4.53,0-8.2-3.67-8.2-8.21c0-4.53,3.67-8.2,8.2-8.2
						C32.06,12.89,35.74,16.56,35.74,21.09z"/>
					<path class="st4" d="M35.52,21.29c0,4.31-3.49,7.79-7.79,7.79c-4.3,0-7.79-3.49-7.79-7.8c0-4.3,3.49-7.79,7.79-7.79
						S35.53,16.99,35.52,21.29z"/>
				</g>
				<g>
					<path class="st5" d="M21.36,21.38c0-3.56,2.89-6.45,6.45-6.45c3.56,0,6.46,2.89,6.46,6.45c0,3.56-2.89,6.45-6.46,6.45
						C24.25,27.83,21.36,24.94,21.36,21.38z"/>
					<path class="st3" d="M21.08,21.09c0-3.56,2.89-6.45,6.45-6.45c3.56,0,6.46,2.89,6.46,6.45c0,3.56-2.89,6.46-6.46,6.45
						C23.97,27.55,21.08,24.66,21.08,21.09z"/>
					<path class="st4" d="M21.7,21.52c0-3.46,2.8-6.26,6.26-6.26c3.46,0,6.26,2.81,6.27,6.26c0,3.46-2.81,6.26-6.27,6.26
						C24.5,27.78,21.7,24.98,21.7,21.52z"/>
					<path class="st6" d="M21.08,21.09c0-3.56,2.89-6.45,6.45-6.45c3.56,0,6.46,2.89,6.46,6.45c0,3.56-2.89,6.46-6.46,6.45
						C23.97,27.55,21.08,24.66,21.08,21.09z"/>
				</g>
				<g>
					<g>
						<path class="st3" d="M26.18,17.31c0.65-0.9,1.54-0.22,1.54-0.22c0.04,0.03,0.06,0.05,0.09,0.08c0.03-0.03,0.06-0.06,0.09-0.08
							c0,0,0.89-0.68,1.55,0.22c0.65,0.91-0.04,2.01-0.61,2.41c-0.32,0.22-0.59,0.48-0.95,0.52c-0.03,0-0.06,0.01-0.09,0.01
							c-0.03,0-0.06-0.01-0.09-0.01c-0.35-0.04-0.63-0.29-0.95-0.52C26.21,19.32,25.53,18.22,26.18,17.31z"/>
						<path class="st3" d="M23.46,21.67c-0.66-0.9,0.27-1.54,0.27-1.54c0.03-0.03,0.07-0.04,0.1-0.07
							c-0.01-0.04-0.04-0.07-0.05-0.11c0,0-0.37-1.06,0.69-1.4c1.06-0.34,1.9,0.66,2.11,1.33c0.11,0.37,0.27,0.71,0.2,1.05
							c0,0.03-0.01,0.06-0.02,0.09c-0.01,0.03-0.02,0.05-0.04,0.08c-0.15,0.32-0.47,0.5-0.78,0.74
							C25.39,22.25,24.12,22.57,23.46,21.67z"/>
						<path class="st3" d="M26.77,25.6c-1.06,0.35-1.38-0.73-1.38-0.73c-0.02-0.04-0.02-0.08-0.03-0.12c-0.04,0-0.08,0.02-0.12,0.01
							c0,0-1.12,0.02-1.12-1.09c0.01-1.12,1.21-1.6,1.91-1.59c0.39,0.01,0.75-0.04,1.07,0.14c0.03,0.01,0.05,0.03,0.07,0.04
							c0.03,0.01,0.05,0.04,0.07,0.06c0.26,0.24,0.34,0.6,0.46,0.97C27.92,23.95,27.83,25.25,26.77,25.6z"/>
						<path class="st3" d="M31.52,23.66c0,1.12-1.12,1.09-1.12,1.09c-0.04,0-0.08-0.01-0.12-0.01c-0.01,0.04-0.01,0.08-0.03,0.12
							c0,0-0.32,1.07-1.38,0.73c-1.06-0.35-1.15-1.65-0.93-2.31c0.13-0.37,0.2-0.73,0.46-0.97c0.02-0.03,0.04-0.04,0.06-0.06
							c0.03-0.02,0.05-0.03,0.08-0.04c0.31-0.18,0.68-0.13,1.07-0.14C30.31,22.06,31.52,22.55,31.52,23.66z"/>
						<path class="st3" d="M31.16,18.55c1.06,0.34,0.69,1.4,0.69,1.4c-0.01,0.04-0.03,0.07-0.04,0.11c0.03,0.02,0.07,0.04,0.1,0.06
							c0,0,0.92,0.64,0.26,1.54c-0.66,0.9-1.92,0.59-2.48,0.17c-0.31-0.24-0.63-0.42-0.78-0.74c-0.02-0.03-0.03-0.05-0.04-0.08
							c-0.01-0.03-0.01-0.06-0.02-0.09c-0.07-0.35,0.08-0.68,0.2-1.06C29.26,19.2,30.1,18.2,31.16,18.55z"/>
					</g>
					<g>
						
							<linearGradient id="SVGID_2_" gradientUnits="userSpaceOnUse" x1="-479.1038" y1="13.7879" x2="-475.2953" y2="13.7879" gradientTransform="matrix(-1 0 0 1 -449.6641 4.4727)">
							<stop  offset="0" style="stop-color:#F7F7F0"/>
							<stop  offset="0.6031" style="stop-color:#FFFFFF"/>
							<stop  offset="1" style="stop-color:#FFFFFF"/>
						</linearGradient>
						<path class="st7" d="M25.9,17.03c0.65-0.9,1.54-0.22,1.54-0.22c0.04,0.02,0.06,0.05,0.09,0.08c0.03-0.03,0.06-0.06,0.09-0.08
							c0,0,0.89-0.68,1.55,0.22c0.65,0.91-0.04,2.01-0.61,2.41c-0.32,0.22-0.59,0.48-0.95,0.52c-0.03,0-0.06,0.01-0.09,0.01
							c-0.03,0-0.06-0.01-0.09-0.01c-0.35-0.04-0.63-0.29-0.95-0.51C25.93,19.04,25.24,17.93,25.9,17.03z"/>
						
							<linearGradient id="SVGID_3_" gradientUnits="userSpaceOnUse" x1="-502.3508" y1="407.2631" x2="-498.5429" y2="407.2631" gradientTransform="matrix(-0.309 0.9511 0.9511 0.309 -517.1263 370.3351)">
							<stop  offset="0" style="stop-color:#F7F7F0"/>
							<stop  offset="0.6031" style="stop-color:#FFFFFF"/>
							<stop  offset="1" style="stop-color:#FFFFFF"/>
						</linearGradient>
						<path class="st8" d="M23.18,21.38c-0.66-0.9,0.27-1.54,0.27-1.54c0.03-0.03,0.07-0.04,0.1-0.07
							c-0.01-0.04-0.04-0.07-0.05-0.11c0,0-0.37-1.06,0.69-1.4c1.06-0.34,1.9,0.66,2.11,1.33c0.11,0.37,0.27,0.71,0.2,1.05
							c0,0.03-0.01,0.06-0.02,0.09c-0.01,0.03-0.02,0.05-0.04,0.08c-0.15,0.32-0.47,0.5-0.78,0.74
							C25.1,21.97,23.84,22.28,23.18,21.38z"/>
						
							<linearGradient id="SVGID_4_" gradientUnits="userSpaceOnUse" x1="-134.93" y1="551.8652" x2="-131.1195" y2="551.8652" gradientTransform="matrix(0.809 0.5878 0.5878 -0.809 -190.8869 548.0013)">
							<stop  offset="0" style="stop-color:#F7F7F0"/>
							<stop  offset="0.6031" style="stop-color:#FFFFFF"/>
							<stop  offset="1" style="stop-color:#FFFFFF"/>
						</linearGradient>
						<path class="st9" d="M26.49,25.31c-1.06,0.35-1.38-0.73-1.38-0.73c-0.02-0.04-0.02-0.08-0.03-0.12
							c-0.04,0-0.08,0.02-0.12,0.01c0,0-1.12,0.02-1.12-1.09c0.01-1.12,1.21-1.6,1.91-1.59c0.39,0.01,0.75-0.04,1.07,0.14
							c0.03,0.01,0.05,0.02,0.07,0.04c0.03,0.01,0.05,0.04,0.07,0.06c0.26,0.24,0.34,0.6,0.46,0.97
							C27.64,23.67,27.54,24.96,26.49,25.31z"/>
						
							<linearGradient id="SVGID_5_" gradientUnits="userSpaceOnUse" x1="115.8322" y1="246.3957" x2="119.6411" y2="246.3957" gradientTransform="matrix(0.809 -0.5878 -0.5878 -0.809 78.7724 291.8882)">
							<stop  offset="0" style="stop-color:#F7F7F0"/>
							<stop  offset="0.6031" style="stop-color:#FFFFFF"/>
							<stop  offset="1" style="stop-color:#FFFFFF"/>
						</linearGradient>
						<path class="st10" d="M31.24,23.38c0,1.12-1.12,1.09-1.12,1.09c-0.04,0-0.08-0.01-0.12-0.01c-0.01,0.04-0.01,0.08-0.03,0.12
							c0,0-0.32,1.07-1.38,0.73c-1.06-0.35-1.15-1.65-0.93-2.31c0.13-0.37,0.2-0.73,0.46-0.97c0.02-0.03,0.04-0.04,0.06-0.06
							c0.03-0.02,0.05-0.03,0.08-0.05c0.31-0.18,0.68-0.13,1.07-0.14C30.03,21.78,31.24,22.27,31.24,23.38z"/>
						
							<linearGradient id="SVGID_6_" gradientUnits="userSpaceOnUse" x1="-97.7291" y1="-85.9313" x2="-93.9212" y2="-85.9313" gradientTransform="matrix(-0.309 -0.9511 -0.9511 0.309 -81.129 -44.3848)">
							<stop  offset="0" style="stop-color:#F7F7F0"/>
							<stop  offset="0.6031" style="stop-color:#FFFFFF"/>
							<stop  offset="1" style="stop-color:#FFFFFF"/>
						</linearGradient>
						<path class="st11" d="M30.88,18.26c1.06,0.34,0.69,1.4,0.69,1.4c-0.01,0.04-0.03,0.07-0.04,0.11c0.03,0.02,0.07,0.04,0.1,0.06
							c0,0,0.92,0.64,0.26,1.54c-0.66,0.9-1.92,0.59-2.48,0.17c-0.31-0.24-0.63-0.42-0.78-0.74c-0.02-0.03-0.03-0.05-0.04-0.08
							c-0.01-0.03-0.01-0.06-0.02-0.09c-0.07-0.35,0.08-0.68,0.2-1.06C28.98,18.92,29.81,17.92,30.88,18.26z"/>
					</g>
				</g>
				<g>
					<path class="st12" d="M29.63,21.09c0,1.16-0.94,2.1-2.09,2.1c-1.16,0-2.1-0.94-2.1-2.1c0-1.16,0.94-2.1,2.1-2.1
						C28.69,18.99,29.63,19.94,29.63,21.09z"/>
					<path class="st13" d="M29.28,21.37c0,0.81-0.65,1.47-1.46,1.47c-0.81,0-1.47-0.66-1.47-1.47c0-0.81,0.66-1.47,1.47-1.47
						C28.63,19.91,29.28,20.57,29.28,21.37z"/>
					<path class="st6" d="M29.63,21.09c0,1.16-0.94,2.1-2.09,2.1c-1.16,0-2.1-0.94-2.1-2.1c0-1.16,0.94-2.1,2.1-2.1
						C28.69,18.99,29.63,19.94,29.63,21.09z"/>
				</g>
			</g>
			<g>
				<g>
					<path class="st3" d="M50.99,28.2c0,4.53-3.67,8.21-8.21,8.21c-4.53,0-8.2-3.67-8.2-8.21c0-4.53,3.67-8.2,8.2-8.2
						C47.32,20,50.99,23.68,50.99,28.2z"/>
					<path class="st4" d="M50.78,28.4c0,4.31-3.49,7.8-7.8,7.79c-4.3,0-7.79-3.49-7.79-7.79c0-4.3,3.49-7.79,7.79-7.79
						C47.29,20.61,50.78,24.1,50.78,28.4z"/>
				</g>
				<g>
					<path class="st5" d="M36.62,28.49c0-3.56,2.89-6.45,6.45-6.45c3.57,0,6.46,2.89,6.46,6.45c0,3.56-2.89,6.45-6.46,6.45
						C39.51,34.94,36.62,32.06,36.62,28.49z"/>
					<path class="st3" d="M36.34,28.21c0-3.57,2.89-6.45,6.45-6.45c3.57,0,6.46,2.89,6.46,6.45c0,3.56-2.89,6.45-6.46,6.45
						C39.22,34.66,36.34,31.77,36.34,28.21z"/>
					<path class="st4" d="M36.95,28.63c0-3.46,2.8-6.26,6.26-6.26c3.46,0,6.26,2.8,6.26,6.26c0,3.46-2.81,6.26-6.26,6.26
						C39.76,34.89,36.95,32.09,36.95,28.63z"/>
					<path class="st6" d="M36.34,28.21c0-3.57,2.89-6.45,6.45-6.45c3.57,0,6.46,2.89,6.46,6.45c0,3.56-2.89,6.45-6.46,6.45
						C39.22,34.66,36.34,31.77,36.34,28.21z"/>
				</g>
				<g>
					<g>
						<path class="st3" d="M41.43,24.42c0.65-0.9,1.55-0.22,1.55-0.22c0.03,0.02,0.05,0.05,0.09,0.08c0.03-0.03,0.05-0.06,0.1-0.08
							c0,0,0.89-0.68,1.55,0.22c0.65,0.91-0.04,2.01-0.61,2.41c-0.32,0.22-0.59,0.48-0.95,0.52c-0.03,0.01-0.05,0.01-0.09,0.01
							c-0.03,0-0.06-0.01-0.08-0.01c-0.36-0.04-0.63-0.29-0.95-0.52C41.47,26.43,40.78,25.33,41.43,24.42z"/>
						<path class="st3" d="M38.71,28.78c-0.66-0.9,0.27-1.54,0.27-1.54c0.03-0.03,0.07-0.04,0.1-0.06
							c-0.01-0.04-0.04-0.07-0.05-0.12c0,0-0.37-1.05,0.69-1.4c1.06-0.34,1.9,0.66,2.11,1.33c0.12,0.37,0.27,0.7,0.2,1.05
							c0,0.03-0.01,0.05-0.01,0.09c-0.01,0.03-0.03,0.05-0.04,0.08c-0.15,0.32-0.47,0.5-0.78,0.74
							C40.64,29.37,39.38,29.68,38.71,28.78z"/>
						<path class="st3" d="M42.02,32.71c-1.06,0.35-1.38-0.73-1.38-0.73c-0.02-0.04-0.02-0.08-0.03-0.12
							c-0.04,0-0.08,0.01-0.12,0.01c0,0-1.12,0.02-1.12-1.09c0.01-1.11,1.21-1.6,1.91-1.59c0.39,0,0.75-0.04,1.06,0.14
							c0.03,0.01,0.05,0.02,0.08,0.04c0.03,0.02,0.05,0.04,0.06,0.06c0.26,0.24,0.34,0.6,0.46,0.97
							C43.17,31.06,43.08,32.36,42.02,32.71z"/>
						<path class="st3" d="M46.78,30.78c0,1.12-1.12,1.09-1.12,1.09c-0.04,0-0.08-0.01-0.12-0.01c-0.01,0.04-0.01,0.08-0.03,0.12
							c0,0-0.32,1.07-1.38,0.73c-1.06-0.35-1.15-1.65-0.92-2.31c0.12-0.37,0.2-0.73,0.46-0.97c0.02-0.02,0.04-0.04,0.06-0.06
							c0.03-0.02,0.05-0.03,0.08-0.04c0.31-0.18,0.67-0.13,1.06-0.14C45.57,29.18,46.77,29.66,46.78,30.78z"/>
						<path class="st3" d="M46.41,25.66c1.06,0.34,0.69,1.4,0.69,1.4c-0.01,0.04-0.03,0.07-0.05,0.11c0.04,0.02,0.07,0.04,0.11,0.07
							c0,0,0.92,0.64,0.26,1.54c-0.66,0.9-1.92,0.58-2.48,0.17c-0.31-0.24-0.63-0.42-0.78-0.74c-0.02-0.03-0.03-0.05-0.04-0.08
							c-0.01-0.03-0.01-0.06-0.02-0.09c-0.07-0.35,0.08-0.68,0.2-1.06C44.51,26.31,45.35,25.32,46.41,25.66z"/>
					</g>
					<g>
						
							<linearGradient id="SVGID_7_" gradientUnits="userSpaceOnUse" x1="-495.9361" y1="13.7887" x2="-492.1285" y2="13.7887" gradientTransform="matrix(-1 0 0 1 -451.2441 11.5859)">
							<stop  offset="0" style="stop-color:#F7F7F0"/>
							<stop  offset="0.6031" style="stop-color:#FFFFFF"/>
							<stop  offset="1" style="stop-color:#FFFFFF"/>
						</linearGradient>
						<path class="st14" d="M41.15,24.14c0.65-0.9,1.55-0.22,1.55-0.22c0.03,0.02,0.05,0.05,0.09,0.08c0.03-0.03,0.05-0.06,0.1-0.08
							c0,0,0.89-0.68,1.55,0.22c0.65,0.91-0.04,2.01-0.61,2.41c-0.32,0.23-0.59,0.48-0.95,0.52c-0.03,0.01-0.05,0.01-0.09,0.01
							c-0.03,0-0.06-0.01-0.08-0.01c-0.36-0.04-0.63-0.29-0.95-0.52C41.18,26.15,40.5,25.05,41.15,24.14z"/>
						
							<linearGradient id="SVGID_8_" gradientUnits="userSpaceOnUse" x1="-507.5518" y1="423.2697" x2="-503.7419" y2="423.2697" gradientTransform="matrix(-0.309 0.9511 0.9511 0.309 -518.7035 377.4483)">
							<stop  offset="0" style="stop-color:#F7F7F0"/>
							<stop  offset="0.6031" style="stop-color:#FFFFFF"/>
							<stop  offset="1" style="stop-color:#FFFFFF"/>
						</linearGradient>
						<path class="st15" d="M38.43,28.5c-0.66-0.9,0.27-1.54,0.27-1.54c0.03-0.03,0.07-0.04,0.1-0.06
							c-0.01-0.04-0.04-0.07-0.05-0.12c0,0-0.37-1.05,0.69-1.4c1.06-0.34,1.9,0.66,2.11,1.33c0.12,0.37,0.27,0.7,0.2,1.05
							c0,0.03-0.01,0.05-0.01,0.09c-0.01,0.03-0.03,0.05-0.04,0.08c-0.15,0.32-0.47,0.5-0.78,0.74
							C40.36,29.08,39.09,29.4,38.43,28.5z"/>
						
							<linearGradient id="SVGID_9_" gradientUnits="userSpaceOnUse" x1="-121.313" y1="561.7594" x2="-117.5042" y2="561.7594" gradientTransform="matrix(0.809 0.5878 0.5878 -0.809 -192.4641 555.1146)">
							<stop  offset="0" style="stop-color:#F7F7F0"/>
							<stop  offset="0.6031" style="stop-color:#FFFFFF"/>
							<stop  offset="1" style="stop-color:#FFFFFF"/>
						</linearGradient>
						<path class="st16" d="M41.74,32.43c-1.06,0.35-1.38-0.73-1.38-0.73c-0.02-0.04-0.02-0.08-0.03-0.12
							c-0.04,0-0.08,0.01-0.12,0.01c0,0-1.12,0.02-1.12-1.09c0.01-1.11,1.21-1.6,1.91-1.59c0.39,0.01,0.75-0.04,1.06,0.14
							c0.03,0.01,0.05,0.02,0.08,0.04c0.03,0.02,0.04,0.04,0.06,0.06c0.26,0.24,0.34,0.6,0.46,0.97
							C42.89,30.78,42.8,32.07,41.74,32.43z"/>
						
							<linearGradient id="SVGID_10_" gradientUnits="userSpaceOnUse" x1="129.4475" y1="236.5032" x2="133.2573" y2="236.5032" gradientTransform="matrix(0.809 -0.5878 -0.5878 -0.809 77.1952 299.0015)">
							<stop  offset="0" style="stop-color:#F7F7F0"/>
							<stop  offset="0.6031" style="stop-color:#FFFFFF"/>
							<stop  offset="1" style="stop-color:#FFFFFF"/>
						</linearGradient>
						<path class="st17" d="M46.49,30.49c0,1.12-1.12,1.09-1.12,1.09c-0.04,0-0.08-0.01-0.12-0.01c-0.01,0.04-0.01,0.08-0.03,0.12
							c0,0-0.32,1.07-1.38,0.73c-1.06-0.35-1.15-1.65-0.92-2.31c0.12-0.37,0.2-0.73,0.46-0.97c0.02-0.02,0.04-0.04,0.06-0.06
							c0.03-0.02,0.05-0.03,0.08-0.05c0.31-0.18,0.67-0.13,1.06-0.14C45.28,28.89,46.49,29.38,46.49,30.49z"/>
						
							<linearGradient id="SVGID_11_" gradientUnits="userSpaceOnUse" x1="-102.9284" y1="-101.9367" x2="-99.1225" y2="-101.9367" gradientTransform="matrix(-0.309 -0.9511 -0.9511 0.309 -82.7052 -37.2715)">
							<stop  offset="0" style="stop-color:#F7F7F0"/>
							<stop  offset="0.6031" style="stop-color:#FFFFFF"/>
							<stop  offset="1" style="stop-color:#FFFFFF"/>
						</linearGradient>
						<path class="st18" d="M46.13,25.38c1.06,0.34,0.69,1.4,0.69,1.4c-0.01,0.04-0.03,0.07-0.05,0.11
							c0.04,0.02,0.07,0.04,0.11,0.07c0,0,0.92,0.64,0.26,1.54c-0.66,0.9-1.92,0.58-2.48,0.17c-0.31-0.24-0.63-0.42-0.78-0.74
							c-0.02-0.03-0.03-0.05-0.04-0.08c-0.01-0.03-0.01-0.06-0.02-0.09c-0.07-0.35,0.08-0.68,0.2-1.06
							C44.23,26.03,45.07,25.04,46.13,25.38z"/>
					</g>
				</g>
				<g>
					<path class="st12" d="M44.89,28.2c0,1.16-0.94,2.1-2.1,2.1c-1.16,0-2.1-0.94-2.1-2.1c0-1.16,0.94-2.1,2.1-2.1
						C43.95,26.11,44.89,27.05,44.89,28.2z"/>
					<path class="st13" d="M44.54,28.49c0,0.81-0.66,1.47-1.47,1.47c-0.81,0-1.47-0.66-1.47-1.47c0-0.81,0.66-1.47,1.47-1.47
						C43.88,27.02,44.54,27.68,44.54,28.49z"/>
					<path class="st6" d="M44.89,28.2c0,1.16-0.94,2.1-2.1,2.1c-1.16,0-2.1-0.94-2.1-2.1c0-1.16,0.94-2.1,2.1-2.1
						C43.95,26.11,44.89,27.05,44.89,28.2z"/>
				</g>
			</g>
			<g>
				<g>
					<path class="st3" d="M20.48,13.98c0,4.53-3.67,8.21-8.2,8.21c-4.53,0-8.21-3.67-8.2-8.21c0-4.53,3.67-8.2,8.2-8.2
						C16.81,5.78,20.48,9.45,20.48,13.98z"/>
					<path class="st4" d="M20.27,14.18c0,4.31-3.49,7.8-7.79,7.8c-4.3,0-7.79-3.49-7.79-7.8c0-4.3,3.49-7.79,7.79-7.79
						C16.78,6.38,20.27,9.88,20.27,14.18z"/>
				</g>
				<g>
					<path class="st5" d="M6.11,14.26c0-3.56,2.89-6.45,6.45-6.45s6.46,2.89,6.46,6.45c0,3.57-2.89,6.45-6.46,6.45
						C9,20.72,6.11,17.83,6.11,14.26z"/>
					<path class="st3" d="M5.83,13.98c0-3.56,2.89-6.45,6.45-6.45c3.56,0,6.46,2.89,6.46,6.45c0,3.57-2.89,6.45-6.46,6.45
						C8.72,20.43,5.83,17.55,5.83,13.98z"/>
					<path class="st4" d="M6.45,14.41c0-3.46,2.8-6.26,6.26-6.26c3.46,0,6.27,2.8,6.27,6.26c0,3.46-2.81,6.26-6.27,6.26
						C9.25,20.66,6.45,17.86,6.45,14.41z"/>
					<path class="st6" d="M5.83,13.98c0-3.56,2.89-6.45,6.45-6.45c3.56,0,6.46,2.89,6.46,6.45c0,3.57-2.89,6.45-6.46,6.45
						C8.72,20.43,5.83,17.55,5.83,13.98z"/>
				</g>
				<g>
					<g>
						<path class="st3" d="M10.92,10.2c0.66-0.9,1.55-0.22,1.55-0.22c0.04,0.02,0.06,0.05,0.09,0.08c0.03-0.03,0.06-0.06,0.1-0.08
							c0,0,0.89-0.68,1.54,0.22c0.65,0.9-0.04,2.01-0.61,2.41c-0.32,0.23-0.59,0.48-0.94,0.52c-0.03,0.01-0.06,0.01-0.09,0.01
							c-0.03,0-0.06-0.01-0.09-0.01c-0.36-0.04-0.63-0.29-0.95-0.51C10.96,12.21,10.27,11.1,10.92,10.2z"/>
						<path class="st3" d="M8.21,14.55c-0.66-0.9,0.27-1.54,0.27-1.54c0.03-0.03,0.07-0.04,0.1-0.06c-0.02-0.04-0.04-0.07-0.05-0.11
							c0,0-0.37-1.06,0.7-1.4c1.06-0.34,1.9,0.66,2.11,1.33c0.12,0.37,0.27,0.71,0.19,1.05c0,0.03,0,0.06-0.01,0.09
							c-0.01,0.03-0.02,0.05-0.04,0.08c-0.15,0.32-0.47,0.5-0.78,0.74C10.13,15.14,8.87,15.45,8.21,14.55z"/>
						<path class="st3" d="M11.52,18.49c-1.06,0.34-1.39-0.73-1.39-0.73c-0.02-0.04-0.01-0.08-0.03-0.12
							c-0.04,0-0.08,0.01-0.12,0.01c0,0-1.12,0.03-1.12-1.09c0.01-1.12,1.21-1.6,1.91-1.59c0.39,0.01,0.75-0.04,1.06,0.14
							c0.03,0.01,0.05,0.03,0.08,0.04c0.03,0.02,0.04,0.04,0.06,0.06c0.27,0.24,0.34,0.6,0.46,0.97
							C12.67,16.84,12.57,18.13,11.52,18.49z"/>
						<path class="st3" d="M16.27,16.55c0,1.12-1.12,1.09-1.12,1.09c-0.04,0-0.08-0.01-0.12-0.01c-0.01,0.04-0.01,0.08-0.03,0.12
							c0,0-0.32,1.07-1.38,0.73c-1.06-0.35-1.15-1.65-0.92-2.31c0.12-0.37,0.2-0.73,0.46-0.97c0.02-0.03,0.04-0.04,0.06-0.06
							c0.03-0.02,0.05-0.03,0.08-0.04c0.31-0.18,0.67-0.14,1.07-0.14C15.06,14.95,16.27,15.44,16.27,16.55z"/>
						<path class="st3" d="M15.91,11.43c1.06,0.34,0.69,1.4,0.69,1.4c-0.01,0.04-0.03,0.07-0.05,0.11c0.04,0.03,0.07,0.04,0.11,0.07
							c0,0,0.92,0.64,0.26,1.54c-0.66,0.9-1.92,0.59-2.48,0.17c-0.31-0.24-0.63-0.42-0.78-0.74c-0.01-0.03-0.03-0.05-0.04-0.08
							c-0.01-0.03-0.01-0.06-0.01-0.09c-0.07-0.35,0.08-0.68,0.2-1.06C14.01,12.09,14.84,11.09,15.91,11.43z"/>
					</g>
					<g>
						
							<linearGradient id="SVGID_12_" gradientUnits="userSpaceOnUse" x1="-462.2737" y1="13.7882" x2="-458.4651" y2="13.7882" gradientTransform="matrix(-1 0 0 1 -448.0898 -2.6396)">
							<stop  offset="0" style="stop-color:#F7F7F0"/>
							<stop  offset="0.6031" style="stop-color:#FFFFFF"/>
							<stop  offset="1" style="stop-color:#FFFFFF"/>
						</linearGradient>
						<path class="st19" d="M10.64,9.91c0.66-0.9,1.55-0.22,1.55-0.22c0.04,0.02,0.06,0.05,0.09,0.08c0.03-0.03,0.06-0.06,0.1-0.08
							c0,0,0.89-0.68,1.54,0.22c0.65,0.9-0.04,2.01-0.61,2.41c-0.32,0.23-0.59,0.48-0.94,0.52c-0.03,0.01-0.06,0.01-0.09,0.01
							c-0.03,0-0.06-0.01-0.09-0.01c-0.36-0.04-0.63-0.29-0.95-0.51C10.68,11.92,9.99,10.82,10.64,9.91z"/>
						
							<linearGradient id="SVGID_13_" gradientUnits="userSpaceOnUse" x1="-497.1505" y1="391.2563" x2="-493.3426" y2="391.2563" gradientTransform="matrix(-0.309 0.9511 0.9511 0.309 -515.5492 363.2228)">
							<stop  offset="0" style="stop-color:#F7F7F0"/>
							<stop  offset="0.6031" style="stop-color:#FFFFFF"/>
							<stop  offset="1" style="stop-color:#FFFFFF"/>
						</linearGradient>
						<path class="st20" d="M7.93,14.27c-0.66-0.9,0.27-1.54,0.27-1.54c0.03-0.03,0.07-0.04,0.1-0.06
							c-0.02-0.04-0.04-0.07-0.05-0.11c0,0-0.37-1.06,0.7-1.4c1.06-0.34,1.9,0.66,2.11,1.33c0.12,0.37,0.27,0.71,0.19,1.05
							c0,0.03,0,0.06-0.01,0.09c-0.01,0.03-0.02,0.05-0.04,0.08c-0.15,0.32-0.47,0.5-0.78,0.74C9.85,14.86,8.59,15.17,7.93,14.27z"
							/>
						
							<linearGradient id="SVGID_14_" gradientUnits="userSpaceOnUse" x1="-148.5465" y1="541.9722" x2="-144.736" y2="541.9722" gradientTransform="matrix(0.809 0.5878 0.5878 -0.809 -189.31 540.889)">
							<stop  offset="0" style="stop-color:#F7F7F0"/>
							<stop  offset="0.6031" style="stop-color:#FFFFFF"/>
							<stop  offset="1" style="stop-color:#FFFFFF"/>
						</linearGradient>
						<path class="st21" d="M11.23,18.2c-1.06,0.34-1.39-0.73-1.39-0.73c-0.02-0.04-0.01-0.08-0.03-0.12
							c-0.04,0-0.08,0.01-0.12,0.01c0,0-1.12,0.03-1.12-1.09c0.01-1.11,1.21-1.6,1.91-1.59c0.39,0,0.75-0.04,1.06,0.14
							c0.03,0.01,0.05,0.02,0.08,0.04c0.03,0.02,0.04,0.04,0.06,0.06c0.27,0.24,0.34,0.6,0.46,0.97
							C12.38,16.55,12.29,17.85,11.23,18.2z"/>
						
							<linearGradient id="SVGID_15_" gradientUnits="userSpaceOnUse" x1="102.2151" y1="256.2881" x2="106.0235" y2="256.2881" gradientTransform="matrix(0.809 -0.5878 -0.5878 -0.809 80.3495 284.775)">
							<stop  offset="0" style="stop-color:#F7F7F0"/>
							<stop  offset="0.6031" style="stop-color:#FFFFFF"/>
							<stop  offset="1" style="stop-color:#FFFFFF"/>
						</linearGradient>
						<path class="st22" d="M15.99,16.27c0,1.12-1.12,1.09-1.12,1.09c-0.04,0-0.08-0.01-0.12-0.01c-0.01,0.04-0.01,0.08-0.03,0.12
							c0,0-0.32,1.07-1.38,0.73c-1.06-0.35-1.15-1.65-0.92-2.31c0.12-0.37,0.2-0.73,0.46-0.97c0.02-0.02,0.04-0.04,0.06-0.06
							c0.03-0.02,0.05-0.03,0.08-0.04c0.31-0.18,0.67-0.14,1.07-0.14C14.77,14.67,15.98,15.16,15.99,16.27z"/>
						
							<linearGradient id="SVGID_16_" gradientUnits="userSpaceOnUse" x1="-92.5291" y1="-69.9214" x2="-88.7204" y2="-69.9214" gradientTransform="matrix(-0.309 -0.9511 -0.9511 0.309 -79.5509 -51.4971)">
							<stop  offset="0" style="stop-color:#F7F7F0"/>
							<stop  offset="0.6031" style="stop-color:#FFFFFF"/>
							<stop  offset="1" style="stop-color:#FFFFFF"/>
						</linearGradient>
						<path class="st23" d="M15.62,11.15c1.06,0.34,0.69,1.4,0.69,1.4c-0.01,0.04-0.03,0.07-0.05,0.11
							c0.04,0.02,0.07,0.04,0.11,0.07c0,0,0.92,0.64,0.26,1.54c-0.66,0.9-1.92,0.59-2.48,0.17c-0.31-0.24-0.63-0.42-0.78-0.74
							c-0.01-0.03-0.03-0.05-0.04-0.08c-0.01-0.03-0.01-0.06-0.01-0.09c-0.07-0.35,0.08-0.68,0.2-1.06
							C13.72,11.8,14.56,10.81,15.62,11.15z"/>
					</g>
				</g>
				<g>
					<path class="st12" d="M14.38,13.98c0,1.16-0.94,2.1-2.09,2.1c-1.16,0-2.1-0.94-2.1-2.1c0-1.16,0.94-2.1,2.1-2.1
						C13.44,11.88,14.38,12.82,14.38,13.98z"/>
					<path class="st13" d="M14.03,14.26c0,0.81-0.65,1.47-1.46,1.47c-0.81,0-1.47-0.66-1.47-1.47c0-0.81,0.66-1.47,1.47-1.47
						C13.37,12.79,14.03,13.45,14.03,14.26z"/>
					<path class="st6" d="M14.38,13.98c0,1.16-0.94,2.1-2.09,2.1c-1.16,0-2.1-0.94-2.1-2.1c0-1.16,0.94-2.1,2.1-2.1
						C13.44,11.88,14.38,12.82,14.38,13.98z"/>
				</g>
			</g>
		</g>
		<g>
			<g>
				<g>
					<g>
						<path class="st3" d="M44.05,60.32c0,4.53-3.67,8.21-8.21,8.21c-4.53,0-8.2-3.67-8.2-8.21c0-4.53,3.67-8.2,8.2-8.2
							C40.38,52.12,44.05,55.79,44.05,60.32z"/>
						<path class="st4" d="M43.84,60.52c0,4.31-3.49,7.79-7.8,7.79c-4.3,0-7.79-3.49-7.79-7.79c0-4.3,3.49-7.79,7.79-7.79
							C40.35,52.73,43.84,56.22,43.84,60.52z"/>
					</g>
					<g>
						<path class="st5" d="M29.68,60.61c0-3.56,2.89-6.46,6.45-6.46c3.56,0,6.46,2.89,6.46,6.45c0,3.57-2.89,6.45-6.46,6.45
							C32.57,67.06,29.68,64.17,29.68,60.61z"/>
						<path class="st12" d="M29.4,60.32c0-3.56,2.89-6.46,6.45-6.46c3.56,0,6.46,2.89,6.46,6.45c0,3.57-2.89,6.46-6.46,6.46
							C32.28,66.77,29.4,63.89,29.4,60.32z"/>
						<path class="st13" d="M30.01,60.75c0-3.46,2.8-6.26,6.26-6.26c3.46,0,6.26,2.81,6.26,6.26c0,3.46-2.81,6.26-6.26,6.26
							C32.82,67.01,30.01,64.2,30.01,60.75z"/>
						<path class="st6" d="M29.4,60.32c0-3.56,2.89-6.46,6.45-6.46c3.56,0,6.46,2.89,6.46,6.45c0,3.57-2.89,6.46-6.46,6.46
							C32.28,66.77,29.4,63.89,29.4,60.32z"/>
					</g>
					<g>
						<g>
							<path class="st3" d="M34.49,56.54c0.65-0.9,1.54-0.22,1.54-0.22c0.04,0.02,0.06,0.05,0.09,0.08c0.03-0.03,0.06-0.06,0.1-0.08
								c0,0,0.89-0.68,1.55,0.22c0.65,0.91-0.04,2.01-0.61,2.41c-0.32,0.23-0.59,0.48-0.95,0.52c-0.03,0-0.06,0.01-0.09,0.01
								c-0.03,0-0.06-0.01-0.09-0.01c-0.36-0.04-0.62-0.29-0.95-0.51C34.53,58.55,33.84,57.44,34.49,56.54z"/>
							<path class="st3" d="M31.78,60.9c-0.66-0.9,0.27-1.54,0.27-1.54c0.03-0.03,0.07-0.04,0.11-0.06
								c-0.02-0.04-0.04-0.07-0.05-0.11c0,0-0.37-1.06,0.69-1.4c1.06-0.34,1.9,0.66,2.1,1.33c0.12,0.37,0.27,0.71,0.2,1.05
								c0,0.03-0.01,0.06-0.02,0.09c-0.01,0.03-0.03,0.05-0.04,0.08c-0.15,0.32-0.47,0.5-0.78,0.74
								C33.7,61.48,32.44,61.8,31.78,60.9z"/>
							<path class="st3" d="M35.08,64.83c-1.06,0.35-1.38-0.73-1.38-0.73c-0.02-0.04-0.02-0.08-0.03-0.12
								c-0.04,0-0.08,0.02-0.12,0.01c0,0-1.12,0.02-1.12-1.09c0.01-1.12,1.21-1.6,1.91-1.6c0.39,0.01,0.76-0.04,1.07,0.14
								c0.03,0.01,0.05,0.02,0.08,0.04c0.03,0.02,0.04,0.04,0.06,0.06c0.26,0.24,0.34,0.6,0.46,0.97
								C36.23,63.18,36.14,64.47,35.08,64.83z"/>
							<path class="st3" d="M39.84,62.89c0.01,1.12-1.12,1.09-1.12,1.09c-0.04,0-0.08-0.01-0.12-0.01
								c-0.01,0.04-0.01,0.08-0.03,0.12c0,0-0.32,1.07-1.38,0.73c-1.06-0.35-1.15-1.65-0.93-2.31c0.12-0.37,0.2-0.73,0.46-0.97
								c0.02-0.02,0.04-0.04,0.06-0.06c0.03-0.02,0.05-0.03,0.08-0.04c0.31-0.18,0.67-0.13,1.07-0.14
								C38.63,61.29,39.83,61.78,39.84,62.89z"/>
							<path class="st3" d="M39.47,57.77c1.06,0.34,0.69,1.4,0.69,1.4c-0.01,0.04-0.03,0.07-0.05,0.11
								c0.04,0.02,0.07,0.04,0.11,0.07c0,0,0.92,0.64,0.26,1.54c-0.66,0.9-1.92,0.58-2.48,0.17c-0.31-0.24-0.63-0.42-0.78-0.74
								c-0.02-0.03-0.03-0.05-0.04-0.08c-0.01-0.03-0.01-0.06-0.02-0.09c-0.07-0.35,0.08-0.68,0.2-1.06
								C37.57,58.43,38.41,57.43,39.47,57.77z"/>
						</g>
						<g>
							
								<linearGradient id="SVGID_17_" gradientUnits="userSpaceOnUse" x1="-485.5599" y1="53.4287" x2="-481.7516" y2="53.4287" gradientTransform="matrix(-1 0 0 1 -447.8076 4.0605)">
								<stop  offset="0" style="stop-color:#F7F7F0"/>
								<stop  offset="0.6031" style="stop-color:#FFFFFF"/>
								<stop  offset="1" style="stop-color:#FFFFFF"/>
							</linearGradient>
							<path class="st24" d="M34.21,56.26c0.65-0.9,1.54-0.22,1.54-0.22c0.04,0.02,0.06,0.05,0.09,0.08
								c0.03-0.03,0.06-0.06,0.1-0.08c0,0,0.89-0.68,1.54,0.22c0.65,0.91-0.04,2.01-0.61,2.41c-0.32,0.23-0.59,0.48-0.95,0.52
								c-0.03,0-0.06,0.01-0.09,0.01c-0.03,0-0.06-0.01-0.09-0.01c-0.36-0.04-0.62-0.29-0.95-0.52
								C34.24,58.26,33.56,57.16,34.21,56.26z"/>
							
								<linearGradient id="SVGID_18_" gradientUnits="userSpaceOnUse" x1="-466.648" y1="425.6531" x2="-462.8379" y2="425.6531" gradientTransform="matrix(-0.309 0.9511 0.9511 0.309 -515.2704 369.9239)">
								<stop  offset="0" style="stop-color:#F7F7F0"/>
								<stop  offset="0.6031" style="stop-color:#FFFFFF"/>
								<stop  offset="1" style="stop-color:#FFFFFF"/>
							</linearGradient>
							<path class="st25" d="M31.49,60.61c-0.66-0.9,0.27-1.54,0.27-1.54c0.03-0.03,0.07-0.04,0.11-0.06
								c-0.02-0.04-0.04-0.07-0.05-0.11c0,0-0.37-1.06,0.69-1.4c1.06-0.34,1.9,0.66,2.1,1.33c0.12,0.37,0.27,0.71,0.2,1.05
								c0,0.03-0.01,0.06-0.02,0.09c-0.01,0.03-0.03,0.05-0.04,0.08c-0.15,0.32-0.47,0.5-0.78,0.74
								C33.42,61.2,32.15,61.51,31.49,60.61z"/>
							
								<linearGradient id="SVGID_19_" gradientUnits="userSpaceOnUse" x1="-106.4048" y1="523.5926" x2="-102.5955" y2="523.5926" gradientTransform="matrix(0.809 0.5878 0.5878 -0.809 -189.0307 547.5911)">
								<stop  offset="0" style="stop-color:#F7F7F0"/>
								<stop  offset="0.6031" style="stop-color:#FFFFFF"/>
								<stop  offset="1" style="stop-color:#FFFFFF"/>
							</linearGradient>
							<path class="st26" d="M34.8,64.54c-1.06,0.35-1.38-0.73-1.38-0.73c-0.02-0.04-0.02-0.08-0.03-0.12
								c-0.04,0-0.08,0.02-0.12,0.01c0,0-1.12,0.03-1.12-1.09c0.01-1.12,1.21-1.6,1.91-1.6c0.39,0.01,0.76-0.04,1.07,0.14
								c0.03,0.01,0.05,0.02,0.08,0.04c0.03,0.02,0.05,0.04,0.06,0.06c0.26,0.24,0.34,0.6,0.46,0.97
								C35.95,62.89,35.86,64.19,34.8,64.54z"/>
							
								<linearGradient id="SVGID_20_" gradientUnits="userSpaceOnUse" x1="97.7556" y1="210.5325" x2="101.5627" y2="210.5325" gradientTransform="matrix(0.809 -0.5878 -0.5878 -0.809 80.6303 291.4781)">
								<stop  offset="0" style="stop-color:#F7F7F0"/>
								<stop  offset="0.6031" style="stop-color:#FFFFFF"/>
								<stop  offset="1" style="stop-color:#FFFFFF"/>
							</linearGradient>
							<path class="st27" d="M39.55,62.61c0.01,1.12-1.12,1.09-1.12,1.09c-0.04,0-0.08-0.01-0.12-0.01
								c-0.01,0.04-0.01,0.08-0.03,0.12c0,0-0.32,1.07-1.38,0.73c-1.06-0.35-1.15-1.65-0.93-2.31c0.12-0.37,0.2-0.73,0.46-0.97
								c0.02-0.02,0.04-0.04,0.06-0.06c0.03-0.02,0.05-0.03,0.08-0.04c0.31-0.18,0.67-0.13,1.07-0.14
								C38.34,61.01,39.55,61.5,39.55,62.61z"/>
							
								<linearGradient id="SVGID_21_" gradientUnits="userSpaceOnUse" x1="-137.4204" y1="-79.822" x2="-133.613" y2="-79.822" gradientTransform="matrix(-0.309 -0.9511 -0.9511 0.309 -79.2696 -44.794)">
								<stop  offset="0" style="stop-color:#F7F7F0"/>
								<stop  offset="0.6031" style="stop-color:#FFFFFF"/>
								<stop  offset="1" style="stop-color:#FFFFFF"/>
							</linearGradient>
							<path class="st28" d="M39.19,57.49c1.06,0.34,0.69,1.4,0.69,1.4c-0.01,0.04-0.03,0.07-0.05,0.11
								c0.04,0.02,0.07,0.04,0.11,0.07c0,0,0.92,0.64,0.26,1.54c-0.66,0.9-1.92,0.58-2.48,0.17c-0.31-0.24-0.63-0.42-0.78-0.74
								c-0.02-0.03-0.03-0.05-0.04-0.08c-0.01-0.03-0.01-0.06-0.02-0.09c-0.07-0.35,0.08-0.68,0.2-1.06
								C37.29,58.15,38.13,57.15,39.19,57.49z"/>
						</g>
					</g>
					<g>
						<path class="st12" d="M37.94,60.32c0,1.16-0.94,2.1-2.09,2.1c-1.16,0-2.1-0.94-2.1-2.1c0-1.16,0.94-2.1,2.1-2.1
							C37.01,58.22,37.95,59.17,37.94,60.32z"/>
						<path class="st13" d="M37.6,60.6c0,0.81-0.66,1.47-1.46,1.47c-0.81,0-1.47-0.66-1.47-1.47c0-0.81,0.66-1.47,1.47-1.47
							C36.94,59.13,37.6,59.79,37.6,60.6z"/>
						<path class="st6" d="M37.94,60.32c0,1.16-0.94,2.1-2.09,2.1c-1.16,0-2.1-0.94-2.1-2.1c0-1.16,0.94-2.1,2.1-2.1
							C37.01,58.22,37.95,59.17,37.94,60.32z"/>
					</g>
				</g>
				<g>
					<g>
						<path class="st3" d="M27.22,60.32c0,4.53-3.67,8.21-8.21,8.21c-4.53,0-8.2-3.67-8.2-8.21c0-4.53,3.67-8.2,8.2-8.2
							C23.55,52.12,27.22,55.79,27.22,60.32z"/>
						<path class="st4" d="M27.01,60.52c0,4.31-3.49,7.79-7.79,7.79c-4.3,0-7.79-3.49-7.79-7.79c0-4.3,3.49-7.79,7.79-7.79
							C23.52,52.73,27.01,56.22,27.01,60.52z"/>
					</g>
					<g>
						<path class="st5" d="M12.85,60.61c0-3.56,2.89-6.46,6.45-6.46c3.56,0,6.46,2.89,6.46,6.45c0,3.57-2.89,6.45-6.46,6.45
							C15.74,67.06,12.85,64.17,12.85,60.61z"/>
						<path class="st12" d="M12.56,60.32c0-3.56,2.89-6.46,6.45-6.46c3.56,0,6.46,2.89,6.46,6.45c0,3.57-2.89,6.46-6.46,6.46
							C15.45,66.77,12.57,63.89,12.56,60.32z"/>
						<path class="st13" d="M13.18,60.75c0-3.46,2.8-6.26,6.26-6.26c3.46,0,6.26,2.81,6.26,6.26c0,3.46-2.81,6.26-6.26,6.26
							C15.99,67.01,13.18,64.2,13.18,60.75z"/>
						<path class="st6" d="M12.56,60.32c0-3.56,2.89-6.46,6.45-6.46c3.56,0,6.46,2.89,6.46,6.45c0,3.57-2.89,6.46-6.46,6.46
							C15.45,66.77,12.57,63.89,12.56,60.32z"/>
					</g>
					<g>
						<g>
							<path class="st3" d="M17.66,56.54c0.65-0.9,1.55-0.22,1.55-0.22c0.04,0.02,0.06,0.05,0.09,0.08
								c0.03-0.03,0.05-0.06,0.09-0.08c0,0,0.89-0.68,1.55,0.22c0.65,0.91-0.04,2.01-0.61,2.41c-0.32,0.23-0.59,0.48-0.94,0.52
								c-0.03,0-0.06,0.01-0.09,0.01c-0.03,0-0.06-0.01-0.09-0.01c-0.36-0.04-0.63-0.29-0.95-0.51
								C17.7,58.55,17.01,57.44,17.66,56.54z"/>
							<path class="st3" d="M14.95,60.9c-0.66-0.9,0.27-1.54,0.27-1.54c0.03-0.03,0.07-0.04,0.1-0.06
								c-0.01-0.04-0.04-0.07-0.05-0.11c0,0-0.37-1.06,0.69-1.4c1.06-0.34,1.9,0.66,2.11,1.33c0.11,0.37,0.27,0.71,0.2,1.05
								c0,0.03-0.01,0.06-0.02,0.09c-0.01,0.03-0.02,0.05-0.04,0.08c-0.15,0.32-0.47,0.5-0.78,0.74
								C16.87,61.48,15.6,61.8,14.95,60.9z"/>
							<path class="st3" d="M18.25,64.83c-1.06,0.35-1.38-0.73-1.38-0.73c-0.02-0.04-0.02-0.08-0.03-0.12
								c-0.04,0-0.08,0.02-0.12,0.01c0,0-1.12,0.02-1.12-1.09c0-1.12,1.21-1.6,1.91-1.6c0.39,0.01,0.75-0.04,1.06,0.14
								c0.03,0.01,0.05,0.02,0.08,0.04c0.03,0.02,0.05,0.04,0.07,0.06c0.26,0.24,0.34,0.6,0.46,0.97
								C19.4,63.18,19.31,64.47,18.25,64.83z"/>
							<path class="st3" d="M23.01,62.89c0,1.12-1.12,1.09-1.12,1.09c-0.04,0-0.08-0.01-0.12-0.01c-0.01,0.04-0.01,0.08-0.03,0.12
								c0,0-0.32,1.07-1.38,0.73c-1.06-0.35-1.15-1.65-0.92-2.31c0.12-0.37,0.2-0.73,0.46-0.97c0.02-0.02,0.04-0.04,0.06-0.06
								c0.03-0.02,0.05-0.03,0.08-0.04c0.31-0.18,0.67-0.13,1.07-0.14C21.8,61.29,23,61.78,23.01,62.89z"/>
							<path class="st3" d="M22.64,57.77c1.06,0.34,0.69,1.4,0.69,1.4c-0.01,0.04-0.04,0.07-0.05,0.11
								c0.04,0.02,0.07,0.04,0.11,0.07c0,0,0.92,0.64,0.26,1.54c-0.66,0.9-1.92,0.58-2.48,0.17c-0.31-0.24-0.63-0.42-0.78-0.74
								c-0.02-0.03-0.03-0.05-0.04-0.08c-0.01-0.03-0.01-0.06-0.02-0.09c-0.07-0.35,0.08-0.68,0.2-1.06
								C20.74,58.43,21.58,57.43,22.64,57.77z"/>
						</g>
						<g>
							
								<linearGradient id="SVGID_22_" gradientUnits="userSpaceOnUse" x1="-468.7289" y1="53.4287" x2="-464.9209" y2="53.4287" gradientTransform="matrix(-1 0 0 1 -447.8076 4.0605)">
								<stop  offset="0" style="stop-color:#F7F7F0"/>
								<stop  offset="0.6031" style="stop-color:#FFFFFF"/>
								<stop  offset="1" style="stop-color:#FFFFFF"/>
							</linearGradient>
							<path class="st29" d="M17.38,56.26c0.65-0.9,1.55-0.22,1.55-0.22c0.04,0.02,0.06,0.05,0.09,0.08
								c0.03-0.03,0.05-0.06,0.09-0.08c0,0,0.89-0.68,1.55,0.22c0.65,0.91-0.04,2.01-0.61,2.41c-0.32,0.23-0.59,0.48-0.94,0.52
								c-0.03,0-0.06,0.01-0.09,0.01c-0.03,0-0.06-0.01-0.09-0.01c-0.36-0.04-0.63-0.29-0.95-0.52
								C17.41,58.26,16.73,57.16,17.38,56.26z"/>
							
								<linearGradient id="SVGID_23_" gradientUnits="userSpaceOnUse" x1="-461.4473" y1="409.6461" x2="-457.6374" y2="409.6461" gradientTransform="matrix(-0.309 0.9511 0.9511 0.309 -515.2704 369.9239)">
								<stop  offset="0" style="stop-color:#F7F7F0"/>
								<stop  offset="0.6031" style="stop-color:#FFFFFF"/>
								<stop  offset="1" style="stop-color:#FFFFFF"/>
							</linearGradient>
							<path class="st30" d="M14.66,60.61c-0.66-0.9,0.27-1.54,0.27-1.54c0.03-0.03,0.07-0.04,0.1-0.06
								c-0.01-0.04-0.04-0.07-0.05-0.11c0,0-0.37-1.06,0.69-1.4c1.06-0.34,1.9,0.66,2.11,1.33c0.11,0.37,0.27,0.71,0.2,1.05
								c0,0.03-0.01,0.06-0.02,0.09c-0.01,0.03-0.02,0.05-0.04,0.08c-0.15,0.32-0.47,0.5-0.78,0.74
								C16.59,61.2,15.32,61.51,14.66,60.61z"/>
							
								<linearGradient id="SVGID_24_" gradientUnits="userSpaceOnUse" x1="-120.0215" y1="513.699" x2="-116.2119" y2="513.699" gradientTransform="matrix(0.809 0.5878 0.5878 -0.809 -189.0307 547.5911)">
								<stop  offset="0" style="stop-color:#F7F7F0"/>
								<stop  offset="0.6031" style="stop-color:#FFFFFF"/>
								<stop  offset="1" style="stop-color:#FFFFFF"/>
							</linearGradient>
							<path class="st31" d="M17.97,64.54c-1.06,0.35-1.38-0.73-1.38-0.73c-0.02-0.04-0.02-0.08-0.03-0.12
								c-0.04,0-0.08,0.02-0.12,0.01c0,0-1.12,0.03-1.12-1.09c0-1.12,1.21-1.6,1.91-1.6c0.39,0.01,0.75-0.04,1.06,0.14
								c0.03,0.01,0.05,0.02,0.08,0.04c0.03,0.02,0.05,0.04,0.07,0.06c0.26,0.24,0.34,0.6,0.46,0.97
								C19.12,62.89,19.03,64.19,17.97,64.54z"/>
							
								<linearGradient id="SVGID_25_" gradientUnits="userSpaceOnUse" x1="84.1394" y1="220.426" x2="87.947" y2="220.426" gradientTransform="matrix(0.809 -0.5878 -0.5878 -0.809 80.6303 291.4781)">
								<stop  offset="0" style="stop-color:#F7F7F0"/>
								<stop  offset="0.6031" style="stop-color:#FFFFFF"/>
								<stop  offset="1" style="stop-color:#FFFFFF"/>
							</linearGradient>
							<path class="st32" d="M22.72,62.61c0,1.12-1.12,1.09-1.12,1.09c-0.04,0-0.08-0.01-0.12-0.01c-0.01,0.04-0.01,0.08-0.03,0.12
								c0,0-0.32,1.07-1.38,0.73c-1.06-0.35-1.15-1.65-0.92-2.31c0.12-0.37,0.2-0.73,0.46-0.97c0.02-0.02,0.04-0.04,0.06-0.06
								c0.03-0.02,0.05-0.03,0.08-0.04c0.31-0.18,0.67-0.13,1.07-0.14C21.51,61.01,22.72,61.5,22.72,62.61z"/>
							
								<linearGradient id="SVGID_26_" gradientUnits="userSpaceOnUse" x1="-132.2203" y1="-63.8153" x2="-128.4125" y2="-63.8153" gradientTransform="matrix(-0.309 -0.9511 -0.9511 0.309 -79.2696 -44.794)">
								<stop  offset="0" style="stop-color:#F7F7F0"/>
								<stop  offset="0.6031" style="stop-color:#FFFFFF"/>
								<stop  offset="1" style="stop-color:#FFFFFF"/>
							</linearGradient>
							<path class="st33" d="M22.36,57.49c1.06,0.34,0.69,1.4,0.69,1.4c-0.01,0.04-0.04,0.07-0.05,0.11
								c0.04,0.02,0.07,0.04,0.11,0.07c0,0,0.92,0.64,0.26,1.54c-0.66,0.9-1.92,0.58-2.48,0.17c-0.31-0.24-0.63-0.42-0.78-0.74
								c-0.02-0.03-0.03-0.05-0.04-0.08c-0.01-0.03-0.01-0.06-0.02-0.09c-0.07-0.35,0.08-0.68,0.2-1.06
								C20.46,58.15,21.3,57.15,22.36,57.49z"/>
						</g>
					</g>
					<g>
						<path class="st12" d="M21.11,60.32c0,1.16-0.94,2.1-2.09,2.1c-1.16,0-2.1-0.94-2.1-2.1c0-1.16,0.94-2.1,2.1-2.1
							C20.18,58.22,21.11,59.17,21.11,60.32z"/>
						<path class="st13" d="M20.77,60.6c0,0.81-0.66,1.47-1.46,1.47c-0.81,0-1.47-0.66-1.47-1.47c0-0.81,0.66-1.47,1.47-1.47
							C20.11,59.13,20.77,59.79,20.77,60.6z"/>
						<path class="st6" d="M21.11,60.32c0,1.16-0.94,2.1-2.09,2.1c-1.16,0-2.1-0.94-2.1-2.1c0-1.16,0.94-2.1,2.1-2.1
							C20.18,58.22,21.11,59.17,21.11,60.32z"/>
					</g>
				</g>
			</g>
			<g>
				<g>
					<g>
						<path class="st3" d="M44.05,43.49c0,4.53-3.67,8.21-8.21,8.21c-4.53,0-8.2-3.67-8.2-8.21c0-4.53,3.67-8.2,8.2-8.2
							C40.38,35.29,44.05,38.96,44.05,43.49z"/>
						<path class="st4" d="M43.84,43.69c0,4.31-3.49,7.79-7.8,7.79c-4.3,0-7.79-3.49-7.79-7.79c0-4.3,3.49-7.79,7.79-7.79
							C40.35,35.89,43.84,39.38,43.84,43.69z"/>
					</g>
					<g>
						<path class="st5" d="M29.68,43.77c0-3.56,2.89-6.46,6.45-6.46c3.56,0,6.46,2.89,6.46,6.45c0,3.57-2.89,6.45-6.46,6.45
							C32.57,50.23,29.68,47.34,29.68,43.77z"/>
						<path class="st12" d="M29.4,43.49c0-3.56,2.89-6.46,6.45-6.46c3.56,0,6.46,2.89,6.46,6.45c0,3.56-2.89,6.46-6.46,6.46
							C32.28,49.94,29.4,47.05,29.4,43.49z"/>
						<path class="st13" d="M30.01,43.92c0-3.46,2.8-6.26,6.26-6.26c3.46,0,6.26,2.81,6.26,6.26c0,3.46-2.81,6.26-6.26,6.26
							C32.82,50.18,30.01,47.37,30.01,43.92z"/>
						<path class="st6" d="M29.4,43.49c0-3.56,2.89-6.46,6.45-6.46c3.56,0,6.46,2.89,6.46,6.45c0,3.56-2.89,6.46-6.46,6.46
							C32.28,49.94,29.4,47.05,29.4,43.49z"/>
					</g>
					<g>
						<g>
							<path class="st3" d="M34.49,39.71c0.65-0.9,1.54-0.22,1.54-0.22c0.04,0.02,0.06,0.05,0.09,0.08c0.03-0.03,0.06-0.06,0.1-0.08
								c0,0,0.89-0.68,1.55,0.22c0.65,0.91-0.04,2.01-0.61,2.41c-0.32,0.23-0.59,0.47-0.95,0.51c-0.03,0.01-0.06,0.01-0.09,0.01
								c-0.03,0-0.06-0.01-0.09-0.01c-0.36-0.04-0.62-0.29-0.95-0.51C34.53,41.72,33.84,40.61,34.49,39.71z"/>
							<path class="st3" d="M31.78,44.06c-0.66-0.9,0.27-1.54,0.27-1.54c0.03-0.03,0.07-0.04,0.11-0.06
								c-0.02-0.04-0.04-0.07-0.05-0.11c0,0-0.37-1.06,0.69-1.4c1.06-0.34,1.9,0.66,2.1,1.33c0.12,0.37,0.27,0.71,0.2,1.06
								c0,0.03-0.01,0.06-0.02,0.09c-0.01,0.03-0.03,0.05-0.04,0.08c-0.15,0.32-0.47,0.5-0.78,0.74
								C33.7,44.65,32.44,44.97,31.78,44.06z"/>
							<path class="st3" d="M35.08,47.99c-1.06,0.35-1.38-0.73-1.38-0.73c-0.02-0.04-0.02-0.08-0.03-0.12
								c-0.04,0-0.08,0.01-0.12,0.01c0,0-1.12,0.02-1.12-1.09c0.01-1.11,1.21-1.6,1.91-1.59c0.39,0.01,0.76-0.04,1.07,0.14
								c0.03,0.01,0.05,0.02,0.08,0.05c0.03,0.02,0.04,0.04,0.06,0.06c0.26,0.24,0.34,0.6,0.46,0.97
								C36.23,46.35,36.14,47.64,35.08,47.99z"/>
							<path class="st3" d="M39.84,46.06c0.01,1.11-1.12,1.09-1.12,1.09c-0.04,0-0.08-0.01-0.12-0.01
								c-0.01,0.04-0.01,0.08-0.03,0.12c0,0-0.32,1.07-1.38,0.73c-1.06-0.35-1.15-1.65-0.93-2.31c0.12-0.37,0.2-0.73,0.46-0.97
								c0.02-0.02,0.04-0.04,0.06-0.06c0.03-0.02,0.05-0.03,0.08-0.04c0.31-0.18,0.67-0.13,1.07-0.14
								C38.63,44.46,39.83,44.95,39.84,46.06z"/>
							<path class="st3" d="M39.47,40.94c1.06,0.34,0.69,1.4,0.69,1.4c-0.01,0.04-0.03,0.07-0.05,0.11
								c0.04,0.02,0.07,0.04,0.11,0.06c0,0,0.92,0.64,0.26,1.54c-0.66,0.9-1.92,0.59-2.48,0.17c-0.31-0.24-0.63-0.42-0.78-0.74
								c-0.02-0.03-0.03-0.05-0.04-0.08c-0.01-0.03-0.01-0.06-0.02-0.09c-0.07-0.35,0.08-0.68,0.2-1.06
								C37.57,41.6,38.41,40.6,39.47,40.94z"/>
						</g>
						<g>
							
								<linearGradient id="SVGID_27_" gradientUnits="userSpaceOnUse" x1="-485.5599" y1="36.5986" x2="-481.7516" y2="36.5986" gradientTransform="matrix(-1 0 0 1 -447.8076 4.0605)">
								<stop  offset="0" style="stop-color:#F7F7F0"/>
								<stop  offset="0.6031" style="stop-color:#FFFFFF"/>
								<stop  offset="1" style="stop-color:#FFFFFF"/>
							</linearGradient>
							<path class="st34" d="M34.21,39.43c0.65-0.9,1.54-0.22,1.54-0.22c0.04,0.02,0.06,0.05,0.09,0.08
								c0.03-0.03,0.06-0.06,0.1-0.08c0,0,0.89-0.68,1.54,0.22c0.65,0.91-0.04,2.01-0.61,2.41c-0.32,0.22-0.59,0.47-0.95,0.51
								c-0.03,0.01-0.06,0.01-0.09,0.01c-0.03,0-0.06-0.01-0.09-0.01c-0.36-0.04-0.62-0.29-0.95-0.51
								C34.24,41.43,33.56,40.33,34.21,39.43z"/>
							
								<linearGradient id="SVGID_28_" gradientUnits="userSpaceOnUse" x1="-482.6541" y1="420.4527" x2="-478.8456" y2="420.4527" gradientTransform="matrix(-0.309 0.9511 0.9511 0.309 -515.2704 369.9239)">
								<stop  offset="0" style="stop-color:#F7F7F0"/>
								<stop  offset="0.6031" style="stop-color:#FFFFFF"/>
								<stop  offset="1" style="stop-color:#FFFFFF"/>
							</linearGradient>
							<path class="st35" d="M31.49,43.78c-0.66-0.9,0.27-1.54,0.27-1.54c0.03-0.03,0.07-0.04,0.11-0.06
								c-0.02-0.04-0.04-0.07-0.05-0.12c0,0-0.37-1.06,0.69-1.4c1.06-0.34,1.9,0.66,2.1,1.32c0.12,0.37,0.27,0.71,0.2,1.06
								c0,0.03-0.01,0.06-0.02,0.09c-0.01,0.03-0.03,0.05-0.04,0.08c-0.15,0.32-0.47,0.5-0.78,0.74
								C33.42,44.37,32.15,44.68,31.49,43.78z"/>
							
								<linearGradient id="SVGID_29_" gradientUnits="userSpaceOnUse" x1="-116.2982" y1="537.2089" x2="-112.4895" y2="537.2089" gradientTransform="matrix(0.809 0.5878 0.5878 -0.809 -189.0307 547.5911)">
								<stop  offset="0" style="stop-color:#F7F7F0"/>
								<stop  offset="0.6031" style="stop-color:#FFFFFF"/>
								<stop  offset="1" style="stop-color:#FFFFFF"/>
							</linearGradient>
							<path class="st36" d="M34.8,47.71c-1.06,0.35-1.38-0.73-1.38-0.73c-0.02-0.04-0.02-0.08-0.03-0.12
								c-0.04,0-0.08,0.01-0.12,0.01c0,0-1.12,0.02-1.12-1.09c0.01-1.11,1.21-1.6,1.91-1.59c0.39,0.01,0.76-0.04,1.07,0.14
								c0.03,0.02,0.05,0.03,0.08,0.05c0.03,0.02,0.05,0.04,0.06,0.06c0.26,0.24,0.34,0.6,0.46,0.97
								C35.95,46.06,35.86,47.36,34.8,47.71z"/>
							
								<linearGradient id="SVGID_30_" gradientUnits="userSpaceOnUse" x1="107.6484" y1="224.1491" x2="111.4561" y2="224.1491" gradientTransform="matrix(0.809 -0.5878 -0.5878 -0.809 80.6303 291.4781)">
								<stop  offset="0" style="stop-color:#F7F7F0"/>
								<stop  offset="0.6031" style="stop-color:#FFFFFF"/>
								<stop  offset="1" style="stop-color:#FFFFFF"/>
							</linearGradient>
							<path class="st37" d="M39.55,45.78c0.01,1.12-1.12,1.09-1.12,1.09c-0.04,0-0.08-0.01-0.12-0.01
								c-0.01,0.04-0.01,0.08-0.03,0.12c0,0-0.32,1.07-1.38,0.73c-1.06-0.35-1.15-1.65-0.93-2.31c0.12-0.37,0.2-0.73,0.46-0.97
								c0.02-0.03,0.04-0.04,0.06-0.06c0.03-0.02,0.05-0.03,0.08-0.04c0.31-0.18,0.67-0.13,1.07-0.14
								C38.34,44.18,39.55,44.67,39.55,45.78z"/>
							
								<linearGradient id="SVGID_31_" gradientUnits="userSpaceOnUse" x1="-121.4138" y1="-85.0225" x2="-117.6067" y2="-85.0225" gradientTransform="matrix(-0.309 -0.9511 -0.9511 0.309 -79.2696 -44.794)">
								<stop  offset="0" style="stop-color:#F7F7F0"/>
								<stop  offset="0.6031" style="stop-color:#FFFFFF"/>
								<stop  offset="1" style="stop-color:#FFFFFF"/>
							</linearGradient>
							<path class="st38" d="M39.19,40.66c1.06,0.34,0.69,1.4,0.69,1.4c-0.01,0.04-0.03,0.07-0.05,0.11
								c0.04,0.02,0.07,0.04,0.11,0.06c0,0,0.92,0.64,0.26,1.54c-0.66,0.9-1.92,0.59-2.48,0.17c-0.31-0.24-0.63-0.42-0.78-0.74
								c-0.02-0.03-0.03-0.05-0.04-0.08c-0.01-0.03-0.01-0.06-0.02-0.09c-0.07-0.35,0.08-0.68,0.2-1.06
								C37.29,41.31,38.13,40.32,39.19,40.66z"/>
						</g>
					</g>
					<g>
						<path class="st12" d="M37.94,43.49c0,1.16-0.94,2.1-2.09,2.1c-1.16,0-2.1-0.94-2.1-2.1c0-1.16,0.94-2.1,2.1-2.1
							C37.01,41.39,37.95,42.33,37.94,43.49z"/>
						<path class="st13" d="M37.6,43.77c0,0.81-0.66,1.47-1.46,1.47c-0.81,0-1.47-0.66-1.47-1.47c0-0.81,0.66-1.47,1.47-1.47
							C36.94,42.3,37.6,42.96,37.6,43.77z"/>
						<path class="st6" d="M37.94,43.49c0,1.16-0.94,2.1-2.09,2.1c-1.16,0-2.1-0.94-2.1-2.1c0-1.16,0.94-2.1,2.1-2.1
							C37.01,41.39,37.95,42.33,37.94,43.49z"/>
					</g>
				</g>
				<g>
					<g>
						<path class="st3" d="M27.22,43.49c0,4.53-3.67,8.21-8.21,8.21c-4.53,0-8.2-3.67-8.2-8.21c0-4.53,3.67-8.2,8.2-8.2
							C23.55,35.29,27.22,38.96,27.22,43.49z"/>
						<path class="st4" d="M27.01,43.69c0,4.31-3.49,7.79-7.79,7.79c-4.3,0-7.79-3.49-7.79-7.79c0-4.3,3.49-7.79,7.79-7.79
							C23.52,35.89,27.01,39.38,27.01,43.69z"/>
					</g>
					<g>
						<path class="st5" d="M12.85,43.77c0-3.56,2.89-6.46,6.45-6.46c3.56,0,6.46,2.89,6.46,6.45c0,3.57-2.89,6.45-6.46,6.45
							C15.74,50.23,12.85,47.34,12.85,43.77z"/>
						<path class="st12" d="M12.56,43.49c0-3.56,2.89-6.46,6.45-6.46c3.56,0,6.46,2.89,6.46,6.45c0,3.56-2.89,6.46-6.46,6.46
							C15.45,49.94,12.57,47.05,12.56,43.49z"/>
						<path class="st13" d="M13.18,43.92c0-3.46,2.8-6.26,6.26-6.26c3.46,0,6.26,2.81,6.26,6.26c0,3.46-2.81,6.26-6.26,6.26
							C15.99,50.18,13.18,47.37,13.18,43.92z"/>
						<path class="st6" d="M12.56,43.49c0-3.56,2.89-6.46,6.45-6.46c3.56,0,6.46,2.89,6.46,6.45c0,3.56-2.89,6.46-6.46,6.46
							C15.45,49.94,12.57,47.05,12.56,43.49z"/>
					</g>
					<g>
						<g>
							<path class="st3" d="M17.66,39.71c0.65-0.9,1.55-0.22,1.55-0.22c0.04,0.02,0.06,0.05,0.09,0.08
								c0.03-0.03,0.05-0.06,0.09-0.08c0,0,0.89-0.68,1.55,0.22c0.65,0.91-0.04,2.01-0.61,2.41c-0.32,0.23-0.59,0.47-0.94,0.51
								c-0.03,0.01-0.06,0.01-0.09,0.01c-0.03,0-0.06-0.01-0.09-0.01c-0.36-0.04-0.63-0.29-0.95-0.51
								C17.7,41.72,17.01,40.61,17.66,39.71z"/>
							<path class="st3" d="M14.95,44.06c-0.66-0.9,0.27-1.54,0.27-1.54c0.03-0.03,0.07-0.04,0.1-0.06
								c-0.01-0.04-0.04-0.07-0.05-0.11c0,0-0.37-1.06,0.69-1.4c1.06-0.34,1.9,0.66,2.11,1.33c0.11,0.37,0.27,0.71,0.2,1.06
								c0,0.03-0.01,0.06-0.02,0.09c-0.01,0.03-0.02,0.05-0.04,0.08c-0.15,0.32-0.47,0.5-0.78,0.74
								C16.87,44.65,15.6,44.97,14.95,44.06z"/>
							<path class="st3" d="M18.25,47.99c-1.06,0.35-1.38-0.73-1.38-0.73c-0.02-0.04-0.02-0.08-0.03-0.12
								c-0.04,0-0.08,0.01-0.12,0.01c0,0-1.12,0.02-1.12-1.09c0-1.11,1.21-1.6,1.91-1.59c0.39,0.01,0.75-0.04,1.06,0.14
								c0.03,0.01,0.05,0.02,0.08,0.05c0.03,0.02,0.05,0.04,0.07,0.06c0.26,0.24,0.34,0.6,0.46,0.97
								C19.4,46.35,19.31,47.64,18.25,47.99z"/>
							<path class="st3" d="M23.01,46.06c0,1.11-1.12,1.09-1.12,1.09c-0.04,0-0.08-0.01-0.12-0.01c-0.01,0.04-0.01,0.08-0.03,0.12
								c0,0-0.32,1.07-1.38,0.73c-1.06-0.35-1.15-1.65-0.92-2.31c0.12-0.37,0.2-0.73,0.46-0.97c0.02-0.02,0.04-0.04,0.06-0.06
								c0.03-0.02,0.05-0.03,0.08-0.04c0.31-0.18,0.67-0.13,1.07-0.14C21.8,44.46,23,44.95,23.01,46.06z"/>
							<path class="st3" d="M22.64,40.94c1.06,0.34,0.69,1.4,0.69,1.4c-0.01,0.04-0.04,0.07-0.05,0.11
								c0.04,0.02,0.07,0.04,0.11,0.06c0,0,0.92,0.64,0.26,1.54c-0.66,0.9-1.92,0.59-2.48,0.17c-0.31-0.24-0.63-0.42-0.78-0.74
								c-0.02-0.03-0.03-0.05-0.04-0.08c-0.01-0.03-0.01-0.06-0.02-0.09c-0.07-0.35,0.08-0.68,0.2-1.06
								C20.74,41.6,21.58,40.6,22.64,40.94z"/>
						</g>
						<g>
							
								<linearGradient id="SVGID_32_" gradientUnits="userSpaceOnUse" x1="-468.7289" y1="36.5986" x2="-464.9209" y2="36.5986" gradientTransform="matrix(-1 0 0 1 -447.8076 4.0605)">
								<stop  offset="0" style="stop-color:#F7F7F0"/>
								<stop  offset="0.6031" style="stop-color:#FFFFFF"/>
								<stop  offset="1" style="stop-color:#FFFFFF"/>
							</linearGradient>
							<path class="st39" d="M17.38,39.43c0.65-0.9,1.55-0.22,1.55-0.22c0.04,0.02,0.06,0.05,0.09,0.08
								c0.03-0.03,0.05-0.06,0.09-0.08c0,0,0.89-0.68,1.55,0.22c0.65,0.91-0.04,2.01-0.61,2.41c-0.32,0.22-0.59,0.47-0.94,0.51
								c-0.03,0.01-0.06,0.01-0.09,0.01c-0.03,0-0.06-0.01-0.09-0.01c-0.36-0.04-0.63-0.29-0.95-0.51
								C17.41,41.43,16.73,40.33,17.38,39.43z"/>
							
								<linearGradient id="SVGID_33_" gradientUnits="userSpaceOnUse" x1="-477.4533" y1="404.4457" x2="-473.6451" y2="404.4457" gradientTransform="matrix(-0.309 0.9511 0.9511 0.309 -515.2704 369.9239)">
								<stop  offset="0" style="stop-color:#F7F7F0"/>
								<stop  offset="0.6031" style="stop-color:#FFFFFF"/>
								<stop  offset="1" style="stop-color:#FFFFFF"/>
							</linearGradient>
							<path class="st40" d="M14.66,43.78c-0.66-0.9,0.27-1.54,0.27-1.54c0.03-0.03,0.07-0.04,0.1-0.06
								c-0.01-0.04-0.04-0.07-0.05-0.12c0,0-0.37-1.06,0.69-1.4c1.06-0.34,1.9,0.66,2.11,1.32c0.11,0.37,0.27,0.71,0.2,1.06
								c0,0.03-0.01,0.06-0.02,0.09c-0.01,0.03-0.02,0.05-0.04,0.08c-0.15,0.32-0.47,0.5-0.78,0.74
								C16.59,44.37,15.32,44.68,14.66,43.78z"/>
							
								<linearGradient id="SVGID_34_" gradientUnits="userSpaceOnUse" x1="-129.9149" y1="527.3154" x2="-126.1059" y2="527.3154" gradientTransform="matrix(0.809 0.5878 0.5878 -0.809 -189.0307 547.5911)">
								<stop  offset="0" style="stop-color:#F7F7F0"/>
								<stop  offset="0.6031" style="stop-color:#FFFFFF"/>
								<stop  offset="1" style="stop-color:#FFFFFF"/>
							</linearGradient>
							<path class="st41" d="M17.97,47.71c-1.06,0.35-1.38-0.73-1.38-0.73c-0.02-0.04-0.02-0.08-0.03-0.12
								c-0.04,0-0.08,0.01-0.12,0.01c0,0-1.12,0.02-1.12-1.09c0-1.11,1.21-1.6,1.91-1.59c0.39,0.01,0.75-0.04,1.06,0.14
								c0.03,0.02,0.05,0.03,0.08,0.05c0.03,0.02,0.05,0.04,0.07,0.06c0.26,0.24,0.34,0.6,0.46,0.97
								C19.12,46.06,19.03,47.36,17.97,47.71z"/>
							
								<linearGradient id="SVGID_35_" gradientUnits="userSpaceOnUse" x1="94.0322" y1="234.0425" x2="97.8405" y2="234.0425" gradientTransform="matrix(0.809 -0.5878 -0.5878 -0.809 80.6303 291.4781)">
								<stop  offset="0" style="stop-color:#F7F7F0"/>
								<stop  offset="0.6031" style="stop-color:#FFFFFF"/>
								<stop  offset="1" style="stop-color:#FFFFFF"/>
							</linearGradient>
							<path class="st42" d="M22.72,45.78c0,1.12-1.12,1.09-1.12,1.09c-0.04,0-0.08-0.01-0.12-0.01c-0.01,0.04-0.01,0.08-0.03,0.12
								c0,0-0.32,1.07-1.38,0.73c-1.06-0.35-1.15-1.65-0.92-2.31c0.12-0.37,0.2-0.73,0.46-0.97c0.02-0.03,0.04-0.04,0.06-0.06
								c0.03-0.02,0.05-0.03,0.08-0.04c0.31-0.18,0.67-0.13,1.07-0.14C21.51,44.18,22.72,44.67,22.72,45.78z"/>
							
								<linearGradient id="SVGID_36_" gradientUnits="userSpaceOnUse" x1="-116.2137" y1="-69.0158" x2="-112.4061" y2="-69.0158" gradientTransform="matrix(-0.309 -0.9511 -0.9511 0.309 -79.2696 -44.794)">
								<stop  offset="0" style="stop-color:#F7F7F0"/>
								<stop  offset="0.6031" style="stop-color:#FFFFFF"/>
								<stop  offset="1" style="stop-color:#FFFFFF"/>
							</linearGradient>
							<path class="st43" d="M22.36,40.66c1.06,0.34,0.69,1.4,0.69,1.4c-0.01,0.04-0.04,0.07-0.05,0.11
								c0.04,0.02,0.07,0.04,0.11,0.06c0,0,0.92,0.64,0.26,1.54c-0.66,0.9-1.92,0.59-2.48,0.17c-0.31-0.24-0.63-0.42-0.78-0.74
								c-0.02-0.03-0.03-0.05-0.04-0.08c-0.01-0.03-0.01-0.06-0.02-0.09c-0.07-0.35,0.08-0.68,0.2-1.06
								C20.46,41.31,21.3,40.32,22.36,40.66z"/>
						</g>
					</g>
					<g>
						<path class="st12" d="M21.11,43.49c0,1.16-0.94,2.1-2.09,2.1c-1.16,0-2.1-0.94-2.1-2.1c0-1.16,0.94-2.1,2.1-2.1
							C20.18,41.39,21.11,42.33,21.11,43.49z"/>
						<path class="st13" d="M20.77,43.77c0,0.81-0.66,1.47-1.46,1.47c-0.81,0-1.47-0.66-1.47-1.47c0-0.81,0.66-1.47,1.47-1.47
							C20.11,42.3,20.77,42.96,20.77,43.77z"/>
						<path class="st6" d="M21.11,43.49c0,1.16-0.94,2.1-2.09,2.1c-1.16,0-2.1-0.94-2.1-2.1c0-1.16,0.94-2.1,2.1-2.1
							C20.18,41.39,21.11,42.33,21.11,43.49z"/>
					</g>
				</g>
			</g>
		</g>
	</g>
</g>
</svg>
