<?xml version="1.0" encoding="utf-8"?>
<!-- Generator: Adobe Illustrator 25.3.1, SVG Export Plug-In . SVG Version: 6.00 Build 0)  -->
<svg version="1.1" id="圖層_1" xmlns="http://www.w3.org/2000/svg" xmlns:xlink="http://www.w3.org/1999/xlink" x="0px" y="0px"
	 viewBox="0 0 54.86 74.7" style="enable-background:new 0 0 54.86 74.7;" xml:space="preserve">
<style type="text/css">
	.st0{fill:#EEEEE8;stroke:#1A0B08;}
	.st1{fill:#FFFFFF;}
	.st2{fill:url(#SVGID_1_);}
	.st3{fill:#002D12;}
	.st4{fill:#004A2A;}
	.st5{fill:none;stroke:#002D12;stroke-width:0.65;stroke-miterlimit:10;}
	.st6{fill:none;stroke:#FFFFFF;stroke-width:0.65;stroke-miterlimit:10;}
	.st7{fill:url(#SVGID_2_);}
	.st8{fill:url(#SVGID_3_);}
	.st9{fill:url(#SVGID_4_);}
	.st10{fill:url(#SVGID_5_);}
	.st11{fill:url(#SVGID_6_);}
	.st12{fill:#6E0005;}
	.st13{fill:#98161C;}
	.st14{fill:url(#SVGID_7_);}
	.st15{fill:url(#SVGID_8_);}
	.st16{fill:url(#SVGID_9_);}
	.st17{fill:url(#SVGID_10_);}
	.st18{fill:url(#SVGID_11_);}
	.st19{fill:url(#SVGID_12_);}
	.st20{fill:url(#SVGID_13_);}
	.st21{fill:url(#SVGID_14_);}
	.st22{fill:url(#SVGID_15_);}
	.st23{fill:url(#SVGID_16_);}
	.st24{fill:url(#SVGID_17_);}
	.st25{fill:url(#SVGID_18_);}
	.st26{fill:url(#SVGID_19_);}
	.st27{fill:url(#SVGID_20_);}
	.st28{fill:url(#SVGID_21_);}
	.st29{fill:url(#SVGID_22_);}
	.st30{fill:url(#SVGID_23_);}
	.st31{fill:url(#SVGID_24_);}
	.st32{fill:url(#SVGID_25_);}
	.st33{fill:url(#SVGID_26_);}
	.st34{fill:url(#SVGID_27_);}
	.st35{fill:url(#SVGID_28_);}
	.st36{fill:url(#SVGID_29_);}
	.st37{fill:url(#SVGID_30_);}
	.st38{fill:url(#SVGID_31_);}
	.st39{fill:url(#SVGID_32_);}
	.st40{fill:url(#SVGID_33_);}
	.st41{fill:url(#SVGID_34_);}
	.st42{fill:url(#SVGID_35_);}
	.st43{fill:url(#SVGID_36_);}
	.st44{fill:url(#SVGID_37_);}
	.st45{fill:url(#SVGID_38_);}
	.st46{fill:url(#SVGID_39_);}
	.st47{fill:url(#SVGID_40_);}
	.st48{fill:url(#SVGID_41_);}
</style>
<g>
	<g>
		<g>
			<path class="st0" d="M48.69,0.5H6.17C3.05,0.5,0.5,3.05,0.5,6.17v62.36c0,3.12,2.55,5.67,5.67,5.67h42.52
				c3.12,0,5.67-2.55,5.67-5.67V6.17C54.36,3.05,51.81,0.5,48.69,0.5L48.69,0.5z"/>
		</g>
		<path class="st1" d="M48.69,3.5c1.47,0,2.67,1.2,2.67,2.67v62.36c0,1.47-1.2,2.67-2.67,2.67H6.17C4.7,71.2,3.5,70,3.5,68.53V6.17
			C3.5,4.7,4.7,3.5,6.17,3.5H48.69"/>
		<linearGradient id="SVGID_1_" gradientUnits="userSpaceOnUse" x1="0.0356" y1="64.7448" x2="54.8246" y2="9.9557">
			<stop  offset="0" style="stop-color:#F7F7F0"/>
			<stop  offset="0.6031" style="stop-color:#FFFFFF"/>
			<stop  offset="1" style="stop-color:#FFFFFF"/>
		</linearGradient>
		<path class="st2" d="M48.69,4.5c0.9,0,1.67,0.76,1.67,1.67v62.36c0,0.91-0.76,1.67-1.67,1.67H6.17c-0.91,0-1.67-0.76-1.67-1.67
			V6.17c0-0.91,0.76-1.67,1.67-1.67H48.69"/>
	</g>
	<g>
		<g>
			<g>
				<g>
					<path class="st3" d="M42.72,14.12c0,4.17-3.38,7.55-7.55,7.55c-4.17,0-7.55-3.38-7.55-7.55c0-4.17,3.38-7.55,7.55-7.55
						C39.34,6.57,42.72,9.95,42.72,14.12z"/>
					<path class="st4" d="M42.54,14.32c0,3.96-3.21,7.17-7.17,7.17c-3.96,0-7.17-3.21-7.17-7.17c0-3.96,3.21-7.17,7.17-7.17
						C39.33,7.15,42.54,10.36,42.54,14.32z"/>
				</g>
				<g>
					<path class="st5" d="M29.52,14.41c0-3.28,2.66-5.94,5.94-5.94c3.28,0,5.94,2.66,5.94,5.94c0,3.28-2.66,5.94-5.94,5.94
						C32.18,20.34,29.52,17.68,29.52,14.41z"/>
					<path class="st3" d="M29.24,14.12c0-3.28,2.66-5.94,5.94-5.94c3.28,0,5.94,2.66,5.94,5.94c0,3.28-2.66,5.94-5.94,5.94
						C31.89,20.06,29.24,17.4,29.24,14.12z"/>
					<path class="st4" d="M29.84,14.55c0-3.18,2.58-5.76,5.76-5.76c3.18,0,5.76,2.58,5.76,5.76c0,3.18-2.58,5.76-5.76,5.76
						C32.42,20.31,29.84,17.73,29.84,14.55z"/>
					<path class="st6" d="M29.24,14.12c0-3.28,2.66-5.94,5.94-5.94c3.28,0,5.94,2.66,5.94,5.94c0,3.28-2.66,5.94-5.94,5.94
						C31.89,20.06,29.24,17.4,29.24,14.12z"/>
				</g>
				<g>
					<g>
						<path class="st3" d="M33.95,10.66c0.6-0.83,1.42-0.21,1.42-0.21c0.03,0.02,0.05,0.05,0.08,0.07c0.03-0.03,0.05-0.05,0.09-0.07
							c0,0,0.82-0.63,1.42,0.21c0.6,0.83-0.03,1.85-0.56,2.22c-0.29,0.21-0.54,0.44-0.87,0.47c-0.03,0-0.05,0.01-0.08,0.01
							s-0.05-0.01-0.08-0.01c-0.33-0.04-0.58-0.27-0.87-0.47C33.98,12.51,33.35,11.5,33.95,10.66z"/>
						<path class="st3" d="M31.45,14.67c-0.6-0.83,0.25-1.42,0.25-1.42c0.03-0.03,0.06-0.04,0.09-0.06
							c-0.01-0.04-0.03-0.06-0.04-0.11c0,0-0.34-0.97,0.64-1.29c0.98-0.31,1.75,0.61,1.94,1.22c0.11,0.34,0.25,0.65,0.18,0.97
							c0,0.03-0.01,0.05-0.02,0.08c-0.01,0.03-0.02,0.05-0.03,0.08c-0.13,0.29-0.43,0.46-0.72,0.68
							C33.22,15.21,32.06,15.5,31.45,14.67z"/>
						<path class="st3" d="M34.49,18.29c-0.98,0.32-1.27-0.67-1.27-0.67c-0.01-0.04-0.01-0.07-0.03-0.11
							c-0.04,0-0.07,0.01-0.11,0.01c0,0-1.03,0.02-1.03-1c0-1.03,1.11-1.47,1.76-1.47c0.36,0.01,0.7-0.03,0.98,0.13
							c0.03,0.01,0.05,0.02,0.07,0.04c0.03,0.02,0.04,0.04,0.06,0.05c0.24,0.22,0.31,0.55,0.43,0.89
							C35.55,16.77,35.46,17.96,34.49,18.29z"/>
						<path class="st3" d="M38.86,16.51c0,1.03-1.03,1-1.03,1c-0.04,0-0.07-0.01-0.11-0.01c-0.01,0.04-0.01,0.07-0.03,0.11
							c0,0-0.29,0.99-1.27,0.67c-0.97-0.32-1.06-1.52-0.85-2.12c0.12-0.34,0.18-0.67,0.42-0.89c0.02-0.02,0.04-0.04,0.06-0.05
							c0.02-0.02,0.05-0.03,0.07-0.04c0.29-0.16,0.62-0.12,0.98-0.13C37.75,15.04,38.86,15.49,38.86,16.51z"/>
						<path class="st3" d="M38.53,11.8c0.98,0.31,0.63,1.29,0.63,1.29c-0.01,0.04-0.03,0.07-0.04,0.1c0.04,0.02,0.06,0.03,0.1,0.06
							c0,0,0.85,0.59,0.24,1.41c-0.61,0.83-1.77,0.54-2.28,0.16c-0.29-0.22-0.58-0.38-0.72-0.68c-0.01-0.02-0.03-0.04-0.04-0.07
							c-0.01-0.03-0.01-0.06-0.02-0.08c-0.07-0.32,0.07-0.63,0.18-0.97C36.78,12.4,37.55,11.49,38.53,11.8z"/>
					</g>
					<g>
						
							<linearGradient id="SVGID_2_" gradientUnits="userSpaceOnUse" x1="-484.7319" y1="7.4555" x2="-481.2276" y2="7.4555" gradientTransform="matrix(-1 0 0 1 -447.8076 4.0605)">
							<stop  offset="0" style="stop-color:#F7F7F0"/>
							<stop  offset="0.6031" style="stop-color:#FFFFFF"/>
							<stop  offset="1" style="stop-color:#FFFFFF"/>
						</linearGradient>
						<path class="st7" d="M33.66,10.38c0.6-0.83,1.42-0.21,1.42-0.21c0.03,0.02,0.05,0.05,0.08,0.07c0.03-0.03,0.05-0.05,0.09-0.07
							c0,0,0.82-0.63,1.42,0.21c0.6,0.83-0.03,1.85-0.56,2.22c-0.29,0.21-0.54,0.44-0.87,0.47c-0.03,0-0.05,0.01-0.08,0.01
							c-0.03,0-0.05-0.01-0.08-0.01c-0.33-0.04-0.58-0.27-0.87-0.47C33.7,12.23,33.06,11.21,33.66,10.38z"/>
						
							<linearGradient id="SVGID_3_" gradientUnits="userSpaceOnUse" x1="-510.2218" y1="410.9604" x2="-506.7176" y2="410.9604" gradientTransform="matrix(-0.309 0.9511 0.9511 0.309 -515.2704 369.9239)">
							<stop  offset="0" style="stop-color:#F7F7F0"/>
							<stop  offset="0.6031" style="stop-color:#FFFFFF"/>
							<stop  offset="1" style="stop-color:#FFFFFF"/>
						</linearGradient>
						<path class="st8" d="M31.17,14.39c-0.6-0.83,0.25-1.42,0.25-1.42c0.03-0.03,0.06-0.04,0.09-0.06
							c-0.01-0.04-0.03-0.06-0.04-0.11c0,0-0.34-0.97,0.64-1.29c0.98-0.31,1.75,0.61,1.94,1.22c0.11,0.34,0.25,0.65,0.18,0.97
							c0,0.03-0.01,0.05-0.02,0.08c-0.01,0.03-0.02,0.05-0.03,0.08c-0.13,0.29-0.43,0.46-0.72,0.68
							C32.93,14.93,31.77,15.22,31.17,14.39z"/>
						
							<linearGradient id="SVGID_4_" gradientUnits="userSpaceOnUse" x1="-133.9551" y1="560.794" x2="-130.4509" y2="560.794" gradientTransform="matrix(0.809 0.5878 0.5878 -0.809 -189.0307 547.5911)">
							<stop  offset="0" style="stop-color:#F7F7F0"/>
							<stop  offset="0.6031" style="stop-color:#FFFFFF"/>
							<stop  offset="1" style="stop-color:#FFFFFF"/>
						</linearGradient>
						<path class="st9" d="M34.21,18.01c-0.98,0.32-1.27-0.67-1.27-0.67c-0.01-0.04-0.01-0.07-0.03-0.11
							c-0.04,0-0.07,0.01-0.11,0.01c0,0-1.03,0.02-1.03-1c0-1.03,1.11-1.47,1.76-1.47c0.36,0.01,0.7-0.03,0.98,0.13
							c0.03,0.01,0.05,0.02,0.07,0.04c0.03,0.02,0.04,0.04,0.06,0.05c0.24,0.22,0.31,0.55,0.43,0.89
							C35.26,16.49,35.18,17.68,34.21,18.01z"/>
						
							<linearGradient id="SVGID_5_" gradientUnits="userSpaceOnUse" x1="124.516" y1="248.53" x2="128.0192" y2="248.53" gradientTransform="matrix(0.809 -0.5878 -0.5878 -0.809 80.6303 291.4781)">
							<stop  offset="0" style="stop-color:#F7F7F0"/>
							<stop  offset="0.6031" style="stop-color:#FFFFFF"/>
							<stop  offset="1" style="stop-color:#FFFFFF"/>
						</linearGradient>
						<path class="st10" d="M38.58,16.23c0,1.03-1.03,1-1.03,1c-0.04,0-0.07-0.01-0.11-0.01c-0.01,0.04-0.01,0.07-0.03,0.11
							c0,0-0.29,0.99-1.27,0.67c-0.97-0.32-1.06-1.52-0.85-2.12c0.12-0.34,0.18-0.67,0.42-0.89c0.02-0.02,0.04-0.04,0.06-0.05
							c0.02-0.02,0.05-0.03,0.07-0.04c0.29-0.16,0.62-0.12,0.98-0.13C37.47,14.75,38.58,15.2,38.58,16.23z"/>
						
							<linearGradient id="SVGID_6_" gradientUnits="userSpaceOnUse" x1="-93.1236" y1="-93.2274" x2="-89.6206" y2="-93.2274" gradientTransform="matrix(-0.309 -0.9511 -0.9511 0.309 -79.2696 -44.794)">
							<stop  offset="0" style="stop-color:#F7F7F0"/>
							<stop  offset="0.6031" style="stop-color:#FFFFFF"/>
							<stop  offset="1" style="stop-color:#FFFFFF"/>
						</linearGradient>
						<path class="st11" d="M38.25,11.52c0.98,0.31,0.63,1.29,0.63,1.29c-0.01,0.04-0.03,0.07-0.04,0.1
							c0.04,0.02,0.06,0.03,0.1,0.06c0,0,0.85,0.59,0.24,1.41c-0.61,0.83-1.77,0.54-2.28,0.16c-0.29-0.22-0.58-0.38-0.72-0.68
							c-0.01-0.02-0.03-0.04-0.04-0.07c-0.01-0.03-0.01-0.06-0.02-0.08c-0.07-0.32,0.07-0.63,0.18-0.97
							C36.5,12.12,37.27,11.2,38.25,11.52z"/>
					</g>
				</g>
				<g>
					<path class="st12" d="M37.1,14.12c0,1.07-0.86,1.93-1.93,1.93c-1.07,0-1.93-0.86-1.93-1.93c0-1.06,0.87-1.93,1.93-1.93
						C36.24,12.19,37.1,13.06,37.1,14.12z"/>
					<path class="st13" d="M36.81,14.4c0,0.75-0.6,1.35-1.35,1.35c-0.75,0-1.35-0.6-1.35-1.35c0-0.74,0.61-1.35,1.35-1.35
						C36.2,13.05,36.81,13.66,36.81,14.4z"/>
					<path class="st6" d="M37.1,14.12c0,1.07-0.86,1.93-1.93,1.93c-1.07,0-1.93-0.86-1.93-1.93c0-1.06,0.87-1.93,1.93-1.93
						C36.24,12.19,37.1,13.06,37.1,14.12z"/>
				</g>
			</g>
			<g>
				<g>
					<path class="st3" d="M27.24,14.12c0,4.17-3.38,7.55-7.55,7.55c-4.17,0-7.54-3.38-7.55-7.55c0-4.17,3.38-7.55,7.55-7.55
						S27.24,9.95,27.24,14.12z"/>
					<path class="st4" d="M27.06,14.32c0,3.96-3.21,7.17-7.17,7.17c-3.96,0-7.17-3.21-7.17-7.17c0-3.96,3.21-7.17,7.17-7.17
						S27.06,10.36,27.06,14.32z"/>
				</g>
				<g>
					<path class="st5" d="M14.03,14.41c0-3.28,2.66-5.94,5.94-5.94s5.94,2.66,5.94,5.94c0,3.28-2.66,5.94-5.94,5.94
						C16.69,20.34,14.03,17.68,14.03,14.41z"/>
					<path class="st3" d="M13.75,14.12c0-3.28,2.66-5.94,5.94-5.94s5.94,2.66,5.94,5.94c0,3.28-2.66,5.94-5.94,5.94
						C16.41,20.06,13.75,17.4,13.75,14.12z"/>
					<path class="st4" d="M14.35,14.55c0-3.18,2.58-5.76,5.76-5.76c3.18,0,5.76,2.58,5.76,5.76c0,3.18-2.58,5.76-5.76,5.76
						C16.93,20.31,14.35,17.73,14.35,14.55z"/>
					<path class="st6" d="M13.75,14.12c0-3.28,2.66-5.94,5.94-5.94s5.94,2.66,5.94,5.94c0,3.28-2.66,5.94-5.94,5.94
						C16.41,20.06,13.75,17.4,13.75,14.12z"/>
				</g>
				<g>
					<g>
						<path class="st3" d="M18.46,10.66c0.6-0.83,1.42-0.21,1.42-0.21c0.04,0.02,0.05,0.05,0.09,0.07c0.03-0.03,0.05-0.05,0.09-0.07
							c0,0,0.82-0.63,1.42,0.21c0.6,0.83-0.03,1.85-0.56,2.22c-0.29,0.21-0.54,0.44-0.87,0.47c-0.03,0-0.05,0.01-0.08,0.01
							c-0.03,0-0.05-0.01-0.08-0.01c-0.33-0.04-0.57-0.27-0.87-0.47C18.5,12.51,17.86,11.5,18.46,10.66z"/>
						<path class="st3" d="M15.96,14.67c-0.61-0.83,0.24-1.42,0.24-1.42c0.03-0.03,0.06-0.04,0.1-0.06
							c-0.01-0.04-0.03-0.06-0.04-0.11c0,0-0.34-0.97,0.64-1.29c0.98-0.31,1.75,0.61,1.94,1.22c0.11,0.34,0.25,0.65,0.18,0.97
							c0,0.03-0.01,0.05-0.02,0.08c-0.01,0.03-0.02,0.05-0.03,0.08c-0.14,0.29-0.43,0.46-0.72,0.68
							C17.73,15.21,16.57,15.5,15.96,14.67z"/>
						<path class="st3" d="M19.01,18.29c-0.98,0.32-1.27-0.67-1.27-0.67c-0.02-0.04-0.01-0.07-0.03-0.11
							c-0.04,0-0.07,0.01-0.11,0.01c0,0-1.03,0.02-1.03-1c0-1.03,1.12-1.47,1.76-1.47c0.36,0.01,0.7-0.03,0.98,0.13
							c0.03,0.01,0.05,0.02,0.07,0.04c0.03,0.02,0.04,0.04,0.06,0.05c0.24,0.22,0.31,0.55,0.43,0.89
							C20.06,16.77,19.98,17.96,19.01,18.29z"/>
						<path class="st3" d="M23.38,16.51c0.01,1.03-1.03,1-1.03,1c-0.04,0-0.07-0.01-0.11-0.01c-0.01,0.04-0.01,0.07-0.03,0.11
							c0,0-0.29,0.99-1.27,0.67c-0.97-0.32-1.06-1.52-0.85-2.12c0.12-0.34,0.18-0.67,0.43-0.89c0.02-0.02,0.04-0.04,0.06-0.05
							c0.03-0.02,0.05-0.03,0.07-0.04c0.29-0.16,0.62-0.12,0.98-0.13C22.27,15.04,23.38,15.49,23.38,16.51z"/>
						<path class="st3" d="M23.05,11.8c0.98,0.31,0.63,1.29,0.63,1.29c-0.01,0.04-0.03,0.07-0.04,0.1c0.03,0.02,0.07,0.03,0.1,0.06
							c0,0,0.85,0.59,0.24,1.41c-0.61,0.83-1.77,0.54-2.28,0.16c-0.29-0.22-0.58-0.38-0.71-0.68c-0.02-0.02-0.03-0.04-0.04-0.07
							c-0.01-0.03-0.01-0.06-0.02-0.08c-0.07-0.32,0.07-0.63,0.18-0.97C21.3,12.4,22.07,11.49,23.05,11.8z"/>
					</g>
					<g>
						
							<linearGradient id="SVGID_7_" gradientUnits="userSpaceOnUse" x1="-469.2465" y1="7.4555" x2="-465.7439" y2="7.4555" gradientTransform="matrix(-1 0 0 1 -447.8076 4.0605)">
							<stop  offset="0" style="stop-color:#F7F7F0"/>
							<stop  offset="0.6031" style="stop-color:#FFFFFF"/>
							<stop  offset="1" style="stop-color:#FFFFFF"/>
						</linearGradient>
						<path class="st14" d="M18.18,10.38c0.6-0.83,1.42-0.21,1.42-0.21c0.04,0.02,0.05,0.05,0.09,0.07
							c0.03-0.03,0.05-0.05,0.09-0.07c0,0,0.82-0.63,1.42,0.21c0.6,0.83-0.03,1.85-0.56,2.22c-0.29,0.21-0.54,0.44-0.87,0.47
							c-0.03,0-0.05,0.01-0.08,0.01c-0.03,0-0.05-0.01-0.08-0.01c-0.33-0.04-0.57-0.27-0.87-0.47
							C18.21,12.23,17.58,11.21,18.18,10.38z"/>
						
							<linearGradient id="SVGID_8_" gradientUnits="userSpaceOnUse" x1="-505.4374" y1="396.2337" x2="-501.9332" y2="396.2337" gradientTransform="matrix(-0.309 0.9511 0.9511 0.309 -515.2704 369.9239)">
							<stop  offset="0" style="stop-color:#F7F7F0"/>
							<stop  offset="0.6031" style="stop-color:#FFFFFF"/>
							<stop  offset="1" style="stop-color:#FFFFFF"/>
						</linearGradient>
						<path class="st15" d="M15.68,14.39c-0.61-0.83,0.24-1.42,0.24-1.42c0.03-0.03,0.06-0.04,0.1-0.06
							c-0.01-0.04-0.03-0.06-0.04-0.11c0,0-0.34-0.97,0.64-1.29c0.98-0.31,1.75,0.61,1.94,1.22c0.11,0.34,0.25,0.65,0.18,0.97
							c0,0.03-0.01,0.05-0.02,0.08c-0.01,0.03-0.02,0.05-0.03,0.08c-0.14,0.29-0.43,0.46-0.72,0.68
							C17.45,14.93,16.29,15.22,15.68,14.39z"/>
						
							<linearGradient id="SVGID_9_" gradientUnits="userSpaceOnUse" x1="-146.4818" y1="551.6922" x2="-142.9779" y2="551.6922" gradientTransform="matrix(0.809 0.5878 0.5878 -0.809 -189.0307 547.5911)">
							<stop  offset="0" style="stop-color:#F7F7F0"/>
							<stop  offset="0.6031" style="stop-color:#FFFFFF"/>
							<stop  offset="1" style="stop-color:#FFFFFF"/>
						</linearGradient>
						<path class="st16" d="M18.72,18.01c-0.98,0.32-1.27-0.67-1.27-0.67c-0.02-0.04-0.01-0.07-0.03-0.11
							c-0.04,0-0.07,0.01-0.11,0.01c0,0-1.03,0.02-1.03-1c0-1.03,1.12-1.47,1.76-1.47c0.36,0.01,0.7-0.03,0.98,0.13
							c0.03,0.01,0.05,0.02,0.07,0.04c0.03,0.02,0.04,0.04,0.06,0.05c0.24,0.22,0.31,0.55,0.43,0.89
							C19.78,16.49,19.7,17.68,18.72,18.01z"/>
						
							<linearGradient id="SVGID_10_" gradientUnits="userSpaceOnUse" x1="111.989" y1="257.6316" x2="115.4915" y2="257.6316" gradientTransform="matrix(0.809 -0.5878 -0.5878 -0.809 80.6303 291.4781)">
							<stop  offset="0" style="stop-color:#F7F7F0"/>
							<stop  offset="0.6031" style="stop-color:#FFFFFF"/>
							<stop  offset="1" style="stop-color:#FFFFFF"/>
						</linearGradient>
						<path class="st17" d="M23.1,16.23c0.01,1.03-1.03,1-1.03,1c-0.04,0-0.07-0.01-0.11-0.01c-0.01,0.04-0.01,0.07-0.03,0.11
							c0,0-0.29,0.99-1.27,0.67c-0.97-0.32-1.06-1.52-0.85-2.12c0.12-0.34,0.18-0.67,0.43-0.89c0.02-0.02,0.04-0.04,0.06-0.05
							c0.03-0.02,0.05-0.03,0.07-0.04c0.29-0.16,0.62-0.12,0.98-0.13C21.98,14.75,23.09,15.2,23.1,16.23z"/>
						
							<linearGradient id="SVGID_11_" gradientUnits="userSpaceOnUse" x1="-88.339" y1="-78.501" x2="-84.8364" y2="-78.501" gradientTransform="matrix(-0.309 -0.9511 -0.9511 0.309 -79.2696 -44.794)">
							<stop  offset="0" style="stop-color:#F7F7F0"/>
							<stop  offset="0.6031" style="stop-color:#FFFFFF"/>
							<stop  offset="1" style="stop-color:#FFFFFF"/>
						</linearGradient>
						<path class="st18" d="M22.76,11.52c0.98,0.31,0.63,1.29,0.63,1.29c-0.01,0.04-0.03,0.07-0.04,0.1
							c0.03,0.02,0.07,0.03,0.1,0.06c0,0,0.85,0.59,0.24,1.41c-0.61,0.83-1.77,0.54-2.28,0.16c-0.29-0.22-0.58-0.38-0.71-0.68
							c-0.02-0.02-0.03-0.04-0.04-0.07c-0.01-0.03-0.01-0.06-0.02-0.08c-0.07-0.32,0.07-0.63,0.18-0.97
							C21.01,12.12,21.78,11.2,22.76,11.52z"/>
					</g>
				</g>
				<g>
					<path class="st12" d="M21.62,14.12c0,1.07-0.86,1.93-1.93,1.93c-1.07,0-1.93-0.86-1.93-1.93c0-1.06,0.87-1.93,1.93-1.93
						C20.75,12.19,21.62,13.06,21.62,14.12z"/>
					<path class="st13" d="M21.32,14.4c0,0.75-0.6,1.35-1.35,1.35c-0.75,0-1.35-0.6-1.35-1.35c0-0.74,0.61-1.35,1.35-1.35
						C20.72,13.05,21.32,13.66,21.32,14.4z"/>
					<path class="st6" d="M21.62,14.12c0,1.07-0.86,1.93-1.93,1.93c-1.07,0-1.93-0.86-1.93-1.93c0-1.06,0.87-1.93,1.93-1.93
						C20.75,12.19,21.62,13.06,21.62,14.12z"/>
				</g>
			</g>
		</g>
		<g>
			<g>
				<g>
					<path class="st3" d="M42.72,29.61c0,4.17-3.38,7.55-7.55,7.55c-4.17,0-7.55-3.38-7.55-7.55c0-4.17,3.38-7.55,7.55-7.55
						C39.34,22.06,42.72,25.44,42.72,29.61z"/>
					<path class="st4" d="M42.54,29.8c0,3.96-3.21,7.17-7.17,7.17c-3.96,0-7.17-3.21-7.17-7.17c0-3.96,3.21-7.17,7.17-7.17
						C39.33,22.64,42.54,25.85,42.54,29.8z"/>
				</g>
				<g>
					<path class="st5" d="M29.52,29.89c0-3.28,2.66-5.94,5.94-5.94c3.28,0,5.94,2.66,5.94,5.94c0,3.28-2.66,5.94-5.94,5.94
						C32.18,35.83,29.52,33.17,29.52,29.89z"/>
					<path class="st3" d="M29.24,29.61c0-3.28,2.66-5.94,5.94-5.94c3.28,0,5.94,2.66,5.94,5.94c0,3.28-2.66,5.94-5.94,5.94
						C31.89,35.54,29.24,32.89,29.24,29.61z"/>
					<path class="st4" d="M29.84,30.03c0-3.18,2.58-5.76,5.76-5.76c3.18,0,5.76,2.58,5.76,5.76c0,3.18-2.58,5.76-5.76,5.76
						C32.42,35.79,29.84,33.21,29.84,30.03z"/>
					<path class="st6" d="M29.24,29.61c0-3.28,2.66-5.94,5.94-5.94c3.28,0,5.94,2.66,5.94,5.94c0,3.28-2.66,5.94-5.94,5.94
						C31.89,35.54,29.24,32.89,29.24,29.61z"/>
				</g>
				<g>
					<g>
						<path class="st3" d="M33.95,26.15c0.6-0.83,1.42-0.21,1.42-0.21c0.03,0.02,0.05,0.05,0.08,0.07c0.03-0.02,0.05-0.05,0.09-0.07
							c0,0,0.82-0.62,1.42,0.21c0.6,0.83-0.03,1.85-0.56,2.22c-0.29,0.21-0.54,0.44-0.87,0.47c-0.03,0-0.05,0.01-0.08,0.01
							s-0.05-0.01-0.08-0.01c-0.33-0.04-0.58-0.27-0.87-0.47C33.98,28,33.35,26.98,33.95,26.15z"/>
						<path class="st3" d="M31.45,30.16c-0.6-0.83,0.25-1.42,0.25-1.42c0.03-0.03,0.06-0.04,0.09-0.06
							c-0.01-0.04-0.03-0.06-0.04-0.1c0,0-0.34-0.97,0.64-1.29c0.98-0.31,1.75,0.61,1.94,1.22c0.11,0.34,0.25,0.65,0.18,0.97
							c0,0.03-0.01,0.05-0.02,0.08c-0.01,0.03-0.02,0.05-0.03,0.08c-0.13,0.29-0.43,0.46-0.72,0.68
							C33.22,30.7,32.06,30.99,31.45,30.16z"/>
						<path class="st3" d="M34.49,33.77c-0.98,0.32-1.27-0.67-1.27-0.67c-0.01-0.04-0.01-0.07-0.03-0.11
							c-0.04,0-0.07,0.01-0.11,0.01c0,0-1.03,0.02-1.03-1c0-1.03,1.11-1.47,1.76-1.47c0.36,0.01,0.7-0.03,0.98,0.13
							c0.03,0.01,0.05,0.02,0.07,0.04c0.03,0.02,0.04,0.04,0.06,0.05c0.24,0.22,0.31,0.55,0.43,0.89
							C35.55,32.26,35.46,33.45,34.49,33.77z"/>
						<path class="st3" d="M38.86,32c0,1.03-1.03,1-1.03,1c-0.04,0-0.07-0.01-0.11-0.01c-0.01,0.04-0.01,0.07-0.03,0.11
							c0,0-0.29,0.99-1.27,0.67c-0.97-0.32-1.06-1.52-0.85-2.12c0.12-0.34,0.18-0.67,0.42-0.89c0.02-0.02,0.04-0.04,0.06-0.05
							c0.02-0.02,0.05-0.03,0.07-0.04c0.29-0.16,0.62-0.12,0.98-0.13C37.75,30.52,38.86,30.97,38.86,32z"/>
						<path class="st3" d="M38.53,27.29c0.98,0.31,0.63,1.29,0.63,1.29c-0.01,0.04-0.03,0.06-0.04,0.1c0.04,0.02,0.06,0.03,0.1,0.06
							c0,0,0.85,0.59,0.24,1.42c-0.61,0.83-1.77,0.54-2.28,0.15c-0.29-0.22-0.58-0.38-0.72-0.68c-0.01-0.03-0.03-0.04-0.04-0.07
							c-0.01-0.03-0.01-0.06-0.02-0.08c-0.07-0.32,0.07-0.63,0.18-0.97C36.78,27.89,37.55,26.97,38.53,27.29z"/>
					</g>
					<g>
						
							<linearGradient id="SVGID_12_" gradientUnits="userSpaceOnUse" x1="-484.7319" y1="22.9406" x2="-481.2276" y2="22.9406" gradientTransform="matrix(-1 0 0 1 -447.8076 4.0605)">
							<stop  offset="0" style="stop-color:#F7F7F0"/>
							<stop  offset="0.6031" style="stop-color:#FFFFFF"/>
							<stop  offset="1" style="stop-color:#FFFFFF"/>
						</linearGradient>
						<path class="st19" d="M33.66,25.87c0.6-0.83,1.42-0.21,1.42-0.21c0.03,0.02,0.05,0.05,0.08,0.07
							c0.03-0.02,0.05-0.05,0.09-0.07c0,0,0.82-0.62,1.42,0.21c0.6,0.83-0.03,1.85-0.56,2.22c-0.29,0.21-0.54,0.44-0.87,0.47
							c-0.03,0-0.05,0.01-0.08,0.01c-0.03,0-0.05-0.01-0.08-0.01c-0.33-0.04-0.58-0.27-0.87-0.47C33.7,27.71,33.06,26.7,33.66,25.87
							z"/>
						
							<linearGradient id="SVGID_13_" gradientUnits="userSpaceOnUse" x1="-495.4956" y1="415.7449" x2="-491.9908" y2="415.7449" gradientTransform="matrix(-0.309 0.9511 0.9511 0.309 -515.2704 369.9239)">
							<stop  offset="0" style="stop-color:#F7F7F0"/>
							<stop  offset="0.6031" style="stop-color:#FFFFFF"/>
							<stop  offset="1" style="stop-color:#FFFFFF"/>
						</linearGradient>
						<path class="st20" d="M31.17,29.87c-0.6-0.83,0.25-1.42,0.25-1.42c0.03-0.03,0.06-0.04,0.09-0.06
							c-0.01-0.04-0.03-0.06-0.04-0.1c0,0-0.34-0.97,0.64-1.29c0.98-0.31,1.75,0.61,1.94,1.22c0.11,0.34,0.25,0.65,0.18,0.97
							c0,0.03-0.01,0.05-0.02,0.08c-0.01,0.03-0.02,0.05-0.03,0.08c-0.13,0.29-0.43,0.46-0.72,0.68
							C32.93,30.41,31.77,30.7,31.17,29.87z"/>
						
							<linearGradient id="SVGID_14_" gradientUnits="userSpaceOnUse" x1="-124.8533" y1="548.267" x2="-121.3486" y2="548.267" gradientTransform="matrix(0.809 0.5878 0.5878 -0.809 -189.0307 547.5911)">
							<stop  offset="0" style="stop-color:#F7F7F0"/>
							<stop  offset="0.6031" style="stop-color:#FFFFFF"/>
							<stop  offset="1" style="stop-color:#FFFFFF"/>
						</linearGradient>
						<path class="st21" d="M34.21,33.49c-0.98,0.32-1.27-0.67-1.27-0.67c-0.01-0.04-0.01-0.07-0.03-0.11
							c-0.04,0-0.07,0.01-0.11,0.01c0,0-1.03,0.02-1.03-1c0-1.03,1.11-1.47,1.76-1.47c0.36,0.01,0.7-0.03,0.98,0.13
							c0.03,0.01,0.05,0.02,0.07,0.04c0.03,0.02,0.04,0.04,0.06,0.05c0.24,0.22,0.31,0.55,0.43,0.89
							C35.26,31.97,35.18,33.17,34.21,33.49z"/>
						
							<linearGradient id="SVGID_15_" gradientUnits="userSpaceOnUse" x1="115.4137" y1="236.0026" x2="118.9174" y2="236.0026" gradientTransform="matrix(0.809 -0.5878 -0.5878 -0.809 80.6303 291.4781)">
							<stop  offset="0" style="stop-color:#F7F7F0"/>
							<stop  offset="0.6031" style="stop-color:#FFFFFF"/>
							<stop  offset="1" style="stop-color:#FFFFFF"/>
						</linearGradient>
						<path class="st22" d="M38.58,31.71c0,1.03-1.03,1-1.03,1c-0.04,0-0.07-0.01-0.11-0.01c-0.01,0.04-0.01,0.07-0.03,0.11
							c0,0-0.29,0.99-1.27,0.67c-0.97-0.32-1.06-1.52-0.85-2.12c0.12-0.34,0.18-0.67,0.42-0.89c0.02-0.02,0.04-0.04,0.06-0.05
							c0.02-0.02,0.05-0.03,0.07-0.04c0.29-0.16,0.62-0.12,0.98-0.13C37.47,30.24,38.58,30.69,38.58,31.71z"/>
						
							<linearGradient id="SVGID_16_" gradientUnits="userSpaceOnUse" x1="-107.8503" y1="-88.443" x2="-104.3471" y2="-88.443" gradientTransform="matrix(-0.309 -0.9511 -0.9511 0.309 -79.2696 -44.794)">
							<stop  offset="0" style="stop-color:#F7F7F0"/>
							<stop  offset="0.6031" style="stop-color:#FFFFFF"/>
							<stop  offset="1" style="stop-color:#FFFFFF"/>
						</linearGradient>
						<path class="st23" d="M38.25,27c0.98,0.31,0.63,1.29,0.63,1.29c-0.01,0.04-0.03,0.06-0.04,0.1c0.04,0.02,0.06,0.03,0.1,0.06
							c0,0,0.85,0.59,0.24,1.42c-0.61,0.83-1.77,0.54-2.28,0.15c-0.29-0.22-0.58-0.38-0.72-0.68c-0.01-0.03-0.03-0.05-0.04-0.07
							c-0.01-0.03-0.01-0.06-0.02-0.08c-0.07-0.32,0.07-0.63,0.18-0.97C36.5,27.6,37.27,26.69,38.25,27z"/>
					</g>
				</g>
				<g>
					<path class="st12" d="M37.1,29.61c0,1.07-0.86,1.93-1.93,1.93c-1.07,0-1.93-0.86-1.93-1.93c0-1.07,0.87-1.93,1.93-1.93
						C36.24,27.68,37.1,28.54,37.1,29.61z"/>
					<path class="st13" d="M36.81,29.89c0,0.75-0.6,1.35-1.35,1.35c-0.75,0-1.35-0.6-1.35-1.35c0-0.75,0.61-1.35,1.35-1.35
						C36.2,28.54,36.81,29.14,36.81,29.89z"/>
					<path class="st6" d="M37.1,29.61c0,1.07-0.86,1.93-1.93,1.93c-1.07,0-1.93-0.86-1.93-1.93c0-1.07,0.87-1.93,1.93-1.93
						C36.24,27.68,37.1,28.54,37.1,29.61z"/>
				</g>
			</g>
			<g>
				<g>
					<path class="st3" d="M27.24,29.61c0,4.17-3.38,7.55-7.55,7.55c-4.17,0-7.54-3.38-7.55-7.55c0-4.17,3.38-7.55,7.55-7.55
						S27.24,25.44,27.24,29.61z"/>
					<path class="st4" d="M27.06,29.8c0,3.96-3.21,7.17-7.17,7.17c-3.96,0-7.17-3.21-7.17-7.17c0-3.96,3.21-7.17,7.17-7.17
						S27.06,25.85,27.06,29.8z"/>
				</g>
				<g>
					<path class="st5" d="M14.03,29.89c0-3.28,2.66-5.94,5.94-5.94s5.94,2.66,5.94,5.94c0,3.28-2.66,5.94-5.94,5.94
						C16.69,35.83,14.03,33.17,14.03,29.89z"/>
					<path class="st3" d="M13.75,29.61c0-3.28,2.66-5.94,5.94-5.94s5.94,2.66,5.94,5.94c0,3.28-2.66,5.94-5.94,5.94
						C16.41,35.54,13.75,32.89,13.75,29.61z"/>
					<path class="st4" d="M14.35,30.03c0-3.18,2.58-5.76,5.76-5.76c3.18,0,5.76,2.58,5.76,5.76c0,3.18-2.58,5.76-5.76,5.76
						C16.93,35.79,14.35,33.21,14.35,30.03z"/>
					<path class="st6" d="M13.75,29.61c0-3.28,2.66-5.94,5.94-5.94s5.94,2.66,5.94,5.94c0,3.28-2.66,5.94-5.94,5.94
						C16.41,35.54,13.75,32.89,13.75,29.61z"/>
				</g>
				<g>
					<g>
						<path class="st3" d="M18.46,26.15c0.6-0.83,1.42-0.21,1.42-0.21c0.04,0.02,0.05,0.05,0.09,0.07c0.03-0.02,0.05-0.05,0.09-0.07
							c0,0,0.82-0.62,1.42,0.21c0.6,0.83-0.03,1.85-0.56,2.22c-0.29,0.21-0.54,0.44-0.87,0.47c-0.03,0-0.05,0.01-0.08,0.01
							c-0.03,0-0.05-0.01-0.08-0.01c-0.33-0.04-0.57-0.27-0.87-0.47C18.5,28,17.86,26.98,18.46,26.15z"/>
						<path class="st3" d="M15.96,30.16c-0.61-0.83,0.24-1.42,0.24-1.42c0.03-0.03,0.06-0.04,0.1-0.06
							c-0.01-0.04-0.03-0.06-0.04-0.1c0,0-0.34-0.97,0.64-1.29c0.98-0.31,1.75,0.61,1.94,1.22c0.11,0.34,0.25,0.65,0.18,0.97
							c0,0.03-0.01,0.05-0.02,0.08c-0.01,0.03-0.02,0.05-0.03,0.08c-0.14,0.29-0.43,0.46-0.72,0.68
							C17.73,30.7,16.57,30.99,15.96,30.16z"/>
						<path class="st3" d="M19.01,33.77c-0.98,0.32-1.27-0.67-1.27-0.67c-0.02-0.04-0.01-0.07-0.03-0.11
							c-0.04,0-0.07,0.01-0.11,0.01c0,0-1.03,0.02-1.03-1c0-1.03,1.12-1.47,1.76-1.47c0.36,0.01,0.7-0.03,0.98,0.13
							c0.03,0.01,0.05,0.02,0.07,0.04c0.03,0.02,0.04,0.04,0.06,0.05c0.24,0.22,0.31,0.55,0.43,0.89
							C20.06,32.26,19.98,33.45,19.01,33.77z"/>
						<path class="st3" d="M23.38,32c0.01,1.03-1.03,1-1.03,1c-0.04,0-0.07-0.01-0.11-0.01c-0.01,0.04-0.01,0.07-0.03,0.11
							c0,0-0.29,0.99-1.27,0.67c-0.97-0.32-1.06-1.52-0.85-2.12c0.12-0.34,0.18-0.67,0.43-0.89c0.02-0.02,0.04-0.04,0.06-0.05
							c0.03-0.02,0.05-0.03,0.07-0.04c0.29-0.16,0.62-0.12,0.98-0.13C22.27,30.52,23.38,30.97,23.38,32z"/>
						<path class="st3" d="M23.05,27.29c0.98,0.31,0.63,1.29,0.63,1.29c-0.01,0.04-0.03,0.06-0.04,0.1c0.03,0.02,0.07,0.03,0.1,0.06
							c0,0,0.85,0.59,0.24,1.42c-0.61,0.83-1.77,0.54-2.28,0.15c-0.29-0.22-0.58-0.38-0.71-0.68c-0.02-0.03-0.03-0.04-0.04-0.07
							c-0.01-0.03-0.01-0.06-0.02-0.08c-0.07-0.32,0.07-0.63,0.18-0.97C21.3,27.89,22.07,26.97,23.05,27.29z"/>
					</g>
					<g>
						
							<linearGradient id="SVGID_17_" gradientUnits="userSpaceOnUse" x1="-469.2465" y1="22.9406" x2="-465.7439" y2="22.9406" gradientTransform="matrix(-1 0 0 1 -447.8076 4.0605)">
							<stop  offset="0" style="stop-color:#F7F7F0"/>
							<stop  offset="0.6031" style="stop-color:#FFFFFF"/>
							<stop  offset="1" style="stop-color:#FFFFFF"/>
						</linearGradient>
						<path class="st24" d="M18.18,25.87c0.6-0.83,1.42-0.21,1.42-0.21c0.04,0.02,0.05,0.05,0.09,0.07
							c0.03-0.02,0.05-0.05,0.09-0.07c0,0,0.82-0.62,1.42,0.21c0.6,0.83-0.03,1.85-0.56,2.22c-0.29,0.21-0.54,0.44-0.87,0.47
							c-0.03,0-0.05,0.01-0.08,0.01c-0.03,0-0.05-0.01-0.08-0.01c-0.33-0.04-0.57-0.27-0.87-0.47
							C18.21,27.71,17.58,26.7,18.18,25.87z"/>
						
							<linearGradient id="SVGID_18_" gradientUnits="userSpaceOnUse" x1="-490.7112" y1="401.0182" x2="-487.2065" y2="401.0182" gradientTransform="matrix(-0.309 0.9511 0.9511 0.309 -515.2704 369.9239)">
							<stop  offset="0" style="stop-color:#F7F7F0"/>
							<stop  offset="0.6031" style="stop-color:#FFFFFF"/>
							<stop  offset="1" style="stop-color:#FFFFFF"/>
						</linearGradient>
						<path class="st25" d="M15.68,29.87c-0.61-0.83,0.24-1.42,0.24-1.42c0.03-0.03,0.06-0.04,0.1-0.06
							c-0.01-0.04-0.03-0.06-0.04-0.1c0,0-0.34-0.97,0.64-1.29c0.98-0.31,1.75,0.61,1.94,1.22c0.11,0.34,0.25,0.65,0.18,0.97
							c0,0.03-0.01,0.05-0.02,0.08c-0.01,0.03-0.02,0.05-0.03,0.08c-0.14,0.29-0.43,0.46-0.72,0.68
							C17.45,30.41,16.29,30.7,15.68,29.87z"/>
						
							<linearGradient id="SVGID_19_" gradientUnits="userSpaceOnUse" x1="-137.3799" y1="539.1652" x2="-133.8756" y2="539.1652" gradientTransform="matrix(0.809 0.5878 0.5878 -0.809 -189.0307 547.5911)">
							<stop  offset="0" style="stop-color:#F7F7F0"/>
							<stop  offset="0.6031" style="stop-color:#FFFFFF"/>
							<stop  offset="1" style="stop-color:#FFFFFF"/>
						</linearGradient>
						<path class="st26" d="M18.72,33.49c-0.98,0.32-1.27-0.67-1.27-0.67c-0.02-0.04-0.01-0.07-0.03-0.11
							c-0.04,0-0.07,0.01-0.11,0.01c0,0-1.03,0.02-1.03-1c0-1.03,1.12-1.47,1.76-1.47c0.36,0.01,0.7-0.03,0.98,0.13
							c0.03,0.01,0.05,0.02,0.07,0.04c0.03,0.02,0.04,0.04,0.06,0.05c0.24,0.22,0.31,0.55,0.43,0.89
							C19.78,31.97,19.7,33.17,18.72,33.49z"/>
						
							<linearGradient id="SVGID_20_" gradientUnits="userSpaceOnUse" x1="102.8867" y1="245.1042" x2="106.3896" y2="245.1042" gradientTransform="matrix(0.809 -0.5878 -0.5878 -0.809 80.6303 291.4781)">
							<stop  offset="0" style="stop-color:#F7F7F0"/>
							<stop  offset="0.6031" style="stop-color:#FFFFFF"/>
							<stop  offset="1" style="stop-color:#FFFFFF"/>
						</linearGradient>
						<path class="st27" d="M23.1,31.71c0.01,1.03-1.03,1-1.03,1c-0.04,0-0.07-0.01-0.11-0.01c-0.01,0.04-0.01,0.07-0.03,0.11
							c0,0-0.29,0.99-1.27,0.67c-0.97-0.32-1.06-1.52-0.85-2.12c0.12-0.34,0.18-0.67,0.43-0.89c0.02-0.02,0.04-0.04,0.06-0.05
							c0.03-0.02,0.05-0.03,0.07-0.04c0.29-0.16,0.62-0.12,0.98-0.13C21.98,30.24,23.09,30.69,23.1,31.71z"/>
						
							<linearGradient id="SVGID_21_" gradientUnits="userSpaceOnUse" x1="-103.0658" y1="-73.7165" x2="-99.5629" y2="-73.7165" gradientTransform="matrix(-0.309 -0.9511 -0.9511 0.309 -79.2696 -44.794)">
							<stop  offset="0" style="stop-color:#F7F7F0"/>
							<stop  offset="0.6031" style="stop-color:#FFFFFF"/>
							<stop  offset="1" style="stop-color:#FFFFFF"/>
						</linearGradient>
						<path class="st28" d="M22.76,27c0.98,0.31,0.63,1.29,0.63,1.29c-0.01,0.04-0.03,0.06-0.04,0.1c0.03,0.02,0.07,0.03,0.1,0.06
							c0,0,0.85,0.59,0.24,1.42c-0.61,0.83-1.77,0.54-2.28,0.15c-0.29-0.22-0.58-0.38-0.71-0.68c-0.02-0.03-0.03-0.05-0.04-0.07
							c-0.01-0.03-0.01-0.06-0.02-0.08c-0.07-0.32,0.07-0.63,0.18-0.97C21.01,27.6,21.78,26.69,22.76,27z"/>
					</g>
				</g>
				<g>
					<path class="st12" d="M21.62,29.61c0,1.07-0.86,1.93-1.93,1.93c-1.07,0-1.93-0.86-1.93-1.93s0.87-1.93,1.93-1.93
						C20.75,27.68,21.62,28.54,21.62,29.61z"/>
					<path class="st13" d="M21.32,29.89c0,0.75-0.6,1.35-1.35,1.35c-0.75,0-1.35-0.6-1.35-1.35c0-0.75,0.61-1.35,1.35-1.35
						C20.72,28.54,21.32,29.14,21.32,29.89z"/>
					<path class="st6" d="M21.62,29.61c0,1.07-0.86,1.93-1.93,1.93c-1.07,0-1.93-0.86-1.93-1.93s0.87-1.93,1.93-1.93
						C20.75,27.68,21.62,28.54,21.62,29.61z"/>
				</g>
			</g>
		</g>
		<g>
			<g>
				<g>
					<path class="st3" d="M42.72,45.09c0,4.17-3.38,7.55-7.55,7.55c-4.17,0-7.55-3.38-7.55-7.55c0-4.17,3.38-7.55,7.55-7.55
						C39.34,37.54,42.72,40.93,42.72,45.09z"/>
					<path class="st4" d="M42.54,45.29c0,3.96-3.21,7.17-7.17,7.17c-3.96,0-7.17-3.21-7.17-7.17c0-3.96,3.21-7.17,7.17-7.17
						C39.33,38.12,42.54,41.33,42.54,45.29z"/>
				</g>
				<g>
					<path class="st5" d="M29.52,45.38c0-3.28,2.66-5.94,5.94-5.94c3.28,0,5.94,2.66,5.94,5.94c0,3.28-2.66,5.94-5.94,5.94
						C32.18,51.31,29.52,48.66,29.52,45.38z"/>
					<path class="st3" d="M29.24,45.09c0-3.28,2.66-5.94,5.94-5.94c3.28,0,5.94,2.66,5.94,5.94c0,3.28-2.66,5.94-5.94,5.94
						C31.89,51.03,29.24,48.37,29.24,45.09z"/>
					<path class="st4" d="M29.84,45.52c0-3.18,2.58-5.76,5.76-5.76c3.18,0,5.76,2.58,5.76,5.76c0,3.18-2.58,5.76-5.76,5.76
						C32.42,51.27,29.84,48.7,29.84,45.52z"/>
					<path class="st6" d="M29.24,45.09c0-3.28,2.66-5.94,5.94-5.94c3.28,0,5.94,2.66,5.94,5.94c0,3.28-2.66,5.94-5.94,5.94
						C31.89,51.03,29.24,48.37,29.24,45.09z"/>
				</g>
				<g>
					<g>
						<path class="st3" d="M33.95,41.63c0.6-0.83,1.42-0.21,1.42-0.21c0.03,0.02,0.05,0.05,0.08,0.07c0.03-0.03,0.05-0.05,0.09-0.07
							c0,0,0.82-0.63,1.42,0.21c0.6,0.83-0.03,1.85-0.56,2.22c-0.29,0.21-0.54,0.44-0.87,0.47c-0.03,0-0.05,0.01-0.08,0.01
							s-0.05-0.01-0.08-0.01c-0.33-0.04-0.58-0.27-0.87-0.47C33.98,43.48,33.35,42.47,33.95,41.63z"/>
						<path class="st3" d="M31.45,45.64c-0.6-0.83,0.25-1.42,0.25-1.42c0.03-0.03,0.06-0.04,0.09-0.06
							c-0.01-0.04-0.03-0.06-0.04-0.11c0,0-0.34-0.97,0.64-1.29c0.98-0.31,1.75,0.61,1.94,1.22c0.11,0.34,0.25,0.65,0.18,0.97
							c0,0.03-0.01,0.05-0.02,0.08c-0.01,0.03-0.02,0.05-0.03,0.08c-0.13,0.29-0.43,0.46-0.72,0.68
							C33.22,46.18,32.06,46.47,31.45,45.64z"/>
						<path class="st3" d="M34.49,49.26c-0.98,0.32-1.27-0.67-1.27-0.67c-0.01-0.04-0.01-0.07-0.03-0.11
							c-0.04,0-0.07,0.01-0.11,0.01c0,0-1.03,0.02-1.03-1c0-1.03,1.11-1.47,1.76-1.47c0.36,0.01,0.7-0.03,0.98,0.13
							c0.03,0.01,0.05,0.02,0.07,0.04c0.03,0.02,0.04,0.04,0.06,0.05c0.24,0.22,0.31,0.55,0.43,0.89
							C35.55,47.74,35.46,48.93,34.49,49.26z"/>
						<path class="st3" d="M38.86,47.48c0,1.03-1.03,1-1.03,1c-0.04,0-0.07-0.01-0.11-0.01c-0.01,0.04-0.01,0.07-0.03,0.11
							c0,0-0.29,0.99-1.27,0.67c-0.97-0.32-1.06-1.52-0.85-2.12c0.12-0.34,0.18-0.67,0.42-0.89c0.02-0.02,0.04-0.04,0.06-0.05
							c0.02-0.02,0.05-0.03,0.07-0.04c0.29-0.16,0.62-0.12,0.98-0.13C37.75,46.01,38.86,46.46,38.86,47.48z"/>
						<path class="st3" d="M38.53,42.77c0.98,0.31,0.63,1.29,0.63,1.29c-0.01,0.04-0.03,0.07-0.04,0.1c0.04,0.02,0.06,0.03,0.1,0.06
							c0,0,0.85,0.59,0.24,1.41c-0.61,0.83-1.77,0.54-2.28,0.16c-0.29-0.22-0.58-0.38-0.72-0.68c-0.01-0.02-0.03-0.04-0.04-0.07
							c-0.01-0.03-0.01-0.06-0.02-0.08c-0.07-0.32,0.07-0.63,0.18-0.97C36.78,43.37,37.55,42.46,38.53,42.77z"/>
					</g>
					<g>
						
							<linearGradient id="SVGID_22_" gradientUnits="userSpaceOnUse" x1="-484.7319" y1="38.4262" x2="-481.2276" y2="38.4262" gradientTransform="matrix(-1 0 0 1 -447.8076 4.0605)">
							<stop  offset="0" style="stop-color:#F7F7F0"/>
							<stop  offset="0.6031" style="stop-color:#FFFFFF"/>
							<stop  offset="1" style="stop-color:#FFFFFF"/>
						</linearGradient>
						<path class="st29" d="M33.66,41.35c0.6-0.83,1.42-0.21,1.42-0.21c0.03,0.02,0.05,0.05,0.08,0.07
							c0.03-0.03,0.05-0.05,0.09-0.07c0,0,0.82-0.63,1.42,0.21c0.6,0.83-0.03,1.85-0.56,2.22c-0.29,0.21-0.54,0.44-0.87,0.47
							c-0.03,0-0.05,0.01-0.08,0.01c-0.03,0-0.05-0.01-0.08-0.01c-0.33-0.04-0.58-0.27-0.87-0.47C33.7,43.2,33.06,42.18,33.66,41.35
							z"/>
						
							<linearGradient id="SVGID_23_" gradientUnits="userSpaceOnUse" x1="-480.7677" y1="420.5296" x2="-477.2635" y2="420.5296" gradientTransform="matrix(-0.309 0.9511 0.9511 0.309 -515.2704 369.9239)">
							<stop  offset="0" style="stop-color:#F7F7F0"/>
							<stop  offset="0.6031" style="stop-color:#FFFFFF"/>
							<stop  offset="1" style="stop-color:#FFFFFF"/>
						</linearGradient>
						<path class="st30" d="M31.17,45.36c-0.6-0.83,0.25-1.42,0.25-1.42c0.03-0.03,0.06-0.04,0.09-0.06
							c-0.01-0.04-0.03-0.06-0.04-0.11c0,0-0.34-0.97,0.64-1.29c0.98-0.31,1.75,0.61,1.94,1.22c0.11,0.34,0.25,0.65,0.18,0.97
							c0,0.03-0.01,0.05-0.02,0.08c-0.01,0.03-0.02,0.05-0.03,0.08c-0.13,0.29-0.43,0.46-0.72,0.68
							C32.93,45.9,31.77,46.19,31.17,45.36z"/>
						
							<linearGradient id="SVGID_24_" gradientUnits="userSpaceOnUse" x1="-115.7504" y1="535.7385" x2="-112.2462" y2="535.7385" gradientTransform="matrix(0.809 0.5878 0.5878 -0.809 -189.0307 547.5911)">
							<stop  offset="0" style="stop-color:#F7F7F0"/>
							<stop  offset="0.6031" style="stop-color:#FFFFFF"/>
							<stop  offset="1" style="stop-color:#FFFFFF"/>
						</linearGradient>
						<path class="st31" d="M34.21,48.98c-0.98,0.32-1.27-0.67-1.27-0.67c-0.01-0.04-0.01-0.07-0.03-0.11
							c-0.04,0-0.07,0.01-0.11,0.01c0,0-1.03,0.02-1.03-1c0-1.03,1.11-1.47,1.76-1.47c0.36,0.01,0.7-0.03,0.98,0.13
							c0.03,0.01,0.05,0.02,0.07,0.04c0.03,0.02,0.04,0.04,0.06,0.05c0.24,0.22,0.31,0.55,0.43,0.89
							C35.26,47.46,35.18,48.65,34.21,48.98z"/>
						
							<linearGradient id="SVGID_25_" gradientUnits="userSpaceOnUse" x1="106.3112" y1="223.4745" x2="109.8144" y2="223.4745" gradientTransform="matrix(0.809 -0.5878 -0.5878 -0.809 80.6303 291.4781)">
							<stop  offset="0" style="stop-color:#F7F7F0"/>
							<stop  offset="0.6031" style="stop-color:#FFFFFF"/>
							<stop  offset="1" style="stop-color:#FFFFFF"/>
						</linearGradient>
						<path class="st32" d="M38.58,47.2c0,1.03-1.03,1-1.03,1c-0.04,0-0.07-0.01-0.11-0.01c-0.01,0.04-0.01,0.07-0.03,0.11
							c0,0-0.29,0.99-1.27,0.67c-0.97-0.32-1.06-1.52-0.85-2.12c0.12-0.34,0.18-0.67,0.42-0.89c0.02-0.02,0.04-0.04,0.06-0.05
							c0.02-0.02,0.05-0.03,0.07-0.04c0.29-0.16,0.62-0.12,0.98-0.13C37.47,45.72,38.58,46.17,38.58,47.2z"/>
						
							<linearGradient id="SVGID_26_" gradientUnits="userSpaceOnUse" x1="-122.5777" y1="-83.6582" x2="-119.0747" y2="-83.6582" gradientTransform="matrix(-0.309 -0.9511 -0.9511 0.309 -79.2696 -44.794)">
							<stop  offset="0" style="stop-color:#F7F7F0"/>
							<stop  offset="0.6031" style="stop-color:#FFFFFF"/>
							<stop  offset="1" style="stop-color:#FFFFFF"/>
						</linearGradient>
						<path class="st33" d="M38.25,42.49c0.98,0.31,0.63,1.29,0.63,1.29c-0.01,0.04-0.03,0.07-0.04,0.1
							c0.04,0.02,0.06,0.03,0.1,0.06c0,0,0.85,0.59,0.24,1.41c-0.61,0.83-1.77,0.54-2.28,0.16c-0.29-0.22-0.58-0.38-0.72-0.68
							c-0.01-0.02-0.03-0.04-0.04-0.07c-0.01-0.03-0.01-0.06-0.02-0.08c-0.07-0.32,0.07-0.63,0.18-0.97
							C36.5,43.09,37.27,42.18,38.25,42.49z"/>
					</g>
				</g>
				<g>
					<path class="st12" d="M37.1,45.09c0,1.07-0.86,1.93-1.93,1.93c-1.07,0-1.93-0.86-1.93-1.93c0-1.06,0.87-1.93,1.93-1.93
						C36.24,43.16,37.1,44.03,37.1,45.09z"/>
					<path class="st13" d="M36.81,45.37c0,0.75-0.6,1.35-1.35,1.35c-0.75,0-1.35-0.6-1.35-1.35c0-0.75,0.61-1.35,1.35-1.35
						C36.2,44.02,36.81,44.63,36.81,45.37z"/>
					<path class="st6" d="M37.1,45.09c0,1.07-0.86,1.93-1.93,1.93c-1.07,0-1.93-0.86-1.93-1.93c0-1.06,0.87-1.93,1.93-1.93
						C36.24,43.16,37.1,44.03,37.1,45.09z"/>
				</g>
			</g>
			<g>
				<g>
					<path class="st3" d="M27.24,45.09c0,4.17-3.38,7.55-7.55,7.55c-4.17,0-7.54-3.38-7.55-7.55c0-4.17,3.38-7.55,7.55-7.55
						S27.24,40.93,27.24,45.09z"/>
					<path class="st4" d="M27.06,45.29c0,3.96-3.21,7.17-7.17,7.17c-3.96,0-7.17-3.21-7.17-7.17c0-3.96,3.21-7.17,7.17-7.17
						S27.06,41.33,27.06,45.29z"/>
				</g>
				<g>
					<path class="st5" d="M14.03,45.38c0-3.28,2.66-5.94,5.94-5.94s5.94,2.66,5.94,5.94c0,3.28-2.66,5.94-5.94,5.94
						C16.69,51.31,14.03,48.66,14.03,45.38z"/>
					<path class="st3" d="M13.75,45.09c0-3.28,2.66-5.94,5.94-5.94s5.94,2.66,5.94,5.94c0,3.28-2.66,5.94-5.94,5.94
						C16.41,51.03,13.75,48.37,13.75,45.09z"/>
					<path class="st4" d="M14.35,45.52c0-3.18,2.58-5.76,5.76-5.76c3.18,0,5.76,2.58,5.76,5.76c0,3.18-2.58,5.76-5.76,5.76
						C16.93,51.27,14.35,48.7,14.35,45.52z"/>
					<path class="st6" d="M13.75,45.09c0-3.28,2.66-5.94,5.94-5.94s5.94,2.66,5.94,5.94c0,3.28-2.66,5.94-5.94,5.94
						C16.41,51.03,13.75,48.37,13.75,45.09z"/>
				</g>
				<g>
					<g>
						<path class="st3" d="M18.46,41.63c0.6-0.83,1.42-0.21,1.42-0.21c0.04,0.02,0.05,0.05,0.09,0.07c0.03-0.03,0.05-0.05,0.09-0.07
							c0,0,0.82-0.63,1.42,0.21c0.6,0.83-0.03,1.85-0.56,2.22c-0.29,0.21-0.54,0.44-0.87,0.47c-0.03,0-0.05,0.01-0.08,0.01
							c-0.03,0-0.05-0.01-0.08-0.01c-0.33-0.04-0.57-0.27-0.87-0.47C18.5,43.48,17.86,42.47,18.46,41.63z"/>
						<path class="st3" d="M15.96,45.64c-0.61-0.83,0.24-1.42,0.24-1.42c0.03-0.03,0.06-0.04,0.1-0.06
							c-0.01-0.04-0.03-0.06-0.04-0.11c0,0-0.34-0.97,0.64-1.29c0.98-0.31,1.75,0.61,1.94,1.22c0.11,0.34,0.25,0.65,0.18,0.97
							c0,0.03-0.01,0.05-0.02,0.08c-0.01,0.03-0.02,0.05-0.03,0.08c-0.14,0.29-0.43,0.46-0.72,0.68
							C17.73,46.18,16.57,46.47,15.96,45.64z"/>
						<path class="st3" d="M19.01,49.26c-0.98,0.32-1.27-0.67-1.27-0.67c-0.02-0.04-0.01-0.07-0.03-0.11
							c-0.04,0-0.07,0.01-0.11,0.01c0,0-1.03,0.02-1.03-1c0-1.03,1.12-1.47,1.76-1.47c0.36,0.01,0.7-0.03,0.98,0.13
							c0.03,0.01,0.05,0.02,0.07,0.04c0.03,0.02,0.04,0.04,0.06,0.05c0.24,0.22,0.31,0.55,0.43,0.89
							C20.06,47.74,19.98,48.93,19.01,49.26z"/>
						<path class="st3" d="M23.38,47.48c0.01,1.03-1.03,1-1.03,1c-0.04,0-0.07-0.01-0.11-0.01c-0.01,0.04-0.01,0.07-0.03,0.11
							c0,0-0.29,0.99-1.27,0.67c-0.97-0.32-1.06-1.52-0.85-2.12c0.12-0.34,0.18-0.67,0.43-0.89c0.02-0.02,0.04-0.04,0.06-0.05
							c0.03-0.02,0.05-0.03,0.07-0.04c0.29-0.16,0.62-0.12,0.98-0.13C22.27,46.01,23.38,46.46,23.38,47.48z"/>
						<path class="st3" d="M23.05,42.77c0.98,0.31,0.63,1.29,0.63,1.29c-0.01,0.04-0.03,0.07-0.04,0.1c0.03,0.02,0.07,0.03,0.1,0.06
							c0,0,0.85,0.59,0.24,1.41c-0.61,0.83-1.77,0.54-2.28,0.16c-0.29-0.22-0.58-0.38-0.71-0.68c-0.02-0.02-0.03-0.04-0.04-0.07
							c-0.01-0.03-0.01-0.06-0.02-0.08c-0.07-0.32,0.07-0.63,0.18-0.97C21.3,43.37,22.07,42.46,23.05,42.77z"/>
					</g>
					<g>
						
							<linearGradient id="SVGID_27_" gradientUnits="userSpaceOnUse" x1="-469.2465" y1="38.4262" x2="-465.7439" y2="38.4262" gradientTransform="matrix(-1 0 0 1 -447.8076 4.0605)">
							<stop  offset="0" style="stop-color:#F7F7F0"/>
							<stop  offset="0.6031" style="stop-color:#FFFFFF"/>
							<stop  offset="1" style="stop-color:#FFFFFF"/>
						</linearGradient>
						<path class="st34" d="M18.18,41.35c0.6-0.83,1.42-0.21,1.42-0.21c0.04,0.02,0.05,0.05,0.09,0.07
							c0.03-0.03,0.05-0.05,0.09-0.07c0,0,0.82-0.63,1.42,0.21c0.6,0.83-0.03,1.85-0.56,2.22c-0.29,0.21-0.54,0.44-0.87,0.47
							c-0.03,0-0.05,0.01-0.08,0.01c-0.03,0-0.05-0.01-0.08-0.01c-0.33-0.04-0.57-0.27-0.87-0.47
							C18.21,43.2,17.58,42.18,18.18,41.35z"/>
						
							<linearGradient id="SVGID_28_" gradientUnits="userSpaceOnUse" x1="-475.9833" y1="405.803" x2="-472.4791" y2="405.803" gradientTransform="matrix(-0.309 0.9511 0.9511 0.309 -515.2704 369.9239)">
							<stop  offset="0" style="stop-color:#F7F7F0"/>
							<stop  offset="0.6031" style="stop-color:#FFFFFF"/>
							<stop  offset="1" style="stop-color:#FFFFFF"/>
						</linearGradient>
						<path class="st35" d="M15.68,45.36c-0.61-0.83,0.24-1.42,0.24-1.42c0.03-0.03,0.06-0.04,0.1-0.06
							c-0.01-0.04-0.03-0.06-0.04-0.11c0,0-0.34-0.97,0.64-1.29c0.98-0.31,1.75,0.61,1.94,1.22c0.11,0.34,0.25,0.65,0.18,0.97
							c0,0.03-0.01,0.05-0.02,0.08c-0.01,0.03-0.02,0.05-0.03,0.08c-0.14,0.29-0.43,0.46-0.72,0.68
							C17.45,45.9,16.29,46.19,15.68,45.36z"/>
						
							<linearGradient id="SVGID_29_" gradientUnits="userSpaceOnUse" x1="-128.277" y1="526.6366" x2="-124.7731" y2="526.6366" gradientTransform="matrix(0.809 0.5878 0.5878 -0.809 -189.0307 547.5911)">
							<stop  offset="0" style="stop-color:#F7F7F0"/>
							<stop  offset="0.6031" style="stop-color:#FFFFFF"/>
							<stop  offset="1" style="stop-color:#FFFFFF"/>
						</linearGradient>
						<path class="st36" d="M18.72,48.98c-0.98,0.32-1.27-0.67-1.27-0.67c-0.02-0.04-0.01-0.07-0.03-0.11
							c-0.04,0-0.07,0.01-0.11,0.01c0,0-1.03,0.02-1.03-1c0-1.03,1.12-1.47,1.76-1.47c0.36,0.01,0.7-0.03,0.98,0.13
							c0.03,0.01,0.05,0.02,0.07,0.04c0.03,0.02,0.04,0.04,0.06,0.05c0.24,0.22,0.31,0.55,0.43,0.89
							C19.78,47.46,19.7,48.65,18.72,48.98z"/>
						
							<linearGradient id="SVGID_30_" gradientUnits="userSpaceOnUse" x1="93.7842" y1="232.5761" x2="97.2867" y2="232.5761" gradientTransform="matrix(0.809 -0.5878 -0.5878 -0.809 80.6303 291.4781)">
							<stop  offset="0" style="stop-color:#F7F7F0"/>
							<stop  offset="0.6031" style="stop-color:#FFFFFF"/>
							<stop  offset="1" style="stop-color:#FFFFFF"/>
						</linearGradient>
						<path class="st37" d="M23.1,47.2c0.01,1.03-1.03,1-1.03,1c-0.04,0-0.07-0.01-0.11-0.01c-0.01,0.04-0.01,0.07-0.03,0.11
							c0,0-0.29,0.99-1.27,0.67c-0.97-0.32-1.06-1.52-0.85-2.12c0.12-0.34,0.18-0.67,0.43-0.89c0.02-0.02,0.04-0.04,0.06-0.05
							c0.03-0.02,0.05-0.03,0.07-0.04c0.29-0.16,0.62-0.12,0.98-0.13C21.98,45.72,23.09,46.17,23.1,47.2z"/>
						
							<linearGradient id="SVGID_31_" gradientUnits="userSpaceOnUse" x1="-117.7931" y1="-68.9318" x2="-114.2905" y2="-68.9318" gradientTransform="matrix(-0.309 -0.9511 -0.9511 0.309 -79.2696 -44.794)">
							<stop  offset="0" style="stop-color:#F7F7F0"/>
							<stop  offset="0.6031" style="stop-color:#FFFFFF"/>
							<stop  offset="1" style="stop-color:#FFFFFF"/>
						</linearGradient>
						<path class="st38" d="M22.76,42.49c0.98,0.31,0.63,1.29,0.63,1.29c-0.01,0.04-0.03,0.07-0.04,0.1
							c0.03,0.02,0.07,0.03,0.1,0.06c0,0,0.85,0.59,0.24,1.41c-0.61,0.83-1.77,0.54-2.28,0.16c-0.29-0.22-0.58-0.38-0.71-0.68
							c-0.02-0.02-0.03-0.04-0.04-0.07c-0.01-0.03-0.01-0.06-0.02-0.08c-0.07-0.32,0.07-0.63,0.18-0.97
							C21.01,43.09,21.78,42.18,22.76,42.49z"/>
					</g>
				</g>
				<g>
					<path class="st12" d="M21.62,45.09c0,1.07-0.86,1.93-1.93,1.93c-1.07,0-1.93-0.86-1.93-1.93c0-1.06,0.87-1.93,1.93-1.93
						C20.75,43.16,21.62,44.03,21.62,45.09z"/>
					<path class="st13" d="M21.32,45.37c0,0.75-0.6,1.35-1.35,1.35c-0.75,0-1.35-0.6-1.35-1.35c0-0.75,0.61-1.35,1.35-1.35
						C20.72,44.02,21.32,44.63,21.32,45.37z"/>
					<path class="st6" d="M21.62,45.09c0,1.07-0.86,1.93-1.93,1.93c-1.07,0-1.93-0.86-1.93-1.93c0-1.06,0.87-1.93,1.93-1.93
						C20.75,43.16,21.62,44.03,21.62,45.09z"/>
				</g>
			</g>
		</g>
		<g>
			<g>
				<g>
					<path class="st3" d="M42.72,60.58c0,4.17-3.38,7.55-7.55,7.55c-4.17,0-7.55-3.38-7.55-7.55c0-4.17,3.38-7.55,7.55-7.55
						C39.34,53.03,42.72,56.41,42.72,60.58z"/>
					<path class="st4" d="M42.54,60.77c0,3.96-3.21,7.17-7.17,7.17c-3.96,0-7.17-3.21-7.17-7.17c0-3.96,3.21-7.17,7.17-7.17
						C39.33,53.61,42.54,56.82,42.54,60.77z"/>
				</g>
				<g>
					<path class="st5" d="M29.52,60.86c0-3.28,2.66-5.94,5.94-5.94c3.28,0,5.94,2.66,5.94,5.94c0,3.28-2.66,5.94-5.94,5.94
						C32.18,66.8,29.52,64.14,29.52,60.86z"/>
					<path class="st3" d="M29.24,60.58c0-3.28,2.66-5.94,5.94-5.94c3.28,0,5.94,2.66,5.94,5.94c0,3.28-2.66,5.94-5.94,5.94
						C31.89,66.51,29.24,63.86,29.24,60.58z"/>
					<path class="st4" d="M29.84,61c0-3.18,2.58-5.76,5.76-5.76c3.18,0,5.76,2.58,5.76,5.76c0,3.18-2.58,5.76-5.76,5.76
						C32.42,66.76,29.84,64.18,29.84,61z"/>
					<path class="st6" d="M29.24,60.58c0-3.28,2.66-5.94,5.94-5.94c3.28,0,5.94,2.66,5.94,5.94c0,3.28-2.66,5.94-5.94,5.94
						C31.89,66.51,29.24,63.86,29.24,60.58z"/>
				</g>
				<g>
					<g>
						<path class="st3" d="M33.95,57.12c0.6-0.83,1.42-0.21,1.42-0.21c0.03,0.02,0.05,0.05,0.08,0.07c0.03-0.02,0.05-0.05,0.09-0.07
							c0,0,0.82-0.62,1.42,0.21c0.6,0.83-0.03,1.85-0.56,2.22c-0.29,0.21-0.54,0.44-0.87,0.47c-0.03,0-0.05,0.01-0.08,0.01
							s-0.05-0.01-0.08-0.01c-0.33-0.04-0.58-0.27-0.87-0.47C33.98,58.97,33.35,57.95,33.95,57.12z"/>
						<path class="st3" d="M31.45,61.13c-0.6-0.83,0.25-1.42,0.25-1.42c0.03-0.03,0.06-0.04,0.09-0.06
							c-0.01-0.04-0.03-0.06-0.04-0.1c0,0-0.34-0.97,0.64-1.29c0.98-0.31,1.75,0.61,1.94,1.22c0.11,0.34,0.25,0.65,0.18,0.97
							c0,0.03-0.01,0.05-0.02,0.08c-0.01,0.03-0.02,0.05-0.03,0.08c-0.13,0.29-0.43,0.46-0.72,0.68
							C33.22,61.67,32.06,61.96,31.45,61.13z"/>
						<path class="st3" d="M34.49,64.74c-0.98,0.32-1.27-0.67-1.27-0.67c-0.01-0.04-0.01-0.07-0.03-0.11
							c-0.04,0-0.07,0.01-0.11,0.01c0,0-1.03,0.02-1.03-1c0-1.03,1.11-1.47,1.76-1.47c0.36,0.01,0.7-0.03,0.98,0.13
							c0.03,0.01,0.05,0.02,0.07,0.04c0.03,0.02,0.04,0.04,0.06,0.05c0.24,0.22,0.31,0.55,0.43,0.89
							C35.55,63.23,35.46,64.42,34.49,64.74z"/>
						<path class="st3" d="M38.86,62.97c0,1.03-1.03,1-1.03,1c-0.04,0-0.07-0.01-0.11-0.01c-0.01,0.04-0.01,0.07-0.03,0.11
							c0,0-0.29,0.99-1.27,0.67c-0.97-0.32-1.06-1.52-0.85-2.12c0.12-0.34,0.18-0.67,0.42-0.89c0.02-0.02,0.04-0.04,0.06-0.05
							c0.02-0.02,0.05-0.03,0.07-0.04c0.29-0.16,0.62-0.12,0.98-0.13C37.75,61.49,38.86,61.94,38.86,62.97z"/>
						<path class="st3" d="M38.53,58.26c0.98,0.31,0.63,1.29,0.63,1.29c-0.01,0.04-0.03,0.06-0.04,0.1c0.04,0.02,0.06,0.03,0.1,0.06
							c0,0,0.85,0.59,0.24,1.42c-0.61,0.83-1.77,0.54-2.28,0.15c-0.29-0.22-0.58-0.38-0.72-0.68c-0.01-0.03-0.03-0.04-0.04-0.07
							c-0.01-0.03-0.01-0.06-0.02-0.08c-0.07-0.32,0.07-0.63,0.18-0.97C36.78,58.86,37.55,57.94,38.53,58.26z"/>
					</g>
					<g>
						
							<linearGradient id="SVGID_32_" gradientUnits="userSpaceOnUse" x1="-484.7319" y1="53.9113" x2="-481.2276" y2="53.9113" gradientTransform="matrix(-1 0 0 1 -447.8076 4.0605)">
							<stop  offset="0" style="stop-color:#F7F7F0"/>
							<stop  offset="0.6031" style="stop-color:#FFFFFF"/>
							<stop  offset="1" style="stop-color:#FFFFFF"/>
						</linearGradient>
						<path class="st39" d="M33.66,56.84c0.6-0.83,1.42-0.21,1.42-0.21c0.03,0.02,0.05,0.05,0.08,0.07
							c0.03-0.02,0.05-0.05,0.09-0.07c0,0,0.82-0.62,1.42,0.21c0.6,0.83-0.03,1.85-0.56,2.22c-0.29,0.21-0.54,0.44-0.87,0.47
							c-0.03,0-0.05,0.01-0.08,0.01c-0.03,0-0.05-0.01-0.08-0.01c-0.33-0.04-0.58-0.27-0.87-0.47
							C33.7,58.68,33.06,57.67,33.66,56.84z"/>
						
							<linearGradient id="SVGID_33_" gradientUnits="userSpaceOnUse" x1="-466.0415" y1="425.3141" x2="-462.5367" y2="425.3141" gradientTransform="matrix(-0.309 0.9511 0.9511 0.309 -515.2704 369.9239)">
							<stop  offset="0" style="stop-color:#F7F7F0"/>
							<stop  offset="0.6031" style="stop-color:#FFFFFF"/>
							<stop  offset="1" style="stop-color:#FFFFFF"/>
						</linearGradient>
						<path class="st40" d="M31.17,60.85c-0.6-0.83,0.25-1.42,0.25-1.42c0.03-0.03,0.06-0.04,0.09-0.06
							c-0.01-0.04-0.03-0.06-0.04-0.1c0,0-0.34-0.97,0.64-1.29c0.98-0.31,1.75,0.61,1.94,1.22c0.11,0.34,0.25,0.65,0.18,0.97
							c0,0.03-0.01,0.05-0.02,0.08c-0.01,0.03-0.02,0.05-0.03,0.08c-0.13,0.29-0.43,0.46-0.72,0.68
							C32.93,61.38,31.77,61.67,31.17,60.85z"/>
						
							<linearGradient id="SVGID_34_" gradientUnits="userSpaceOnUse" x1="-106.6485" y1="523.2115" x2="-103.1439" y2="523.2115" gradientTransform="matrix(0.809 0.5878 0.5878 -0.809 -189.0307 547.5911)">
							<stop  offset="0" style="stop-color:#F7F7F0"/>
							<stop  offset="0.6031" style="stop-color:#FFFFFF"/>
							<stop  offset="1" style="stop-color:#FFFFFF"/>
						</linearGradient>
						<path class="st41" d="M34.21,64.46c-0.98,0.32-1.27-0.67-1.27-0.67c-0.01-0.04-0.01-0.07-0.03-0.11
							c-0.04,0-0.07,0.01-0.11,0.01c0,0-1.03,0.02-1.03-1c0-1.03,1.11-1.47,1.76-1.47c0.36,0.01,0.7-0.03,0.98,0.13
							c0.03,0.01,0.05,0.02,0.07,0.04c0.03,0.02,0.04,0.04,0.06,0.05c0.24,0.22,0.31,0.55,0.43,0.89
							C35.26,62.94,35.18,64.14,34.21,64.46z"/>
						
							<linearGradient id="SVGID_35_" gradientUnits="userSpaceOnUse" x1="97.2089" y1="210.9471" x2="100.7126" y2="210.9471" gradientTransform="matrix(0.809 -0.5878 -0.5878 -0.809 80.6303 291.4781)">
							<stop  offset="0" style="stop-color:#F7F7F0"/>
							<stop  offset="0.6031" style="stop-color:#FFFFFF"/>
							<stop  offset="1" style="stop-color:#FFFFFF"/>
						</linearGradient>
						<path class="st42" d="M38.58,62.68c0,1.03-1.03,1-1.03,1c-0.04,0-0.07-0.01-0.11-0.01c-0.01,0.04-0.01,0.07-0.03,0.11
							c0,0-0.29,0.99-1.27,0.67c-0.97-0.32-1.06-1.52-0.85-2.12c0.12-0.34,0.18-0.67,0.42-0.89c0.02-0.02,0.04-0.04,0.06-0.05
							c0.02-0.02,0.05-0.03,0.07-0.04c0.29-0.16,0.62-0.12,0.98-0.13C37.47,61.21,38.58,61.66,38.58,62.68z"/>
						
							<linearGradient id="SVGID_36_" gradientUnits="userSpaceOnUse" x1="-137.3045" y1="-78.8738" x2="-133.8012" y2="-78.8738" gradientTransform="matrix(-0.309 -0.9511 -0.9511 0.309 -79.2696 -44.794)">
							<stop  offset="0" style="stop-color:#F7F7F0"/>
							<stop  offset="0.6031" style="stop-color:#FFFFFF"/>
							<stop  offset="1" style="stop-color:#FFFFFF"/>
						</linearGradient>
						<path class="st43" d="M38.25,57.97c0.98,0.31,0.63,1.29,0.63,1.29c-0.01,0.04-0.03,0.06-0.04,0.1
							c0.04,0.02,0.06,0.03,0.1,0.06c0,0,0.85,0.59,0.24,1.42c-0.61,0.83-1.77,0.54-2.28,0.15c-0.29-0.22-0.58-0.38-0.72-0.68
							c-0.01-0.03-0.03-0.04-0.04-0.07c-0.01-0.03-0.01-0.06-0.02-0.08c-0.07-0.32,0.07-0.63,0.18-0.97
							C36.5,58.58,37.27,57.66,38.25,57.97z"/>
					</g>
				</g>
				<g>
					<path class="st12" d="M37.1,60.58c0,1.07-0.86,1.93-1.93,1.93c-1.07,0-1.93-0.86-1.93-1.93c0-1.07,0.87-1.93,1.93-1.93
						C36.24,58.65,37.1,59.51,37.1,60.58z"/>
					<path class="st13" d="M36.81,60.86c0,0.75-0.6,1.35-1.35,1.35c-0.75,0-1.35-0.6-1.35-1.35c0-0.75,0.61-1.35,1.35-1.35
						C36.2,59.51,36.81,60.11,36.81,60.86z"/>
					<path class="st6" d="M37.1,60.58c0,1.07-0.86,1.93-1.93,1.93c-1.07,0-1.93-0.86-1.93-1.93c0-1.07,0.87-1.93,1.93-1.93
						C36.24,58.65,37.1,59.51,37.1,60.58z"/>
				</g>
			</g>
			<g>
				<g>
					<path class="st3" d="M27.24,60.58c0,4.17-3.38,7.55-7.55,7.55c-4.17,0-7.54-3.38-7.55-7.55c0-4.17,3.38-7.55,7.55-7.55
						S27.24,56.41,27.24,60.58z"/>
					<path class="st4" d="M27.06,60.77c0,3.96-3.21,7.17-7.17,7.17c-3.96,0-7.17-3.21-7.17-7.17c0-3.96,3.21-7.17,7.17-7.17
						S27.06,56.82,27.06,60.77z"/>
				</g>
				<g>
					<path class="st5" d="M14.03,60.86c0-3.28,2.66-5.94,5.94-5.94s5.94,2.66,5.94,5.94c0,3.28-2.66,5.94-5.94,5.94
						C16.69,66.8,14.03,64.14,14.03,60.86z"/>
					<path class="st3" d="M13.75,60.58c0-3.28,2.66-5.94,5.94-5.94s5.94,2.66,5.94,5.94c0,3.28-2.66,5.94-5.94,5.94
						C16.41,66.51,13.75,63.86,13.75,60.58z"/>
					<path class="st4" d="M14.35,61c0-3.18,2.58-5.76,5.76-5.76c3.18,0,5.76,2.58,5.76,5.76c0,3.18-2.58,5.76-5.76,5.76
						C16.93,66.76,14.35,64.18,14.35,61z"/>
					<path class="st6" d="M13.75,60.58c0-3.28,2.66-5.94,5.94-5.94s5.94,2.66,5.94,5.94c0,3.28-2.66,5.94-5.94,5.94
						C16.41,66.51,13.75,63.86,13.75,60.58z"/>
				</g>
				<g>
					<g>
						<path class="st3" d="M18.46,57.12c0.6-0.83,1.42-0.21,1.42-0.21c0.04,0.02,0.05,0.05,0.09,0.07c0.03-0.02,0.05-0.05,0.09-0.07
							c0,0,0.82-0.62,1.42,0.21c0.6,0.83-0.03,1.85-0.56,2.22c-0.29,0.21-0.54,0.44-0.87,0.47c-0.03,0-0.05,0.01-0.08,0.01
							c-0.03,0-0.05-0.01-0.08-0.01c-0.33-0.04-0.57-0.27-0.87-0.47C18.5,58.97,17.86,57.95,18.46,57.12z"/>
						<path class="st3" d="M15.96,61.13c-0.61-0.83,0.24-1.42,0.24-1.42c0.03-0.03,0.06-0.04,0.1-0.06
							c-0.01-0.04-0.03-0.06-0.04-0.1c0,0-0.34-0.97,0.64-1.29c0.98-0.31,1.75,0.61,1.94,1.22c0.11,0.34,0.25,0.65,0.18,0.97
							c0,0.03-0.01,0.05-0.02,0.08c-0.01,0.03-0.02,0.05-0.03,0.08c-0.14,0.29-0.43,0.46-0.72,0.68
							C17.73,61.67,16.57,61.96,15.96,61.13z"/>
						<path class="st3" d="M19.01,64.74c-0.98,0.32-1.27-0.67-1.27-0.67c-0.02-0.04-0.01-0.07-0.03-0.11
							c-0.04,0-0.07,0.01-0.11,0.01c0,0-1.03,0.02-1.03-1c0-1.03,1.12-1.47,1.76-1.47c0.36,0.01,0.7-0.03,0.98,0.13
							c0.03,0.01,0.05,0.02,0.07,0.04c0.03,0.02,0.04,0.04,0.06,0.05c0.24,0.22,0.31,0.55,0.43,0.89
							C20.06,63.23,19.98,64.42,19.01,64.74z"/>
						<path class="st3" d="M23.38,62.97c0.01,1.03-1.03,1-1.03,1c-0.04,0-0.07-0.01-0.11-0.01c-0.01,0.04-0.01,0.07-0.03,0.11
							c0,0-0.29,0.99-1.27,0.67c-0.97-0.32-1.06-1.52-0.85-2.12c0.12-0.34,0.18-0.67,0.43-0.89c0.02-0.02,0.04-0.04,0.06-0.05
							c0.03-0.02,0.05-0.03,0.07-0.04c0.29-0.16,0.62-0.12,0.98-0.13C22.27,61.49,23.38,61.94,23.38,62.97z"/>
						<path class="st3" d="M23.05,58.26c0.98,0.31,0.63,1.29,0.63,1.29c-0.01,0.04-0.03,0.06-0.04,0.1c0.03,0.02,0.07,0.03,0.1,0.06
							c0,0,0.85,0.59,0.24,1.42c-0.61,0.83-1.77,0.54-2.28,0.15c-0.29-0.22-0.58-0.38-0.71-0.68c-0.02-0.03-0.03-0.04-0.04-0.07
							c-0.01-0.03-0.01-0.06-0.02-0.08c-0.07-0.32,0.07-0.63,0.18-0.97C21.3,58.86,22.07,57.94,23.05,58.26z"/>
					</g>
					<g>
						
							<linearGradient id="SVGID_37_" gradientUnits="userSpaceOnUse" x1="-469.2465" y1="53.9113" x2="-465.7439" y2="53.9113" gradientTransform="matrix(-1 0 0 1 -447.8076 4.0605)">
							<stop  offset="0" style="stop-color:#F7F7F0"/>
							<stop  offset="0.6031" style="stop-color:#FFFFFF"/>
							<stop  offset="1" style="stop-color:#FFFFFF"/>
						</linearGradient>
						<path class="st44" d="M18.18,56.84c0.6-0.83,1.42-0.21,1.42-0.21c0.04,0.02,0.05,0.05,0.09,0.07
							c0.03-0.02,0.05-0.05,0.09-0.07c0,0,0.82-0.62,1.42,0.21c0.6,0.83-0.03,1.85-0.56,2.22c-0.29,0.21-0.54,0.44-0.87,0.47
							c-0.03,0-0.05,0.01-0.08,0.01c-0.03,0-0.05-0.01-0.08-0.01c-0.33-0.04-0.57-0.27-0.87-0.47
							C18.21,58.68,17.58,57.67,18.18,56.84z"/>
						
							<linearGradient id="SVGID_38_" gradientUnits="userSpaceOnUse" x1="-461.2571" y1="410.5874" x2="-457.7524" y2="410.5874" gradientTransform="matrix(-0.309 0.9511 0.9511 0.309 -515.2704 369.9239)">
							<stop  offset="0" style="stop-color:#F7F7F0"/>
							<stop  offset="0.6031" style="stop-color:#FFFFFF"/>
							<stop  offset="1" style="stop-color:#FFFFFF"/>
						</linearGradient>
						<path class="st45" d="M15.68,60.85c-0.61-0.83,0.24-1.42,0.24-1.42c0.03-0.03,0.06-0.04,0.1-0.06
							c-0.01-0.04-0.03-0.06-0.04-0.1c0,0-0.34-0.97,0.64-1.29c0.98-0.31,1.75,0.61,1.94,1.22c0.11,0.34,0.25,0.65,0.18,0.97
							c0,0.03-0.01,0.05-0.02,0.08c-0.01,0.03-0.02,0.05-0.03,0.08c-0.14,0.29-0.43,0.46-0.72,0.68
							C17.45,61.38,16.29,61.67,15.68,60.85z"/>
						
							<linearGradient id="SVGID_39_" gradientUnits="userSpaceOnUse" x1="-119.1752" y1="514.1096" x2="-115.6708" y2="514.1096" gradientTransform="matrix(0.809 0.5878 0.5878 -0.809 -189.0307 547.5911)">
							<stop  offset="0" style="stop-color:#F7F7F0"/>
							<stop  offset="0.6031" style="stop-color:#FFFFFF"/>
							<stop  offset="1" style="stop-color:#FFFFFF"/>
						</linearGradient>
						<path class="st46" d="M18.72,64.46c-0.98,0.32-1.27-0.67-1.27-0.67c-0.02-0.04-0.01-0.07-0.03-0.11
							c-0.04,0-0.07,0.01-0.11,0.01c0,0-1.03,0.02-1.03-1c0-1.03,1.12-1.47,1.76-1.47c0.36,0.01,0.7-0.03,0.98,0.13
							c0.03,0.01,0.05,0.02,0.07,0.04c0.03,0.02,0.04,0.04,0.06,0.05c0.24,0.22,0.31,0.55,0.43,0.89
							C19.78,62.94,19.7,64.14,18.72,64.46z"/>
						
							<linearGradient id="SVGID_40_" gradientUnits="userSpaceOnUse" x1="84.6819" y1="220.0487" x2="88.1849" y2="220.0487" gradientTransform="matrix(0.809 -0.5878 -0.5878 -0.809 80.6303 291.4781)">
							<stop  offset="0" style="stop-color:#F7F7F0"/>
							<stop  offset="0.6031" style="stop-color:#FFFFFF"/>
							<stop  offset="1" style="stop-color:#FFFFFF"/>
						</linearGradient>
						<path class="st47" d="M23.1,62.68c0.01,1.03-1.03,1-1.03,1c-0.04,0-0.07-0.01-0.11-0.01c-0.01,0.04-0.01,0.07-0.03,0.11
							c0,0-0.29,0.99-1.27,0.67c-0.97-0.32-1.06-1.52-0.85-2.12c0.12-0.34,0.18-0.67,0.43-0.89c0.02-0.02,0.04-0.04,0.06-0.05
							c0.03-0.02,0.05-0.03,0.07-0.04c0.29-0.16,0.62-0.12,0.98-0.13C21.98,61.21,23.09,61.66,23.1,62.68z"/>
						
							<linearGradient id="SVGID_41_" gradientUnits="userSpaceOnUse" x1="-132.5199" y1="-64.1473" x2="-129.017" y2="-64.1473" gradientTransform="matrix(-0.309 -0.9511 -0.9511 0.309 -79.2696 -44.794)">
							<stop  offset="0" style="stop-color:#F7F7F0"/>
							<stop  offset="0.6031" style="stop-color:#FFFFFF"/>
							<stop  offset="1" style="stop-color:#FFFFFF"/>
						</linearGradient>
						<path class="st48" d="M22.76,57.97c0.98,0.31,0.63,1.29,0.63,1.29c-0.01,0.04-0.03,0.06-0.04,0.1
							c0.03,0.02,0.07,0.03,0.1,0.06c0,0,0.85,0.59,0.24,1.42c-0.61,0.83-1.77,0.54-2.28,0.15c-0.29-0.22-0.58-0.38-0.71-0.68
							c-0.02-0.03-0.03-0.04-0.04-0.07c-0.01-0.03-0.01-0.06-0.02-0.08c-0.07-0.32,0.07-0.63,0.18-0.97
							C21.01,58.58,21.78,57.66,22.76,57.97z"/>
					</g>
				</g>
				<g>
					<path class="st12" d="M21.62,60.58c0,1.07-0.86,1.93-1.93,1.93c-1.07,0-1.93-0.86-1.93-1.93c0-1.07,0.87-1.93,1.93-1.93
						C20.75,58.65,21.62,59.51,21.62,60.58z"/>
					<path class="st13" d="M21.32,60.86c0,0.75-0.6,1.35-1.35,1.35c-0.75,0-1.35-0.6-1.35-1.35c0-0.75,0.61-1.35,1.35-1.35
						C20.72,59.51,21.32,60.11,21.32,60.86z"/>
					<path class="st6" d="M21.62,60.58c0,1.07-0.86,1.93-1.93,1.93c-1.07,0-1.93-0.86-1.93-1.93c0-1.07,0.87-1.93,1.93-1.93
						C20.75,58.65,21.62,59.51,21.62,60.58z"/>
				</g>
			</g>
		</g>
	</g>
</g>
</svg>
