<?xml version="1.0" encoding="utf-8"?>
<!-- Generator: Adobe Illustrator 25.3.1, SVG Export Plug-In . SVG Version: 6.00 Build 0)  -->
<svg version="1.1" id="圖層_1" xmlns="http://www.w3.org/2000/svg" xmlns:xlink="http://www.w3.org/1999/xlink" x="0px" y="0px"
	 viewBox="0 0 54.86 74.7" style="enable-background:new 0 0 54.86 74.7;" xml:space="preserve">
<style type="text/css">
	.st0{fill:#EFEEE8;stroke:#000000;}
	.st1{fill:#FFFFFF;}
	.st2{fill:url(#SVGID_1_);}
	.st3{fill:#002D12;}
	.st4{fill:#004A2A;}
	.st5{fill:none;stroke:#002D12;stroke-width:0.7875;stroke-miterlimit:10;}
	.st6{fill:none;stroke:#FFFFFF;stroke-width:0.7875;stroke-miterlimit:10;}
	.st7{fill:none;stroke:#002D12;stroke-width:0.6825;stroke-miterlimit:10;}
	.st8{fill:#6F0005;}
	.st9{fill:#99161C;}
	.st10{fill:none;stroke:#FFFFFF;stroke-width:0.6825;stroke-miterlimit:10;}
	.st11{fill:url(#SVGID_2_);}
	.st12{fill:url(#SVGID_3_);}
	.st13{fill:url(#SVGID_4_);}
	.st14{fill:url(#SVGID_5_);}
	.st15{fill:url(#SVGID_6_);}
	.st16{fill:url(#SVGID_7_);}
	.st17{fill:url(#SVGID_8_);}
	.st18{fill:url(#SVGID_9_);}
	.st19{fill:url(#SVGID_10_);}
	.st20{fill:url(#SVGID_11_);}
	.st21{fill:url(#SVGID_12_);}
	.st22{fill:url(#SVGID_13_);}
	.st23{fill:url(#SVGID_14_);}
	.st24{fill:url(#SVGID_15_);}
	.st25{fill:url(#SVGID_16_);}
	.st26{fill:url(#SVGID_17_);}
	.st27{fill:url(#SVGID_18_);}
	.st28{fill:url(#SVGID_19_);}
	.st29{fill:url(#SVGID_20_);}
	.st30{fill:url(#SVGID_21_);}
	.st31{fill:url(#SVGID_22_);}
	.st32{fill:url(#SVGID_23_);}
	.st33{fill:url(#SVGID_24_);}
	.st34{fill:url(#SVGID_25_);}
	.st35{fill:url(#SVGID_26_);}
	.st36{fill:url(#SVGID_27_);}
	.st37{fill:url(#SVGID_28_);}
	.st38{fill:url(#SVGID_29_);}
	.st39{fill:url(#SVGID_30_);}
</style>
<g>
	<g>
		<g>
			<path class="st0" d="M48.69,0.5H6.17C3.05,0.5,0.5,3.05,0.5,6.17v62.36c0,3.12,2.55,5.67,5.67,5.67h42.52
				c3.12,0,5.67-2.55,5.67-5.67V6.17C54.36,3.05,51.81,0.5,48.69,0.5L48.69,0.5z"/>
		</g>
		<path class="st1" d="M48.69,3.5c1.47,0,2.67,1.2,2.67,2.67v62.36c0,1.47-1.2,2.67-2.67,2.67H6.17C4.7,71.2,3.5,70,3.5,68.53V6.17
			C3.5,4.7,4.7,3.5,6.17,3.5H48.69"/>
		<linearGradient id="SVGID_1_" gradientUnits="userSpaceOnUse" x1="0.0346" y1="64.7454" x2="54.8237" y2="9.9562">
			<stop  offset="0" style="stop-color:#F8F7F0"/>
			<stop  offset="0.6031" style="stop-color:#FFFFFF"/>
			<stop  offset="1" style="stop-color:#FFFFFF"/>
		</linearGradient>
		<path class="st2" d="M48.69,4.5c0.9,0,1.67,0.76,1.67,1.67v62.36c0,0.91-0.76,1.67-1.67,1.67H6.17c-0.9,0-1.67-0.76-1.67-1.67
			V6.17c0-0.91,0.76-1.67,1.67-1.67H48.69"/>
	</g>
	<g>
		<g>
			<path class="st3" d="M48.26,37.37c0,11.5-9.33,20.83-20.83,20.83c-11.5,0-20.83-9.33-20.83-20.83s9.33-20.83,20.83-20.83
				C38.93,16.54,48.26,25.87,48.26,37.37z"/>
			<path class="st4" d="M47.83,37.57c0,11.16-9.05,20.21-20.21,20.21c-11.16,0-20.21-9.05-20.21-20.21
				c0-11.16,9.05-20.21,20.21-20.21C38.79,17.36,47.83,26.41,47.83,37.57z"/>
		</g>
		<g>
			<circle class="st5" cx="27.88" cy="37.82" r="18.5"/>
			<path class="st6" d="M8.93,37.37c0-10.21,8.28-18.5,18.5-18.5c10.22,0,18.5,8.28,18.5,18.5c0,10.21-8.28,18.49-18.5,18.49
				C17.21,55.87,8.93,47.58,8.93,37.37z"/>
		</g>
		<g>
			<path class="st7" d="M15.79,37.67c0-6.6,5.34-11.94,11.94-11.94c6.59,0,11.94,5.34,11.94,11.94c0,6.59-5.35,11.93-11.94,11.93
				C21.13,49.61,15.79,44.26,15.79,37.67z"/>
			<path class="st8" d="M15.49,37.38c0-6.6,5.34-11.94,11.94-11.94s11.94,5.34,11.94,11.94c0,6.59-5.35,11.93-11.94,11.93
				S15.49,43.96,15.49,37.38z"/>
			<path class="st9" d="M16.53,37.82c0-6.27,5.08-11.35,11.34-11.35c6.26,0,11.34,5.08,11.34,11.35c0,6.26-5.08,11.34-11.34,11.34
				C21.61,49.16,16.53,44.08,16.53,37.82z"/>
			<path class="st10" d="M15.49,37.38c0-6.6,5.34-11.94,11.94-11.94s11.94,5.34,11.94,11.94c0,6.59-5.35,11.93-11.94,11.93
				S15.49,43.96,15.49,37.38z"/>
		</g>
		<g>
			<g>
				<g>
					<path class="st8" d="M24.17,44.66c0.2,2.08,0.41,2.54,1.6,3.23c0.46,0.32,1.61-0.25,2.11-0.95c0.5,0.7,1.65,1.26,2.11,0.95
						c1.19-0.69,1.4-1.15,1.6-3.23c0.2-2.08-2.77-2.54-2.77-2.54c-0.38-0.04-0.69,0.03-0.94,0.17c-0.25-0.14-0.56-0.21-0.94-0.17
						C26.94,42.12,23.97,42.58,24.17,44.66z"/>
					<path class="st8" d="M31.58,30.97c-0.2-2.08-0.41-2.54-1.6-3.23c-0.46-0.32-1.61,0.25-2.11,0.94c-0.5-0.7-1.65-1.26-2.11-0.94
						c-1.19,0.69-1.4,1.15-1.6,3.23c-0.2,2.08,2.77,2.54,2.77,2.54c0.38,0.04,0.69-0.03,0.94-0.17c0.25,0.14,0.55,0.21,0.94,0.17
						C28.81,33.51,31.78,33.05,31.58,30.97z"/>
				</g>
				<g>
					<path class="st8" d="M31.95,44.45c1.9,0.87,2.4,0.91,3.6,0.23c0.51-0.24,0.59-1.52,0.24-2.3c0.85-0.08,1.92-0.8,1.87-1.35
						c-0.01-1.37-0.3-1.79-2-3c-1.7-1.21-3.58,1.13-3.58,1.13c-0.23,0.31-0.32,0.61-0.32,0.9c-0.24,0.15-0.46,0.38-0.62,0.73
						C31.14,40.78,30.05,43.58,31.95,44.45z"/>
					<path class="st8" d="M23.8,31.18c-1.9-0.87-2.41-0.91-3.6-0.23c-0.5,0.23-0.59,1.52-0.24,2.3c-0.85,0.08-1.92,0.8-1.87,1.35
						c0,1.37,0.3,1.79,2,3c1.7,1.21,3.58-1.13,3.58-1.13c0.23-0.31,0.32-0.61,0.32-0.9c0.24-0.15,0.46-0.38,0.61-0.73
						C24.61,34.85,25.7,32.05,23.8,31.18z"/>
				</g>
				<g>
					<path class="st8" d="M35.66,37.61c1.7-1.21,1.99-1.63,2-3c0.05-0.55-1.02-1.27-1.87-1.35c0.36-0.78,0.27-2.06-0.24-2.3
						c-1.19-0.68-1.7-0.64-3.6,0.23c-1.9,0.87-0.81,3.67-0.81,3.67c0.16,0.35,0.37,0.58,0.62,0.73c0,0.29,0.1,0.59,0.32,0.9
						C32.07,36.47,33.96,38.81,35.66,37.61z"/>
					<path class="st8" d="M20.1,38.03c-1.7,1.21-1.99,1.63-2,3c-0.05,0.55,1.02,1.27,1.87,1.35c-0.36,0.78-0.27,2.06,0.24,2.3
						c1.19,0.68,1.7,0.64,3.6-0.23c1.9-0.87,0.81-3.67,0.81-3.67c-0.16-0.35-0.37-0.58-0.61-0.73c-0.01-0.29-0.1-0.59-0.32-0.9
						C23.68,39.16,21.79,36.82,20.1,38.03z"/>
				</g>
			</g>
			<g>
				<g>
					
						<linearGradient id="SVGID_2_" gradientUnits="userSpaceOnUse" x1="-1708.4554" y1="968.0863" x2="-1701.0216" y2="968.0863" gradientTransform="matrix(-1 0 0 -1 -1677.3093 1012.6875)">
						<stop  offset="0" style="stop-color:#F8F7F0"/>
						<stop  offset="0.6031" style="stop-color:#FFFFFF"/>
						<stop  offset="1" style="stop-color:#FFFFFF"/>
					</linearGradient>
					<path class="st11" d="M23.72,44.21c0.2,2.08,0.41,2.54,1.6,3.23c0.46,0.32,1.61-0.25,2.11-0.94c0.5,0.7,1.65,1.26,2.11,0.94
						c1.19-0.69,1.4-1.15,1.6-3.23c0.2-2.08-2.77-2.54-2.77-2.54c-0.38-0.04-0.69,0.03-0.94,0.17c-0.25-0.14-0.56-0.21-0.94-0.17
						C26.49,41.68,23.52,42.14,23.72,44.21z"/>
					
						<linearGradient id="SVGID_3_" gradientUnits="userSpaceOnUse" x1="23.7122" y1="30.1438" x2="31.1457" y2="30.1438" gradientTransform="matrix(1 0 0 1 1.000000e-03 -2.000000e-03)">
						<stop  offset="0" style="stop-color:#F8F7F0"/>
						<stop  offset="0.6031" style="stop-color:#FFFFFF"/>
						<stop  offset="1" style="stop-color:#FFFFFF"/>
					</linearGradient>
					<path class="st12" d="M31.14,30.53c-0.2-2.08-0.41-2.54-1.6-3.23c-0.46-0.32-1.61,0.25-2.11,0.95c-0.5-0.7-1.65-1.26-2.11-0.95
						c-1.19,0.69-1.4,1.15-1.6,3.23c-0.2,2.08,2.77,2.54,2.77,2.54c0.38,0.04,0.69-0.03,0.94-0.17c0.25,0.14,0.55,0.21,0.94,0.17
						C28.37,33.06,31.33,32.6,31.14,30.53z"/>
				</g>
				<g>
					
						<linearGradient id="SVGID_4_" gradientUnits="userSpaceOnUse" x1="-1681.3165" y1="-16.329" x2="-1673.8828" y2="-16.329" gradientTransform="matrix(-0.5 0.866 -0.866 -0.5 -819.2501 1485.6228)">
						<stop  offset="0" style="stop-color:#F8F7F0"/>
						<stop  offset="0.6031" style="stop-color:#FFFFFF"/>
						<stop  offset="1" style="stop-color:#FFFFFF"/>
					</linearGradient>
					<path class="st13" d="M31.5,44c1.9,0.87,2.4,0.91,3.6,0.23c0.51-0.24,0.59-1.52,0.24-2.3c0.85-0.08,1.92-0.8,1.87-1.35
						c-0.01-1.37-0.3-1.79-2-3c-1.7-1.21-3.58,1.13-3.58,1.13c-0.23,0.31-0.32,0.61-0.32,0.9c-0.24,0.15-0.46,0.38-0.62,0.73
						C30.69,40.34,29.61,43.14,31.5,44z"/>
					
						<linearGradient id="SVGID_5_" gradientUnits="userSpaceOnUse" x1="-2.8643" y1="1014.732" x2="4.5687" y2="1014.732" gradientTransform="matrix(0.5 -0.866 0.866 0.5 -858.0145 -472.8728)">
						<stop  offset="0" style="stop-color:#F8F7F0"/>
						<stop  offset="0.6031" style="stop-color:#FFFFFF"/>
						<stop  offset="1" style="stop-color:#FFFFFF"/>
					</linearGradient>
					<path class="st14" d="M23.36,30.74c-1.9-0.87-2.41-0.91-3.6-0.23c-0.5,0.24-0.59,1.52-0.24,2.3c-0.85,0.08-1.92,0.8-1.87,1.35
						c0,1.37,0.3,1.79,2,3c1.7,1.21,3.58-1.13,3.58-1.13c0.23-0.31,0.32-0.61,0.32-0.9c0.24-0.15,0.46-0.38,0.61-0.73
						C24.17,34.4,25.25,31.6,23.36,30.74z"/>
				</g>
				<g>
					
						<linearGradient id="SVGID_6_" gradientUnits="userSpaceOnUse" x1="-815.4489" y1="-485.1227" x2="-808.016" y2="-485.1227" gradientTransform="matrix(0.5 0.866 -0.866 0.5 19.4406 979.2772)">
						<stop  offset="0" style="stop-color:#F8F7F0"/>
						<stop  offset="0.6031" style="stop-color:#FFFFFF"/>
						<stop  offset="1" style="stop-color:#FFFFFF"/>
					</linearGradient>
					<path class="st15" d="M35.21,37.16c1.7-1.21,1.99-1.62,2-3c0.05-0.55-1.02-1.27-1.87-1.35c0.36-0.78,0.27-2.06-0.24-2.3
						c-1.19-0.68-1.7-0.64-3.6,0.23c-1.9,0.87-0.81,3.67-0.81,3.67c0.16,0.35,0.37,0.58,0.62,0.73c0,0.29,0.1,0.59,0.32,0.9
						C31.63,36.03,33.51,38.37,35.21,37.16z"/>
					
						<linearGradient id="SVGID_7_" gradientUnits="userSpaceOnUse" x1="-869.1621" y1="1483.9241" x2="-861.7275" y2="1483.9241" gradientTransform="matrix(-0.5 -0.866 0.866 -0.5 -1696.6322 33.4709)">
						<stop  offset="0" style="stop-color:#F8F7F0"/>
						<stop  offset="0.6031" style="stop-color:#FFFFFF"/>
						<stop  offset="1" style="stop-color:#FFFFFF"/>
					</linearGradient>
					<path class="st16" d="M19.65,37.58c-1.7,1.21-1.99,1.63-2,3c-0.05,0.55,1.02,1.27,1.87,1.35c-0.36,0.78-0.27,2.06,0.24,2.3
						c1.19,0.68,1.7,0.64,3.6-0.23c1.9-0.87,0.81-3.67,0.81-3.67c-0.16-0.35-0.37-0.58-0.61-0.73c-0.01-0.29-0.1-0.58-0.32-0.89
						C23.23,38.71,21.35,36.37,19.65,37.58z"/>
				</g>
			</g>
		</g>
		<polygon class="st3" points="34.38,37.37 32.88,37.78 34.3,38.41 32.76,38.59 34.07,39.42 32.51,39.37 33.69,40.39 32.16,40.1 
			33.17,41.29 31.7,40.78 32.52,42.1 31.14,41.38 31.76,42.81 30.5,41.89 30.9,43.39 29.8,42.29 29.97,43.84 29.04,42.59 
			28.98,44.15 28.24,42.77 27.95,44.3 27.43,42.83 26.91,44.3 26.61,42.77 25.88,44.15 25.82,42.59 24.89,43.84 25.06,42.29 
			23.95,43.39 24.35,41.88 23.09,42.8 23.71,41.37 22.33,42.1 23.16,40.78 21.68,41.29 22.69,40.1 21.16,40.39 22.34,39.37 
			20.78,39.42 22.1,38.59 20.55,38.41 21.98,37.78 20.48,37.37 21.98,36.96 20.55,36.33 22.1,36.15 20.78,35.32 22.34,35.37 
			21.16,34.35 22.7,34.64 21.69,33.45 23.16,33.96 22.33,32.64 23.71,33.36 23.09,31.94 24.35,32.85 23.95,31.35 25.06,32.45 
			24.89,30.9 25.82,32.15 25.88,30.59 26.61,31.97 26.91,30.44 27.43,31.91 27.95,30.44 28.25,31.97 28.98,30.59 29.04,32.15 
			29.97,30.9 29.8,32.45 30.91,31.35 30.51,32.86 31.76,31.94 31.15,33.37 32.53,32.64 31.7,33.97 33.17,33.46 32.16,34.64 
			33.69,34.35 32.52,35.37 34.07,35.32 32.76,36.15 34.3,36.33 32.88,36.96 		"/>
		<g>
			<path class="st7" d="M32.65,37.67c0,2.72-2.21,4.93-4.93,4.93c-2.72,0-4.93-2.21-4.93-4.93c0-2.72,2.21-4.93,4.93-4.93
				C30.45,32.74,32.66,34.95,32.65,37.67z"/>
			<path class="st3" d="M32.36,37.37c0,2.72-2.21,4.93-4.93,4.93c-2.72,0-4.93-2.21-4.93-4.93c0-2.72,2.21-4.93,4.93-4.93
				C30.15,32.44,32.36,34.65,32.36,37.37z"/>
			<path class="st4" d="M32.16,37.67c0,2.45-1.99,4.44-4.43,4.44c-2.45,0-4.44-1.99-4.44-4.44c0-2.45,1.99-4.44,4.44-4.44
				C30.17,33.23,32.16,35.22,32.16,37.67z"/>
			<path class="st10" d="M32.36,37.37c0,2.72-2.21,4.93-4.93,4.93c-2.72,0-4.93-2.21-4.93-4.93c0-2.72,2.21-4.93,4.93-4.93
				C30.15,32.44,32.36,34.65,32.36,37.37z"/>
		</g>
		<g>
			<g>
				<g>
					<path class="st3" d="M29.92,22.85c-0.24-1.62-1.39-2.03-2.04-2.03c-0.01,0-0.02,0.01-0.02,0.01c-0.01,0-0.02-0.01-0.03-0.01
						c-0.64,0-1.8,0.4-2.04,2.03c-0.14,0.93,0.53,1.62,0.53,1.62h0.44l1.1-2l1.1,2h0.44C29.39,24.47,30.06,23.78,29.92,22.85z"/>
					<path class="st3" d="M25.79,52.74c0.24,1.62,1.4,2.02,2.04,2.02c0.01,0,0.02,0,0.03,0c0.01,0,0.02,0,0.02,0
						c0.65,0,1.8-0.4,2.04-2.02c0.14-0.93-0.53-1.62-0.53-1.62h-0.44l-1.1,2l-1.1-2h-0.44C26.31,51.12,25.65,51.81,25.79,52.74z"/>
				</g>
				<g>
					<path class="st3" d="M24.68,23.05c-0.78-1.44-2-1.43-2.61-1.21c-0.01,0-0.01,0.01-0.02,0.01c-0.01,0-0.02,0-0.03,0
						c-0.6,0.22-1.55,0.99-1.22,2.6c0.19,0.92,1.05,1.34,1.05,1.34l0.41-0.15l0.35-2.26l1.72,1.5l0.41-0.15
						C24.74,24.75,25.13,23.87,24.68,23.05z"/>
					<path class="st3" d="M31.02,52.55c0.78,1.44,2,1.43,2.61,1.21c0.01,0,0.02-0.01,0.03-0.02c0.01,0,0.02,0,0.02,0
						c0.61-0.22,1.55-0.99,1.22-2.6c-0.19-0.92-1.05-1.34-1.05-1.34l-0.41,0.15l-0.35,2.25l-1.72-1.5l-0.41,0.15
						C30.96,50.84,30.58,51.72,31.02,52.55z"/>
				</g>
				<g>
					<path class="st3" d="M19.83,25.02c-1.23-1.09-2.37-0.66-2.87-0.24c-0.01,0-0.01,0.02-0.02,0.02c-0.01,0.01-0.02,0.01-0.03,0.01
						c-0.49,0.41-1.12,1.46-0.26,2.86c0.49,0.8,1.45,0.9,1.45,0.9l0.34-0.28l-0.44-2.24l2.13,0.82l0.33-0.28
						C20.47,26.6,20.53,25.64,19.83,25.02z"/>
					<path class="st3" d="M35.88,50.57c1.23,1.09,2.37,0.65,2.86,0.24c0.01-0.01,0.01-0.02,0.02-0.02c0,0,0.01-0.01,0.02-0.01
						c0.49-0.42,1.12-1.46,0.26-2.86c-0.49-0.8-1.45-0.91-1.45-0.91l-0.33,0.28l0.44,2.24l-2.13-0.82l-0.33,0.28
						C35.24,48.99,35.18,49.95,35.88,50.57z"/>
				</g>
				<g>
					<path class="st3" d="M15.95,28.54c-1.53-0.6-2.45,0.19-2.78,0.75c0,0.01,0,0.02-0.01,0.02c-0.01,0.01-0.01,0.01-0.02,0.02
						c-0.32,0.56-0.55,1.76,0.74,2.78c0.73,0.58,1.67,0.35,1.67,0.35l0.22-0.38l-1.18-1.96l2.28,0.05l0.22-0.38
						C17.09,29.8,16.81,28.88,15.95,28.54z"/>
					<path class="st3" d="M39.77,47.06c1.53,0.6,2.45-0.2,2.77-0.75c0.01-0.01,0-0.02,0.01-0.03c0-0.01,0.01-0.01,0.02-0.02
						c0.32-0.56,0.55-1.76-0.74-2.78c-0.73-0.58-1.67-0.36-1.67-0.36l-0.22,0.38l1.18,1.95l-2.28-0.05l-0.22,0.38
						C38.62,45.79,38.89,46.71,39.77,47.06z"/>
				</g>
				<g>
					<path class="st3" d="M13.5,33.17c-1.64-0.04-2.24,1.02-2.35,1.66c0,0.01,0,0.02,0,0.02c0,0.01-0.01,0.02-0.01,0.03
						c-0.11,0.63,0.09,1.84,1.64,2.36c0.89,0.29,1.69-0.24,1.69-0.24l0.08-0.43l-1.78-1.43l2.16-0.74L15,33.97
						C15,33.97,14.43,33.19,13.5,33.17z"/>
					<path class="st3" d="M42.22,42.43c1.64,0.04,2.24-1.02,2.35-1.66c0-0.01,0-0.02,0-0.03c0-0.01,0.01-0.02,0.01-0.02
						c0.11-0.64-0.09-1.84-1.64-2.36c-0.89-0.3-1.69,0.24-1.69,0.24l-0.08,0.43l1.78,1.43l-2.16,0.74l-0.08,0.43
						C40.71,41.62,41.28,42.4,42.22,42.43z"/>
				</g>
				<g>
					<path class="st3" d="M12.78,38.36c-1.56,0.52-1.75,1.73-1.64,2.36c0,0.01,0.01,0.02,0.01,0.02c0,0.01,0,0.02,0,0.03
						c0.11,0.63,0.71,1.7,2.35,1.65c0.93-0.03,1.5-0.8,1.5-0.8l-0.08-0.43l-2.16-0.74l1.78-1.43l-0.08-0.43
						C14.47,38.6,13.67,38.06,12.78,38.36z"/>
					<path class="st3" d="M42.93,37.24c1.56-0.52,1.75-1.73,1.64-2.36c0-0.01-0.01-0.02-0.01-0.03c0-0.01,0-0.02,0-0.02
						c-0.11-0.64-0.71-1.7-2.35-1.66c-0.94,0.02-1.51,0.8-1.51,0.8l0.08,0.43l2.16,0.74l-1.78,1.43L41.24,37
						C41.24,37,42.04,37.53,42.93,37.24z"/>
				</g>
				<g>
					<path class="st3" d="M13.88,43.48c-1.29,1.02-1.06,2.22-0.74,2.78c0,0.01,0.01,0.01,0.02,0.02c0,0.01,0,0.02,0.01,0.03
						c0.32,0.56,1.25,1.35,2.78,0.75c0.87-0.34,1.14-1.26,1.14-1.26l-0.22-0.38l-2.28,0.04l1.18-1.95l-0.22-0.38
						C15.55,43.13,14.62,42.9,13.88,43.48z"/>
					<path class="st3" d="M41.83,32.11c1.29-1.02,1.06-2.22,0.74-2.78c0-0.01-0.01-0.01-0.02-0.02c0-0.01-0.01-0.02-0.01-0.02
						c-0.32-0.56-1.25-1.35-2.77-0.75c-0.87,0.34-1.14,1.27-1.14,1.27l0.22,0.38l2.28-0.05l-1.18,1.96l0.22,0.38
						C40.16,32.47,41.1,32.69,41.83,32.11z"/>
				</g>
				<g>
					<path class="st3" d="M16.67,47.92c-0.86,1.4-0.23,2.45,0.26,2.87c0.01,0,0.02,0,0.02,0.01c0.01,0.01,0.01,0.02,0.02,0.02
						c0.49,0.41,1.64,0.84,2.87-0.24c0.7-0.62,0.64-1.58,0.64-1.58l-0.33-0.28l-2.13,0.82l0.44-2.24l-0.33-0.28
						C18.11,47.01,17.16,47.12,16.67,47.92z"/>
					<path class="st3" d="M39.04,27.68c0.86-1.4,0.23-2.45-0.26-2.86c-0.01-0.01-0.02-0.01-0.02-0.02c-0.01,0-0.01-0.02-0.02-0.02
						c-0.5-0.41-1.64-0.85-2.86,0.24c-0.7,0.62-0.64,1.58-0.64,1.58l0.33,0.28l2.13-0.82l-0.44,2.24l0.33,0.28
						C37.6,28.58,38.56,28.47,39.04,27.68z"/>
				</g>
				<g>
					<path class="st3" d="M20.81,51.13c-0.33,1.61,0.62,2.38,1.22,2.6c0.01,0,0.02,0,0.02,0c0.01,0,0.02,0.01,0.02,0.02
						c0.6,0.22,1.83,0.23,2.61-1.21c0.45-0.82,0.06-1.7,0.06-1.7l-0.41-0.15l-1.72,1.5l-0.35-2.25l-0.41-0.15
						C21.85,49.79,20.99,50.21,20.81,51.13z"/>
					<path class="st3" d="M34.91,24.46c0.33-1.61-0.62-2.38-1.22-2.6c-0.01,0-0.02,0-0.03-0.01c-0.01,0-0.02-0.01-0.02-0.01
						c-0.61-0.22-1.83-0.24-2.61,1.21c-0.45,0.82-0.06,1.71-0.06,1.71l0.41,0.15l1.72-1.5l0.35,2.26l0.41,0.15
						C33.86,25.8,34.72,25.38,34.91,24.46z"/>
				</g>
			</g>
			<g>
				<g>
					<linearGradient id="SVGID_8_" gradientUnits="userSpaceOnUse" x1="25.3454" y1="22.2227" x2="29.5129" y2="22.2227">
						<stop  offset="0" style="stop-color:#F8F7F0"/>
						<stop  offset="0.6031" style="stop-color:#FFFFFF"/>
						<stop  offset="1" style="stop-color:#FFFFFF"/>
					</linearGradient>
					<path class="st17" d="M29.49,22.43c-0.24-1.62-1.39-2.03-2.04-2.03c-0.01,0-0.02,0.01-0.02,0.01c-0.01,0-0.02-0.01-0.03-0.01
						c-0.64,0-1.8,0.4-2.04,2.03c-0.14,0.93,0.53,1.62,0.53,1.62h0.44l1.1-2l1.1,2h0.44C28.97,24.05,29.63,23.35,29.49,22.43z"/>
					
						<linearGradient id="SVGID_9_" gradientUnits="userSpaceOnUse" x1="-1706.8221" y1="960.168" x2="-1702.6547" y2="960.168" gradientTransform="matrix(-1 0 0 -1 -1677.3093 1012.6836)">
						<stop  offset="0" style="stop-color:#F8F7F0"/>
						<stop  offset="0.6031" style="stop-color:#FFFFFF"/>
						<stop  offset="1" style="stop-color:#FFFFFF"/>
					</linearGradient>
					<path class="st18" d="M25.36,52.32c0.24,1.62,1.4,2.02,2.04,2.02c0.01,0,0.02,0,0.03,0c0.01,0,0.02,0,0.02,0
						c0.65,0,1.8-0.4,2.04-2.02c0.14-0.93-0.53-1.62-0.53-1.62h-0.44l-1.1,2l-1.1-2h-0.44C25.89,50.69,25.23,51.39,25.36,52.32z"/>
				</g>
				<g>
					
						<linearGradient id="SVGID_10_" gradientUnits="userSpaceOnUse" x1="133.6898" y1="346.5208" x2="137.8573" y2="346.5208" gradientTransform="matrix(0.9397 -0.342 0.342 0.9397 -223.8485 -256.0536)">
						<stop  offset="0" style="stop-color:#F8F7F0"/>
						<stop  offset="0.6031" style="stop-color:#FFFFFF"/>
						<stop  offset="1" style="stop-color:#FFFFFF"/>
					</linearGradient>
					<path class="st19" d="M24.26,22.62c-0.78-1.44-2-1.43-2.61-1.21c-0.01,0-0.01,0.01-0.02,0.01c-0.01,0-0.02,0-0.03,0
						c-0.6,0.22-1.55,0.99-1.22,2.6c0.19,0.92,1.05,1.34,1.05,1.34l0.41-0.15l0.35-2.26l1.72,1.5l0.41-0.15
						C24.32,24.33,24.7,23.44,24.26,22.62z"/>
					
						<linearGradient id="SVGID_11_" gradientUnits="userSpaceOnUse" x1="-1814.8083" y1="635.5346" x2="-1810.6404" y2="635.5346" gradientTransform="matrix(-0.9397 0.342 -0.342 -0.9397 -1453.455 1268.7675)">
						<stop  offset="0" style="stop-color:#F8F7F0"/>
						<stop  offset="0.6031" style="stop-color:#FFFFFF"/>
						<stop  offset="1" style="stop-color:#FFFFFF"/>
					</linearGradient>
					<path class="st20" d="M30.6,52.12c0.78,1.44,2,1.43,2.61,1.21c0.01,0,0.02-0.01,0.03-0.02c0.01,0,0.02,0,0.02,0
						c0.61-0.22,1.55-0.99,1.22-2.6c-0.19-0.92-1.05-1.35-1.05-1.35l-0.41,0.15l-0.35,2.25l-1.72-1.5l-0.41,0.15
						C30.54,50.42,30.15,51.3,30.6,52.12z"/>
				</g>
				<g>
					
						<linearGradient id="SVGID_12_" gradientUnits="userSpaceOnUse" x1="124.0817" y1="689.1836" x2="128.2492" y2="689.1836" gradientTransform="matrix(0.766 -0.6428 0.6428 0.766 -521.9568 -421.0476)">
						<stop  offset="0" style="stop-color:#F8F7F0"/>
						<stop  offset="0.6031" style="stop-color:#FFFFFF"/>
						<stop  offset="1" style="stop-color:#FFFFFF"/>
					</linearGradient>
					<path class="st21" d="M19.41,24.6c-1.23-1.09-2.37-0.66-2.87-0.24c-0.01,0-0.01,0.02-0.02,0.02c-0.01,0.01-0.02,0.01-0.03,0.01
						c-0.49,0.41-1.12,1.46-0.26,2.86c0.49,0.8,1.45,0.9,1.45,0.9l0.33-0.28l-0.44-2.24l2.13,0.82l0.33-0.28
						C20.04,26.18,20.11,25.22,19.41,24.6z"/>
					
						<linearGradient id="SVGID_13_" gradientUnits="userSpaceOnUse" x1="-1805.7858" y1="294.2389" x2="-1801.6188" y2="294.2389" gradientTransform="matrix(-0.766 0.6428 -0.6428 -0.766 -1155.3339 1433.7805)">
						<stop  offset="0" style="stop-color:#F8F7F0"/>
						<stop  offset="0.6031" style="stop-color:#FFFFFF"/>
						<stop  offset="1" style="stop-color:#FFFFFF"/>
					</linearGradient>
					<path class="st22" d="M35.45,50.15c1.23,1.09,2.37,0.65,2.86,0.24c0.01-0.01,0.01-0.02,0.02-0.02c0-0.01,0.01-0.01,0.02-0.01
						c0.49-0.42,1.12-1.46,0.26-2.86c-0.49-0.8-1.45-0.9-1.45-0.9l-0.33,0.28l0.44,2.24l-2.13-0.82l-0.33,0.28
						C34.81,48.57,34.75,49.53,35.45,50.15z"/>
				</g>
				<g>
					
						<linearGradient id="SVGID_14_" gradientUnits="userSpaceOnUse" x1="-1.2311" y1="1006.8096" x2="2.9361" y2="1006.8096" gradientTransform="matrix(0.5 -0.866 0.866 0.5 -858.012 -472.869)">
						<stop  offset="0" style="stop-color:#F8F7F0"/>
						<stop  offset="0.6031" style="stop-color:#FFFFFF"/>
						<stop  offset="1" style="stop-color:#FFFFFF"/>
					</linearGradient>
					<path class="st23" d="M15.52,28.11c-1.53-0.6-2.45,0.19-2.78,0.75c0,0.01,0,0.02-0.01,0.02c-0.01,0.01-0.01,0.01-0.02,0.02
						c-0.32,0.56-0.55,1.76,0.74,2.78c0.73,0.58,1.67,0.36,1.67,0.36l0.22-0.38l-1.18-1.96l2.28,0.05l0.22-0.38
						C16.66,29.38,16.39,28.46,15.52,28.11z"/>
					
						<linearGradient id="SVGID_15_" gradientUnits="userSpaceOnUse" x1="-1679.6838" y1="-24.2527" x2="-1675.5182" y2="-24.2527" gradientTransform="matrix(-0.5 0.866 -0.866 -0.5 -819.256 1485.621)">
						<stop  offset="0" style="stop-color:#F8F7F0"/>
						<stop  offset="0.6031" style="stop-color:#FFFFFF"/>
						<stop  offset="1" style="stop-color:#FFFFFF"/>
					</linearGradient>
					<path class="st24" d="M39.34,46.63c1.53,0.6,2.45-0.2,2.77-0.75c0.01-0.01,0-0.02,0.01-0.03c0-0.01,0.01-0.01,0.02-0.02
						c0.32-0.56,0.55-1.76-0.74-2.78c-0.73-0.58-1.67-0.36-1.67-0.36l-0.22,0.38l1.18,1.95l-2.28-0.04l-0.22,0.38
						C38.2,45.37,38.47,46.29,39.34,46.63z"/>
				</g>
				<g>
					
						<linearGradient id="SVGID_16_" gradientUnits="userSpaceOnUse" x1="-228.7518" y1="1263.1815" x2="-224.5835" y2="1263.1815" gradientTransform="matrix(0.1736 -0.9848 0.9848 0.1736 -1192.1184 -407.7697)">
						<stop  offset="0" style="stop-color:#F8F7F0"/>
						<stop  offset="0.6031" style="stop-color:#FFFFFF"/>
						<stop  offset="1" style="stop-color:#FFFFFF"/>
					</linearGradient>
					<path class="st25" d="M13.07,32.74c-1.64-0.04-2.24,1.02-2.35,1.66c0,0.01,0,0.02,0,0.03c0,0.01-0.01,0.02-0.01,0.03
						c-0.11,0.63,0.09,1.84,1.64,2.36c0.89,0.29,1.69-0.24,1.69-0.24l0.08-0.43l-1.78-1.43l2.16-0.74l0.08-0.43
						C14.58,33.54,14.01,32.77,13.07,32.74z"/>
					
						<linearGradient id="SVGID_17_" gradientUnits="userSpaceOnUse" x1="-1453.2445" y1="-279.8016" x2="-1449.0775" y2="-279.8016" gradientTransform="matrix(-0.1736 0.9848 -0.9848 -0.1736 -485.1234 1420.5315)">
						<stop  offset="0" style="stop-color:#F8F7F0"/>
						<stop  offset="0.6031" style="stop-color:#FFFFFF"/>
						<stop  offset="1" style="stop-color:#FFFFFF"/>
					</linearGradient>
					<path class="st26" d="M41.79,42c1.64,0.04,2.24-1.02,2.35-1.65c0-0.01,0-0.02,0-0.03c0-0.01,0.01-0.02,0.01-0.02
						c0.11-0.64-0.08-1.84-1.64-2.36c-0.89-0.3-1.69,0.24-1.69,0.24l-0.08,0.43l1.78,1.43l-2.16,0.74l-0.08,0.43
						C40.28,41.2,40.85,41.97,41.79,42z"/>
				</g>
				<g>
					
						<linearGradient id="SVGID_18_" gradientUnits="userSpaceOnUse" x1="-528.6798" y1="1425.2899" x2="-524.5128" y2="1425.2899" gradientTransform="matrix(-0.1736 -0.9848 0.9848 -0.1736 -1482.5289 -231.1597)">
						<stop  offset="0" style="stop-color:#F8F7F0"/>
						<stop  offset="0.6031" style="stop-color:#FFFFFF"/>
						<stop  offset="1" style="stop-color:#FFFFFF"/>
					</linearGradient>
					<path class="st27" d="M12.36,37.93c-1.56,0.52-1.75,1.72-1.64,2.36c0,0.01,0.01,0.02,0.01,0.02c0,0.01,0,0.02,0,0.03
						c0.11,0.63,0.71,1.7,2.35,1.65c0.93-0.03,1.5-0.8,1.5-0.8l-0.08-0.43l-2.16-0.74l1.78-1.43l-0.08-0.43
						C14.04,38.17,13.24,37.64,12.36,37.93z"/>
					
						<linearGradient id="SVGID_19_" gradientUnits="userSpaceOnUse" x1="-1151.7701" y1="-443.3588" x2="-1147.6034" y2="-443.3588" gradientTransform="matrix(0.1736 0.9848 -0.9848 0.1736 -194.6859 1243.9205)">
						<stop  offset="0" style="stop-color:#F8F7F0"/>
						<stop  offset="0.6031" style="stop-color:#FFFFFF"/>
						<stop  offset="1" style="stop-color:#FFFFFF"/>
					</linearGradient>
					<path class="st28" d="M42.51,36.81c1.56-0.52,1.75-1.73,1.64-2.36c0-0.01-0.01-0.02-0.01-0.03c0-0.01,0-0.02,0-0.03
						c-0.11-0.63-0.71-1.7-2.35-1.65c-0.94,0.02-1.51,0.8-1.51,0.8l0.08,0.43l2.16,0.74l-1.78,1.43l0.08,0.43
						C40.82,36.57,41.62,37.11,42.51,36.81z"/>
				</g>
				<g>
					
						<linearGradient id="SVGID_20_" gradientUnits="userSpaceOnUse" x1="-867.5274" y1="1476.0013" x2="-863.36" y2="1476.0013" gradientTransform="matrix(-0.5 -0.866 0.866 -0.5 -1696.6254 33.4709)">
						<stop  offset="0" style="stop-color:#F8F7F0"/>
						<stop  offset="0.6031" style="stop-color:#FFFFFF"/>
						<stop  offset="1" style="stop-color:#FFFFFF"/>
					</linearGradient>
					<path class="st29" d="M13.46,43.05c-1.29,1.02-1.06,2.22-0.74,2.78c0,0.01,0.01,0.01,0.02,0.02c0,0.01,0,0.02,0.01,0.03
						c0.32,0.56,1.25,1.35,2.78,0.75c0.87-0.34,1.14-1.26,1.14-1.26l-0.22-0.38l-2.28,0.04l1.18-1.95l-0.22-0.38
						C15.12,42.7,14.19,42.47,13.46,43.05z"/>
					
						<linearGradient id="SVGID_21_" gradientUnits="userSpaceOnUse" x1="-813.8138" y1="-493.046" x2="-809.6475" y2="-493.046" gradientTransform="matrix(0.5 0.866 -0.866 0.5 19.4367 979.2802)">
						<stop  offset="0" style="stop-color:#F8F7F0"/>
						<stop  offset="0.6031" style="stop-color:#FFFFFF"/>
						<stop  offset="1" style="stop-color:#FFFFFF"/>
					</linearGradient>
					<path class="st30" d="M41.41,31.69c1.29-1.02,1.06-2.22,0.74-2.78c0-0.01-0.01-0.01-0.02-0.02c0-0.01-0.01-0.02-0.01-0.02
						c-0.32-0.56-1.25-1.35-2.77-0.75c-0.87,0.34-1.14,1.27-1.14,1.27l0.22,0.38l2.28-0.05l-1.18,1.96l0.22,0.38
						C39.74,32.04,40.67,32.27,41.41,31.69z"/>
				</g>
				<g>
					
						<linearGradient id="SVGID_22_" gradientUnits="userSpaceOnUse" x1="-1202.1302" y1="1407.0874" x2="-1197.9609" y2="1407.0874" gradientTransform="matrix(-0.766 -0.6428 0.6428 -0.766 -1806.015 355.414)">
						<stop  offset="0" style="stop-color:#F8F7F0"/>
						<stop  offset="0.6031" style="stop-color:#FFFFFF"/>
						<stop  offset="1" style="stop-color:#FFFFFF"/>
					</linearGradient>
					<path class="st31" d="M16.24,47.49c-0.86,1.4-0.23,2.45,0.26,2.87c0.01,0.01,0.02,0.01,0.02,0.01
						c0.01,0.01,0.01,0.02,0.02,0.02c0.49,0.41,1.64,0.84,2.87-0.24c0.7-0.62,0.64-1.58,0.64-1.58l-0.33-0.28l-2.13,0.82l0.44-2.24
						l-0.33-0.28C17.69,46.59,16.73,46.69,16.24,47.49z"/>
					
						<linearGradient id="SVGID_23_" gradientUnits="userSpaceOnUse" x1="-478.2957" y1="-424.8596" x2="-474.1297" y2="-424.8596" gradientTransform="matrix(0.766 0.6428 -0.6428 0.766 128.8473 657.3201)">
						<stop  offset="0" style="stop-color:#F8F7F0"/>
						<stop  offset="0.6031" style="stop-color:#FFFFFF"/>
						<stop  offset="1" style="stop-color:#FFFFFF"/>
					</linearGradient>
					<path class="st32" d="M38.62,27.25c0.86-1.4,0.23-2.45-0.26-2.86c-0.01-0.01-0.02-0.01-0.02-0.02c-0.01,0-0.01-0.01-0.02-0.02
						c-0.5-0.41-1.64-0.85-2.86,0.24c-0.7,0.62-0.64,1.58-0.64,1.58l0.33,0.28l2.13-0.82l-0.44,2.24l0.33,0.28
						C37.17,28.15,38.13,28.05,38.62,27.25z"/>
				</g>
				<g>
					
						<linearGradient id="SVGID_24_" gradientUnits="userSpaceOnUse" x1="-1494.3134" y1="1228.2415" x2="-1490.1459" y2="1228.2415" gradientTransform="matrix(-0.9397 -0.342 0.342 -0.9397 -1800.0551 695.4399)">
						<stop  offset="0" style="stop-color:#F8F7F0"/>
						<stop  offset="0.6031" style="stop-color:#FFFFFF"/>
						<stop  offset="1" style="stop-color:#FFFFFF"/>
					</linearGradient>
					<path class="st33" d="M20.38,50.71c-0.33,1.61,0.62,2.38,1.22,2.6c0.01,0,0.02,0,0.02,0c0.01,0,0.02,0.01,0.02,0.02
						c0.6,0.22,1.83,0.23,2.61-1.21c0.45-0.82,0.06-1.7,0.06-1.7l-0.41-0.15l-1.72,1.5l-0.35-2.25l-0.41-0.15
						C21.43,49.37,20.57,49.79,20.38,50.71z"/>
					
						<linearGradient id="SVGID_25_" gradientUnits="userSpaceOnUse" x1="-187.5196" y1="-245.5177" x2="-183.3538" y2="-245.5177" gradientTransform="matrix(0.9397 0.342 -0.342 0.9397 122.901 317.2701)">
						<stop  offset="0" style="stop-color:#F8F7F0"/>
						<stop  offset="0.6031" style="stop-color:#FFFFFF"/>
						<stop  offset="1" style="stop-color:#FFFFFF"/>
					</linearGradient>
					<path class="st34" d="M34.48,24.03c0.33-1.61-0.62-2.38-1.22-2.6c-0.01,0-0.02,0-0.03-0.01c-0.01,0-0.02-0.01-0.02-0.01
						c-0.61-0.22-1.83-0.24-2.61,1.21c-0.45,0.82-0.06,1.71-0.06,1.71l0.41,0.15l1.72-1.5l0.35,2.26l0.41,0.15
						C33.43,25.38,34.3,24.95,34.48,24.03z"/>
				</g>
			</g>
		</g>
		<g>
			<g>
				<path class="st3" d="M27.86,34.29c0,0,0,0.01,0,0.01C27.85,34.29,27.85,34.29,27.86,34.29c-0.41,0.08-0.9,1.21-0.74,2.1
					c0.16,0.89,0.41,1.3,0.57,0.81c0.07-0.12,0.12-0.24,0.16-0.36c0.05,0.12,0.09,0.25,0.16,0.36c0.16,0.49,0.41,0.08,0.57-0.81
					C28.75,35.5,28.26,34.37,27.86,34.29z"/>
				<path class="st3" d="M24.52,36.71L24.52,36.71C24.52,36.71,24.51,36.71,24.52,36.71c-0.05,0.42,0.88,1.23,1.77,1.35
					c0.9,0.12,1.36,0.02,0.95-0.29c-0.09-0.1-0.19-0.18-0.29-0.27c0.13-0.01,0.26-0.01,0.39-0.04c0.51,0,0.2-0.36-0.6-0.79
					C25.95,36.24,24.72,36.35,24.52,36.71z"/>
				<path class="st3" d="M25.79,40.63C25.79,40.63,25.8,40.63,25.79,40.63C25.8,40.63,25.79,40.64,25.79,40.63
					c0.38,0.18,1.44-0.46,1.83-1.27c0.39-0.82,0.44-1.29,0.02-0.99c-0.12,0.05-0.23,0.12-0.34,0.2c0.03-0.13,0.07-0.25,0.08-0.39
					c0.15-0.49-0.28-0.3-0.93,0.32C25.78,39.13,25.51,40.33,25.79,40.63z"/>
				<path class="st3" d="M29.92,40.64l0-0.01C29.91,40.63,29.92,40.63,29.92,40.64c0.28-0.31,0.01-1.51-0.64-2.13
					c-0.65-0.62-1.09-0.81-0.94-0.32c0.01,0.13,0.05,0.26,0.08,0.39c-0.11-0.07-0.22-0.14-0.35-0.2c-0.42-0.3-0.38,0.17,0.02,0.99
					C28.48,40.18,29.54,40.81,29.92,40.64z"/>
				<path class="st3" d="M31.19,36.71l-0.01,0L31.19,36.71c-0.2-0.37-1.43-0.48-2.23-0.05c-0.8,0.43-1.11,0.79-0.6,0.79
					c0.13,0.03,0.26,0.04,0.39,0.04c-0.1,0.08-0.2,0.17-0.29,0.27c-0.41,0.31,0.05,0.41,0.95,0.29
					C30.31,37.93,31.24,37.12,31.19,36.71z"/>
			</g>
			<g>
				<linearGradient id="SVGID_26_" gradientUnits="userSpaceOnUse" x1="26.6646" y1="35.4211" x2="28.1921" y2="35.4211">
					<stop  offset="0" style="stop-color:#F8F7F0"/>
					<stop  offset="0.6031" style="stop-color:#FFFFFF"/>
					<stop  offset="1" style="stop-color:#FFFFFF"/>
				</linearGradient>
				<path class="st35" d="M27.43,33.86c0,0,0,0.01,0,0.01C27.43,33.87,27.43,33.86,27.43,33.86c-0.41,0.08-0.9,1.21-0.74,2.11
					c0.16,0.89,0.41,1.3,0.57,0.81c0.07-0.12,0.12-0.24,0.16-0.36c0.05,0.12,0.09,0.25,0.16,0.36c0.16,0.49,0.41,0.08,0.57-0.81
					C28.32,35.07,27.84,33.94,27.43,33.86z"/>
				
					<linearGradient id="SVGID_27_" gradientUnits="userSpaceOnUse" x1="-126.3431" y1="1183.0936" x2="-124.8165" y2="1183.0936" gradientTransform="matrix(0.309 -0.9511 0.9511 0.309 -1060.8617 -448.2473)">
					<stop  offset="0" style="stop-color:#F8F7F0"/>
					<stop  offset="0.6031" style="stop-color:#FFFFFF"/>
					<stop  offset="1" style="stop-color:#FFFFFF"/>
				</linearGradient>
				<path class="st36" d="M24.09,36.28L24.09,36.28C24.1,36.29,24.09,36.29,24.09,36.28c-0.05,0.42,0.88,1.23,1.77,1.35
					c0.9,0.12,1.36,0.02,0.95-0.29c-0.09-0.1-0.19-0.19-0.29-0.27c0.13-0.01,0.26-0.01,0.39-0.04c0.51,0,0.2-0.36-0.6-0.79
					C25.52,35.81,24.29,35.92,24.09,36.28z"/>
				
					<linearGradient id="SVGID_28_" gradientUnits="userSpaceOnUse" x1="-1264.2006" y1="1392.7556" x2="-1262.6746" y2="1392.7556" gradientTransform="matrix(-0.809 -0.5878 0.5878 -0.809 -1814.5 423.0377)">
					<stop  offset="0" style="stop-color:#F8F7F0"/>
					<stop  offset="0.6031" style="stop-color:#FFFFFF"/>
					<stop  offset="1" style="stop-color:#FFFFFF"/>
				</linearGradient>
				<path class="st37" d="M25.36,40.21C25.36,40.21,25.37,40.2,25.36,40.21C25.37,40.2,25.37,40.21,25.36,40.21
					c0.38,0.18,1.44-0.46,1.83-1.27c0.39-0.82,0.44-1.29,0.02-0.99c-0.12,0.05-0.23,0.12-0.34,0.2c0.03-0.13,0.07-0.25,0.08-0.39
					c0.15-0.49-0.28-0.3-0.93,0.32C25.36,38.7,25.08,39.9,25.36,40.21z"/>
				
					<linearGradient id="SVGID_29_" gradientUnits="userSpaceOnUse" x1="-1815.8989" y1="374.9192" x2="-1814.3723" y2="374.9192" gradientTransform="matrix(-0.809 0.5878 -0.5878 -0.809 -1219.4932 1409.1937)">
					<stop  offset="0" style="stop-color:#F8F7F0"/>
					<stop  offset="0.6031" style="stop-color:#FFFFFF"/>
					<stop  offset="1" style="stop-color:#FFFFFF"/>
				</linearGradient>
				<path class="st38" d="M29.49,40.21l0-0.01C29.49,40.2,29.49,40.21,29.49,40.21c0.28-0.31,0.01-1.51-0.64-2.13
					c-0.65-0.62-1.09-0.81-0.94-0.32c0.01,0.13,0.05,0.26,0.08,0.39c-0.11-0.07-0.22-0.14-0.35-0.2c-0.42-0.3-0.38,0.17,0.02,0.99
					C28.06,39.75,29.11,40.38,29.49,40.21z"/>
				
					<linearGradient id="SVGID_30_" gradientUnits="userSpaceOnUse" x1="-1017.8613" y1="-464.7191" x2="-1016.3347" y2="-464.7191" gradientTransform="matrix(0.309 0.9511 -0.9511 0.309 -98.4286 1147.7278)">
					<stop  offset="0" style="stop-color:#F8F7F0"/>
					<stop  offset="0.6031" style="stop-color:#FFFFFF"/>
					<stop  offset="1" style="stop-color:#FFFFFF"/>
				</linearGradient>
				<path class="st39" d="M30.77,36.29l-0.01,0L30.77,36.29c-0.2-0.37-1.43-0.48-2.23-0.05c-0.8,0.43-1.11,0.79-0.6,0.79
					c0.13,0.03,0.26,0.04,0.39,0.04c-0.1,0.08-0.2,0.17-0.29,0.27c-0.41,0.3,0.05,0.41,0.95,0.29
					C29.89,37.51,30.82,36.7,30.77,36.29z"/>
			</g>
		</g>
		<g>
			<path class="st3" d="M28.66,37.37c0-0.68-0.55-1.24-1.23-1.24c-0.68,0-1.23,0.55-1.23,1.24c0,0.68,0.55,1.23,1.23,1.23
				C28.11,38.61,28.66,38.05,28.66,37.37z"/>
			<path class="st4" d="M28.65,37.52c0-0.61-0.48-1.11-1.07-1.11c-0.59,0-1.07,0.5-1.07,1.11c0,0.61,0.48,1.11,1.07,1.11
				C28.17,38.63,28.65,38.13,28.65,37.52z"/>
		</g>
	</g>
</g>
</svg>
