<?xml version="1.0" encoding="utf-8"?>
<!-- Generator: Adobe Illustrator 25.3.1, SVG Export Plug-In . SVG Version: 6.00 Build 0)  -->
<svg version="1.1" id="圖層_1" xmlns="http://www.w3.org/2000/svg" xmlns:xlink="http://www.w3.org/1999/xlink" x="0px" y="0px"
	 viewBox="0 0 54.86 74.7" style="enable-background:new 0 0 54.86 74.7;" xml:space="preserve">
<style type="text/css">
	.st0{fill:#EFEEE8;stroke:#000000;}
	.st1{fill:#FFFFFF;}
	.st2{fill:url(#SVGID_1_);}
	.st3{fill:#002D12;}
	.st4{fill:#004A2A;}
	.st5{fill:none;stroke:#002D12;stroke-width:0.65;stroke-miterlimit:10;}
	.st6{fill:none;stroke:#FFFFFF;stroke-width:0.65;stroke-miterlimit:10;}
	.st7{fill:url(#SVGID_2_);}
	.st8{fill:url(#SVGID_3_);}
	.st9{fill:url(#SVGID_4_);}
	.st10{fill:url(#SVGID_5_);}
	.st11{fill:url(#SVGID_6_);}
	.st12{fill:#6F0005;}
	.st13{fill:#99161C;}
	.st14{fill:url(#SVGID_7_);}
	.st15{fill:url(#SVGID_8_);}
	.st16{fill:url(#SVGID_9_);}
	.st17{fill:url(#SVGID_10_);}
	.st18{fill:url(#SVGID_11_);}
	.st19{fill:url(#SVGID_12_);}
	.st20{fill:url(#SVGID_13_);}
	.st21{fill:url(#SVGID_14_);}
	.st22{fill:url(#SVGID_15_);}
	.st23{fill:url(#SVGID_16_);}
	.st24{fill:url(#SVGID_17_);}
	.st25{fill:url(#SVGID_18_);}
	.st26{fill:url(#SVGID_19_);}
	.st27{fill:url(#SVGID_20_);}
	.st28{fill:url(#SVGID_21_);}
</style>
<g>
	<g>
		<g>
			<path class="st0" d="M48.69,0.5H6.17C3.05,0.5,0.5,3.05,0.5,6.17v62.36c0,3.12,2.55,5.67,5.67,5.67h42.52
				c3.12,0,5.67-2.55,5.67-5.67V6.17C54.36,3.05,51.81,0.5,48.69,0.5L48.69,0.5z"/>
		</g>
		<path class="st1" d="M48.69,3.5c1.47,0,2.67,1.2,2.67,2.67v62.36c0,1.47-1.2,2.67-2.67,2.67H6.17C4.7,71.2,3.5,70,3.5,68.53V6.17
			C3.5,4.7,4.7,3.5,6.17,3.5H48.69"/>
		<linearGradient id="SVGID_1_" gradientUnits="userSpaceOnUse" x1="0.0341" y1="64.7457" x2="54.8239" y2="9.9559">
			<stop  offset="0" style="stop-color:#F8F7F0"/>
			<stop  offset="0.6031" style="stop-color:#FFFFFF"/>
			<stop  offset="1" style="stop-color:#FFFFFF"/>
		</linearGradient>
		<path class="st2" d="M48.69,4.5c0.9,0,1.67,0.76,1.67,1.67v62.36c0,0.91-0.76,1.67-1.67,1.67H6.17c-0.91,0-1.67-0.76-1.67-1.67
			V6.17c0-0.91,0.76-1.67,1.67-1.67H48.69"/>
	</g>
	<g>
		<g>
			<g>
				<path class="st3" d="M48.56,20.15c0,4.77-3.87,8.64-8.64,8.64c-4.77,0-8.63-3.87-8.63-8.64c0-4.77,3.87-8.63,8.63-8.63
					C44.69,11.52,48.56,15.38,48.56,20.15z"/>
				<path class="st4" d="M48.32,20.35c0,4.53-3.67,8.2-8.21,8.2c-4.53,0-8.2-3.67-8.2-8.2c0-4.53,3.67-8.2,8.2-8.2
					C44.65,12.15,48.33,15.82,48.32,20.35z"/>
			</g>
			<g>
				<path class="st5" d="M33.41,20.44c0-3.75,3.04-6.8,6.79-6.8c3.75,0,6.8,3.05,6.8,6.79c0,3.75-3.05,6.79-6.8,6.79
					C36.46,27.23,33.41,24.19,33.41,20.44z"/>
				<path class="st3" d="M33.13,20.15c0-3.75,3.04-6.79,6.79-6.79c3.75,0,6.8,3.04,6.8,6.79c0,3.75-3.05,6.79-6.8,6.79
					C36.17,26.94,33.13,23.9,33.13,20.15z"/>
				<path class="st4" d="M33.76,20.58c0-3.64,2.95-6.59,6.59-6.59c3.64,0,6.59,2.95,6.59,6.59c0,3.64-2.95,6.59-6.59,6.59
					C36.71,27.17,33.76,24.22,33.76,20.58z"/>
				<path class="st6" d="M33.13,20.15c0-3.75,3.04-6.79,6.79-6.79c3.75,0,6.8,3.04,6.8,6.79c0,3.75-3.05,6.79-6.8,6.79
					C36.17,26.94,33.13,23.9,33.13,20.15z"/>
			</g>
			<g>
				<g>
					<path class="st3" d="M38.48,16.15c0.69-0.95,1.63-0.23,1.63-0.23c0.04,0.02,0.06,0.06,0.1,0.08c0.03-0.03,0.06-0.06,0.1-0.08
						c0,0,0.94-0.72,1.63,0.23c0.69,0.96-0.04,2.12-0.64,2.54c-0.34,0.24-0.62,0.5-0.99,0.54c-0.03,0.01-0.06,0.01-0.09,0.01
						c-0.03,0-0.06-0.01-0.09-0.01c-0.37-0.04-0.66-0.3-1-0.54C38.52,18.27,37.79,17.11,38.48,16.15z"/>
					<path class="st3" d="M35.62,20.74c-0.69-0.95,0.28-1.62,0.28-1.62c0.04-0.03,0.07-0.04,0.11-0.07
						c-0.01-0.04-0.04-0.07-0.05-0.12c0,0-0.39-1.11,0.73-1.47c1.12-0.36,2,0.69,2.21,1.39c0.12,0.39,0.28,0.74,0.21,1.11
						c0,0.03-0.01,0.06-0.02,0.09c-0.01,0.04-0.03,0.06-0.04,0.09c-0.16,0.34-0.49,0.53-0.82,0.78
						C37.65,21.36,36.32,21.69,35.62,20.74z"/>
					<path class="st3" d="M39.1,24.88c-1.12,0.37-1.46-0.77-1.46-0.77c-0.02-0.04-0.02-0.09-0.03-0.13c-0.04,0-0.08,0.02-0.13,0.01
						c0,0-1.18,0.03-1.18-1.15c0-1.17,1.28-1.69,2.01-1.68c0.41,0.01,0.79-0.04,1.12,0.15c0.03,0.02,0.05,0.03,0.08,0.05
						c0.03,0.02,0.05,0.04,0.07,0.06c0.28,0.25,0.35,0.63,0.49,1.02C40.31,23.14,40.22,24.51,39.1,24.88z"/>
					<path class="st3" d="M44.11,22.84c0,1.17-1.18,1.15-1.18,1.15c-0.04,0-0.08-0.01-0.13-0.01c-0.01,0.04-0.01,0.08-0.03,0.13
						c0,0-0.34,1.13-1.46,0.77c-1.11-0.37-1.21-1.74-0.97-2.43c0.13-0.39,0.21-0.77,0.49-1.02c0.02-0.03,0.04-0.04,0.07-0.06
						c0.03-0.02,0.05-0.03,0.08-0.05c0.33-0.19,0.71-0.14,1.12-0.15C42.83,21.16,44.1,21.67,44.11,22.84z"/>
					<path class="st3" d="M43.72,17.46c1.12,0.36,0.73,1.47,0.73,1.47c-0.01,0.04-0.04,0.08-0.05,0.12
						c0.04,0.02,0.07,0.04,0.11,0.07c0,0,0.97,0.67,0.28,1.62c-0.69,0.95-2.02,0.62-2.61,0.18c-0.33-0.25-0.67-0.44-0.82-0.78
						c-0.02-0.03-0.03-0.05-0.04-0.08c-0.01-0.03-0.01-0.06-0.02-0.09c-0.08-0.37,0.08-0.72,0.21-1.12
						C41.72,18.14,42.61,17.1,43.72,17.46z"/>
				</g>
				<g>
					
						<linearGradient id="SVGID_2_" gradientUnits="userSpaceOnUse" x1="-1533.2289" y1="13.1101" x2="-1529.2208" y2="13.1101" gradientTransform="matrix(-1 0 0 1 -1491.3024 4.0605)">
						<stop  offset="0" style="stop-color:#F8F7F0"/>
						<stop  offset="0.6031" style="stop-color:#FFFFFF"/>
						<stop  offset="1" style="stop-color:#FFFFFF"/>
					</linearGradient>
					<path class="st7" d="M38.2,15.87c0.69-0.95,1.63-0.24,1.63-0.24c0.04,0.02,0.06,0.06,0.1,0.08c0.03-0.03,0.06-0.06,0.1-0.08
						c0,0,0.94-0.72,1.63,0.24c0.69,0.95-0.04,2.12-0.64,2.54c-0.34,0.24-0.62,0.5-1,0.54c-0.03,0.01-0.06,0.01-0.09,0.01
						c-0.03,0-0.06-0.01-0.09-0.01c-0.37-0.04-0.66-0.3-1-0.54C38.23,17.99,37.51,16.83,38.2,15.87z"/>
					
						<linearGradient id="SVGID_3_" gradientUnits="userSpaceOnUse" x1="-1437.3854" y1="1093.5221" x2="-1433.3757" y2="1093.5221" gradientTransform="matrix(-0.309 0.9511 0.9511 0.309 -1446.4749 1046.5089)">
						<stop  offset="0" style="stop-color:#F8F7F0"/>
						<stop  offset="0.6031" style="stop-color:#FFFFFF"/>
						<stop  offset="1" style="stop-color:#FFFFFF"/>
					</linearGradient>
					<path class="st8" d="M35.34,20.46c-0.69-0.95,0.28-1.62,0.28-1.62c0.03-0.03,0.07-0.04,0.11-0.07
						c-0.02-0.04-0.04-0.07-0.05-0.12c0,0-0.39-1.11,0.73-1.48c1.12-0.36,2,0.69,2.22,1.4c0.12,0.39,0.28,0.74,0.21,1.11
						c0,0.03-0.01,0.06-0.02,0.09c-0.01,0.03-0.03,0.06-0.04,0.09c-0.16,0.34-0.49,0.53-0.82,0.78
						C37.36,21.07,36.03,21.41,35.34,20.46z"/>
					
						<linearGradient id="SVGID_4_" gradientUnits="userSpaceOnUse" x1="-379.8882" y1="1337.1752" x2="-375.8794" y2="1337.1752" gradientTransform="matrix(0.809 0.5878 0.5878 -0.809 -442.1003 1326.4232)">
						<stop  offset="0" style="stop-color:#F8F7F0"/>
						<stop  offset="0.6031" style="stop-color:#FFFFFF"/>
						<stop  offset="1" style="stop-color:#FFFFFF"/>
					</linearGradient>
					<path class="st9" d="M38.82,24.59c-1.12,0.36-1.46-0.77-1.46-0.77c-0.02-0.04-0.02-0.09-0.03-0.13c-0.04,0-0.08,0.02-0.13,0.01
						c0,0-1.18,0.03-1.18-1.15c0-1.17,1.28-1.69,2.01-1.68c0.41,0.01,0.79-0.04,1.12,0.15c0.03,0.01,0.05,0.03,0.08,0.05
						c0.03,0.02,0.05,0.04,0.07,0.06c0.28,0.25,0.35,0.63,0.49,1.02C40.03,22.86,39.93,24.22,38.82,24.59z"/>
					
						<linearGradient id="SVGID_5_" gradientUnits="userSpaceOnUse" x1="178.332" y1="405.9535" x2="182.3398" y2="405.9535" gradientTransform="matrix(0.809 -0.5878 -0.5878 -0.809 134.3923 456.944)">
						<stop  offset="0" style="stop-color:#F8F7F0"/>
						<stop  offset="0.6031" style="stop-color:#FFFFFF"/>
						<stop  offset="1" style="stop-color:#FFFFFF"/>
					</linearGradient>
					<path class="st10" d="M43.82,22.56c0.01,1.17-1.18,1.15-1.18,1.15c-0.04,0-0.08-0.01-0.13-0.01c-0.01,0.04-0.01,0.08-0.03,0.13
						c0,0-0.34,1.13-1.46,0.77c-1.11-0.37-1.21-1.74-0.97-2.43c0.13-0.39,0.21-0.77,0.49-1.02c0.02-0.03,0.04-0.04,0.07-0.06
						c0.03-0.02,0.05-0.03,0.08-0.05c0.33-0.19,0.71-0.14,1.12-0.15C42.55,20.87,43.82,21.39,43.82,22.56z"/>
					
						<linearGradient id="SVGID_6_" gradientUnits="userSpaceOnUse" x1="-535.3123" y1="-412.0975" x2="-531.304" y2="-412.0975" gradientTransform="matrix(-0.309 -0.9511 -0.9511 0.309 -513.9998 -360.6769)">
						<stop  offset="0" style="stop-color:#F8F7F0"/>
						<stop  offset="0.6031" style="stop-color:#FFFFFF"/>
						<stop  offset="1" style="stop-color:#FFFFFF"/>
					</linearGradient>
					<path class="st11" d="M43.44,17.17c1.12,0.36,0.73,1.48,0.73,1.48c-0.01,0.04-0.03,0.08-0.05,0.12
						c0.04,0.02,0.07,0.04,0.11,0.07c0,0,0.97,0.67,0.28,1.62c-0.69,0.95-2.02,0.62-2.61,0.18c-0.33-0.25-0.67-0.44-0.82-0.78
						c-0.02-0.03-0.03-0.05-0.04-0.08c-0.01-0.03-0.01-0.06-0.02-0.09c-0.08-0.37,0.08-0.72,0.21-1.12
						C41.44,17.86,42.32,16.81,43.44,17.17z"/>
				</g>
			</g>
			<g>
				<path class="st12" d="M42.13,20.15c0,1.22-0.99,2.21-2.2,2.21c-1.22,0-2.21-0.99-2.21-2.21c0-1.22,0.99-2.21,2.21-2.21
					C41.14,17.94,42.13,18.93,42.13,20.15z"/>
				<path class="st13" d="M41.75,20.43c0,0.85-0.69,1.55-1.54,1.55c-0.85,0-1.55-0.69-1.55-1.55c0-0.85,0.69-1.55,1.55-1.55
					C41.06,18.89,41.75,19.58,41.75,20.43z"/>
				<path class="st6" d="M42.13,20.15c0,1.22-0.99,2.21-2.2,2.21c-1.22,0-2.21-0.99-2.21-2.21c0-1.22,0.99-2.21,2.21-2.21
					C41.14,17.94,42.13,18.93,42.13,20.15z"/>
			</g>
		</g>
		<g>
			<g>
				<path class="st3" d="M23.57,20.15c0,4.77-3.87,8.64-8.64,8.64c-4.77,0-8.63-3.87-8.63-8.64c0-4.77,3.87-8.63,8.63-8.63
					C19.7,11.52,23.57,15.38,23.57,20.15z"/>
				<path class="st4" d="M23.33,20.35c0,4.53-3.67,8.2-8.2,8.2c-4.53,0-8.2-3.67-8.2-8.2c0-4.53,3.67-8.2,8.2-8.2
					C19.66,12.15,23.33,15.82,23.33,20.35z"/>
			</g>
			<g>
				<path class="st5" d="M8.42,20.44c0-3.75,3.04-6.8,6.79-6.8c3.75,0,6.8,3.05,6.8,6.79c0,3.75-3.05,6.79-6.8,6.79
					C11.46,27.23,8.42,24.19,8.42,20.44z"/>
				<path class="st3" d="M8.14,20.15c0-3.75,3.04-6.79,6.79-6.79c3.75,0,6.8,3.04,6.8,6.79c0,3.75-3.05,6.79-6.8,6.79
					C11.18,26.94,8.14,23.9,8.14,20.15z"/>
				<path class="st4" d="M8.77,20.58c0-3.64,2.95-6.59,6.59-6.59c3.64,0,6.59,2.95,6.59,6.59c0,3.64-2.95,6.59-6.59,6.59
					C11.72,27.17,8.77,24.22,8.77,20.58z"/>
				<path class="st6" d="M8.14,20.15c0-3.75,3.04-6.79,6.79-6.79c3.75,0,6.8,3.04,6.8,6.79c0,3.75-3.05,6.79-6.8,6.79
					C11.18,26.94,8.14,23.9,8.14,20.15z"/>
			</g>
			<g>
				<g>
					<path class="st3" d="M13.49,16.15c0.69-0.95,1.63-0.23,1.63-0.23c0.04,0.02,0.06,0.06,0.1,0.08c0.03-0.03,0.06-0.06,0.1-0.08
						c0,0,0.94-0.72,1.63,0.23c0.69,0.96-0.04,2.12-0.64,2.54c-0.34,0.24-0.62,0.5-1,0.54c-0.03,0.01-0.06,0.01-0.09,0.01
						c-0.03,0-0.06-0.01-0.09-0.01c-0.37-0.04-0.66-0.3-1-0.54C13.53,18.27,12.8,17.11,13.49,16.15z"/>
					<path class="st3" d="M10.63,20.74c-0.69-0.95,0.28-1.62,0.28-1.62c0.03-0.03,0.07-0.04,0.11-0.07
						c-0.02-0.04-0.04-0.07-0.05-0.12c0,0-0.39-1.11,0.73-1.47c1.12-0.36,2,0.69,2.22,1.39c0.12,0.39,0.28,0.74,0.21,1.11
						c0,0.03-0.01,0.06-0.02,0.09c-0.01,0.04-0.03,0.06-0.04,0.09c-0.16,0.34-0.49,0.53-0.82,0.78
						C12.65,21.36,11.32,21.69,10.63,20.74z"/>
					<path class="st3" d="M14.11,24.88c-1.12,0.37-1.46-0.77-1.46-0.77c-0.02-0.04-0.02-0.09-0.03-0.13c-0.04,0-0.08,0.02-0.13,0.01
						c0,0-1.18,0.03-1.18-1.15c0-1.17,1.28-1.69,2.01-1.68c0.41,0.01,0.79-0.04,1.12,0.15c0.03,0.02,0.05,0.03,0.08,0.05
						c0.03,0.02,0.05,0.04,0.07,0.06c0.28,0.25,0.35,0.63,0.49,1.02C15.32,23.14,15.22,24.51,14.11,24.88z"/>
					<path class="st3" d="M19.11,22.84c0,1.17-1.18,1.15-1.18,1.15c-0.04,0-0.08-0.01-0.13-0.01c-0.01,0.04-0.01,0.08-0.03,0.13
						c0,0-0.34,1.13-1.46,0.77c-1.11-0.37-1.21-1.74-0.97-2.43c0.13-0.39,0.21-0.77,0.49-1.02c0.02-0.03,0.04-0.04,0.07-0.06
						c0.03-0.02,0.05-0.03,0.08-0.05c0.33-0.19,0.71-0.14,1.12-0.15C17.84,21.16,19.11,21.67,19.11,22.84z"/>
					<path class="st3" d="M18.73,17.46c1.12,0.36,0.73,1.47,0.73,1.47c-0.01,0.04-0.04,0.08-0.05,0.12
						c0.04,0.02,0.07,0.04,0.11,0.07c0,0,0.97,0.67,0.28,1.62c-0.69,0.95-2.02,0.62-2.61,0.18c-0.33-0.25-0.67-0.44-0.82-0.78
						c-0.02-0.03-0.03-0.05-0.04-0.08c-0.01-0.03-0.01-0.06-0.02-0.09c-0.08-0.37,0.08-0.72,0.21-1.12
						C16.73,18.14,17.61,17.1,18.73,17.46z"/>
				</g>
				<g>
					
						<linearGradient id="SVGID_7_" gradientUnits="userSpaceOnUse" x1="-1508.2373" y1="13.1101" x2="-1504.2289" y2="13.1101" gradientTransform="matrix(-1 0 0 1 -1491.3024 4.0605)">
						<stop  offset="0" style="stop-color:#F8F7F0"/>
						<stop  offset="0.6031" style="stop-color:#FFFFFF"/>
						<stop  offset="1" style="stop-color:#FFFFFF"/>
					</linearGradient>
					<path class="st14" d="M13.21,15.87c0.69-0.95,1.63-0.24,1.63-0.24c0.04,0.02,0.06,0.06,0.1,0.08c0.03-0.03,0.06-0.06,0.1-0.08
						c0,0,0.94-0.72,1.63,0.24c0.69,0.95-0.04,2.12-0.64,2.54c-0.34,0.24-0.62,0.5-0.99,0.54c-0.03,0.01-0.06,0.01-0.09,0.01
						c-0.03,0-0.06-0.01-0.09-0.01c-0.37-0.04-0.66-0.3-1-0.54C13.24,17.99,12.52,16.83,13.21,15.87z"/>
					
						<linearGradient id="SVGID_8_" gradientUnits="userSpaceOnUse" x1="-1429.6635" y1="1069.7545" x2="-1425.6539" y2="1069.7545" gradientTransform="matrix(-0.309 0.9511 0.9511 0.309 -1446.4749 1046.5089)">
						<stop  offset="0" style="stop-color:#F8F7F0"/>
						<stop  offset="0.6031" style="stop-color:#FFFFFF"/>
						<stop  offset="1" style="stop-color:#FFFFFF"/>
					</linearGradient>
					<path class="st15" d="M10.35,20.46c-0.69-0.95,0.28-1.62,0.28-1.62c0.04-0.03,0.07-0.04,0.11-0.07
						c-0.01-0.04-0.04-0.07-0.05-0.12c0,0-0.39-1.11,0.73-1.48c1.12-0.36,2,0.69,2.21,1.4c0.12,0.39,0.28,0.74,0.21,1.11
						c0,0.03-0.01,0.06-0.02,0.09c-0.01,0.03-0.03,0.06-0.04,0.09c-0.16,0.34-0.49,0.53-0.82,0.78
						C12.37,21.07,11.04,21.41,10.35,20.46z"/>
					
						<linearGradient id="SVGID_9_" gradientUnits="userSpaceOnUse" x1="-400.1071" y1="1322.485" x2="-396.0975" y2="1322.485" gradientTransform="matrix(0.809 0.5878 0.5878 -0.809 -442.1003 1326.4232)">
						<stop  offset="0" style="stop-color:#F8F7F0"/>
						<stop  offset="0.6031" style="stop-color:#FFFFFF"/>
						<stop  offset="1" style="stop-color:#FFFFFF"/>
					</linearGradient>
					<path class="st16" d="M13.83,24.59c-1.12,0.36-1.46-0.77-1.46-0.77c-0.02-0.04-0.02-0.09-0.03-0.13
						c-0.04,0-0.08,0.02-0.13,0.01c0,0-1.18,0.03-1.18-1.15c0-1.17,1.28-1.69,2.01-1.68c0.41,0.01,0.79-0.04,1.12,0.15
						c0.03,0.01,0.05,0.03,0.08,0.05c0.03,0.02,0.05,0.04,0.07,0.06c0.28,0.25,0.35,0.63,0.49,1.02
						C15.04,22.86,14.94,24.22,13.83,24.59z"/>
					
						<linearGradient id="SVGID_10_" gradientUnits="userSpaceOnUse" x1="158.1136" y1="420.6438" x2="162.1214" y2="420.6438" gradientTransform="matrix(0.809 -0.5878 -0.5878 -0.809 134.3923 456.944)">
						<stop  offset="0" style="stop-color:#F8F7F0"/>
						<stop  offset="0.6031" style="stop-color:#FFFFFF"/>
						<stop  offset="1" style="stop-color:#FFFFFF"/>
					</linearGradient>
					<path class="st17" d="M18.83,22.56c0.01,1.17-1.18,1.15-1.18,1.15c-0.04,0-0.08-0.01-0.13-0.01c-0.01,0.04-0.01,0.08-0.03,0.13
						c0,0-0.34,1.13-1.45,0.77c-1.11-0.37-1.21-1.74-0.97-2.43c0.13-0.39,0.21-0.77,0.49-1.02c0.02-0.03,0.04-0.04,0.07-0.06
						c0.03-0.02,0.05-0.03,0.08-0.05c0.33-0.19,0.71-0.14,1.12-0.15C17.56,20.87,18.83,21.39,18.83,22.56z"/>
					
						<linearGradient id="SVGID_11_" gradientUnits="userSpaceOnUse" x1="-527.5904" y1="-388.3298" x2="-523.5822" y2="-388.3298" gradientTransform="matrix(-0.309 -0.9511 -0.9511 0.309 -513.9998 -360.6769)">
						<stop  offset="0" style="stop-color:#F8F7F0"/>
						<stop  offset="0.6031" style="stop-color:#FFFFFF"/>
						<stop  offset="1" style="stop-color:#FFFFFF"/>
					</linearGradient>
					<path class="st18" d="M18.45,17.17c1.12,0.36,0.73,1.48,0.73,1.48c-0.01,0.04-0.03,0.08-0.05,0.12
						c0.04,0.02,0.07,0.04,0.11,0.07c0,0,0.97,0.67,0.28,1.62c-0.69,0.95-2.02,0.62-2.61,0.18c-0.33-0.25-0.67-0.44-0.82-0.78
						c-0.02-0.03-0.03-0.05-0.04-0.08c-0.01-0.03-0.01-0.06-0.02-0.09c-0.08-0.37,0.08-0.72,0.21-1.12
						C16.45,17.86,17.33,16.81,18.45,17.17z"/>
				</g>
			</g>
			<g>
				<path class="st12" d="M17.13,20.15c0,1.22-0.99,2.21-2.2,2.21c-1.22,0-2.21-0.99-2.21-2.21c0-1.22,0.99-2.21,2.21-2.21
					C16.15,17.94,17.14,18.93,17.13,20.15z"/>
				<path class="st13" d="M16.76,20.43c0,0.85-0.69,1.55-1.54,1.55c-0.85,0-1.55-0.69-1.55-1.55c0-0.85,0.69-1.55,1.55-1.55
					C16.07,18.89,16.76,19.58,16.76,20.43z"/>
				<path class="st6" d="M17.13,20.15c0,1.22-0.99,2.21-2.2,2.21c-1.22,0-2.21-0.99-2.21-2.21c0-1.22,0.99-2.21,2.21-2.21
					C16.15,17.94,17.14,18.93,17.13,20.15z"/>
			</g>
		</g>
		<g>
			<g>
				<path class="st3" d="M48.56,54.55c0,4.77-3.87,8.64-8.64,8.64c-4.77,0-8.63-3.87-8.63-8.64c0-4.77,3.87-8.63,8.63-8.63
					C44.69,45.91,48.56,49.78,48.56,54.55z"/>
				<path class="st4" d="M48.32,54.75c0,4.53-3.67,8.21-8.21,8.21c-4.53,0-8.2-3.67-8.2-8.21c0-4.53,3.67-8.2,8.2-8.2
					C44.65,46.54,48.33,50.22,48.32,54.75z"/>
			</g>
			<g>
				<path class="st5" d="M33.41,54.83c0-3.75,3.04-6.79,6.79-6.79c3.75,0,6.8,3.04,6.8,6.79c0,3.75-3.05,6.79-6.8,6.79
					C36.46,61.63,33.41,58.58,33.41,54.83z"/>
				<path class="st3" d="M33.13,54.55c0-3.75,3.04-6.79,6.79-6.79c3.75,0,6.8,3.04,6.8,6.79c0,3.75-3.05,6.79-6.8,6.79
					C36.17,61.34,33.13,58.3,33.13,54.55z"/>
				<path class="st4" d="M33.76,54.98c0-3.64,2.95-6.59,6.59-6.59c3.64,0,6.59,2.95,6.59,6.59c0,3.64-2.95,6.59-6.59,6.59
					C36.71,61.56,33.76,58.61,33.76,54.98z"/>
				<path class="st6" d="M33.13,54.55c0-3.75,3.04-6.79,6.79-6.79c3.75,0,6.8,3.04,6.8,6.79c0,3.75-3.05,6.79-6.8,6.79
					C36.17,61.34,33.13,58.3,33.13,54.55z"/>
			</g>
			<g>
				<g>
					<path class="st3" d="M38.48,50.55c0.69-0.95,1.63-0.24,1.63-0.24c0.04,0.02,0.06,0.06,0.1,0.09c0.03-0.03,0.06-0.06,0.1-0.09
						c0,0,0.94-0.72,1.63,0.24c0.69,0.95-0.04,2.12-0.64,2.54c-0.34,0.24-0.62,0.5-0.99,0.54c-0.03,0.01-0.06,0.01-0.09,0.01
						c-0.03,0-0.06-0.01-0.09-0.01c-0.37-0.04-0.66-0.3-1-0.54C38.52,52.67,37.79,51.51,38.48,50.55z"/>
					<path class="st3" d="M35.62,55.14c-0.69-0.95,0.28-1.62,0.28-1.62c0.04-0.03,0.07-0.04,0.11-0.07
						c-0.01-0.04-0.04-0.07-0.05-0.12c0,0-0.39-1.11,0.73-1.48c1.12-0.36,2,0.69,2.21,1.4c0.12,0.39,0.28,0.74,0.21,1.11
						c0,0.03-0.01,0.06-0.02,0.09c-0.01,0.03-0.03,0.06-0.04,0.09c-0.16,0.34-0.49,0.53-0.82,0.78
						C37.65,55.76,36.32,56.09,35.62,55.14z"/>
					<path class="st3" d="M39.1,59.28c-1.12,0.36-1.46-0.77-1.46-0.77c-0.02-0.04-0.02-0.09-0.03-0.13c-0.04,0-0.08,0.02-0.13,0.01
						c0,0-1.18,0.03-1.18-1.15c0-1.17,1.28-1.69,2.01-1.68c0.41,0.01,0.79-0.04,1.12,0.15c0.03,0.01,0.05,0.03,0.08,0.05
						c0.03,0.02,0.05,0.04,0.07,0.06c0.28,0.25,0.35,0.63,0.49,1.02C40.31,57.54,40.22,58.91,39.1,59.28z"/>
					<path class="st3" d="M44.11,57.24c0,1.17-1.18,1.15-1.18,1.15c-0.04,0-0.08-0.01-0.13-0.01c-0.01,0.04-0.01,0.08-0.03,0.13
						c0,0-0.34,1.13-1.46,0.77c-1.11-0.37-1.21-1.74-0.97-2.43c0.13-0.39,0.21-0.77,0.49-1.02c0.02-0.03,0.04-0.04,0.07-0.06
						c0.03-0.02,0.05-0.03,0.08-0.05c0.33-0.19,0.71-0.14,1.12-0.15C42.83,55.55,44.1,56.07,44.11,57.24z"/>
					<path class="st3" d="M43.72,51.85c1.12,0.36,0.73,1.48,0.73,1.48c-0.01,0.04-0.04,0.08-0.05,0.12
						c0.04,0.02,0.07,0.04,0.11,0.07c0,0,0.97,0.67,0.28,1.62c-0.69,0.95-2.02,0.62-2.61,0.18c-0.33-0.25-0.67-0.44-0.82-0.78
						c-0.02-0.03-0.03-0.05-0.04-0.08c-0.01-0.03-0.01-0.06-0.02-0.09c-0.08-0.37,0.08-0.72,0.21-1.12
						C41.72,52.54,42.61,51.5,43.72,51.85z"/>
				</g>
				<g>
					
						<linearGradient id="SVGID_12_" gradientUnits="userSpaceOnUse" x1="-1533.2289" y1="47.5078" x2="-1529.2208" y2="47.5078" gradientTransform="matrix(-1 0 0 1 -1491.3024 4.0605)">
						<stop  offset="0" style="stop-color:#F8F7F0"/>
						<stop  offset="0.6031" style="stop-color:#FFFFFF"/>
						<stop  offset="1" style="stop-color:#FFFFFF"/>
					</linearGradient>
					<path class="st19" d="M38.2,50.27c0.69-0.95,1.63-0.24,1.63-0.24c0.04,0.03,0.06,0.06,0.1,0.09c0.03-0.03,0.06-0.06,0.1-0.09
						c0,0,0.94-0.71,1.63,0.24c0.69,0.95-0.04,2.12-0.64,2.54c-0.34,0.24-0.62,0.5-1,0.54c-0.03,0.01-0.06,0.01-0.09,0.01
						c-0.03,0-0.06-0.01-0.09-0.01c-0.37-0.04-0.66-0.3-1-0.54C38.23,52.38,37.51,51.22,38.2,50.27z"/>
					
						<linearGradient id="SVGID_13_" gradientUnits="userSpaceOnUse" x1="-1404.6722" y1="1104.1504" x2="-1400.6621" y2="1104.1504" gradientTransform="matrix(-0.309 0.9511 0.9511 0.309 -1446.4749 1046.5089)">
						<stop  offset="0" style="stop-color:#F8F7F0"/>
						<stop  offset="0.6031" style="stop-color:#FFFFFF"/>
						<stop  offset="1" style="stop-color:#FFFFFF"/>
					</linearGradient>
					<path class="st20" d="M35.34,54.86c-0.69-0.95,0.28-1.62,0.28-1.62c0.03-0.03,0.07-0.04,0.11-0.07
						c-0.02-0.04-0.04-0.07-0.05-0.12c0,0-0.39-1.12,0.73-1.48c1.12-0.36,2,0.69,2.22,1.4c0.12,0.39,0.28,0.74,0.21,1.11
						c0,0.03-0.01,0.06-0.02,0.09c-0.01,0.03-0.03,0.06-0.04,0.09c-0.16,0.34-0.49,0.53-0.82,0.78
						C37.36,55.47,36.03,55.8,35.34,54.86z"/>
					
						<linearGradient id="SVGID_14_" gradientUnits="userSpaceOnUse" x1="-359.6689" y1="1309.3469" x2="-355.6602" y2="1309.3469" gradientTransform="matrix(0.809 0.5878 0.5878 -0.809 -442.1003 1326.4232)">
						<stop  offset="0" style="stop-color:#F8F7F0"/>
						<stop  offset="0.6031" style="stop-color:#FFFFFF"/>
						<stop  offset="1" style="stop-color:#FFFFFF"/>
					</linearGradient>
					<path class="st21" d="M38.82,58.99c-1.12,0.36-1.46-0.77-1.46-0.77c-0.02-0.04-0.02-0.09-0.03-0.13
						c-0.04,0-0.08,0.02-0.13,0.01c0,0-1.18,0.03-1.18-1.15c0-1.17,1.28-1.69,2.01-1.68c0.41,0.01,0.79-0.04,1.12,0.15
						c0.03,0.01,0.05,0.03,0.08,0.05c0.03,0.02,0.05,0.04,0.07,0.06c0.28,0.25,0.35,0.63,0.49,1.02
						C40.03,57.26,39.93,58.62,38.82,58.99z"/>
					
						<linearGradient id="SVGID_15_" gradientUnits="userSpaceOnUse" x1="158.1126" y1="378.1251" x2="162.1205" y2="378.1251" gradientTransform="matrix(0.809 -0.5878 -0.5878 -0.809 134.3923 456.944)">
						<stop  offset="0" style="stop-color:#F8F7F0"/>
						<stop  offset="0.6031" style="stop-color:#FFFFFF"/>
						<stop  offset="1" style="stop-color:#FFFFFF"/>
					</linearGradient>
					<path class="st22" d="M43.82,56.96c0.01,1.17-1.18,1.15-1.18,1.15c-0.04,0-0.08-0.01-0.13-0.01c-0.01,0.04-0.01,0.08-0.03,0.13
						c0,0-0.34,1.13-1.46,0.77c-1.11-0.37-1.21-1.73-0.97-2.43c0.13-0.39,0.21-0.77,0.49-1.02c0.02-0.03,0.04-0.04,0.07-0.06
						c0.03-0.02,0.05-0.03,0.08-0.05c0.33-0.19,0.71-0.14,1.12-0.15C42.55,55.27,43.82,55.79,43.82,56.96z"/>
					
						<linearGradient id="SVGID_16_" gradientUnits="userSpaceOnUse" x1="-568.0261" y1="-401.4693" x2="-564.017" y2="-401.4693" gradientTransform="matrix(-0.309 -0.9511 -0.9511 0.309 -513.9998 -360.6769)">
						<stop  offset="0" style="stop-color:#F8F7F0"/>
						<stop  offset="0.6031" style="stop-color:#FFFFFF"/>
						<stop  offset="1" style="stop-color:#FFFFFF"/>
					</linearGradient>
					<path class="st23" d="M43.44,51.57c1.12,0.36,0.73,1.48,0.73,1.48c-0.01,0.04-0.03,0.07-0.05,0.12
						c0.04,0.03,0.07,0.04,0.11,0.07c0,0,0.97,0.67,0.28,1.62c-0.69,0.95-2.02,0.62-2.61,0.18c-0.33-0.25-0.67-0.44-0.82-0.78
						c-0.02-0.03-0.03-0.05-0.04-0.08c-0.01-0.03-0.01-0.06-0.02-0.09c-0.08-0.37,0.08-0.72,0.21-1.12
						C41.44,52.26,42.32,51.21,43.44,51.57z"/>
				</g>
			</g>
			<g>
				<path class="st12" d="M42.13,54.55c0,1.22-0.99,2.21-2.2,2.21c-1.22,0-2.21-0.99-2.21-2.21c0-1.22,0.99-2.21,2.21-2.21
					C41.14,52.34,42.13,53.33,42.13,54.55z"/>
				<path class="st13" d="M41.75,54.83c0,0.85-0.69,1.55-1.54,1.54c-0.85,0-1.55-0.69-1.55-1.54c0-0.85,0.69-1.55,1.55-1.55
					C41.06,53.29,41.75,53.98,41.75,54.83z"/>
				<path class="st6" d="M42.13,54.55c0,1.22-0.99,2.21-2.2,2.21c-1.22,0-2.21-0.99-2.21-2.21c0-1.22,0.99-2.21,2.21-2.21
					C41.14,52.34,42.13,53.33,42.13,54.55z"/>
			</g>
		</g>
		<g>
			<g>
				<path class="st3" d="M23.57,54.55c0,4.77-3.87,8.64-8.64,8.64c-4.77,0-8.63-3.87-8.63-8.64c0-4.77,3.87-8.63,8.63-8.63
					C19.7,45.91,23.57,49.78,23.57,54.55z"/>
				<path class="st4" d="M23.33,54.75c0,4.53-3.67,8.21-8.2,8.21c-4.53,0-8.2-3.67-8.2-8.21c0-4.53,3.67-8.2,8.2-8.2
					C19.66,46.54,23.33,50.22,23.33,54.75z"/>
			</g>
			<g>
				<path class="st5" d="M8.42,54.83c0-3.75,3.04-6.79,6.79-6.79c3.75,0,6.8,3.04,6.8,6.79c0,3.75-3.05,6.79-6.8,6.79
					C11.46,61.63,8.42,58.58,8.42,54.83z"/>
				<path class="st3" d="M8.14,54.55c0-3.75,3.04-6.79,6.79-6.79c3.75,0,6.8,3.04,6.8,6.79c0,3.75-3.05,6.79-6.8,6.79
					C11.18,61.34,8.14,58.3,8.14,54.55z"/>
				<path class="st4" d="M8.77,54.98c0-3.64,2.95-6.59,6.59-6.59c3.64,0,6.59,2.95,6.59,6.59c0,3.64-2.95,6.59-6.59,6.59
					C11.72,61.56,8.77,58.61,8.77,54.98z"/>
				<path class="st6" d="M8.14,54.55c0-3.75,3.04-6.79,6.79-6.79c3.75,0,6.8,3.04,6.8,6.79c0,3.75-3.05,6.79-6.8,6.79
					C11.18,61.34,8.14,58.3,8.14,54.55z"/>
			</g>
			<g>
				<g>
					<path class="st3" d="M13.49,50.55c0.69-0.95,1.63-0.24,1.63-0.24c0.04,0.02,0.06,0.06,0.1,0.09c0.03-0.03,0.06-0.06,0.1-0.09
						c0,0,0.94-0.72,1.63,0.24c0.69,0.95-0.04,2.12-0.64,2.54c-0.34,0.24-0.62,0.5-1,0.54c-0.03,0.01-0.06,0.01-0.09,0.01
						c-0.03,0-0.06-0.01-0.09-0.01c-0.37-0.04-0.66-0.3-1-0.54C13.53,52.67,12.8,51.51,13.49,50.55z"/>
					<path class="st3" d="M10.63,55.14c-0.69-0.95,0.28-1.62,0.28-1.62c0.03-0.03,0.07-0.04,0.11-0.07
						c-0.02-0.04-0.04-0.07-0.05-0.12c0,0-0.39-1.11,0.73-1.48c1.12-0.36,2,0.69,2.22,1.4c0.12,0.39,0.28,0.74,0.21,1.11
						c0,0.03-0.01,0.06-0.02,0.09c-0.01,0.03-0.03,0.06-0.04,0.09c-0.16,0.34-0.49,0.53-0.82,0.78
						C12.65,55.76,11.32,56.09,10.63,55.14z"/>
					<path class="st3" d="M14.11,59.28c-1.12,0.36-1.46-0.77-1.46-0.77c-0.02-0.04-0.02-0.09-0.03-0.13c-0.04,0-0.08,0.02-0.13,0.01
						c0,0-1.18,0.03-1.18-1.15c0-1.17,1.28-1.69,2.01-1.68c0.41,0.01,0.79-0.04,1.12,0.15c0.03,0.01,0.05,0.03,0.08,0.05
						c0.03,0.02,0.05,0.04,0.07,0.06c0.28,0.25,0.35,0.63,0.49,1.02C15.32,57.54,15.22,58.91,14.11,59.28z"/>
					<path class="st3" d="M19.11,57.24c0,1.17-1.18,1.15-1.18,1.15c-0.04,0-0.08-0.01-0.13-0.01c-0.01,0.04-0.01,0.08-0.03,0.13
						c0,0-0.34,1.13-1.46,0.77c-1.11-0.37-1.21-1.74-0.97-2.43c0.13-0.39,0.21-0.77,0.49-1.02c0.02-0.03,0.04-0.04,0.07-0.06
						c0.03-0.02,0.05-0.03,0.08-0.05c0.33-0.19,0.71-0.14,1.12-0.15C17.84,55.55,19.11,56.07,19.11,57.24z"/>
					<path class="st3" d="M18.73,51.85c1.12,0.36,0.73,1.48,0.73,1.48c-0.01,0.04-0.04,0.08-0.05,0.12
						c0.04,0.02,0.07,0.04,0.11,0.07c0,0,0.97,0.67,0.28,1.62c-0.69,0.95-2.02,0.62-2.61,0.18c-0.33-0.25-0.67-0.44-0.82-0.78
						c-0.02-0.03-0.03-0.05-0.04-0.08c-0.01-0.03-0.01-0.06-0.02-0.09c-0.08-0.37,0.08-0.72,0.21-1.12
						C16.73,52.54,17.61,51.5,18.73,51.85z"/>
				</g>
				<g>
					
						<linearGradient id="SVGID_17_" gradientUnits="userSpaceOnUse" x1="-1508.2373" y1="47.5078" x2="-1504.2289" y2="47.5078" gradientTransform="matrix(-1 0 0 1 -1491.3024 4.0605)">
						<stop  offset="0" style="stop-color:#F8F7F0"/>
						<stop  offset="0.6031" style="stop-color:#FFFFFF"/>
						<stop  offset="1" style="stop-color:#FFFFFF"/>
					</linearGradient>
					<path class="st24" d="M13.21,50.27c0.69-0.95,1.63-0.24,1.63-0.24c0.04,0.03,0.06,0.06,0.1,0.09c0.03-0.03,0.06-0.06,0.1-0.09
						c0,0,0.94-0.71,1.63,0.24c0.69,0.95-0.04,2.12-0.64,2.54c-0.34,0.24-0.62,0.5-0.99,0.54c-0.03,0.01-0.06,0.01-0.09,0.01
						c-0.03,0-0.06-0.01-0.09-0.01c-0.37-0.04-0.66-0.3-1-0.54C13.24,52.38,12.52,51.22,13.21,50.27z"/>
					
						<linearGradient id="SVGID_18_" gradientUnits="userSpaceOnUse" x1="-1396.9503" y1="1080.3827" x2="-1392.9403" y2="1080.3827" gradientTransform="matrix(-0.309 0.9511 0.9511 0.309 -1446.4749 1046.5089)">
						<stop  offset="0" style="stop-color:#F8F7F0"/>
						<stop  offset="0.6031" style="stop-color:#FFFFFF"/>
						<stop  offset="1" style="stop-color:#FFFFFF"/>
					</linearGradient>
					<path class="st25" d="M10.35,54.86c-0.69-0.95,0.28-1.62,0.28-1.62c0.04-0.03,0.07-0.04,0.11-0.07
						c-0.01-0.04-0.04-0.07-0.05-0.12c0,0-0.39-1.12,0.73-1.48c1.12-0.36,2,0.69,2.21,1.4c0.12,0.39,0.28,0.74,0.21,1.11
						c0,0.03-0.01,0.06-0.02,0.09c-0.01,0.03-0.03,0.06-0.04,0.09c-0.16,0.34-0.49,0.53-0.82,0.78
						C12.37,55.47,11.04,55.8,10.35,54.86z"/>
					
						<linearGradient id="SVGID_19_" gradientUnits="userSpaceOnUse" x1="-379.8878" y1="1294.6569" x2="-375.8782" y2="1294.6569" gradientTransform="matrix(0.809 0.5878 0.5878 -0.809 -442.1003 1326.4232)">
						<stop  offset="0" style="stop-color:#F8F7F0"/>
						<stop  offset="0.6031" style="stop-color:#FFFFFF"/>
						<stop  offset="1" style="stop-color:#FFFFFF"/>
					</linearGradient>
					<path class="st26" d="M13.83,58.99c-1.12,0.36-1.46-0.77-1.46-0.77c-0.02-0.04-0.02-0.09-0.03-0.13
						c-0.04,0-0.08,0.02-0.13,0.01c0,0-1.18,0.03-1.18-1.15c0-1.17,1.28-1.69,2.01-1.68c0.41,0.01,0.79-0.04,1.12,0.15
						c0.03,0.01,0.05,0.03,0.08,0.05c0.03,0.02,0.05,0.04,0.07,0.06c0.28,0.25,0.35,0.63,0.49,1.02
						C15.04,57.26,14.94,58.62,13.83,58.99z"/>
					
						<linearGradient id="SVGID_20_" gradientUnits="userSpaceOnUse" x1="137.8943" y1="392.8154" x2="141.9021" y2="392.8154" gradientTransform="matrix(0.809 -0.5878 -0.5878 -0.809 134.3923 456.944)">
						<stop  offset="0" style="stop-color:#F8F7F0"/>
						<stop  offset="0.6031" style="stop-color:#FFFFFF"/>
						<stop  offset="1" style="stop-color:#FFFFFF"/>
					</linearGradient>
					<path class="st27" d="M18.83,56.96c0.01,1.17-1.18,1.15-1.18,1.15c-0.04,0-0.08-0.01-0.13-0.01c-0.01,0.04-0.01,0.08-0.03,0.13
						c0,0-0.34,1.13-1.45,0.77c-1.11-0.37-1.21-1.73-0.97-2.43c0.13-0.39,0.21-0.77,0.49-1.02c0.02-0.03,0.04-0.04,0.07-0.06
						c0.03-0.02,0.05-0.03,0.08-0.05c0.33-0.19,0.71-0.14,1.12-0.15C17.56,55.27,18.83,55.79,18.83,56.96z"/>
					
						<linearGradient id="SVGID_21_" gradientUnits="userSpaceOnUse" x1="-560.3042" y1="-377.7017" x2="-556.2952" y2="-377.7017" gradientTransform="matrix(-0.309 -0.9511 -0.9511 0.309 -513.9998 -360.6769)">
						<stop  offset="0" style="stop-color:#F8F7F0"/>
						<stop  offset="0.6031" style="stop-color:#FFFFFF"/>
						<stop  offset="1" style="stop-color:#FFFFFF"/>
					</linearGradient>
					<path class="st28" d="M18.45,51.57c1.12,0.36,0.73,1.48,0.73,1.48c-0.01,0.04-0.03,0.07-0.05,0.12
						c0.04,0.03,0.07,0.04,0.11,0.07c0,0,0.97,0.67,0.28,1.62c-0.69,0.95-2.02,0.62-2.61,0.18c-0.33-0.25-0.67-0.44-0.82-0.78
						c-0.02-0.03-0.03-0.05-0.04-0.08c-0.01-0.03-0.01-0.06-0.02-0.09c-0.08-0.37,0.08-0.72,0.21-1.12
						C16.45,52.26,17.33,51.21,18.45,51.57z"/>
				</g>
			</g>
			<g>
				<path class="st12" d="M17.13,54.55c0,1.22-0.99,2.21-2.2,2.21c-1.22,0-2.21-0.99-2.21-2.21c0-1.22,0.99-2.21,2.21-2.21
					C16.15,52.34,17.14,53.33,17.13,54.55z"/>
				<path class="st13" d="M16.76,54.83c0,0.85-0.69,1.55-1.54,1.54c-0.85,0-1.55-0.69-1.55-1.54c0-0.85,0.69-1.55,1.55-1.55
					C16.07,53.29,16.76,53.98,16.76,54.83z"/>
				<path class="st6" d="M17.13,54.55c0,1.22-0.99,2.21-2.2,2.21c-1.22,0-2.21-0.99-2.21-2.21c0-1.22,0.99-2.21,2.21-2.21
					C16.15,52.34,17.14,53.33,17.13,54.55z"/>
			</g>
		</g>
	</g>
</g>
</svg>
