<?xml version="1.0" encoding="utf-8"?>
<!-- Generator: Adobe Illustrator 25.3.1, SVG Export Plug-In . SVG Version: 6.00 Build 0)  -->
<svg version="1.1" id="圖層_1" xmlns="http://www.w3.org/2000/svg" xmlns:xlink="http://www.w3.org/1999/xlink" x="0px" y="0px"
	 viewBox="0 0 54.86 74.7" style="enable-background:new 0 0 54.86 74.7;" xml:space="preserve">
<style type="text/css">
	.st0{fill:#EEEEE8;stroke:#1A0B08;}
	.st1{fill:#FFFFFF;}
	.st2{fill:url(#SVGID_1_);}
	.st3{fill:#002D12;}
	.st4{fill:#004A2A;}
	.st5{fill:none;stroke:#002D12;stroke-width:0.65;stroke-miterlimit:10;}
	.st6{fill:none;stroke:#FFFFFF;stroke-width:0.65;stroke-miterlimit:10;}
	.st7{fill:url(#SVGID_2_);}
	.st8{fill:url(#SVGID_3_);}
	.st9{fill:url(#SVGID_4_);}
	.st10{fill:url(#SVGID_5_);}
	.st11{fill:url(#SVGID_6_);}
	.st12{fill:#6E0005;}
	.st13{fill:#98161C;}
	.st14{fill:url(#SVGID_7_);}
	.st15{fill:url(#SVGID_8_);}
	.st16{fill:url(#SVGID_9_);}
	.st17{fill:url(#SVGID_10_);}
	.st18{fill:url(#SVGID_11_);}
	.st19{fill:url(#SVGID_12_);}
	.st20{fill:url(#SVGID_13_);}
	.st21{fill:url(#SVGID_14_);}
	.st22{fill:url(#SVGID_15_);}
	.st23{fill:url(#SVGID_16_);}
	.st24{fill:url(#SVGID_17_);}
	.st25{fill:url(#SVGID_18_);}
	.st26{fill:url(#SVGID_19_);}
	.st27{fill:url(#SVGID_20_);}
	.st28{fill:url(#SVGID_21_);}
	.st29{fill:url(#SVGID_22_);}
	.st30{fill:url(#SVGID_23_);}
	.st31{fill:url(#SVGID_24_);}
	.st32{fill:url(#SVGID_25_);}
	.st33{fill:url(#SVGID_26_);}
	.st34{fill:url(#SVGID_27_);}
	.st35{fill:url(#SVGID_28_);}
	.st36{fill:url(#SVGID_29_);}
	.st37{fill:url(#SVGID_30_);}
	.st38{fill:url(#SVGID_31_);}
	.st39{fill:url(#SVGID_32_);}
	.st40{fill:url(#SVGID_33_);}
	.st41{fill:url(#SVGID_34_);}
	.st42{fill:url(#SVGID_35_);}
	.st43{fill:url(#SVGID_36_);}
	.st44{fill:url(#SVGID_37_);}
	.st45{fill:url(#SVGID_38_);}
	.st46{fill:url(#SVGID_39_);}
	.st47{fill:url(#SVGID_40_);}
	.st48{fill:url(#SVGID_41_);}
	.st49{fill:url(#SVGID_42_);}
	.st50{fill:url(#SVGID_43_);}
	.st51{fill:url(#SVGID_44_);}
	.st52{fill:url(#SVGID_45_);}
	.st53{fill:url(#SVGID_46_);}
</style>
<g>
	<g>
		<g>
			<path class="st0" d="M48.69,0.5H6.17C3.05,0.5,0.5,3.05,0.5,6.17v62.36c0,3.12,2.55,5.67,5.67,5.67h42.52
				c3.12,0,5.67-2.55,5.67-5.67V6.17C54.36,3.05,51.81,0.5,48.69,0.5L48.69,0.5z"/>
		</g>
		<path class="st1" d="M48.69,3.5c1.47,0,2.67,1.2,2.67,2.67v62.36c0,1.47-1.2,2.67-2.67,2.67H6.17C4.7,71.2,3.5,70,3.5,68.53V6.17
			C3.5,4.7,4.7,3.5,6.17,3.5H48.69"/>
		<linearGradient id="SVGID_1_" gradientUnits="userSpaceOnUse" x1="0.0344" y1="64.7448" x2="54.8236" y2="9.9556">
			<stop  offset="0" style="stop-color:#F7F7F0"/>
			<stop  offset="0.6031" style="stop-color:#FFFFFF"/>
			<stop  offset="1" style="stop-color:#FFFFFF"/>
		</linearGradient>
		<path class="st2" d="M48.69,4.5c0.9,0,1.67,0.76,1.67,1.67v62.36c0,0.91-0.77,1.67-1.67,1.67H6.17c-0.9,0-1.67-0.76-1.67-1.67
			V6.17c0-0.91,0.77-1.67,1.67-1.67H48.69"/>
	</g>
	<g>
		<g>
			<g>
				<g>
					<path class="st3" d="M50.46,16.9c0,4.17-3.38,7.55-7.55,7.55c-4.17,0-7.55-3.38-7.55-7.55c0-4.17,3.38-7.55,7.55-7.55
						C47.08,9.35,50.46,12.73,50.46,16.9z"/>
					<path class="st4" d="M50.28,17.1c0,3.96-3.21,7.17-7.17,7.17c-3.96,0-7.17-3.21-7.17-7.17c0-3.96,3.21-7.17,7.17-7.17
						S50.28,13.14,50.28,17.1z"/>
				</g>
				<g>
					<path class="st5" d="M37.26,17.18c0-3.28,2.66-5.94,5.94-5.94c3.28,0,5.94,2.66,5.94,5.94c0,3.28-2.66,5.94-5.94,5.94
						C39.92,23.12,37.26,20.46,37.26,17.18z"/>
					<path class="st3" d="M36.98,16.9c0-3.28,2.66-5.94,5.94-5.94c3.28,0,5.94,2.66,5.94,5.94c0,3.28-2.66,5.94-5.94,5.94
						C39.64,22.84,36.98,20.18,36.98,16.9z"/>
					<path class="st4" d="M37.58,17.33c0-3.18,2.58-5.76,5.76-5.76c3.18,0,5.76,2.58,5.76,5.76c0,3.18-2.58,5.76-5.76,5.76
						C40.16,23.08,37.58,20.51,37.58,17.33z"/>
					<path class="st6" d="M36.98,16.9c0-3.28,2.66-5.94,5.94-5.94c3.28,0,5.94,2.66,5.94,5.94c0,3.28-2.66,5.94-5.94,5.94
						C39.64,22.84,36.98,20.18,36.98,16.9z"/>
				</g>
				<g>
					<g>
						<path class="st3" d="M41.69,13.44c0.6-0.83,1.42-0.21,1.42-0.21c0.03,0.02,0.05,0.05,0.08,0.07c0.03-0.03,0.05-0.05,0.09-0.07
							c0,0,0.82-0.63,1.42,0.21c0.6,0.83-0.03,1.85-0.56,2.22c-0.29,0.21-0.54,0.44-0.87,0.47c-0.03,0-0.05,0.01-0.08,0.01
							c-0.03,0-0.05-0.01-0.08-0.01c-0.33-0.04-0.58-0.27-0.87-0.47C41.72,15.29,41.09,14.28,41.69,13.44z"/>
						<path class="st3" d="M39.19,17.45c-0.6-0.83,0.25-1.42,0.25-1.42c0.03-0.03,0.06-0.04,0.09-0.06
							c-0.01-0.04-0.03-0.06-0.04-0.11c0,0-0.34-0.97,0.64-1.29c0.98-0.31,1.75,0.61,1.94,1.22c0.11,0.34,0.25,0.65,0.18,0.97
							c0,0.03-0.01,0.05-0.02,0.08c-0.01,0.03-0.02,0.05-0.03,0.08c-0.13,0.29-0.43,0.46-0.72,0.68
							C40.96,17.99,39.8,18.28,39.19,17.45z"/>
						<path class="st3" d="M42.23,21.07c-0.98,0.32-1.27-0.67-1.27-0.67c-0.01-0.04-0.01-0.07-0.03-0.11
							c-0.04,0-0.07,0.01-0.11,0.01c0,0-1.03,0.02-1.03-1c0-1.03,1.11-1.47,1.76-1.47c0.36,0.01,0.7-0.03,0.98,0.13
							c0.03,0.01,0.05,0.02,0.07,0.04c0.03,0.02,0.04,0.04,0.06,0.05c0.24,0.22,0.31,0.55,0.43,0.89
							C43.29,19.55,43.21,20.74,42.23,21.07z"/>
						<path class="st3" d="M46.6,19.29c0,1.03-1.03,1-1.03,1c-0.04,0-0.07-0.01-0.11-0.01c-0.01,0.04-0.01,0.07-0.03,0.11
							c0,0-0.29,0.99-1.27,0.67c-0.97-0.32-1.06-1.52-0.85-2.12c0.12-0.34,0.18-0.67,0.42-0.89c0.02-0.02,0.04-0.04,0.06-0.05
							c0.02-0.02,0.05-0.03,0.07-0.04c0.29-0.16,0.62-0.12,0.98-0.13C45.49,17.82,46.6,18.26,46.6,19.29z"/>
						<path class="st3" d="M46.27,14.58c0.98,0.31,0.63,1.29,0.63,1.29c-0.01,0.04-0.03,0.07-0.04,0.1c0.04,0.02,0.06,0.03,0.1,0.06
							c0,0,0.85,0.59,0.24,1.41c-0.61,0.83-1.77,0.54-2.28,0.16c-0.29-0.22-0.58-0.38-0.72-0.68c-0.01-0.02-0.03-0.04-0.04-0.07
							c-0.01-0.03-0.01-0.06-0.02-0.08c-0.07-0.32,0.07-0.63,0.18-0.97C44.52,15.18,45.29,14.27,46.27,14.58z"/>
					</g>
					<g>
						
							<linearGradient id="SVGID_2_" gradientUnits="userSpaceOnUse" x1="-492.4741" y1="10.2348" x2="-488.9698" y2="10.2348" gradientTransform="matrix(-1 0 0 1 -447.8076 4.0605)">
							<stop  offset="0" style="stop-color:#F7F7F0"/>
							<stop  offset="0.6031" style="stop-color:#FFFFFF"/>
							<stop  offset="1" style="stop-color:#FFFFFF"/>
						</linearGradient>
						<path class="st7" d="M41.41,13.16c0.6-0.83,1.42-0.21,1.42-0.21c0.03,0.02,0.05,0.05,0.08,0.07c0.03-0.03,0.05-0.05,0.09-0.07
							c0,0,0.82-0.63,1.42,0.21c0.6,0.83-0.03,1.85-0.56,2.22c-0.29,0.21-0.54,0.44-0.87,0.47c-0.03,0-0.05,0.01-0.08,0.01
							c-0.03,0-0.05-0.01-0.08-0.01c-0.33-0.04-0.58-0.27-0.87-0.47C41.44,15.01,40.81,13.99,41.41,13.16z"/>
						
							<linearGradient id="SVGID_3_" gradientUnits="userSpaceOnUse" x1="-509.9707" y1="419.1821" x2="-506.4665" y2="419.1821" gradientTransform="matrix(-0.309 0.9511 0.9511 0.309 -515.2704 369.9239)">
							<stop  offset="0" style="stop-color:#F7F7F0"/>
							<stop  offset="0.6031" style="stop-color:#FFFFFF"/>
							<stop  offset="1" style="stop-color:#FFFFFF"/>
						</linearGradient>
						<path class="st8" d="M38.91,17.17c-0.6-0.83,0.25-1.42,0.25-1.42c0.03-0.03,0.06-0.04,0.09-0.06
							c-0.01-0.04-0.03-0.06-0.04-0.11c0,0-0.34-0.97,0.64-1.29c0.98-0.31,1.75,0.61,1.94,1.22c0.11,0.34,0.25,0.65,0.18,0.97
							c0,0.03-0.01,0.05-0.02,0.08c-0.01,0.03-0.02,0.05-0.03,0.08c-0.13,0.29-0.43,0.46-0.72,0.68
							C40.68,17.71,39.51,18,38.91,17.17z"/>
						
							<linearGradient id="SVGID_4_" gradientUnits="userSpaceOnUse" x1="-126.0579" y1="563.0964" x2="-122.5538" y2="563.0964" gradientTransform="matrix(0.809 0.5878 0.5878 -0.809 -189.0307 547.5911)">
							<stop  offset="0" style="stop-color:#F7F7F0"/>
							<stop  offset="0.6031" style="stop-color:#FFFFFF"/>
							<stop  offset="1" style="stop-color:#FFFFFF"/>
						</linearGradient>
						<path class="st9" d="M41.95,20.78c-0.98,0.32-1.27-0.67-1.27-0.67c-0.01-0.04-0.01-0.07-0.03-0.11
							c-0.04,0-0.07,0.01-0.11,0.01c0,0-1.03,0.02-1.03-1c0-1.03,1.11-1.47,1.76-1.47c0.36,0.01,0.7-0.03,0.98,0.13
							c0.03,0.01,0.05,0.02,0.07,0.04c0.03,0.02,0.04,0.04,0.06,0.05c0.24,0.22,0.31,0.55,0.43,0.89
							C43.01,19.27,42.92,20.46,41.95,20.78z"/>
						
							<linearGradient id="SVGID_5_" gradientUnits="userSpaceOnUse" x1="129.1458" y1="241.7307" x2="132.649" y2="241.7307" gradientTransform="matrix(0.809 -0.5878 -0.5878 -0.809 80.6303 291.4781)">
							<stop  offset="0" style="stop-color:#F7F7F0"/>
							<stop  offset="0.6031" style="stop-color:#FFFFFF"/>
							<stop  offset="1" style="stop-color:#FFFFFF"/>
						</linearGradient>
						<path class="st10" d="M46.32,19.01c0,1.03-1.03,1-1.03,1c-0.04,0-0.07-0.01-0.11-0.01c-0.01,0.04-0.01,0.07-0.03,0.11
							c0,0-0.29,0.99-1.27,0.67c-0.97-0.32-1.06-1.52-0.85-2.12c0.12-0.34,0.18-0.67,0.42-0.89c0.02-0.02,0.04-0.04,0.06-0.05
							c0.02-0.02,0.05-0.03,0.07-0.04c0.29-0.16,0.62-0.12,0.98-0.13C45.21,17.53,46.32,17.98,46.32,19.01z"/>
						
							<linearGradient id="SVGID_6_" gradientUnits="userSpaceOnUse" x1="-98.1589" y1="-99.7318" x2="-94.656" y2="-99.7318" gradientTransform="matrix(-0.309 -0.9511 -0.9511 0.309 -79.2696 -44.794)">
							<stop  offset="0" style="stop-color:#F7F7F0"/>
							<stop  offset="0.6031" style="stop-color:#FFFFFF"/>
							<stop  offset="1" style="stop-color:#FFFFFF"/>
						</linearGradient>
						<path class="st11" d="M45.99,14.3c0.98,0.31,0.63,1.29,0.63,1.29c-0.01,0.04-0.03,0.07-0.04,0.1c0.04,0.02,0.06,0.03,0.1,0.06
							c0,0,0.85,0.59,0.24,1.41c-0.61,0.83-1.77,0.54-2.28,0.16c-0.29-0.22-0.58-0.38-0.72-0.68c-0.01-0.02-0.03-0.04-0.04-0.07
							c-0.01-0.03-0.01-0.06-0.02-0.08c-0.07-0.32,0.07-0.63,0.18-0.97C44.24,14.9,45.01,13.98,45.99,14.3z"/>
					</g>
				</g>
				<g>
					<path class="st12" d="M44.84,16.9c0,1.07-0.86,1.93-1.93,1.93c-1.07,0-1.93-0.86-1.93-1.93c0-1.06,0.87-1.93,1.93-1.93
						C43.98,14.97,44.84,15.84,44.84,16.9z"/>
					<path class="st13" d="M44.55,17.18c0,0.75-0.6,1.35-1.35,1.35c-0.75,0-1.35-0.6-1.35-1.35c0-0.75,0.61-1.35,1.35-1.35
						C43.94,15.83,44.55,16.44,44.55,17.18z"/>
					<path class="st6" d="M44.84,16.9c0,1.07-0.86,1.93-1.93,1.93c-1.07,0-1.93-0.86-1.93-1.93c0-1.06,0.87-1.93,1.93-1.93
						C43.98,14.97,44.84,15.84,44.84,16.9z"/>
				</g>
			</g>
			<g>
				<g>
					<path class="st3" d="M34.98,16.9c0,4.17-3.38,7.55-7.55,7.55c-4.17,0-7.54-3.38-7.55-7.55c0-4.17,3.38-7.55,7.55-7.55
						S34.98,12.73,34.98,16.9z"/>
					<path class="st4" d="M34.8,17.1c0,3.96-3.21,7.17-7.17,7.17c-3.96,0-7.17-3.21-7.17-7.17c0-3.96,3.21-7.17,7.17-7.17
						S34.8,13.14,34.8,17.1z"/>
				</g>
				<g>
					<path class="st5" d="M21.77,17.18c0-3.28,2.66-5.94,5.94-5.94s5.94,2.66,5.94,5.94c0,3.28-2.66,5.94-5.94,5.94
						C24.43,23.12,21.78,20.46,21.77,17.18z"/>
					<path class="st3" d="M21.49,16.9c0-3.28,2.66-5.94,5.94-5.94s5.94,2.66,5.94,5.94c0,3.28-2.66,5.94-5.94,5.94
						C24.15,22.84,21.49,20.18,21.49,16.9z"/>
					<path class="st4" d="M22.1,17.33c0-3.18,2.58-5.76,5.76-5.76c3.18,0,5.76,2.58,5.76,5.76c0,3.18-2.58,5.76-5.76,5.76
						C24.68,23.08,22.1,20.51,22.1,17.33z"/>
					<path class="st6" d="M21.49,16.9c0-3.28,2.66-5.94,5.94-5.94s5.94,2.66,5.94,5.94c0,3.28-2.66,5.94-5.94,5.94
						C24.15,22.84,21.49,20.18,21.49,16.9z"/>
				</g>
				<g>
					<g>
						<path class="st3" d="M26.21,13.44c0.6-0.83,1.42-0.21,1.42-0.21c0.04,0.02,0.05,0.05,0.09,0.07c0.03-0.03,0.05-0.05,0.09-0.07
							c0,0,0.82-0.63,1.42,0.21c0.6,0.83-0.03,1.85-0.56,2.22c-0.29,0.21-0.54,0.44-0.87,0.47c-0.03,0-0.05,0.01-0.08,0.01
							c-0.03,0-0.05-0.01-0.08-0.01c-0.33-0.04-0.57-0.27-0.87-0.47C26.24,15.29,25.6,14.28,26.21,13.44z"/>
						<path class="st3" d="M23.71,17.45c-0.61-0.83,0.24-1.42,0.24-1.42c0.03-0.03,0.06-0.04,0.1-0.06
							c-0.01-0.04-0.03-0.06-0.04-0.11c0,0-0.34-0.97,0.64-1.29c0.98-0.31,1.75,0.61,1.94,1.22c0.11,0.34,0.25,0.65,0.18,0.97
							c0,0.03-0.01,0.05-0.02,0.08c-0.01,0.03-0.02,0.05-0.03,0.08c-0.14,0.29-0.43,0.46-0.72,0.68
							C25.48,17.99,24.31,18.28,23.71,17.45z"/>
						<path class="st3" d="M26.75,21.07c-0.98,0.32-1.27-0.67-1.27-0.67c-0.02-0.04-0.01-0.07-0.03-0.11
							c-0.04,0-0.07,0.01-0.11,0.01c0,0-1.03,0.02-1.03-1c0-1.03,1.12-1.47,1.76-1.47c0.36,0.01,0.7-0.03,0.98,0.13
							c0.03,0.01,0.05,0.02,0.07,0.04c0.03,0.02,0.04,0.04,0.06,0.05c0.24,0.22,0.31,0.55,0.43,0.89
							C27.81,19.55,27.72,20.74,26.75,21.07z"/>
						<path class="st3" d="M31.12,19.29c0.01,1.03-1.03,1-1.03,1c-0.04,0-0.07-0.01-0.11-0.01c-0.01,0.04-0.01,0.07-0.03,0.11
							c0,0-0.29,0.99-1.27,0.67c-0.97-0.32-1.06-1.52-0.85-2.12c0.12-0.34,0.18-0.67,0.43-0.89c0.02-0.02,0.04-0.04,0.06-0.05
							c0.03-0.02,0.05-0.03,0.07-0.04c0.29-0.16,0.62-0.12,0.98-0.13C30.01,17.82,31.12,18.26,31.12,19.29z"/>
						<path class="st3" d="M30.79,14.58c0.98,0.31,0.63,1.29,0.63,1.29c-0.01,0.04-0.03,0.07-0.04,0.1c0.03,0.02,0.07,0.03,0.1,0.06
							c0,0,0.85,0.59,0.24,1.41c-0.61,0.83-1.77,0.54-2.28,0.16c-0.29-0.22-0.58-0.38-0.71-0.68c-0.02-0.02-0.03-0.04-0.04-0.07
							c-0.01-0.03-0.01-0.06-0.02-0.08c-0.07-0.32,0.07-0.63,0.18-0.97C29.04,15.18,29.81,14.27,30.79,14.58z"/>
					</g>
					<g>
						
							<linearGradient id="SVGID_7_" gradientUnits="userSpaceOnUse" x1="-476.9887" y1="10.2348" x2="-473.4861" y2="10.2348" gradientTransform="matrix(-1 0 0 1 -447.8076 4.0605)">
							<stop  offset="0" style="stop-color:#F7F7F0"/>
							<stop  offset="0.6031" style="stop-color:#FFFFFF"/>
							<stop  offset="1" style="stop-color:#FFFFFF"/>
						</linearGradient>
						<path class="st14" d="M25.92,13.16c0.6-0.83,1.42-0.21,1.42-0.21c0.04,0.02,0.05,0.05,0.09,0.07
							c0.03-0.03,0.05-0.05,0.09-0.07c0,0,0.82-0.63,1.42,0.21c0.6,0.83-0.03,1.85-0.56,2.22c-0.29,0.21-0.54,0.44-0.87,0.47
							c-0.03,0-0.05,0.01-0.08,0.01c-0.03,0-0.05-0.01-0.08-0.01c-0.33-0.04-0.57-0.27-0.87-0.47
							C25.95,15.01,25.32,13.99,25.92,13.16z"/>
						
							<linearGradient id="SVGID_8_" gradientUnits="userSpaceOnUse" x1="-505.1864" y1="404.4555" x2="-501.6822" y2="404.4555" gradientTransform="matrix(-0.309 0.9511 0.9511 0.309 -515.2704 369.9239)">
							<stop  offset="0" style="stop-color:#F7F7F0"/>
							<stop  offset="0.6031" style="stop-color:#FFFFFF"/>
							<stop  offset="1" style="stop-color:#FFFFFF"/>
						</linearGradient>
						<path class="st15" d="M23.42,17.17c-0.61-0.83,0.24-1.42,0.24-1.42c0.03-0.03,0.06-0.04,0.1-0.06
							c-0.01-0.04-0.03-0.06-0.04-0.11c0,0-0.34-0.97,0.64-1.29c0.98-0.31,1.75,0.61,1.94,1.22c0.11,0.34,0.25,0.65,0.18,0.97
							c0,0.03-0.01,0.05-0.02,0.08c-0.01,0.03-0.02,0.05-0.03,0.08c-0.14,0.29-0.43,0.46-0.72,0.68
							C25.19,17.71,24.03,18,23.42,17.17z"/>
						
							<linearGradient id="SVGID_9_" gradientUnits="userSpaceOnUse" x1="-138.5847" y1="553.9946" x2="-135.0807" y2="553.9946" gradientTransform="matrix(0.809 0.5878 0.5878 -0.809 -189.0307 547.5911)">
							<stop  offset="0" style="stop-color:#F7F7F0"/>
							<stop  offset="0.6031" style="stop-color:#FFFFFF"/>
							<stop  offset="1" style="stop-color:#FFFFFF"/>
						</linearGradient>
						<path class="st16" d="M26.46,20.78c-0.98,0.32-1.27-0.67-1.27-0.67c-0.02-0.04-0.01-0.07-0.03-0.11
							c-0.04,0-0.07,0.01-0.11,0.01c0,0-1.03,0.02-1.03-1c0-1.03,1.12-1.47,1.76-1.47c0.36,0.01,0.7-0.03,0.98,0.13
							c0.03,0.01,0.05,0.02,0.07,0.04c0.03,0.02,0.04,0.04,0.06,0.05c0.24,0.22,0.31,0.55,0.43,0.89
							C27.52,19.27,27.44,20.46,26.46,20.78z"/>
						
							<linearGradient id="SVGID_10_" gradientUnits="userSpaceOnUse" x1="116.6188" y1="250.8323" x2="120.1213" y2="250.8323" gradientTransform="matrix(0.809 -0.5878 -0.5878 -0.809 80.6303 291.4781)">
							<stop  offset="0" style="stop-color:#F7F7F0"/>
							<stop  offset="0.6031" style="stop-color:#FFFFFF"/>
							<stop  offset="1" style="stop-color:#FFFFFF"/>
						</linearGradient>
						<path class="st17" d="M30.84,19.01c0.01,1.03-1.03,1-1.03,1c-0.04,0-0.07-0.01-0.11-0.01c-0.01,0.04-0.01,0.07-0.03,0.11
							c0,0-0.29,0.99-1.27,0.67c-0.97-0.32-1.06-1.52-0.85-2.12c0.12-0.34,0.18-0.67,0.43-0.89c0.02-0.02,0.04-0.04,0.06-0.05
							c0.03-0.02,0.05-0.03,0.07-0.04c0.29-0.16,0.62-0.12,0.98-0.13C29.73,17.53,30.84,17.98,30.84,19.01z"/>
						
							<linearGradient id="SVGID_11_" gradientUnits="userSpaceOnUse" x1="-93.3744" y1="-85.0053" x2="-89.8717" y2="-85.0053" gradientTransform="matrix(-0.309 -0.9511 -0.9511 0.309 -79.2696 -44.794)">
							<stop  offset="0" style="stop-color:#F7F7F0"/>
							<stop  offset="0.6031" style="stop-color:#FFFFFF"/>
							<stop  offset="1" style="stop-color:#FFFFFF"/>
						</linearGradient>
						<path class="st18" d="M30.51,14.3c0.98,0.31,0.63,1.29,0.63,1.29c-0.01,0.04-0.03,0.07-0.04,0.1c0.03,0.02,0.07,0.03,0.1,0.06
							c0,0,0.85,0.59,0.24,1.41c-0.61,0.83-1.77,0.54-2.28,0.16c-0.29-0.22-0.58-0.38-0.71-0.68c-0.02-0.02-0.03-0.04-0.04-0.07
							c-0.01-0.03-0.01-0.06-0.02-0.08c-0.07-0.32,0.07-0.63,0.18-0.97C28.76,14.9,29.53,13.98,30.51,14.3z"/>
					</g>
				</g>
				<g>
					<path class="st12" d="M29.36,16.9c0,1.07-0.86,1.93-1.93,1.93c-1.07,0-1.93-0.86-1.93-1.93c0-1.06,0.87-1.93,1.93-1.93
						C28.5,14.97,29.36,15.84,29.36,16.9z"/>
					<path class="st13" d="M29.06,17.18c0,0.75-0.6,1.35-1.35,1.35c-0.75,0-1.35-0.6-1.35-1.35c0-0.75,0.61-1.35,1.35-1.35
						C28.46,15.83,29.07,16.44,29.06,17.18z"/>
					<path class="st6" d="M29.36,16.9c0,1.07-0.86,1.93-1.93,1.93c-1.07,0-1.93-0.86-1.93-1.93c0-1.06,0.87-1.93,1.93-1.93
						C28.5,14.97,29.36,15.84,29.36,16.9z"/>
				</g>
			</g>
			<g>
				<g>
					<path class="st3" d="M19.49,16.9c0,4.17-3.38,7.55-7.55,7.55c-4.17,0-7.54-3.38-7.55-7.55c0-4.17,3.38-7.55,7.55-7.55
						S19.49,12.73,19.49,16.9z"/>
					<path class="st4" d="M19.31,17.1c0,3.96-3.21,7.17-7.17,7.17c-3.96,0-7.17-3.21-7.17-7.17c0-3.96,3.21-7.17,7.17-7.17
						C16.1,9.93,19.31,13.14,19.31,17.1z"/>
				</g>
				<g>
					<path class="st5" d="M6.29,17.18c0-3.28,2.66-5.94,5.94-5.94s5.94,2.66,5.94,5.94c0,3.28-2.66,5.94-5.94,5.94
						C8.95,23.12,6.29,20.46,6.29,17.18z"/>
					<path class="st3" d="M6.01,16.9c0-3.28,2.66-5.94,5.94-5.94s5.94,2.66,5.94,5.94c0,3.28-2.66,5.94-5.94,5.94
						C8.67,22.84,6.01,20.18,6.01,16.9z"/>
					<path class="st4" d="M6.61,17.33c0-3.18,2.58-5.76,5.76-5.76c3.18,0,5.76,2.58,5.76,5.76c0,3.18-2.58,5.76-5.76,5.76
						C9.19,23.08,6.61,20.51,6.61,17.33z"/>
					<path class="st6" d="M6.01,16.9c0-3.28,2.66-5.94,5.94-5.94s5.94,2.66,5.94,5.94c0,3.28-2.66,5.94-5.94,5.94
						C8.67,22.84,6.01,20.18,6.01,16.9z"/>
				</g>
				<g>
					<g>
						<path class="st3" d="M10.72,13.44c0.6-0.83,1.42-0.21,1.42-0.21c0.04,0.02,0.05,0.05,0.09,0.07c0.03-0.03,0.05-0.05,0.09-0.07
							c0,0,0.82-0.63,1.42,0.21c0.6,0.83-0.03,1.85-0.56,2.22c-0.29,0.21-0.54,0.44-0.87,0.47c-0.03,0-0.05,0.01-0.08,0.01
							c-0.03,0-0.05-0.01-0.08-0.01c-0.33-0.04-0.57-0.27-0.87-0.47C10.75,15.29,10.12,14.28,10.72,13.44z"/>
						<path class="st3" d="M8.22,17.45c-0.61-0.83,0.24-1.42,0.24-1.42c0.03-0.03,0.06-0.04,0.1-0.06
							c-0.01-0.04-0.03-0.06-0.04-0.11c0,0-0.34-0.97,0.64-1.29c0.98-0.31,1.75,0.61,1.94,1.22c0.11,0.34,0.25,0.65,0.18,0.97
							c0,0.03-0.01,0.05-0.02,0.08c-0.01,0.03-0.02,0.05-0.03,0.08c-0.14,0.29-0.43,0.46-0.72,0.68
							C9.99,17.99,8.83,18.28,8.22,17.45z"/>
						<path class="st3" d="M11.26,21.07c-0.98,0.32-1.27-0.67-1.27-0.67c-0.02-0.04-0.01-0.07-0.03-0.11
							c-0.04,0-0.07,0.01-0.11,0.01c0,0-1.03,0.02-1.03-1c0-1.03,1.12-1.47,1.76-1.47c0.36,0.01,0.7-0.03,0.98,0.13
							c0.03,0.01,0.05,0.02,0.07,0.04c0.03,0.02,0.04,0.04,0.06,0.05c0.24,0.22,0.31,0.55,0.43,0.89
							C12.32,19.55,12.24,20.74,11.26,21.07z"/>
						<path class="st3" d="M15.64,19.29c0.01,1.03-1.03,1-1.03,1c-0.04,0-0.07-0.01-0.11-0.01c-0.01,0.04-0.01,0.07-0.03,0.11
							c0,0-0.3,0.99-1.27,0.67c-0.97-0.32-1.06-1.52-0.85-2.12c0.12-0.34,0.18-0.67,0.43-0.89c0.02-0.02,0.04-0.04,0.06-0.05
							c0.03-0.02,0.05-0.03,0.07-0.04c0.29-0.16,0.62-0.12,0.98-0.13C14.52,17.82,15.63,18.26,15.64,19.29z"/>
						<path class="st3" d="M15.3,14.58c0.98,0.31,0.63,1.29,0.63,1.29c-0.01,0.04-0.03,0.07-0.04,0.1c0.03,0.02,0.07,0.03,0.1,0.06
							c0,0,0.85,0.59,0.24,1.41c-0.61,0.83-1.77,0.54-2.28,0.16c-0.29-0.22-0.58-0.38-0.71-0.68c-0.02-0.02-0.03-0.04-0.04-0.07
							c-0.01-0.03-0.01-0.06-0.02-0.08c-0.07-0.32,0.07-0.63,0.18-0.97C13.56,15.18,14.33,14.27,15.3,14.58z"/>
					</g>
					<g>
						
							<linearGradient id="SVGID_12_" gradientUnits="userSpaceOnUse" x1="-461.5043" y1="10.2348" x2="-458.0017" y2="10.2348" gradientTransform="matrix(-1 0 0 1 -447.8076 4.0605)">
							<stop  offset="0" style="stop-color:#F7F7F0"/>
							<stop  offset="0.6031" style="stop-color:#FFFFFF"/>
							<stop  offset="1" style="stop-color:#FFFFFF"/>
						</linearGradient>
						<path class="st19" d="M10.44,13.16c0.6-0.83,1.42-0.21,1.42-0.21c0.04,0.02,0.05,0.05,0.09,0.07
							c0.03-0.03,0.05-0.05,0.09-0.07c0,0,0.82-0.63,1.42,0.21c0.6,0.83-0.03,1.85-0.56,2.22c-0.29,0.21-0.54,0.44-0.87,0.47
							c-0.03,0-0.05,0.01-0.08,0.01c-0.03,0-0.05-0.01-0.08-0.01c-0.33-0.04-0.57-0.27-0.87-0.47
							C10.47,15.01,9.84,13.99,10.44,13.16z"/>
						
							<linearGradient id="SVGID_13_" gradientUnits="userSpaceOnUse" x1="-500.4021" y1="389.7294" x2="-496.8979" y2="389.7294" gradientTransform="matrix(-0.309 0.9511 0.9511 0.309 -515.2704 369.9239)">
							<stop  offset="0" style="stop-color:#F7F7F0"/>
							<stop  offset="0.6031" style="stop-color:#FFFFFF"/>
							<stop  offset="1" style="stop-color:#FFFFFF"/>
						</linearGradient>
						<path class="st20" d="M7.94,17.17c-0.61-0.83,0.24-1.42,0.24-1.42c0.03-0.03,0.06-0.04,0.1-0.06
							c-0.01-0.04-0.03-0.06-0.04-0.11c0,0-0.34-0.97,0.64-1.29c0.98-0.31,1.75,0.61,1.94,1.22c0.11,0.34,0.25,0.65,0.18,0.97
							c0,0.03-0.01,0.05-0.02,0.08c-0.01,0.03-0.02,0.05-0.03,0.08c-0.14,0.29-0.43,0.46-0.72,0.68C9.71,17.71,8.55,18,7.94,17.17z"
							/>
						
							<linearGradient id="SVGID_14_" gradientUnits="userSpaceOnUse" x1="-151.1116" y1="544.8928" x2="-147.6077" y2="544.8928" gradientTransform="matrix(0.809 0.5878 0.5878 -0.809 -189.0307 547.5911)">
							<stop  offset="0" style="stop-color:#F7F7F0"/>
							<stop  offset="0.6031" style="stop-color:#FFFFFF"/>
							<stop  offset="1" style="stop-color:#FFFFFF"/>
						</linearGradient>
						<path class="st21" d="M10.98,20.78C10,21.1,9.71,20.11,9.71,20.11C9.69,20.08,9.69,20.04,9.68,20c-0.04,0-0.07,0.01-0.11,0.01
							c0,0-1.03,0.02-1.03-1c0-1.03,1.12-1.47,1.76-1.47c0.36,0.01,0.7-0.03,0.98,0.13c0.03,0.01,0.05,0.02,0.07,0.04
							c0.03,0.02,0.04,0.04,0.06,0.05c0.24,0.22,0.31,0.55,0.43,0.89C12.04,19.27,11.95,20.46,10.98,20.78z"/>
						
							<linearGradient id="SVGID_15_" gradientUnits="userSpaceOnUse" x1="104.0918" y1="259.9341" x2="107.5943" y2="259.9341" gradientTransform="matrix(0.809 -0.5878 -0.5878 -0.809 80.6303 291.4781)">
							<stop  offset="0" style="stop-color:#F7F7F0"/>
							<stop  offset="0.6031" style="stop-color:#FFFFFF"/>
							<stop  offset="1" style="stop-color:#FFFFFF"/>
						</linearGradient>
						<path class="st22" d="M15.35,19.01c0.01,1.03-1.03,1-1.03,1c-0.04,0-0.07-0.01-0.11-0.01c-0.01,0.04-0.01,0.07-0.03,0.11
							c0,0-0.29,0.99-1.27,0.67c-0.97-0.32-1.06-1.52-0.85-2.12c0.12-0.34,0.18-0.67,0.43-0.89c0.02-0.02,0.04-0.04,0.06-0.05
							c0.03-0.02,0.05-0.03,0.07-0.04c0.29-0.16,0.62-0.12,0.98-0.13C14.24,17.53,15.35,17.98,15.35,19.01z"/>
						
							<linearGradient id="SVGID_16_" gradientUnits="userSpaceOnUse" x1="-88.59" y1="-70.2792" x2="-85.0874" y2="-70.2792" gradientTransform="matrix(-0.309 -0.9511 -0.9511 0.309 -79.2696 -44.794)">
							<stop  offset="0" style="stop-color:#F7F7F0"/>
							<stop  offset="0.6031" style="stop-color:#FFFFFF"/>
							<stop  offset="1" style="stop-color:#FFFFFF"/>
						</linearGradient>
						<path class="st23" d="M15.02,14.3c0.98,0.31,0.63,1.29,0.63,1.29c-0.01,0.04-0.03,0.07-0.04,0.1c0.03,0.02,0.07,0.03,0.1,0.06
							c0,0,0.85,0.59,0.24,1.41c-0.61,0.83-1.77,0.54-2.28,0.16c-0.29-0.22-0.58-0.38-0.71-0.68c-0.02-0.02-0.03-0.04-0.04-0.07
							c-0.01-0.03-0.01-0.06-0.02-0.08c-0.07-0.32,0.07-0.63,0.18-0.97C13.27,14.9,14.04,13.98,15.02,14.3z"/>
					</g>
				</g>
				<g>
					<path class="st12" d="M13.87,16.9c0,1.07-0.86,1.93-1.93,1.93c-1.07,0-1.93-0.86-1.93-1.93c0-1.06,0.87-1.93,1.93-1.93
						C13.01,14.97,13.88,15.84,13.87,16.9z"/>
					<path class="st13" d="M13.58,17.18c0,0.75-0.61,1.35-1.35,1.35c-0.75,0-1.35-0.6-1.35-1.35c0-0.75,0.61-1.35,1.35-1.35
						C12.97,15.83,13.58,16.44,13.58,17.18z"/>
					<path class="st6" d="M13.87,16.9c0,1.07-0.86,1.93-1.93,1.93c-1.07,0-1.93-0.86-1.93-1.93c0-1.06,0.87-1.93,1.93-1.93
						C13.01,14.97,13.88,15.84,13.87,16.9z"/>
				</g>
			</g>
		</g>
		<g>
			<g>
				<g>
					<path class="st3" d="M50.46,37.35c0,4.17-3.38,7.55-7.55,7.55c-4.17,0-7.55-3.38-7.55-7.55s3.38-7.55,7.55-7.55
						C47.08,29.8,50.46,33.18,50.46,37.35z"/>
					<path class="st4" d="M50.28,37.55c0,3.96-3.21,7.17-7.17,7.17c-3.96,0-7.17-3.21-7.17-7.17c0-3.96,3.21-7.17,7.17-7.17
						S50.28,33.59,50.28,37.55z"/>
				</g>
				<g>
					<path class="st5" d="M37.26,37.63c0-3.28,2.66-5.94,5.94-5.94c3.28,0,5.94,2.66,5.94,5.94c0,3.28-2.66,5.94-5.94,5.94
						C39.92,43.57,37.26,40.91,37.26,37.63z"/>
					<path class="st12" d="M36.98,37.35c0-3.28,2.66-5.94,5.94-5.94c3.28,0,5.94,2.66,5.94,5.94c0,3.28-2.66,5.94-5.94,5.94
						C39.64,43.29,36.98,40.63,36.98,37.35z"/>
					<path class="st13" d="M37.58,37.77c0-3.18,2.58-5.76,5.76-5.76c3.18,0,5.76,2.58,5.76,5.76c0,3.18-2.58,5.76-5.76,5.76
						C40.16,43.53,37.58,40.96,37.58,37.77z"/>
					<path class="st6" d="M36.98,37.35c0-3.28,2.66-5.94,5.94-5.94c3.28,0,5.94,2.66,5.94,5.94c0,3.28-2.66,5.94-5.94,5.94
						C39.64,43.29,36.98,40.63,36.98,37.35z"/>
				</g>
				<g>
					<g>
						<path class="st12" d="M41.69,33.89c0.6-0.83,1.42-0.21,1.42-0.21c0.03,0.02,0.05,0.05,0.08,0.07
							c0.03-0.02,0.05-0.05,0.09-0.07c0,0,0.82-0.62,1.42,0.21c0.6,0.83-0.03,1.85-0.56,2.22c-0.29,0.21-0.54,0.44-0.87,0.47
							c-0.03,0-0.05,0.01-0.08,0.01c-0.03,0-0.05-0.01-0.08-0.01c-0.33-0.04-0.58-0.27-0.87-0.47
							C41.72,35.74,41.09,34.73,41.69,33.89z"/>
						<path class="st12" d="M39.19,37.9c-0.6-0.83,0.25-1.42,0.25-1.42c0.03-0.03,0.06-0.04,0.09-0.06
							c-0.01-0.04-0.03-0.06-0.04-0.1c0,0-0.34-0.97,0.64-1.29c0.98-0.31,1.75,0.61,1.94,1.22c0.11,0.34,0.25,0.65,0.18,0.97
							c0,0.03-0.01,0.05-0.02,0.08c-0.01,0.03-0.02,0.05-0.03,0.08c-0.13,0.29-0.43,0.46-0.72,0.68
							C40.96,38.44,39.8,38.73,39.19,37.9z"/>
						<path class="st12" d="M42.23,41.52c-0.98,0.32-1.27-0.67-1.27-0.67c-0.01-0.04-0.01-0.07-0.03-0.11
							c-0.04,0-0.07,0.01-0.11,0.01c0,0-1.03,0.02-1.03-1c0-1.03,1.11-1.47,1.76-1.47c0.36,0.01,0.7-0.03,0.98,0.13
							c0.03,0.01,0.05,0.02,0.07,0.04c0.03,0.02,0.04,0.04,0.06,0.05c0.24,0.22,0.31,0.55,0.43,0.89
							C43.29,40,43.21,41.19,42.23,41.52z"/>
						<path class="st12" d="M46.6,39.74c0,1.03-1.03,1-1.03,1c-0.04,0-0.07-0.01-0.11-0.01c-0.01,0.04-0.01,0.07-0.03,0.11
							c0,0-0.29,0.99-1.27,0.67c-0.97-0.32-1.06-1.52-0.85-2.12c0.12-0.34,0.18-0.67,0.42-0.89c0.02-0.02,0.04-0.04,0.06-0.05
							c0.02-0.02,0.05-0.03,0.07-0.04c0.29-0.16,0.62-0.12,0.98-0.13C45.49,38.26,46.6,38.71,46.6,39.74z"/>
						<path class="st12" d="M46.27,35.03c0.98,0.31,0.63,1.29,0.63,1.29c-0.01,0.04-0.03,0.06-0.04,0.1
							c0.04,0.02,0.06,0.03,0.1,0.06c0,0,0.85,0.59,0.24,1.42c-0.61,0.83-1.77,0.54-2.28,0.15c-0.29-0.22-0.58-0.38-0.72-0.68
							c-0.01-0.03-0.03-0.04-0.04-0.07c-0.01-0.03-0.01-0.06-0.02-0.08c-0.07-0.32,0.07-0.63,0.18-0.97
							C44.52,35.63,45.29,34.72,46.27,35.03z"/>
					</g>
					<g>
						
							<linearGradient id="SVGID_17_" gradientUnits="userSpaceOnUse" x1="-492.4741" y1="30.6837" x2="-488.9698" y2="30.6837" gradientTransform="matrix(-1 0 0 1 -447.8076 4.0605)">
							<stop  offset="0" style="stop-color:#F7F7F0"/>
							<stop  offset="0.6031" style="stop-color:#FFFFFF"/>
							<stop  offset="1" style="stop-color:#FFFFFF"/>
						</linearGradient>
						<path class="st24" d="M41.41,33.61c0.6-0.83,1.42-0.21,1.42-0.21c0.03,0.02,0.05,0.05,0.08,0.07
							c0.03-0.02,0.05-0.05,0.09-0.07c0,0,0.82-0.62,1.42,0.21c0.6,0.83-0.03,1.85-0.56,2.22c-0.29,0.21-0.54,0.44-0.87,0.47
							c-0.03,0-0.05,0.01-0.08,0.01c-0.03,0-0.05-0.01-0.08-0.01c-0.33-0.04-0.58-0.27-0.87-0.47
							C41.44,35.46,40.81,34.44,41.41,33.61z"/>
						
							<linearGradient id="SVGID_18_" gradientUnits="userSpaceOnUse" x1="-490.5237" y1="425.5004" x2="-487.019" y2="425.5004" gradientTransform="matrix(-0.309 0.9511 0.9511 0.309 -515.2704 369.9239)">
							<stop  offset="0" style="stop-color:#F7F7F0"/>
							<stop  offset="0.6031" style="stop-color:#FFFFFF"/>
							<stop  offset="1" style="stop-color:#FFFFFF"/>
						</linearGradient>
						<path class="st25" d="M38.91,37.62c-0.6-0.83,0.25-1.42,0.25-1.42c0.03-0.03,0.06-0.04,0.09-0.06
							c-0.01-0.04-0.03-0.06-0.04-0.1c0,0-0.34-0.97,0.64-1.29c0.98-0.31,1.75,0.61,1.94,1.22c0.11,0.34,0.25,0.65,0.18,0.97
							c0,0.03-0.01,0.05-0.02,0.08c-0.01,0.03-0.02,0.05-0.03,0.08c-0.13,0.29-0.43,0.46-0.72,0.68
							C40.68,38.16,39.51,38.45,38.91,37.62z"/>
						
							<linearGradient id="SVGID_19_" gradientUnits="userSpaceOnUse" x1="-114.0383" y1="546.5536" x2="-110.5337" y2="546.5536" gradientTransform="matrix(0.809 0.5878 0.5878 -0.809 -189.0307 547.5911)">
							<stop  offset="0" style="stop-color:#F7F7F0"/>
							<stop  offset="0.6031" style="stop-color:#FFFFFF"/>
							<stop  offset="1" style="stop-color:#FFFFFF"/>
						</linearGradient>
						<path class="st26" d="M41.95,41.23c-0.98,0.32-1.27-0.67-1.27-0.67c-0.01-0.04-0.01-0.07-0.03-0.11
							c-0.04,0-0.07,0.01-0.11,0.01c0,0-1.03,0.02-1.03-1c0-1.03,1.11-1.47,1.76-1.47c0.36,0.01,0.7-0.03,0.98,0.13
							c0.03,0.01,0.05,0.02,0.07,0.04c0.03,0.02,0.04,0.04,0.06,0.05c0.24,0.22,0.31,0.55,0.43,0.89
							C43.01,39.72,42.92,40.91,41.95,41.23z"/>
						
							<linearGradient id="SVGID_20_" gradientUnits="userSpaceOnUse" x1="117.1257" y1="225.1875" x2="120.6293" y2="225.1875" gradientTransform="matrix(0.809 -0.5878 -0.5878 -0.809 80.6303 291.4781)">
							<stop  offset="0" style="stop-color:#F7F7F0"/>
							<stop  offset="0.6031" style="stop-color:#FFFFFF"/>
							<stop  offset="1" style="stop-color:#FFFFFF"/>
						</linearGradient>
						<path class="st27" d="M46.32,39.46c0,1.03-1.03,1-1.03,1c-0.04,0-0.07-0.01-0.11-0.01c-0.01,0.04-0.01,0.07-0.03,0.11
							c0,0-0.29,0.99-1.27,0.67c-0.97-0.32-1.06-1.52-0.85-2.12c0.12-0.34,0.18-0.67,0.42-0.89c0.02-0.02,0.04-0.04,0.06-0.05
							c0.02-0.02,0.05-0.03,0.07-0.04c0.29-0.16,0.62-0.12,0.98-0.13C45.21,37.98,46.32,38.43,46.32,39.46z"/>
						
							<linearGradient id="SVGID_21_" gradientUnits="userSpaceOnUse" x1="-117.6065" y1="-93.4136" x2="-114.1032" y2="-93.4136" gradientTransform="matrix(-0.309 -0.9511 -0.9511 0.309 -79.2696 -44.794)">
							<stop  offset="0" style="stop-color:#F7F7F0"/>
							<stop  offset="0.6031" style="stop-color:#FFFFFF"/>
							<stop  offset="1" style="stop-color:#FFFFFF"/>
						</linearGradient>
						<path class="st28" d="M45.99,34.75c0.98,0.31,0.63,1.29,0.63,1.29c-0.01,0.04-0.03,0.06-0.04,0.1
							c0.04,0.02,0.06,0.03,0.1,0.06c0,0,0.85,0.59,0.24,1.42c-0.61,0.83-1.77,0.54-2.28,0.15c-0.29-0.22-0.58-0.38-0.72-0.68
							c-0.01-0.03-0.03-0.04-0.04-0.07c-0.01-0.03-0.01-0.06-0.02-0.08c-0.07-0.32,0.07-0.63,0.18-0.97
							C44.24,35.35,45.01,34.43,45.99,34.75z"/>
					</g>
				</g>
				<g>
					<path class="st12" d="M44.84,37.35c0,1.07-0.86,1.93-1.93,1.93c-1.07,0-1.93-0.86-1.93-1.93c0-1.07,0.87-1.93,1.93-1.93
						C43.98,35.42,44.84,36.29,44.84,37.35z"/>
					<path class="st13" d="M44.55,37.63c0,0.75-0.6,1.35-1.35,1.35c-0.75,0-1.35-0.6-1.35-1.35s0.61-1.35,1.35-1.35
						C43.94,36.28,44.55,36.89,44.55,37.63z"/>
					<path class="st6" d="M44.84,37.35c0,1.07-0.86,1.93-1.93,1.93c-1.07,0-1.93-0.86-1.93-1.93c0-1.07,0.87-1.93,1.93-1.93
						C43.98,35.42,44.84,36.29,44.84,37.35z"/>
				</g>
			</g>
			<g>
				<g>
					<path class="st3" d="M34.98,37.35c0,4.17-3.38,7.55-7.55,7.55c-4.17,0-7.54-3.38-7.55-7.55c0-4.17,3.38-7.55,7.55-7.55
						S34.98,33.18,34.98,37.35z"/>
					<path class="st4" d="M34.8,37.55c0,3.96-3.21,7.17-7.17,7.17c-3.96,0-7.17-3.21-7.17-7.17c0-3.96,3.21-7.17,7.17-7.17
						S34.8,33.59,34.8,37.55z"/>
				</g>
				<g>
					<path class="st5" d="M21.77,37.63c0-3.28,2.66-5.94,5.94-5.94s5.94,2.66,5.94,5.94c0,3.28-2.66,5.94-5.94,5.94
						C24.43,43.57,21.78,40.91,21.77,37.63z"/>
					<path class="st12" d="M21.49,37.35c0-3.28,2.66-5.94,5.94-5.94s5.94,2.66,5.94,5.94c0,3.28-2.66,5.94-5.94,5.94
						C24.15,43.29,21.49,40.63,21.49,37.35z"/>
					<path class="st13" d="M22.1,37.77c0-3.18,2.58-5.76,5.76-5.76c3.18,0,5.76,2.58,5.76,5.76c0,3.18-2.58,5.76-5.76,5.76
						C24.68,43.53,22.1,40.96,22.1,37.77z"/>
					<path class="st6" d="M21.49,37.35c0-3.28,2.66-5.94,5.94-5.94s5.94,2.66,5.94,5.94c0,3.28-2.66,5.94-5.94,5.94
						C24.15,43.29,21.49,40.63,21.49,37.35z"/>
				</g>
				<g>
					<g>
						<path class="st12" d="M26.21,33.89c0.6-0.83,1.42-0.21,1.42-0.21c0.04,0.02,0.05,0.05,0.09,0.07
							c0.03-0.02,0.05-0.05,0.09-0.07c0,0,0.82-0.62,1.42,0.21c0.6,0.83-0.03,1.85-0.56,2.22c-0.29,0.21-0.54,0.44-0.87,0.47
							c-0.03,0-0.05,0.01-0.08,0.01c-0.03,0-0.05-0.01-0.08-0.01c-0.33-0.04-0.57-0.27-0.87-0.47
							C26.24,35.74,25.6,34.73,26.21,33.89z"/>
						<path class="st12" d="M23.71,37.9c-0.61-0.83,0.24-1.42,0.24-1.42c0.03-0.03,0.06-0.04,0.1-0.06
							c-0.01-0.04-0.03-0.06-0.04-0.1c0,0-0.34-0.97,0.64-1.29c0.98-0.31,1.75,0.61,1.94,1.22c0.11,0.34,0.25,0.65,0.18,0.97
							c0,0.03-0.01,0.05-0.02,0.08c-0.01,0.03-0.02,0.05-0.03,0.08c-0.14,0.29-0.43,0.46-0.72,0.68
							C25.48,38.44,24.31,38.73,23.71,37.9z"/>
						<path class="st12" d="M26.75,41.52c-0.98,0.32-1.27-0.67-1.27-0.67c-0.02-0.04-0.01-0.07-0.03-0.11
							c-0.04,0-0.07,0.01-0.11,0.01c0,0-1.03,0.02-1.03-1c0-1.03,1.12-1.47,1.76-1.47c0.36,0.01,0.7-0.03,0.98,0.13
							c0.03,0.01,0.05,0.02,0.07,0.04c0.03,0.02,0.04,0.04,0.06,0.05c0.24,0.22,0.31,0.55,0.43,0.89
							C27.81,40,27.72,41.19,26.75,41.52z"/>
						<path class="st12" d="M31.12,39.74c0.01,1.03-1.03,1-1.03,1c-0.04,0-0.07-0.01-0.11-0.01c-0.01,0.04-0.01,0.07-0.03,0.11
							c0,0-0.29,0.99-1.27,0.67c-0.97-0.32-1.06-1.52-0.85-2.12c0.12-0.34,0.18-0.67,0.43-0.89c0.02-0.02,0.04-0.04,0.06-0.05
							c0.03-0.02,0.05-0.03,0.07-0.04c0.29-0.16,0.62-0.12,0.98-0.13C30.01,38.26,31.12,38.71,31.12,39.74z"/>
						<path class="st12" d="M30.79,35.03c0.98,0.31,0.63,1.29,0.63,1.29c-0.01,0.04-0.03,0.06-0.04,0.1
							c0.03,0.02,0.07,0.03,0.1,0.06c0,0,0.85,0.59,0.24,1.42c-0.61,0.83-1.77,0.54-2.28,0.15c-0.29-0.22-0.58-0.38-0.71-0.68
							c-0.02-0.03-0.03-0.04-0.04-0.07c-0.01-0.03-0.01-0.06-0.02-0.08c-0.07-0.32,0.07-0.63,0.18-0.97
							C29.04,35.63,29.81,34.72,30.79,35.03z"/>
					</g>
					<g>
						
							<linearGradient id="SVGID_22_" gradientUnits="userSpaceOnUse" x1="-476.9887" y1="30.6837" x2="-473.4861" y2="30.6837" gradientTransform="matrix(-1 0 0 1 -447.8076 4.0605)">
							<stop  offset="0" style="stop-color:#F7F7F0"/>
							<stop  offset="0.6031" style="stop-color:#FFFFFF"/>
							<stop  offset="1" style="stop-color:#FFFFFF"/>
						</linearGradient>
						<path class="st29" d="M25.92,33.61c0.6-0.83,1.42-0.21,1.42-0.21c0.04,0.02,0.05,0.05,0.09,0.07
							c0.03-0.02,0.05-0.05,0.09-0.07c0,0,0.82-0.62,1.42,0.21c0.6,0.83-0.03,1.85-0.56,2.22c-0.29,0.21-0.54,0.44-0.87,0.47
							c-0.03,0-0.05,0.01-0.08,0.01c-0.03,0-0.05-0.01-0.08-0.01c-0.33-0.04-0.57-0.27-0.87-0.47
							C25.95,35.46,25.32,34.44,25.92,33.61z"/>
						
							<linearGradient id="SVGID_23_" gradientUnits="userSpaceOnUse" x1="-485.7394" y1="410.7737" x2="-482.2346" y2="410.7737" gradientTransform="matrix(-0.309 0.9511 0.9511 0.309 -515.2704 369.9239)">
							<stop  offset="0" style="stop-color:#F7F7F0"/>
							<stop  offset="0.6031" style="stop-color:#FFFFFF"/>
							<stop  offset="1" style="stop-color:#FFFFFF"/>
						</linearGradient>
						<path class="st30" d="M23.42,37.62c-0.61-0.83,0.24-1.42,0.24-1.42c0.03-0.03,0.06-0.04,0.1-0.06
							c-0.01-0.04-0.03-0.06-0.04-0.1c0,0-0.34-0.97,0.64-1.29c0.98-0.31,1.75,0.61,1.94,1.22c0.11,0.34,0.25,0.65,0.18,0.97
							c0,0.03-0.01,0.05-0.02,0.08c-0.01,0.03-0.02,0.05-0.03,0.08c-0.14,0.29-0.43,0.46-0.72,0.68
							C25.19,38.16,24.03,38.45,23.42,37.62z"/>
						
							<linearGradient id="SVGID_24_" gradientUnits="userSpaceOnUse" x1="-126.5651" y1="537.4518" x2="-123.0607" y2="537.4518" gradientTransform="matrix(0.809 0.5878 0.5878 -0.809 -189.0307 547.5911)">
							<stop  offset="0" style="stop-color:#F7F7F0"/>
							<stop  offset="0.6031" style="stop-color:#FFFFFF"/>
							<stop  offset="1" style="stop-color:#FFFFFF"/>
						</linearGradient>
						<path class="st31" d="M26.46,41.23c-0.98,0.32-1.27-0.67-1.27-0.67c-0.02-0.04-0.01-0.07-0.03-0.11
							c-0.04,0-0.07,0.01-0.11,0.01c0,0-1.03,0.02-1.03-1c0-1.03,1.12-1.47,1.76-1.47c0.36,0.01,0.7-0.03,0.98,0.13
							c0.03,0.01,0.05,0.02,0.07,0.04c0.03,0.02,0.04,0.04,0.06,0.05c0.24,0.22,0.31,0.55,0.43,0.89
							C27.52,39.72,27.44,40.91,26.46,41.23z"/>
						
							<linearGradient id="SVGID_25_" gradientUnits="userSpaceOnUse" x1="104.5987" y1="234.2891" x2="108.1016" y2="234.2891" gradientTransform="matrix(0.809 -0.5878 -0.5878 -0.809 80.6303 291.4781)">
							<stop  offset="0" style="stop-color:#F7F7F0"/>
							<stop  offset="0.6031" style="stop-color:#FFFFFF"/>
							<stop  offset="1" style="stop-color:#FFFFFF"/>
						</linearGradient>
						<path class="st32" d="M30.84,39.46c0.01,1.03-1.03,1-1.03,1c-0.04,0-0.07-0.01-0.11-0.01c-0.01,0.04-0.01,0.07-0.03,0.11
							c0,0-0.29,0.99-1.27,0.67c-0.97-0.32-1.06-1.52-0.85-2.12c0.12-0.34,0.18-0.67,0.43-0.89c0.02-0.02,0.04-0.04,0.06-0.05
							c0.03-0.02,0.05-0.03,0.07-0.04c0.29-0.16,0.62-0.12,0.98-0.13C29.73,37.98,30.84,38.43,30.84,39.46z"/>
						
							<linearGradient id="SVGID_26_" gradientUnits="userSpaceOnUse" x1="-112.8219" y1="-78.6871" x2="-109.319" y2="-78.6871" gradientTransform="matrix(-0.309 -0.9511 -0.9511 0.309 -79.2696 -44.794)">
							<stop  offset="0" style="stop-color:#F7F7F0"/>
							<stop  offset="0.6031" style="stop-color:#FFFFFF"/>
							<stop  offset="1" style="stop-color:#FFFFFF"/>
						</linearGradient>
						<path class="st33" d="M30.51,34.75c0.98,0.31,0.63,1.29,0.63,1.29c-0.01,0.04-0.03,0.06-0.04,0.1
							c0.03,0.02,0.07,0.03,0.1,0.06c0,0,0.85,0.59,0.24,1.42c-0.61,0.83-1.77,0.54-2.28,0.15c-0.29-0.22-0.58-0.38-0.71-0.68
							c-0.02-0.03-0.03-0.04-0.04-0.07c-0.01-0.03-0.01-0.06-0.02-0.08c-0.07-0.32,0.07-0.63,0.18-0.97
							C28.76,35.35,29.53,34.43,30.51,34.75z"/>
					</g>
				</g>
				<g>
					<path class="st12" d="M29.36,37.35c0,1.07-0.86,1.93-1.93,1.93c-1.07,0-1.93-0.86-1.93-1.93s0.87-1.93,1.93-1.93
						C28.5,35.42,29.36,36.29,29.36,37.35z"/>
					<path class="st13" d="M29.06,37.63c0,0.75-0.6,1.35-1.35,1.35c-0.75,0-1.35-0.6-1.35-1.35s0.61-1.35,1.35-1.35
						C28.46,36.28,29.07,36.89,29.06,37.63z"/>
					<path class="st6" d="M29.36,37.35c0,1.07-0.86,1.93-1.93,1.93c-1.07,0-1.93-0.86-1.93-1.93s0.87-1.93,1.93-1.93
						C28.5,35.42,29.36,36.29,29.36,37.35z"/>
				</g>
			</g>
			<g>
				<g>
					<path class="st3" d="M19.49,37.35c0,4.17-3.38,7.55-7.55,7.55c-4.17,0-7.54-3.38-7.55-7.55c0-4.17,3.38-7.55,7.55-7.55
						S19.49,33.18,19.49,37.35z"/>
					<path class="st4" d="M19.31,37.55c0,3.96-3.21,7.17-7.17,7.17c-3.96,0-7.17-3.21-7.17-7.17c0-3.96,3.21-7.17,7.17-7.17
						C16.1,30.38,19.31,33.59,19.31,37.55z"/>
				</g>
				<g>
					<path class="st5" d="M6.29,37.63c0-3.28,2.66-5.94,5.94-5.94s5.94,2.66,5.94,5.94c0,3.28-2.66,5.94-5.94,5.94
						C8.95,43.57,6.29,40.91,6.29,37.63z"/>
					<path class="st12" d="M6.01,37.35c0-3.28,2.66-5.94,5.94-5.94s5.94,2.66,5.94,5.94c0,3.28-2.66,5.94-5.94,5.94
						C8.67,43.29,6.01,40.63,6.01,37.35z"/>
					<path class="st13" d="M6.61,37.77c0-3.18,2.58-5.76,5.76-5.76c3.18,0,5.76,2.58,5.76,5.76c0,3.18-2.58,5.76-5.76,5.76
						C9.19,43.53,6.61,40.96,6.61,37.77z"/>
					<path class="st6" d="M6.01,37.35c0-3.28,2.66-5.94,5.94-5.94s5.94,2.66,5.94,5.94c0,3.28-2.66,5.94-5.94,5.94
						C8.67,43.29,6.01,40.63,6.01,37.35z"/>
				</g>
				<g>
					<g>
						<path class="st12" d="M10.72,33.89c0.6-0.83,1.42-0.21,1.42-0.21c0.04,0.02,0.05,0.05,0.09,0.07
							c0.03-0.02,0.05-0.05,0.09-0.07c0,0,0.82-0.62,1.42,0.21c0.6,0.83-0.03,1.85-0.56,2.22c-0.29,0.21-0.54,0.44-0.87,0.47
							c-0.03,0-0.05,0.01-0.08,0.01c-0.03,0-0.05-0.01-0.08-0.01c-0.33-0.04-0.57-0.27-0.87-0.47
							C10.75,35.74,10.12,34.73,10.72,33.89z"/>
						<path class="st12" d="M8.22,37.9c-0.61-0.83,0.24-1.42,0.24-1.42c0.03-0.03,0.06-0.04,0.1-0.06c-0.01-0.04-0.03-0.06-0.04-0.1
							c0,0-0.34-0.97,0.64-1.29c0.98-0.31,1.75,0.61,1.94,1.22c0.11,0.34,0.25,0.65,0.18,0.97c0,0.03-0.01,0.05-0.02,0.08
							c-0.01,0.03-0.02,0.05-0.03,0.08c-0.14,0.29-0.43,0.46-0.72,0.68C9.99,38.44,8.83,38.73,8.22,37.9z"/>
						<path class="st12" d="M11.26,41.52c-0.98,0.32-1.27-0.67-1.27-0.67c-0.02-0.04-0.01-0.07-0.03-0.11
							c-0.04,0-0.07,0.01-0.11,0.01c0,0-1.03,0.02-1.03-1c0-1.03,1.12-1.47,1.76-1.47c0.36,0.01,0.7-0.03,0.98,0.13
							c0.03,0.01,0.05,0.02,0.07,0.04c0.03,0.02,0.04,0.04,0.06,0.05c0.24,0.22,0.31,0.55,0.43,0.89
							C12.32,40,12.24,41.19,11.26,41.52z"/>
						<path class="st12" d="M15.64,39.74c0.01,1.03-1.03,1-1.03,1c-0.04,0-0.07-0.01-0.11-0.01c-0.01,0.04-0.01,0.07-0.03,0.11
							c0,0-0.3,0.99-1.27,0.67c-0.97-0.32-1.06-1.52-0.85-2.12c0.12-0.34,0.18-0.67,0.43-0.89c0.02-0.02,0.04-0.04,0.06-0.05
							c0.03-0.02,0.05-0.03,0.07-0.04c0.29-0.16,0.62-0.12,0.98-0.13C14.52,38.26,15.63,38.71,15.64,39.74z"/>
						<path class="st12" d="M15.3,35.03c0.98,0.31,0.63,1.29,0.63,1.29c-0.01,0.04-0.03,0.06-0.04,0.1c0.03,0.02,0.07,0.03,0.1,0.06
							c0,0,0.85,0.59,0.24,1.42c-0.61,0.83-1.77,0.54-2.28,0.15c-0.29-0.22-0.58-0.38-0.71-0.68c-0.02-0.03-0.03-0.04-0.04-0.07
							c-0.01-0.03-0.01-0.06-0.02-0.08c-0.07-0.32,0.07-0.63,0.18-0.97C13.56,35.63,14.33,34.72,15.3,35.03z"/>
					</g>
					<g>
						
							<linearGradient id="SVGID_27_" gradientUnits="userSpaceOnUse" x1="-461.5043" y1="30.6837" x2="-458.0017" y2="30.6837" gradientTransform="matrix(-1 0 0 1 -447.8076 4.0605)">
							<stop  offset="0" style="stop-color:#F7F7F0"/>
							<stop  offset="0.6031" style="stop-color:#FFFFFF"/>
							<stop  offset="1" style="stop-color:#FFFFFF"/>
						</linearGradient>
						<path class="st34" d="M10.44,33.61c0.6-0.83,1.42-0.21,1.42-0.21c0.04,0.02,0.05,0.05,0.09,0.07
							c0.03-0.02,0.05-0.05,0.09-0.07c0,0,0.82-0.62,1.42,0.21c0.6,0.83-0.03,1.85-0.56,2.22c-0.29,0.21-0.54,0.44-0.87,0.47
							c-0.03,0-0.05,0.01-0.08,0.01c-0.03,0-0.05-0.01-0.08-0.01c-0.33-0.04-0.57-0.27-0.87-0.47
							C10.47,35.46,9.84,34.44,10.44,33.61z"/>
						
							<linearGradient id="SVGID_28_" gradientUnits="userSpaceOnUse" x1="-480.955" y1="396.0476" x2="-477.4503" y2="396.0476" gradientTransform="matrix(-0.309 0.9511 0.9511 0.309 -515.2704 369.9239)">
							<stop  offset="0" style="stop-color:#F7F7F0"/>
							<stop  offset="0.6031" style="stop-color:#FFFFFF"/>
							<stop  offset="1" style="stop-color:#FFFFFF"/>
						</linearGradient>
						<path class="st35" d="M7.94,37.62c-0.61-0.83,0.24-1.42,0.24-1.42c0.03-0.03,0.06-0.04,0.1-0.06
							c-0.01-0.04-0.03-0.06-0.04-0.1c0,0-0.34-0.97,0.64-1.29c0.98-0.31,1.75,0.61,1.94,1.22c0.11,0.34,0.25,0.65,0.18,0.97
							c0,0.03-0.01,0.05-0.02,0.08c-0.01,0.03-0.02,0.05-0.03,0.08c-0.14,0.29-0.43,0.46-0.72,0.68
							C9.71,38.16,8.55,38.45,7.94,37.62z"/>
						
							<linearGradient id="SVGID_29_" gradientUnits="userSpaceOnUse" x1="-139.092" y1="528.35" x2="-135.5876" y2="528.35" gradientTransform="matrix(0.809 0.5878 0.5878 -0.809 -189.0307 547.5911)">
							<stop  offset="0" style="stop-color:#F7F7F0"/>
							<stop  offset="0.6031" style="stop-color:#FFFFFF"/>
							<stop  offset="1" style="stop-color:#FFFFFF"/>
						</linearGradient>
						<path class="st36" d="M10.98,41.23c-0.98,0.32-1.27-0.67-1.27-0.67c-0.02-0.04-0.01-0.07-0.03-0.11
							c-0.04,0-0.07,0.01-0.11,0.01c0,0-1.03,0.02-1.03-1c0-1.03,1.12-1.47,1.76-1.47c0.36,0.01,0.7-0.03,0.98,0.13
							c0.03,0.01,0.05,0.02,0.07,0.04c0.03,0.02,0.04,0.04,0.06,0.05c0.24,0.22,0.31,0.55,0.43,0.89
							C12.04,39.72,11.95,40.91,10.98,41.23z"/>
						
							<linearGradient id="SVGID_30_" gradientUnits="userSpaceOnUse" x1="92.0717" y1="243.3909" x2="95.5746" y2="243.3909" gradientTransform="matrix(0.809 -0.5878 -0.5878 -0.809 80.6303 291.4781)">
							<stop  offset="0" style="stop-color:#F7F7F0"/>
							<stop  offset="0.6031" style="stop-color:#FFFFFF"/>
							<stop  offset="1" style="stop-color:#FFFFFF"/>
						</linearGradient>
						<path class="st37" d="M15.35,39.46c0.01,1.03-1.03,1-1.03,1c-0.04,0-0.07-0.01-0.11-0.01c-0.01,0.04-0.01,0.07-0.03,0.11
							c0,0-0.29,0.99-1.27,0.67c-0.97-0.32-1.06-1.52-0.85-2.12c0.12-0.34,0.18-0.67,0.43-0.89c0.02-0.02,0.04-0.04,0.06-0.05
							c0.03-0.02,0.05-0.03,0.07-0.04c0.29-0.16,0.62-0.12,0.98-0.13C14.24,37.98,15.35,38.43,15.35,39.46z"/>
						
							<linearGradient id="SVGID_31_" gradientUnits="userSpaceOnUse" x1="-108.0376" y1="-63.961" x2="-104.5347" y2="-63.961" gradientTransform="matrix(-0.309 -0.9511 -0.9511 0.309 -79.2696 -44.794)">
							<stop  offset="0" style="stop-color:#F7F7F0"/>
							<stop  offset="0.6031" style="stop-color:#FFFFFF"/>
							<stop  offset="1" style="stop-color:#FFFFFF"/>
						</linearGradient>
						<path class="st38" d="M15.02,34.75c0.98,0.31,0.63,1.29,0.63,1.29c-0.01,0.04-0.03,0.06-0.04,0.1
							c0.03,0.02,0.07,0.03,0.1,0.06c0,0,0.85,0.59,0.24,1.42c-0.61,0.83-1.77,0.54-2.28,0.15c-0.29-0.22-0.58-0.38-0.71-0.68
							c-0.02-0.03-0.03-0.04-0.04-0.07c-0.01-0.03-0.01-0.06-0.02-0.08c-0.07-0.32,0.07-0.63,0.18-0.97
							C13.27,35.35,14.04,34.43,15.02,34.75z"/>
					</g>
				</g>
				<g>
					<path class="st12" d="M13.87,37.35c0,1.07-0.86,1.93-1.93,1.93c-1.07,0-1.93-0.86-1.93-1.93s0.87-1.93,1.93-1.93
						C13.01,35.42,13.88,36.29,13.87,37.35z"/>
					<path class="st13" d="M13.58,37.63c0,0.75-0.61,1.35-1.35,1.35c-0.75,0-1.35-0.6-1.35-1.35s0.61-1.35,1.35-1.35
						C12.97,36.28,13.58,36.89,13.58,37.63z"/>
					<path class="st6" d="M13.87,37.35c0,1.07-0.86,1.93-1.93,1.93c-1.07,0-1.93-0.86-1.93-1.93s0.87-1.93,1.93-1.93
						C13.01,35.42,13.88,36.29,13.87,37.35z"/>
				</g>
			</g>
		</g>
		<g>
			<g>
				<g>
					<path class="st3" d="M50.46,57.8c0,4.17-3.38,7.55-7.55,7.55c-4.17,0-7.55-3.38-7.55-7.55s3.38-7.55,7.55-7.55
						C47.08,50.25,50.46,53.63,50.46,57.8z"/>
					<path class="st4" d="M50.28,58c0,3.96-3.21,7.17-7.17,7.17c-3.96,0-7.17-3.21-7.17-7.17c0-3.96,3.21-7.17,7.17-7.17
						S50.28,54.04,50.28,58z"/>
				</g>
				<g>
					<path class="st5" d="M37.26,58.08c0-3.28,2.66-5.94,5.94-5.94c3.28,0,5.94,2.66,5.94,5.94c0,3.28-2.66,5.94-5.94,5.94
						C39.92,64.02,37.26,61.36,37.26,58.08z"/>
					<path class="st3" d="M36.98,57.8c0-3.28,2.66-5.94,5.94-5.94c3.28,0,5.94,2.66,5.94,5.94c0,3.28-2.66,5.94-5.94,5.94
						C39.64,63.74,36.98,61.08,36.98,57.8z"/>
					<path class="st4" d="M37.58,58.22c0-3.18,2.58-5.76,5.76-5.76c3.18,0,5.76,2.58,5.76,5.76c0,3.18-2.58,5.76-5.76,5.76
						C40.16,63.98,37.58,61.41,37.58,58.22z"/>
					<path class="st6" d="M36.98,57.8c0-3.28,2.66-5.94,5.94-5.94c3.28,0,5.94,2.66,5.94,5.94c0,3.28-2.66,5.94-5.94,5.94
						C39.64,63.74,36.98,61.08,36.98,57.8z"/>
				</g>
				<g>
					<g>
						<path class="st3" d="M41.69,54.34c0.6-0.83,1.42-0.21,1.42-0.21c0.03,0.02,0.05,0.05,0.08,0.07c0.03-0.02,0.05-0.05,0.09-0.07
							c0,0,0.82-0.62,1.42,0.21c0.6,0.83-0.03,1.85-0.56,2.22c-0.29,0.21-0.54,0.44-0.87,0.47c-0.03,0-0.05,0.01-0.08,0.01
							c-0.03,0-0.05-0.01-0.08-0.01c-0.33-0.04-0.58-0.27-0.87-0.47C41.72,56.19,41.09,55.18,41.69,54.34z"/>
						<path class="st3" d="M39.19,58.35c-0.6-0.83,0.25-1.42,0.25-1.42c0.03-0.03,0.06-0.04,0.09-0.06
							c-0.01-0.04-0.03-0.06-0.04-0.1c0,0-0.34-0.97,0.64-1.29c0.98-0.31,1.75,0.61,1.94,1.22c0.11,0.34,0.25,0.65,0.18,0.97
							c0,0.03-0.01,0.05-0.02,0.08c-0.01,0.03-0.02,0.05-0.03,0.08c-0.13,0.29-0.43,0.46-0.72,0.68
							C40.96,58.89,39.8,59.18,39.19,58.35z"/>
						<path class="st3" d="M42.23,61.97c-0.98,0.32-1.27-0.67-1.27-0.67c-0.01-0.04-0.01-0.07-0.03-0.11
							c-0.04,0-0.07,0.01-0.11,0.01c0,0-1.03,0.02-1.03-1c0-1.03,1.11-1.47,1.76-1.47c0.36,0.01,0.7-0.03,0.98,0.13
							c0.03,0.01,0.05,0.02,0.07,0.04c0.03,0.02,0.04,0.04,0.06,0.05c0.24,0.22,0.31,0.55,0.43,0.89
							C43.29,60.45,43.21,61.64,42.23,61.97z"/>
						<path class="st3" d="M46.6,60.19c0,1.03-1.03,1-1.03,1c-0.04,0-0.07-0.01-0.11-0.01c-0.01,0.04-0.01,0.07-0.03,0.11
							c0,0-0.29,0.99-1.27,0.67c-0.97-0.32-1.06-1.52-0.85-2.12c0.12-0.34,0.18-0.67,0.42-0.89c0.02-0.02,0.04-0.04,0.06-0.05
							c0.02-0.02,0.05-0.03,0.07-0.04c0.29-0.16,0.62-0.12,0.98-0.13C45.49,58.71,46.6,59.16,46.6,60.19z"/>
						<path class="st3" d="M46.27,55.48c0.98,0.31,0.63,1.29,0.63,1.29c-0.01,0.04-0.03,0.06-0.04,0.1c0.04,0.02,0.06,0.03,0.1,0.06
							c0,0,0.85,0.59,0.24,1.42c-0.61,0.83-1.77,0.54-2.28,0.15c-0.29-0.22-0.58-0.38-0.72-0.68c-0.01-0.03-0.03-0.04-0.04-0.07
							c-0.01-0.03-0.01-0.06-0.02-0.08c-0.07-0.32,0.07-0.63,0.18-0.97C44.52,56.08,45.29,55.17,46.27,55.48z"/>
					</g>
					<g>
						
							<linearGradient id="SVGID_32_" gradientUnits="userSpaceOnUse" x1="-492.4741" y1="51.133" x2="-488.9698" y2="51.133" gradientTransform="matrix(-1 0 0 1 -447.8076 4.0605)">
							<stop  offset="0" style="stop-color:#F7F7F0"/>
							<stop  offset="0.6031" style="stop-color:#FFFFFF"/>
							<stop  offset="1" style="stop-color:#FFFFFF"/>
						</linearGradient>
						<path class="st39" d="M41.41,54.06c0.6-0.83,1.42-0.21,1.42-0.21c0.03,0.02,0.05,0.05,0.08,0.07
							c0.03-0.02,0.05-0.05,0.09-0.07c0,0,0.82-0.62,1.42,0.21c0.6,0.83-0.03,1.85-0.56,2.22c-0.29,0.21-0.54,0.44-0.87,0.47
							c-0.03,0-0.05,0.01-0.08,0.01c-0.03,0-0.05-0.01-0.08-0.01c-0.33-0.04-0.58-0.27-0.87-0.47
							C41.44,55.91,40.81,54.89,41.41,54.06z"/>
						
							<linearGradient id="SVGID_33_" gradientUnits="userSpaceOnUse" x1="-471.0759" y1="431.8187" x2="-467.5711" y2="431.8187" gradientTransform="matrix(-0.309 0.9511 0.9511 0.309 -515.2704 369.9239)">
							<stop  offset="0" style="stop-color:#F7F7F0"/>
							<stop  offset="0.6031" style="stop-color:#FFFFFF"/>
							<stop  offset="1" style="stop-color:#FFFFFF"/>
						</linearGradient>
						<path class="st40" d="M38.91,58.07c-0.6-0.83,0.25-1.42,0.25-1.42c0.03-0.03,0.06-0.04,0.09-0.06
							c-0.01-0.04-0.03-0.06-0.04-0.1c0,0-0.34-0.97,0.64-1.29c0.98-0.31,1.75,0.61,1.94,1.22c0.11,0.34,0.25,0.65,0.18,0.97
							c0,0.03-0.01,0.05-0.02,0.08c-0.01,0.03-0.02,0.05-0.03,0.08c-0.13,0.29-0.43,0.46-0.72,0.68
							C40.68,58.61,39.51,58.89,38.91,58.07z"/>
						
							<linearGradient id="SVGID_34_" gradientUnits="userSpaceOnUse" x1="-102.0182" y1="530.0101" x2="-98.5135" y2="530.0101" gradientTransform="matrix(0.809 0.5878 0.5878 -0.809 -189.0307 547.5911)">
							<stop  offset="0" style="stop-color:#F7F7F0"/>
							<stop  offset="0.6031" style="stop-color:#FFFFFF"/>
							<stop  offset="1" style="stop-color:#FFFFFF"/>
						</linearGradient>
						<path class="st41" d="M41.95,61.68c-0.98,0.32-1.27-0.67-1.27-0.67c-0.01-0.04-0.01-0.07-0.03-0.11
							c-0.04,0-0.07,0.01-0.11,0.01c0,0-1.03,0.02-1.03-1c0-1.03,1.11-1.47,1.76-1.47c0.36,0.01,0.7-0.03,0.98,0.13
							c0.03,0.01,0.05,0.02,0.07,0.04c0.03,0.02,0.04,0.04,0.06,0.05c0.24,0.22,0.31,0.55,0.43,0.89
							C43.01,60.16,42.92,61.36,41.95,61.68z"/>
						
							<linearGradient id="SVGID_35_" gradientUnits="userSpaceOnUse" x1="105.1055" y1="208.6439" x2="108.6092" y2="208.6439" gradientTransform="matrix(0.809 -0.5878 -0.5878 -0.809 80.6303 291.4781)">
							<stop  offset="0" style="stop-color:#F7F7F0"/>
							<stop  offset="0.6031" style="stop-color:#FFFFFF"/>
							<stop  offset="1" style="stop-color:#FFFFFF"/>
						</linearGradient>
						<path class="st42" d="M46.32,59.9c0,1.03-1.03,1-1.03,1c-0.04,0-0.07-0.01-0.11-0.01c-0.01,0.04-0.01,0.07-0.03,0.11
							c0,0-0.29,0.99-1.27,0.67c-0.97-0.32-1.06-1.52-0.85-2.12c0.12-0.34,0.18-0.67,0.42-0.89c0.02-0.02,0.04-0.04,0.06-0.05
							c0.02-0.02,0.05-0.03,0.07-0.04c0.29-0.16,0.62-0.12,0.98-0.13C45.21,58.43,46.32,58.88,46.32,59.9z"/>
						
							<linearGradient id="SVGID_36_" gradientUnits="userSpaceOnUse" x1="-137.0543" y1="-87.0952" x2="-133.551" y2="-87.0952" gradientTransform="matrix(-0.309 -0.9511 -0.9511 0.309 -79.2696 -44.794)">
							<stop  offset="0" style="stop-color:#F7F7F0"/>
							<stop  offset="0.6031" style="stop-color:#FFFFFF"/>
							<stop  offset="1" style="stop-color:#FFFFFF"/>
						</linearGradient>
						<path class="st43" d="M45.99,55.2c0.98,0.31,0.63,1.29,0.63,1.29c-0.01,0.04-0.03,0.06-0.04,0.1c0.04,0.02,0.06,0.03,0.1,0.06
							c0,0,0.85,0.59,0.24,1.42c-0.61,0.83-1.77,0.54-2.28,0.15c-0.29-0.22-0.58-0.38-0.72-0.68c-0.01-0.03-0.03-0.04-0.04-0.07
							c-0.01-0.03-0.01-0.06-0.02-0.08c-0.07-0.32,0.07-0.63,0.18-0.97C44.24,55.8,45.01,54.88,45.99,55.2z"/>
					</g>
				</g>
				<g>
					<path class="st12" d="M44.84,57.8c0,1.07-0.86,1.93-1.93,1.93c-1.07,0-1.93-0.86-1.93-1.93c0-1.07,0.87-1.93,1.93-1.93
						C43.98,55.87,44.84,56.73,44.84,57.8z"/>
					<path class="st13" d="M44.55,58.08c0,0.75-0.6,1.35-1.35,1.35c-0.75,0-1.35-0.6-1.35-1.35c0-0.75,0.61-1.35,1.35-1.35
						C43.94,56.73,44.55,57.34,44.55,58.08z"/>
					<path class="st6" d="M44.84,57.8c0,1.07-0.86,1.93-1.93,1.93c-1.07,0-1.93-0.86-1.93-1.93c0-1.07,0.87-1.93,1.93-1.93
						C43.98,55.87,44.84,56.73,44.84,57.8z"/>
				</g>
			</g>
			<g>
				<g>
					<path class="st3" d="M34.98,57.8c0,4.17-3.38,7.55-7.55,7.55c-4.17,0-7.54-3.38-7.55-7.55c0-4.17,3.38-7.55,7.55-7.55
						S34.98,53.63,34.98,57.8z"/>
					<path class="st4" d="M34.8,58c0,3.96-3.21,7.17-7.17,7.17c-3.96,0-7.17-3.21-7.17-7.17c0-3.96,3.21-7.17,7.17-7.17
						S34.8,54.04,34.8,58z"/>
				</g>
				<g>
					<path class="st5" d="M21.77,58.08c0-3.28,2.66-5.94,5.94-5.94s5.94,2.66,5.94,5.94c0,3.28-2.66,5.94-5.94,5.94
						C24.43,64.02,21.78,61.36,21.77,58.08z"/>
					<path class="st3" d="M21.49,57.8c0-3.28,2.66-5.94,5.94-5.94s5.94,2.66,5.94,5.94c0,3.28-2.66,5.94-5.94,5.94
						C24.15,63.74,21.49,61.08,21.49,57.8z"/>
					<path class="st4" d="M22.1,58.22c0-3.18,2.58-5.76,5.76-5.76c3.18,0,5.76,2.58,5.76,5.76c0,3.18-2.58,5.76-5.76,5.76
						C24.68,63.98,22.1,61.41,22.1,58.22z"/>
					<path class="st6" d="M21.49,57.8c0-3.28,2.66-5.94,5.94-5.94s5.94,2.66,5.94,5.94c0,3.28-2.66,5.94-5.94,5.94
						C24.15,63.74,21.49,61.08,21.49,57.8z"/>
				</g>
				<g>
					<g>
						<path class="st3" d="M26.21,54.34c0.6-0.83,1.42-0.21,1.42-0.21c0.04,0.02,0.05,0.05,0.09,0.07c0.03-0.02,0.05-0.05,0.09-0.07
							c0,0,0.82-0.62,1.42,0.21c0.6,0.83-0.03,1.85-0.56,2.22c-0.29,0.21-0.54,0.44-0.87,0.47c-0.03,0-0.05,0.01-0.08,0.01
							c-0.03,0-0.05-0.01-0.08-0.01c-0.33-0.04-0.57-0.27-0.87-0.47C26.24,56.19,25.6,55.18,26.21,54.34z"/>
						<path class="st3" d="M23.71,58.35c-0.61-0.83,0.24-1.42,0.24-1.42c0.03-0.03,0.06-0.04,0.1-0.06
							c-0.01-0.04-0.03-0.06-0.04-0.1c0,0-0.34-0.97,0.64-1.29c0.98-0.31,1.75,0.61,1.94,1.22c0.11,0.34,0.25,0.65,0.18,0.97
							c0,0.03-0.01,0.05-0.02,0.08c-0.01,0.03-0.02,0.05-0.03,0.08c-0.14,0.29-0.43,0.46-0.72,0.68
							C25.48,58.89,24.31,59.18,23.71,58.35z"/>
						<path class="st3" d="M26.75,61.97c-0.98,0.32-1.27-0.67-1.27-0.67c-0.02-0.04-0.01-0.07-0.03-0.11
							c-0.04,0-0.07,0.01-0.11,0.01c0,0-1.03,0.02-1.03-1c0-1.03,1.12-1.47,1.76-1.47c0.36,0.01,0.7-0.03,0.98,0.13
							c0.03,0.01,0.05,0.02,0.07,0.04c0.03,0.02,0.04,0.04,0.06,0.05c0.24,0.22,0.31,0.55,0.43,0.89
							C27.81,60.45,27.72,61.64,26.75,61.97z"/>
						<path class="st3" d="M31.12,60.19c0.01,1.03-1.03,1-1.03,1c-0.04,0-0.07-0.01-0.11-0.01c-0.01,0.04-0.01,0.07-0.03,0.11
							c0,0-0.29,0.99-1.27,0.67c-0.97-0.32-1.06-1.52-0.85-2.12c0.12-0.34,0.18-0.67,0.43-0.89c0.02-0.02,0.04-0.04,0.06-0.05
							c0.03-0.02,0.05-0.03,0.07-0.04c0.29-0.16,0.62-0.12,0.98-0.13C30.01,58.71,31.12,59.16,31.12,60.19z"/>
						<path class="st3" d="M30.79,55.48c0.98,0.31,0.63,1.29,0.63,1.29c-0.01,0.04-0.03,0.06-0.04,0.1c0.03,0.02,0.07,0.03,0.1,0.06
							c0,0,0.85,0.59,0.24,1.42c-0.61,0.83-1.77,0.54-2.28,0.15c-0.29-0.22-0.58-0.38-0.71-0.68c-0.02-0.03-0.03-0.04-0.04-0.07
							c-0.01-0.03-0.01-0.06-0.02-0.08c-0.07-0.32,0.07-0.63,0.18-0.97C29.04,56.08,29.81,55.17,30.79,55.48z"/>
					</g>
					<g>
						
							<linearGradient id="SVGID_37_" gradientUnits="userSpaceOnUse" x1="-476.9887" y1="51.133" x2="-473.4861" y2="51.133" gradientTransform="matrix(-1 0 0 1 -447.8076 4.0605)">
							<stop  offset="0" style="stop-color:#F7F7F0"/>
							<stop  offset="0.6031" style="stop-color:#FFFFFF"/>
							<stop  offset="1" style="stop-color:#FFFFFF"/>
						</linearGradient>
						<path class="st44" d="M25.92,54.06c0.6-0.83,1.42-0.21,1.42-0.21c0.04,0.02,0.05,0.05,0.09,0.07
							c0.03-0.02,0.05-0.05,0.09-0.07c0,0,0.82-0.62,1.42,0.21c0.6,0.83-0.03,1.85-0.56,2.22c-0.29,0.21-0.54,0.44-0.87,0.47
							c-0.03,0-0.05,0.01-0.08,0.01c-0.03,0-0.05-0.01-0.08-0.01c-0.33-0.04-0.57-0.27-0.87-0.47
							C25.95,55.91,25.32,54.89,25.92,54.06z"/>
						
							<linearGradient id="SVGID_38_" gradientUnits="userSpaceOnUse" x1="-466.2916" y1="417.0921" x2="-462.7868" y2="417.0921" gradientTransform="matrix(-0.309 0.9511 0.9511 0.309 -515.2704 369.9239)">
							<stop  offset="0" style="stop-color:#F7F7F0"/>
							<stop  offset="0.6031" style="stop-color:#FFFFFF"/>
							<stop  offset="1" style="stop-color:#FFFFFF"/>
						</linearGradient>
						<path class="st45" d="M23.42,58.07c-0.61-0.83,0.24-1.42,0.24-1.42c0.03-0.03,0.06-0.04,0.1-0.06
							c-0.01-0.04-0.03-0.06-0.04-0.1c0,0-0.34-0.97,0.64-1.29c0.98-0.31,1.75,0.61,1.94,1.22c0.11,0.34,0.25,0.65,0.18,0.97
							c0,0.03-0.01,0.05-0.02,0.08c-0.01,0.03-0.02,0.05-0.03,0.08C26.29,57.83,26,58,25.7,58.22
							C25.19,58.61,24.03,58.89,23.42,58.07z"/>
						
							<linearGradient id="SVGID_39_" gradientUnits="userSpaceOnUse" x1="-114.5449" y1="520.9082" x2="-111.0405" y2="520.9082" gradientTransform="matrix(0.809 0.5878 0.5878 -0.809 -189.0307 547.5911)">
							<stop  offset="0" style="stop-color:#F7F7F0"/>
							<stop  offset="0.6031" style="stop-color:#FFFFFF"/>
							<stop  offset="1" style="stop-color:#FFFFFF"/>
						</linearGradient>
						<path class="st46" d="M26.46,61.68c-0.98,0.32-1.27-0.67-1.27-0.67c-0.02-0.04-0.01-0.07-0.03-0.11
							c-0.04,0-0.07,0.01-0.11,0.01c0,0-1.03,0.02-1.03-1c0-1.03,1.12-1.47,1.76-1.47c0.36,0.01,0.7-0.03,0.98,0.13
							c0.03,0.01,0.05,0.02,0.07,0.04c0.03,0.02,0.04,0.04,0.06,0.05c0.24,0.22,0.31,0.55,0.43,0.89
							C27.52,60.16,27.44,61.36,26.46,61.68z"/>
						
							<linearGradient id="SVGID_40_" gradientUnits="userSpaceOnUse" x1="92.5785" y1="217.7455" x2="96.0815" y2="217.7455" gradientTransform="matrix(0.809 -0.5878 -0.5878 -0.809 80.6303 291.4781)">
							<stop  offset="0" style="stop-color:#F7F7F0"/>
							<stop  offset="0.6031" style="stop-color:#FFFFFF"/>
							<stop  offset="1" style="stop-color:#FFFFFF"/>
						</linearGradient>
						<path class="st47" d="M30.84,59.9c0.01,1.03-1.03,1-1.03,1c-0.04,0-0.07-0.01-0.11-0.01c-0.01,0.04-0.01,0.07-0.03,0.11
							c0,0-0.29,0.99-1.27,0.67c-0.97-0.32-1.06-1.52-0.85-2.12c0.12-0.34,0.18-0.67,0.43-0.89c0.02-0.02,0.04-0.04,0.06-0.05
							c0.03-0.02,0.05-0.03,0.07-0.04c0.29-0.16,0.62-0.12,0.98-0.13C29.73,58.43,30.84,58.88,30.84,59.9z"/>
						
							<linearGradient id="SVGID_41_" gradientUnits="userSpaceOnUse" x1="-132.2698" y1="-72.3687" x2="-128.7668" y2="-72.3687" gradientTransform="matrix(-0.309 -0.9511 -0.9511 0.309 -79.2696 -44.794)">
							<stop  offset="0" style="stop-color:#F7F7F0"/>
							<stop  offset="0.6031" style="stop-color:#FFFFFF"/>
							<stop  offset="1" style="stop-color:#FFFFFF"/>
						</linearGradient>
						<path class="st48" d="M30.51,55.2c0.98,0.31,0.63,1.29,0.63,1.29c-0.01,0.04-0.03,0.06-0.04,0.1c0.03,0.02,0.07,0.03,0.1,0.06
							c0,0,0.85,0.59,0.24,1.42c-0.61,0.83-1.77,0.54-2.28,0.15c-0.29-0.22-0.58-0.38-0.71-0.68c-0.02-0.03-0.03-0.04-0.04-0.07
							c-0.01-0.03-0.01-0.06-0.02-0.08c-0.07-0.32,0.07-0.63,0.18-0.97C28.76,55.8,29.53,54.88,30.51,55.2z"/>
					</g>
				</g>
				<g>
					<path class="st12" d="M29.36,57.8c0,1.07-0.86,1.93-1.93,1.93c-1.07,0-1.93-0.86-1.93-1.93s0.87-1.93,1.93-1.93
						C28.5,55.87,29.36,56.73,29.36,57.8z"/>
					<path class="st13" d="M29.06,58.08c0,0.75-0.6,1.35-1.35,1.35c-0.75,0-1.35-0.6-1.35-1.35c0-0.75,0.61-1.35,1.35-1.35
						C28.46,56.73,29.07,57.34,29.06,58.08z"/>
					<path class="st6" d="M29.36,57.8c0,1.07-0.86,1.93-1.93,1.93c-1.07,0-1.93-0.86-1.93-1.93s0.87-1.93,1.93-1.93
						C28.5,55.87,29.36,56.73,29.36,57.8z"/>
				</g>
			</g>
			<g>
				<g>
					<path class="st3" d="M19.49,57.8c0,4.17-3.38,7.55-7.55,7.55c-4.17,0-7.54-3.38-7.55-7.55c0-4.17,3.38-7.55,7.55-7.55
						S19.49,53.63,19.49,57.8z"/>
					<path class="st4" d="M19.31,58c0,3.96-3.21,7.17-7.17,7.17c-3.96,0-7.17-3.21-7.17-7.17c0-3.96,3.21-7.17,7.17-7.17
						C16.1,50.83,19.31,54.04,19.31,58z"/>
				</g>
				<g>
					<path class="st5" d="M6.29,58.08c0-3.28,2.66-5.94,5.94-5.94s5.94,2.66,5.94,5.94c0,3.28-2.66,5.94-5.94,5.94
						C8.95,64.02,6.29,61.36,6.29,58.08z"/>
					<path class="st3" d="M6.01,57.8c0-3.28,2.66-5.94,5.94-5.94s5.94,2.66,5.94,5.94c0,3.28-2.66,5.94-5.94,5.94
						C8.67,63.74,6.01,61.08,6.01,57.8z"/>
					<path class="st4" d="M6.61,58.22c0-3.18,2.58-5.76,5.76-5.76c3.18,0,5.76,2.58,5.76,5.76c0,3.18-2.58,5.76-5.76,5.76
						C9.19,63.98,6.61,61.41,6.61,58.22z"/>
					<path class="st6" d="M6.01,57.8c0-3.28,2.66-5.94,5.94-5.94s5.94,2.66,5.94,5.94c0,3.28-2.66,5.94-5.94,5.94
						C8.67,63.74,6.01,61.08,6.01,57.8z"/>
				</g>
				<g>
					<g>
						<path class="st3" d="M10.72,54.34c0.6-0.83,1.42-0.21,1.42-0.21c0.04,0.02,0.05,0.05,0.09,0.07c0.03-0.02,0.05-0.05,0.09-0.07
							c0,0,0.82-0.62,1.42,0.21c0.6,0.83-0.03,1.85-0.56,2.22c-0.29,0.21-0.54,0.44-0.87,0.47c-0.03,0-0.05,0.01-0.08,0.01
							c-0.03,0-0.05-0.01-0.08-0.01c-0.33-0.04-0.57-0.27-0.87-0.47C10.75,56.19,10.12,55.18,10.72,54.34z"/>
						<path class="st3" d="M8.22,58.35c-0.61-0.83,0.24-1.42,0.24-1.42c0.03-0.03,0.06-0.04,0.1-0.06c-0.01-0.04-0.03-0.06-0.04-0.1
							c0,0-0.34-0.97,0.64-1.29c0.98-0.31,1.75,0.61,1.94,1.22c0.11,0.34,0.25,0.65,0.18,0.97c0,0.03-0.01,0.05-0.02,0.08
							c-0.01,0.03-0.02,0.05-0.03,0.08c-0.14,0.29-0.43,0.46-0.72,0.68C9.99,58.89,8.83,59.18,8.22,58.35z"/>
						<path class="st3" d="M11.26,61.97c-0.98,0.32-1.27-0.67-1.27-0.67c-0.02-0.04-0.01-0.07-0.03-0.11
							c-0.04,0-0.07,0.01-0.11,0.01c0,0-1.03,0.02-1.03-1c0-1.03,1.12-1.47,1.76-1.47c0.36,0.01,0.7-0.03,0.98,0.13
							c0.03,0.01,0.05,0.02,0.07,0.04c0.03,0.02,0.04,0.04,0.06,0.05c0.24,0.22,0.31,0.55,0.43,0.89
							C12.32,60.45,12.24,61.64,11.26,61.97z"/>
						<path class="st3" d="M15.64,60.19c0.01,1.03-1.03,1-1.03,1c-0.04,0-0.07-0.01-0.11-0.01c-0.01,0.04-0.01,0.07-0.03,0.11
							c0,0-0.3,0.99-1.27,0.67c-0.97-0.32-1.06-1.52-0.85-2.12c0.12-0.34,0.18-0.67,0.43-0.89c0.02-0.02,0.04-0.04,0.06-0.05
							c0.03-0.02,0.05-0.03,0.07-0.04c0.29-0.16,0.62-0.12,0.98-0.13C14.52,58.71,15.63,59.16,15.64,60.19z"/>
						<path class="st3" d="M15.3,55.48c0.98,0.31,0.63,1.29,0.63,1.29c-0.01,0.04-0.03,0.06-0.04,0.1c0.03,0.02,0.07,0.03,0.1,0.06
							c0,0,0.85,0.59,0.24,1.42c-0.61,0.83-1.77,0.54-2.28,0.15c-0.29-0.22-0.58-0.38-0.71-0.68c-0.02-0.03-0.03-0.04-0.04-0.07
							c-0.01-0.03-0.01-0.06-0.02-0.08c-0.07-0.32,0.07-0.63,0.18-0.97C13.56,56.08,14.33,55.17,15.3,55.48z"/>
					</g>
					<g>
						
							<linearGradient id="SVGID_42_" gradientUnits="userSpaceOnUse" x1="-461.5043" y1="51.133" x2="-458.0017" y2="51.133" gradientTransform="matrix(-1 0 0 1 -447.8076 4.0605)">
							<stop  offset="0" style="stop-color:#F7F7F0"/>
							<stop  offset="0.6031" style="stop-color:#FFFFFF"/>
							<stop  offset="1" style="stop-color:#FFFFFF"/>
						</linearGradient>
						<path class="st49" d="M10.44,54.06c0.6-0.83,1.42-0.21,1.42-0.21c0.04,0.02,0.05,0.05,0.09,0.07
							c0.03-0.02,0.05-0.05,0.09-0.07c0,0,0.82-0.62,1.42,0.21c0.6,0.83-0.03,1.85-0.56,2.22c-0.29,0.21-0.54,0.44-0.87,0.47
							c-0.03,0-0.05,0.01-0.08,0.01c-0.03,0-0.05-0.01-0.08-0.01c-0.33-0.04-0.57-0.27-0.87-0.47
							C10.47,55.91,9.84,54.89,10.44,54.06z"/>
						
							<linearGradient id="SVGID_43_" gradientUnits="userSpaceOnUse" x1="-461.5072" y1="402.3659" x2="-458.0025" y2="402.3659" gradientTransform="matrix(-0.309 0.9511 0.9511 0.309 -515.2704 369.9239)">
							<stop  offset="0" style="stop-color:#F7F7F0"/>
							<stop  offset="0.6031" style="stop-color:#FFFFFF"/>
							<stop  offset="1" style="stop-color:#FFFFFF"/>
						</linearGradient>
						<path class="st50" d="M7.94,58.07c-0.61-0.83,0.24-1.42,0.24-1.42c0.03-0.03,0.06-0.04,0.1-0.06
							c-0.01-0.04-0.03-0.06-0.04-0.1c0,0-0.34-0.97,0.64-1.29c0.98-0.31,1.75,0.61,1.94,1.22c0.11,0.34,0.25,0.65,0.18,0.97
							c0,0.03-0.01,0.05-0.02,0.08c-0.01,0.03-0.02,0.05-0.03,0.08c-0.14,0.29-0.43,0.46-0.72,0.68
							C9.71,58.61,8.55,58.89,7.94,58.07z"/>
						
							<linearGradient id="SVGID_44_" gradientUnits="userSpaceOnUse" x1="-127.0718" y1="511.8064" x2="-123.5674" y2="511.8064" gradientTransform="matrix(0.809 0.5878 0.5878 -0.809 -189.0307 547.5911)">
							<stop  offset="0" style="stop-color:#F7F7F0"/>
							<stop  offset="0.6031" style="stop-color:#FFFFFF"/>
							<stop  offset="1" style="stop-color:#FFFFFF"/>
						</linearGradient>
						<path class="st51" d="M10.98,61.68C10,62,9.71,61.01,9.71,61.01c-0.02-0.04-0.01-0.07-0.03-0.11c-0.04,0-0.07,0.01-0.11,0.01
							c0,0-1.03,0.02-1.03-1c0-1.03,1.12-1.47,1.76-1.47c0.36,0.01,0.7-0.03,0.98,0.13c0.03,0.01,0.05,0.02,0.07,0.04
							c0.03,0.02,0.04,0.04,0.06,0.05c0.24,0.22,0.31,0.55,0.43,0.89C12.04,60.16,11.95,61.36,10.98,61.68z"/>
						
							<linearGradient id="SVGID_45_" gradientUnits="userSpaceOnUse" x1="80.0515" y1="226.8473" x2="83.5545" y2="226.8473" gradientTransform="matrix(0.809 -0.5878 -0.5878 -0.809 80.6303 291.4781)">
							<stop  offset="0" style="stop-color:#F7F7F0"/>
							<stop  offset="0.6031" style="stop-color:#FFFFFF"/>
							<stop  offset="1" style="stop-color:#FFFFFF"/>
						</linearGradient>
						<path class="st52" d="M15.35,59.9c0.01,1.03-1.03,1-1.03,1c-0.04,0-0.07-0.01-0.11-0.01c-0.01,0.04-0.01,0.07-0.03,0.11
							c0,0-0.29,0.99-1.27,0.67c-0.97-0.32-1.06-1.52-0.85-2.12c0.12-0.34,0.18-0.67,0.43-0.89c0.02-0.02,0.04-0.04,0.06-0.05
							c0.03-0.02,0.05-0.03,0.07-0.04c0.29-0.16,0.62-0.12,0.98-0.13C14.24,58.43,15.35,58.88,15.35,59.9z"/>
						
							<linearGradient id="SVGID_46_" gradientUnits="userSpaceOnUse" x1="-127.4854" y1="-57.6426" x2="-123.9825" y2="-57.6426" gradientTransform="matrix(-0.309 -0.9511 -0.9511 0.309 -79.2696 -44.794)">
							<stop  offset="0" style="stop-color:#F7F7F0"/>
							<stop  offset="0.6031" style="stop-color:#FFFFFF"/>
							<stop  offset="1" style="stop-color:#FFFFFF"/>
						</linearGradient>
						<path class="st53" d="M15.02,55.2c0.98,0.31,0.63,1.29,0.63,1.29c-0.01,0.04-0.03,0.06-0.04,0.1c0.03,0.02,0.07,0.03,0.1,0.06
							c0,0,0.85,0.59,0.24,1.42c-0.61,0.83-1.77,0.54-2.28,0.15c-0.29-0.22-0.58-0.38-0.71-0.68c-0.02-0.03-0.03-0.04-0.04-0.07
							c-0.01-0.03-0.01-0.06-0.02-0.08c-0.07-0.32,0.07-0.63,0.18-0.97C13.27,55.8,14.04,54.88,15.02,55.2z"/>
					</g>
				</g>
				<g>
					<path class="st12" d="M13.87,57.8c0,1.07-0.86,1.93-1.93,1.93c-1.07,0-1.93-0.86-1.93-1.93s0.87-1.93,1.93-1.93
						C13.01,55.87,13.88,56.73,13.87,57.8z"/>
					<path class="st13" d="M13.58,58.08c0,0.75-0.61,1.35-1.35,1.35c-0.75,0-1.35-0.6-1.35-1.35c0-0.75,0.61-1.35,1.35-1.35
						C12.97,56.73,13.58,57.34,13.58,58.08z"/>
					<path class="st6" d="M13.87,57.8c0,1.07-0.86,1.93-1.93,1.93c-1.07,0-1.93-0.86-1.93-1.93s0.87-1.93,1.93-1.93
						C13.01,55.87,13.88,56.73,13.87,57.8z"/>
				</g>
			</g>
		</g>
	</g>
</g>
</svg>
