<?xml version="1.0" encoding="utf-8"?>
<!-- Generator: Adobe Illustrator 25.3.1, SVG Export Plug-In . SVG Version: 6.00 Build 0)  -->
<svg version="1.1" id="圖層_1" xmlns="http://www.w3.org/2000/svg" xmlns:xlink="http://www.w3.org/1999/xlink" x="0px" y="0px"
	 viewBox="0 0 54.86 74.7" style="enable-background:new 0 0 54.86 74.7;" xml:space="preserve">
<style type="text/css">
	.st0{fill:#EFEEE8;stroke:#000000;}
	.st1{fill:#FFFFFF;}
	.st2{fill:url(#SVGID_1_);}
	.st3{fill:#002D12;}
	.st4{fill:#004A2A;}
	.st5{fill:none;stroke:#002D12;stroke-width:0.65;stroke-miterlimit:10;}
	.st6{fill:#6F0005;}
	.st7{fill:#99161C;}
	.st8{fill:none;stroke:#FFFFFF;stroke-width:0.65;stroke-miterlimit:10;}
	.st9{fill:url(#SVGID_2_);}
	.st10{fill:url(#SVGID_3_);}
	.st11{fill:url(#SVGID_4_);}
	.st12{fill:url(#SVGID_5_);}
	.st13{fill:url(#SVGID_6_);}
	.st14{fill:url(#SVGID_7_);}
	.st15{fill:url(#SVGID_8_);}
	.st16{fill:url(#SVGID_9_);}
	.st17{fill:url(#SVGID_10_);}
	.st18{fill:url(#SVGID_11_);}
	.st19{fill:url(#SVGID_12_);}
	.st20{fill:url(#SVGID_13_);}
	.st21{fill:url(#SVGID_14_);}
	.st22{fill:url(#SVGID_15_);}
	.st23{fill:url(#SVGID_16_);}
</style>
<g>
	<g>
		<g>
			<path class="st0" d="M48.69,0.5H6.17C3.05,0.5,0.5,3.05,0.5,6.17v62.36c0,3.12,2.55,5.67,5.67,5.67h42.52
				c3.12,0,5.67-2.55,5.67-5.67V6.17C54.36,3.05,51.81,0.5,48.69,0.5L48.69,0.5z"/>
		</g>
		<path class="st1" d="M48.69,3.5c1.47,0,2.67,1.2,2.67,2.67v62.36c0,1.47-1.2,2.67-2.67,2.67H6.17C4.7,71.2,3.5,70,3.5,68.53V6.17
			C3.5,4.7,4.7,3.5,6.17,3.5H48.69"/>
		<linearGradient id="SVGID_1_" gradientUnits="userSpaceOnUse" x1="0.0347" y1="64.7454" x2="54.8238" y2="9.9562">
			<stop  offset="0" style="stop-color:#F8F7F0"/>
			<stop  offset="0.6031" style="stop-color:#FFFFFF"/>
			<stop  offset="1" style="stop-color:#FFFFFF"/>
		</linearGradient>
		<path class="st2" d="M48.69,4.5c0.9,0,1.67,0.76,1.67,1.67v62.36c0,0.91-0.76,1.67-1.67,1.67H6.17c-0.9,0-1.67-0.76-1.67-1.67
			V6.17c0-0.91,0.76-1.67,1.67-1.67H48.69"/>
	</g>
	<g>
		<g>
			<g>
				<path class="st3" d="M37.02,37.35c0,5.3-4.3,9.6-9.6,9.6c-5.3,0-9.59-4.29-9.59-9.6c0-5.3,4.3-9.59,9.59-9.59
					C32.73,27.76,37.02,32.05,37.02,37.35z"/>
				<path class="st4" d="M36.74,37.55c0,5.04-4.08,9.12-9.12,9.12c-5.03,0-9.11-4.08-9.11-9.12c0-5.03,4.08-9.11,9.11-9.11
					C32.66,28.43,36.74,32.51,36.74,37.55z"/>
			</g>
			<g>
				<path class="st5" d="M20.16,37.63c0-4.17,3.38-7.55,7.55-7.55c4.17,0,7.55,3.38,7.55,7.55c0,4.17-3.38,7.55-7.55,7.55
					C23.54,45.18,20.16,41.8,20.16,37.63z"/>
				<path class="st6" d="M19.88,37.35c0-4.17,3.38-7.55,7.55-7.55c4.17,0,7.55,3.38,7.55,7.55c0,4.17-3.38,7.55-7.55,7.55
					C23.26,44.9,19.88,41.52,19.88,37.35z"/>
				<path class="st7" d="M20.53,37.78c0-4.04,3.28-7.32,7.32-7.32c4.04,0,7.33,3.28,7.33,7.32c0,4.05-3.28,7.32-7.33,7.32
					C23.81,45.1,20.53,41.82,20.53,37.78z"/>
				<path class="st8" d="M19.88,37.35c0-4.17,3.38-7.55,7.55-7.55c4.17,0,7.55,3.38,7.55,7.55c0,4.17-3.38,7.55-7.55,7.55
					C23.26,44.9,19.88,41.52,19.88,37.35z"/>
			</g>
			<g>
				<g>
					<path class="st6" d="M25.72,32.7c0.79-1.1,1.88-0.27,1.88-0.27c0.05,0.03,0.07,0.07,0.11,0.1c0.04-0.03,0.07-0.07,0.11-0.1
						c0,0,1.09-0.82,1.88,0.27c0.79,1.1-0.04,2.44-0.74,2.93c-0.39,0.27-0.72,0.58-1.15,0.62c-0.03,0.01-0.07,0.01-0.11,0.01
						c-0.04,0-0.07-0.01-0.11-0.01c-0.43-0.05-0.76-0.35-1.15-0.62C25.76,35.14,24.93,33.8,25.72,32.7z"/>
					<path class="st6" d="M22.42,37.99c-0.8-1.1,0.32-1.87,0.32-1.87c0.04-0.03,0.08-0.05,0.13-0.08c-0.02-0.05-0.04-0.09-0.06-0.14
						c0,0-0.45-1.29,0.84-1.7c1.29-0.41,2.31,0.8,2.56,1.61c0.14,0.45,0.33,0.86,0.24,1.28c-0.01,0.04-0.01,0.07-0.02,0.11
						c-0.01,0.04-0.03,0.07-0.05,0.1c-0.18,0.39-0.57,0.61-0.95,0.9C24.76,38.71,23.22,39.09,22.42,37.99z"/>
					<path class="st6" d="M26.44,42.76c-1.29,0.42-1.68-0.88-1.68-0.88c-0.02-0.05-0.02-0.1-0.03-0.15c-0.05,0-0.09,0.02-0.15,0.01
						c0,0-1.36,0.03-1.36-1.32c0-1.35,1.47-1.95,2.32-1.94c0.48,0.01,0.92-0.04,1.29,0.17c0.03,0.02,0.06,0.03,0.09,0.06
						c0.03,0.02,0.05,0.04,0.08,0.07c0.32,0.29,0.41,0.73,0.56,1.18C27.83,40.76,27.72,42.34,26.44,42.76z"/>
					<path class="st6" d="M32.21,40.42c0,1.35-1.36,1.32-1.36,1.32c-0.05,0-0.09-0.01-0.15-0.01c-0.01,0.05-0.01,0.09-0.04,0.15
						c0,0-0.39,1.3-1.68,0.88c-1.29-0.42-1.4-2-1.13-2.8c0.15-0.45,0.24-0.89,0.56-1.18c0.02-0.03,0.05-0.05,0.08-0.07
						c0.03-0.02,0.06-0.04,0.09-0.05c0.38-0.21,0.82-0.16,1.3-0.17C30.74,38.47,32.21,39.06,32.21,40.42z"/>
					<path class="st6" d="M31.77,34.2c1.29,0.42,0.84,1.7,0.84,1.7c-0.01,0.05-0.04,0.09-0.06,0.14c0.04,0.03,0.09,0.04,0.13,0.08
						c0,0,1.12,0.78,0.32,1.87c-0.8,1.09-2.34,0.71-3.01,0.2c-0.38-0.29-0.77-0.51-0.95-0.9c-0.02-0.03-0.03-0.06-0.04-0.1
						c-0.01-0.04-0.02-0.07-0.02-0.11c-0.09-0.43,0.1-0.83,0.24-1.29C29.46,35,30.48,33.79,31.77,34.2z"/>
				</g>
				<g>
					
						<linearGradient id="SVGID_2_" gradientUnits="userSpaceOnUse" x1="-1508.5469" y1="33.9145" x2="-1503.9211" y2="33.9145" gradientTransform="matrix(-1 0 0 1 -1478.8063 0)">
						<stop  offset="0" style="stop-color:#F8F7F0"/>
						<stop  offset="0.6031" style="stop-color:#FFFFFF"/>
						<stop  offset="1" style="stop-color:#FFFFFF"/>
					</linearGradient>
					<path class="st9" d="M25.44,32.42c0.79-1.1,1.88-0.27,1.88-0.27c0.05,0.03,0.07,0.07,0.11,0.1c0.04-0.03,0.07-0.07,0.11-0.1
						c0,0,1.08-0.83,1.88,0.27c0.79,1.1-0.04,2.44-0.74,2.93c-0.39,0.27-0.72,0.58-1.15,0.62c-0.03,0-0.07,0.01-0.11,0.01
						c-0.04,0-0.07-0.01-0.11-0.01c-0.43-0.05-0.76-0.35-1.15-0.62C25.48,34.86,24.64,33.51,25.44,32.42z"/>
					
						<linearGradient id="SVGID_3_" gradientUnits="userSpaceOnUse" x1="-1409.7518" y1="1075.87" x2="-1405.1252" y2="1075.87" gradientTransform="matrix(-0.309 0.9511 0.9511 0.309 -1433.9792 1042.4485)">
						<stop  offset="0" style="stop-color:#F8F7F0"/>
						<stop  offset="0.6031" style="stop-color:#FFFFFF"/>
						<stop  offset="1" style="stop-color:#FFFFFF"/>
					</linearGradient>
					<path class="st10" d="M22.14,37.71c-0.8-1.09,0.32-1.87,0.32-1.87c0.04-0.03,0.08-0.05,0.13-0.08
						c-0.02-0.05-0.04-0.09-0.06-0.14c0,0-0.45-1.29,0.84-1.7c1.29-0.41,2.31,0.8,2.56,1.61c0.14,0.45,0.33,0.86,0.24,1.28
						c-0.01,0.04-0.01,0.07-0.02,0.11c-0.01,0.04-0.03,0.06-0.05,0.1c-0.18,0.39-0.57,0.61-0.95,0.9
						C24.47,38.42,22.94,38.8,22.14,37.71z"/>
					
						<linearGradient id="SVGID_4_" gradientUnits="userSpaceOnUse" x1="-387.9153" y1="1304.8285" x2="-383.289" y2="1304.8285" gradientTransform="matrix(0.809 0.5878 0.5878 -0.809 -429.6049 1322.3607)">
						<stop  offset="0" style="stop-color:#F8F7F0"/>
						<stop  offset="0.6031" style="stop-color:#FFFFFF"/>
						<stop  offset="1" style="stop-color:#FFFFFF"/>
					</linearGradient>
					<path class="st11" d="M26.15,42.48c-1.29,0.42-1.68-0.88-1.68-0.88c-0.02-0.05-0.02-0.1-0.03-0.15c-0.05,0-0.09,0.02-0.15,0.01
						c0,0-1.36,0.03-1.36-1.32c0-1.35,1.47-1.95,2.32-1.94c0.48,0.01,0.92-0.04,1.29,0.17c0.03,0.02,0.06,0.03,0.09,0.06
						c0.03,0.02,0.05,0.05,0.08,0.07c0.32,0.29,0.41,0.73,0.56,1.18C27.55,40.48,27.44,42.06,26.15,42.48z"/>
					
						<linearGradient id="SVGID_5_" gradientUnits="userSpaceOnUse" x1="145.3111" y1="402.9864" x2="149.9359" y2="402.9864" gradientTransform="matrix(0.809 -0.5878 -0.5878 -0.809 146.8864 452.8834)">
						<stop  offset="0" style="stop-color:#F8F7F0"/>
						<stop  offset="0.6031" style="stop-color:#FFFFFF"/>
						<stop  offset="1" style="stop-color:#FFFFFF"/>
					</linearGradient>
					<path class="st12" d="M31.93,40.13c0,1.35-1.36,1.32-1.36,1.32c-0.05,0-0.09-0.01-0.15-0.01c-0.01,0.05-0.01,0.09-0.04,0.15
						c0,0-0.39,1.3-1.68,0.88c-1.29-0.42-1.4-2-1.13-2.8c0.15-0.45,0.24-0.89,0.56-1.18c0.02-0.03,0.05-0.05,0.08-0.07
						c0.03-0.02,0.06-0.04,0.09-0.05c0.38-0.22,0.82-0.16,1.3-0.17C30.46,38.19,31.92,38.78,31.93,40.13z"/>
					
						<linearGradient id="SVGID_6_" gradientUnits="userSpaceOnUse" x1="-548.12" y1="-382.2181" x2="-543.4943" y2="-382.2181" gradientTransform="matrix(-0.309 -0.9511 -0.9511 0.309 -501.5038 -364.7375)">
						<stop  offset="0" style="stop-color:#F8F7F0"/>
						<stop  offset="0.6031" style="stop-color:#FFFFFF"/>
						<stop  offset="1" style="stop-color:#FFFFFF"/>
					</linearGradient>
					<path class="st13" d="M31.49,33.92c1.29,0.42,0.84,1.7,0.84,1.7c-0.01,0.05-0.04,0.09-0.06,0.14c0.04,0.03,0.09,0.04,0.13,0.08
						c0,0,1.12,0.78,0.32,1.87c-0.8,1.09-2.33,0.71-3.01,0.2c-0.38-0.29-0.77-0.51-0.95-0.9c-0.02-0.03-0.03-0.06-0.04-0.09
						c-0.01-0.04-0.02-0.07-0.02-0.11c-0.09-0.42,0.1-0.83,0.24-1.28C29.18,34.71,30.2,33.5,31.49,33.92z"/>
				</g>
			</g>
			<g>
				<path class="st6" d="M29.76,37.35c0,1.29-1.04,2.33-2.33,2.33c-1.29,0-2.33-1.04-2.33-2.33c0-1.29,1.04-2.33,2.33-2.33
					C28.71,35.02,29.76,36.06,29.76,37.35z"/>
				<path class="st7" d="M29.34,37.63c0,0.9-0.73,1.63-1.63,1.63c-0.9,0-1.63-0.73-1.63-1.63c0-0.9,0.73-1.63,1.63-1.63
					C28.61,36,29.34,36.73,29.34,37.63z"/>
				<path class="st8" d="M29.76,37.35c0,1.29-1.04,2.33-2.33,2.33c-1.29,0-2.33-1.04-2.33-2.33c0-1.29,1.04-2.33,2.33-2.33
					C28.71,35.02,29.76,36.06,29.76,37.35z"/>
			</g>
		</g>
		<g>
			<g>
				<path class="st3" d="M24.53,20.15c0,5.3-4.3,9.6-9.6,9.6c-5.3,0-9.59-4.3-9.59-9.6c0-5.3,4.3-9.59,9.59-9.59
					C20.23,10.56,24.53,14.85,24.53,20.15z"/>
				<path class="st4" d="M24.25,20.35c0,5.04-4.08,9.12-9.12,9.12c-5.03,0-9.11-4.08-9.11-9.12c0-5.03,4.08-9.11,9.11-9.11
					C20.16,11.23,24.25,15.32,24.25,20.35z"/>
			</g>
			<g>
				<path class="st5" d="M7.67,20.44c0-4.17,3.38-7.55,7.55-7.55c4.17,0,7.55,3.38,7.55,7.55c0,4.17-3.38,7.55-7.55,7.55
					C11.05,27.98,7.67,24.6,7.67,20.44z"/>
				<path class="st3" d="M7.38,20.15c0-4.17,3.38-7.55,7.55-7.55c4.17,0,7.55,3.38,7.55,7.55c0,4.17-3.38,7.55-7.55,7.55
					C10.76,27.7,7.38,24.32,7.38,20.15z"/>
				<path class="st4" d="M8.04,20.58c0-4.04,3.28-7.32,7.32-7.32c4.04,0,7.33,3.28,7.33,7.32c0,4.04-3.28,7.32-7.33,7.32
					C11.31,27.9,8.04,24.62,8.04,20.58z"/>
				<path class="st8" d="M7.38,20.15c0-4.17,3.38-7.55,7.55-7.55c4.17,0,7.55,3.38,7.55,7.55c0,4.17-3.38,7.55-7.55,7.55
					C10.76,27.7,7.38,24.32,7.38,20.15z"/>
			</g>
			<g>
				<g>
					<path class="st3" d="M13.23,15.5c0.79-1.1,1.88-0.27,1.88-0.27c0.04,0.03,0.07,0.07,0.11,0.1c0.04-0.03,0.07-0.07,0.11-0.1
						c0,0,1.08-0.83,1.88,0.27c0.79,1.1-0.04,2.44-0.74,2.93c-0.39,0.27-0.72,0.58-1.15,0.62c-0.03,0.01-0.07,0.01-0.11,0.01
						c-0.04,0-0.07-0.01-0.11-0.01c-0.43-0.05-0.76-0.35-1.15-0.62C13.27,17.94,12.43,16.6,13.23,15.5z"/>
					<path class="st3" d="M9.93,20.79c-0.8-1.1,0.32-1.87,0.32-1.87c0.04-0.03,0.08-0.05,0.13-0.08c-0.02-0.05-0.04-0.08-0.06-0.14
						c0,0-0.45-1.28,0.84-1.7c1.29-0.41,2.31,0.8,2.56,1.61c0.14,0.45,0.33,0.86,0.24,1.28c-0.01,0.04-0.01,0.07-0.02,0.11
						c-0.01,0.04-0.03,0.06-0.05,0.1c-0.18,0.39-0.57,0.61-0.95,0.9C12.26,21.51,10.73,21.89,9.93,20.79z"/>
					<path class="st3" d="M13.94,25.56c-1.29,0.42-1.68-0.88-1.68-0.88c-0.02-0.05-0.02-0.1-0.03-0.15c-0.05,0-0.09,0.02-0.15,0.01
						c0,0-1.36,0.03-1.36-1.32c0-1.35,1.47-1.95,2.32-1.94c0.47,0.01,0.92-0.04,1.29,0.17c0.03,0.02,0.06,0.03,0.09,0.06
						c0.03,0.02,0.06,0.05,0.08,0.07c0.32,0.29,0.41,0.73,0.56,1.18C15.34,23.56,15.23,25.14,13.94,25.56z"/>
					<path class="st3" d="M19.72,23.22c0.01,1.35-1.36,1.32-1.36,1.32c-0.05,0-0.09-0.01-0.15-0.01c-0.02,0.05-0.01,0.09-0.04,0.15
						c0,0-0.39,1.3-1.68,0.88c-1.29-0.42-1.4-2-1.12-2.8c0.15-0.45,0.24-0.89,0.56-1.18c0.03-0.03,0.05-0.05,0.08-0.07
						c0.03-0.02,0.06-0.04,0.09-0.05c0.38-0.22,0.82-0.16,1.3-0.17C18.25,21.27,19.71,21.87,19.72,23.22z"/>
					<path class="st3" d="M19.28,17c1.29,0.42,0.84,1.7,0.84,1.7c-0.01,0.05-0.04,0.09-0.06,0.14c0.04,0.03,0.09,0.04,0.13,0.08
						c0,0,1.12,0.78,0.32,1.87c-0.8,1.09-2.34,0.71-3.02,0.2c-0.38-0.29-0.77-0.51-0.95-0.9c-0.02-0.03-0.03-0.06-0.04-0.1
						c-0.01-0.04-0.02-0.07-0.02-0.11c-0.09-0.43,0.1-0.83,0.24-1.29C16.97,17.8,17.98,16.59,19.28,17z"/>
				</g>
				<g>
					
						<linearGradient id="SVGID_7_" gradientUnits="userSpaceOnUse" x1="-1508.5471" y1="12.6556" x2="-1503.9219" y2="12.6556" gradientTransform="matrix(-1 0 0 1 -1491.3024 4.0605)">
						<stop  offset="0" style="stop-color:#F8F7F0"/>
						<stop  offset="0.6031" style="stop-color:#FFFFFF"/>
						<stop  offset="1" style="stop-color:#FFFFFF"/>
					</linearGradient>
					<path class="st14" d="M12.94,15.22c0.79-1.1,1.88-0.27,1.88-0.27c0.04,0.03,0.07,0.07,0.11,0.1c0.04-0.03,0.07-0.07,0.11-0.1
						c0,0,1.08-0.83,1.88,0.27c0.79,1.1-0.04,2.44-0.74,2.93c-0.39,0.27-0.72,0.58-1.15,0.63c-0.03,0.01-0.07,0.01-0.11,0.01
						c-0.04,0-0.07-0.01-0.11-0.01c-0.43-0.05-0.76-0.35-1.15-0.62C12.98,17.66,12.15,16.32,12.94,15.22z"/>
					
						<linearGradient id="SVGID_8_" gradientUnits="userSpaceOnUse" x1="-1429.9709" y1="1069.3009" x2="-1425.3435" y2="1069.3009" gradientTransform="matrix(-0.309 0.9511 0.9511 0.309 -1446.4749 1046.5089)">
						<stop  offset="0" style="stop-color:#F8F7F0"/>
						<stop  offset="0.6031" style="stop-color:#FFFFFF"/>
						<stop  offset="1" style="stop-color:#FFFFFF"/>
					</linearGradient>
					<path class="st15" d="M9.64,20.51c-0.8-1.1,0.32-1.87,0.32-1.87c0.04-0.03,0.08-0.05,0.13-0.08c-0.02-0.05-0.04-0.09-0.06-0.14
						c0,0-0.45-1.29,0.84-1.7c1.29-0.41,2.31,0.8,2.56,1.61c0.14,0.45,0.33,0.86,0.24,1.28c-0.01,0.04-0.01,0.07-0.02,0.1
						c-0.01,0.04-0.03,0.07-0.05,0.1c-0.18,0.39-0.57,0.61-0.95,0.9C11.98,21.22,10.44,21.6,9.64,20.51z"/>
					
						<linearGradient id="SVGID_9_" gradientUnits="userSpaceOnUse" x1="-400.413" y1="1322.0284" x2="-395.7867" y2="1322.0284" gradientTransform="matrix(0.809 0.5878 0.5878 -0.809 -442.1003 1326.4232)">
						<stop  offset="0" style="stop-color:#F8F7F0"/>
						<stop  offset="0.6031" style="stop-color:#FFFFFF"/>
						<stop  offset="1" style="stop-color:#FFFFFF"/>
					</linearGradient>
					<path class="st16" d="M13.66,25.28c-1.29,0.42-1.68-0.88-1.68-0.88c-0.02-0.05-0.02-0.1-0.03-0.15c-0.05,0-0.09,0.02-0.15,0.01
						c0,0-1.36,0.03-1.36-1.32c0-1.35,1.47-1.95,2.32-1.94c0.47,0.01,0.92-0.04,1.29,0.17c0.03,0.02,0.06,0.03,0.09,0.06
						c0.03,0.02,0.06,0.05,0.08,0.07c0.32,0.29,0.41,0.73,0.56,1.18C15.06,23.28,14.94,24.86,13.66,25.28z"/>
					
						<linearGradient id="SVGID_10_" gradientUnits="userSpaceOnUse" x1="157.8065" y1="420.1864" x2="162.4306" y2="420.1864" gradientTransform="matrix(0.809 -0.5878 -0.5878 -0.809 134.3923 456.944)">
						<stop  offset="0" style="stop-color:#F8F7F0"/>
						<stop  offset="0.6031" style="stop-color:#FFFFFF"/>
						<stop  offset="1" style="stop-color:#FFFFFF"/>
					</linearGradient>
					<path class="st17" d="M19.43,22.94c0.01,1.35-1.36,1.32-1.36,1.32c-0.05,0-0.09-0.01-0.15-0.01c-0.02,0.05-0.01,0.09-0.04,0.15
						c0,0-0.39,1.3-1.68,0.88c-1.29-0.42-1.4-2-1.12-2.8c0.15-0.45,0.24-0.89,0.56-1.18c0.03-0.03,0.05-0.05,0.08-0.07
						c0.03-0.02,0.06-0.04,0.09-0.05c0.38-0.21,0.82-0.16,1.3-0.17C17.96,20.99,19.43,21.58,19.43,22.94z"/>
					
						<linearGradient id="SVGID_11_" gradientUnits="userSpaceOnUse" x1="-527.902" y1="-388.7867" x2="-523.2756" y2="-388.7867" gradientTransform="matrix(-0.309 -0.9511 -0.9511 0.309 -513.9998 -360.6769)">
						<stop  offset="0" style="stop-color:#F8F7F0"/>
						<stop  offset="0.6031" style="stop-color:#FFFFFF"/>
						<stop  offset="1" style="stop-color:#FFFFFF"/>
					</linearGradient>
					<path class="st18" d="M18.99,16.72c1.29,0.42,0.84,1.7,0.84,1.7c-0.01,0.05-0.04,0.09-0.06,0.14c0.04,0.03,0.09,0.04,0.13,0.08
						c0,0,1.12,0.78,0.32,1.87c-0.8,1.09-2.34,0.71-3.02,0.2c-0.38-0.29-0.77-0.51-0.95-0.9c-0.02-0.03-0.03-0.06-0.04-0.1
						c-0.01-0.04-0.02-0.07-0.02-0.11c-0.09-0.43,0.1-0.83,0.24-1.29C16.68,17.51,17.7,16.3,18.99,16.72z"/>
				</g>
			</g>
			<g>
				<path class="st6" d="M17.26,20.15c0,1.29-1.04,2.33-2.33,2.33c-1.29,0-2.33-1.04-2.33-2.33c0-1.29,1.04-2.33,2.33-2.33
					C16.22,17.82,17.26,18.87,17.26,20.15z"/>
				<path class="st7" d="M16.85,20.43c0,0.9-0.73,1.63-1.63,1.63c-0.9,0-1.63-0.73-1.63-1.63c0-0.9,0.73-1.63,1.63-1.63
					C16.12,18.8,16.85,19.54,16.85,20.43z"/>
				<path class="st8" d="M17.26,20.15c0,1.29-1.04,2.33-2.33,2.33c-1.29,0-2.33-1.04-2.33-2.33c0-1.29,1.04-2.33,2.33-2.33
					C16.22,17.82,17.26,18.87,17.26,20.15z"/>
			</g>
		</g>
		<g>
			<g>
				<path class="st3" d="M49.52,54.55c0,5.3-4.3,9.6-9.6,9.6c-5.3,0-9.59-4.29-9.59-9.6c0-5.3,4.3-9.59,9.59-9.59
					C45.22,44.96,49.52,49.25,49.52,54.55z"/>
				<path class="st4" d="M49.24,54.75c0,5.04-4.08,9.12-9.12,9.12c-5.03,0-9.11-4.08-9.11-9.12c0-5.03,4.08-9.11,9.11-9.11
					C45.16,45.63,49.24,49.71,49.24,54.75z"/>
			</g>
			<g>
				<path class="st5" d="M32.66,54.84c0-4.17,3.38-7.55,7.55-7.55c4.17,0,7.55,3.38,7.55,7.55c0,4.17-3.38,7.55-7.55,7.55
					C36.04,62.38,32.66,59,32.66,54.84z"/>
				<path class="st3" d="M32.38,54.55c0-4.17,3.38-7.55,7.55-7.55c4.17,0,7.55,3.38,7.55,7.55s-3.38,7.55-7.55,7.55
					C35.76,62.1,32.38,58.72,32.38,54.55z"/>
				<path class="st4" d="M33.03,54.98c0-4.04,3.28-7.32,7.32-7.32c4.04,0,7.33,3.28,7.33,7.32c0,4.04-3.28,7.32-7.33,7.32
					C36.31,62.3,33.03,59.02,33.03,54.98z"/>
				<path class="st8" d="M32.38,54.55c0-4.17,3.38-7.55,7.55-7.55c4.17,0,7.55,3.38,7.55,7.55s-3.38,7.55-7.55,7.55
					C35.76,62.1,32.38,58.72,32.38,54.55z"/>
			</g>
			<g>
				<g>
					<path class="st3" d="M38.22,49.9c0.79-1.1,1.88-0.27,1.88-0.27c0.04,0.03,0.07,0.07,0.11,0.1c0.04-0.03,0.07-0.07,0.11-0.1
						c0,0,1.08-0.83,1.88,0.27c0.79,1.1-0.04,2.44-0.74,2.93c-0.39,0.28-0.72,0.58-1.15,0.62c-0.03,0.01-0.07,0.01-0.11,0.01
						c-0.04,0-0.07-0.01-0.11-0.01c-0.43-0.05-0.76-0.35-1.15-0.62C38.26,52.34,37.42,51,38.22,49.9z"/>
					<path class="st3" d="M34.92,55.19c-0.8-1.1,0.32-1.87,0.32-1.87c0.04-0.03,0.08-0.05,0.12-0.08c-0.02-0.05-0.04-0.09-0.06-0.14
						c0,0-0.45-1.29,0.84-1.7c1.29-0.41,2.31,0.8,2.56,1.61c0.14,0.45,0.33,0.86,0.24,1.28c-0.01,0.04-0.01,0.07-0.02,0.11
						c-0.01,0.04-0.03,0.07-0.05,0.1c-0.18,0.39-0.57,0.61-0.95,0.9C37.25,55.9,35.72,56.29,34.92,55.19z"/>
					<path class="st3" d="M38.93,59.96c-1.29,0.42-1.68-0.88-1.68-0.88c-0.02-0.05-0.02-0.1-0.03-0.15c-0.05,0-0.09,0.02-0.15,0.01
						c0,0-1.36,0.03-1.36-1.32c0.01-1.35,1.47-1.95,2.32-1.94c0.47,0.01,0.92-0.04,1.29,0.17c0.03,0.02,0.06,0.03,0.09,0.06
						c0.03,0.02,0.06,0.04,0.08,0.07c0.32,0.29,0.41,0.73,0.56,1.18C40.33,57.96,40.22,59.54,38.93,59.96z"/>
					<path class="st3" d="M44.71,57.62c0.01,1.35-1.36,1.32-1.36,1.32c-0.05,0-0.09-0.01-0.15-0.01c-0.01,0.05-0.01,0.09-0.04,0.15
						c0,0-0.39,1.3-1.68,0.88c-1.29-0.42-1.4-2-1.13-2.8c0.15-0.45,0.24-0.89,0.56-1.18c0.02-0.03,0.05-0.05,0.08-0.07
						c0.03-0.02,0.06-0.04,0.09-0.05c0.38-0.21,0.82-0.16,1.3-0.17C43.24,55.67,44.7,56.26,44.71,57.62z"/>
					<path class="st3" d="M44.27,51.4c1.29,0.42,0.84,1.7,0.84,1.7c-0.01,0.05-0.04,0.09-0.06,0.14c0.04,0.03,0.09,0.04,0.13,0.08
						c0,0,1.12,0.78,0.32,1.87c-0.8,1.09-2.34,0.71-3.02,0.21c-0.38-0.29-0.77-0.51-0.95-0.9c-0.02-0.03-0.03-0.06-0.04-0.09
						c-0.01-0.04-0.02-0.07-0.02-0.11c-0.09-0.43,0.1-0.83,0.24-1.29C41.96,52.2,42.98,50.99,44.27,51.4z"/>
				</g>
				<g>
					
						<linearGradient id="SVGID_12_" gradientUnits="userSpaceOnUse" x1="-1508.5468" y1="55.1738" x2="-1503.9215" y2="55.1738" gradientTransform="matrix(-1 0 0 1 -1466.3102 -4.0596)">
						<stop  offset="0" style="stop-color:#F8F7F0"/>
						<stop  offset="0.6031" style="stop-color:#FFFFFF"/>
						<stop  offset="1" style="stop-color:#FFFFFF"/>
					</linearGradient>
					<path class="st19" d="M37.93,49.62c0.79-1.1,1.88-0.27,1.88-0.27c0.04,0.03,0.07,0.07,0.11,0.1c0.04-0.03,0.07-0.07,0.11-0.1
						c0,0,1.08-0.83,1.88,0.27c0.79,1.1-0.04,2.44-0.74,2.93c-0.39,0.27-0.72,0.58-1.15,0.62c-0.03,0.01-0.07,0.01-0.11,0.01
						c-0.04,0-0.07-0.01-0.11-0.01c-0.43-0.05-0.76-0.35-1.15-0.62C37.98,52.06,37.14,50.71,37.93,49.62z"/>
					
						<linearGradient id="SVGID_13_" gradientUnits="userSpaceOnUse" x1="-1389.5336" y1="1082.4384" x2="-1384.9065" y2="1082.4384" gradientTransform="matrix(-0.309 0.9511 0.9511 0.309 -1421.4828 1038.3888)">
						<stop  offset="0" style="stop-color:#F8F7F0"/>
						<stop  offset="0.6031" style="stop-color:#FFFFFF"/>
						<stop  offset="1" style="stop-color:#FFFFFF"/>
					</linearGradient>
					<path class="st20" d="M34.64,54.91c-0.8-1.1,0.32-1.87,0.32-1.87c0.04-0.03,0.08-0.05,0.12-0.08
						c-0.02-0.05-0.04-0.09-0.06-0.14c0,0-0.45-1.29,0.84-1.7c1.29-0.41,2.31,0.8,2.56,1.61c0.14,0.45,0.33,0.86,0.24,1.28
						c-0.01,0.04-0.01,0.07-0.02,0.11c-0.01,0.04-0.03,0.07-0.05,0.1c-0.18,0.39-0.57,0.61-0.95,0.9
						C36.97,55.62,35.44,56,34.64,54.91z"/>
					
						<linearGradient id="SVGID_14_" gradientUnits="userSpaceOnUse" x1="-375.419" y1="1287.6296" x2="-370.7928" y2="1287.6296" gradientTransform="matrix(0.809 0.5878 0.5878 -0.809 -417.1081 1318.3013)">
						<stop  offset="0" style="stop-color:#F8F7F0"/>
						<stop  offset="0.6031" style="stop-color:#FFFFFF"/>
						<stop  offset="1" style="stop-color:#FFFFFF"/>
					</linearGradient>
					<path class="st21" d="M38.65,59.68c-1.29,0.42-1.68-0.88-1.68-0.88c-0.02-0.05-0.02-0.1-0.03-0.15c-0.05,0-0.09,0.02-0.15,0.01
						c0,0-1.36,0.03-1.36-1.32c0.01-1.35,1.47-1.95,2.32-1.94c0.47,0.01,0.92-0.04,1.29,0.17c0.03,0.02,0.06,0.03,0.09,0.06
						c0.03,0.02,0.06,0.05,0.08,0.07c0.32,0.29,0.41,0.73,0.56,1.18C40.05,57.68,39.94,59.26,38.65,59.68z"/>
					
						<linearGradient id="SVGID_15_" gradientUnits="userSpaceOnUse" x1="132.813" y1="385.7873" x2="137.4372" y2="385.7873" gradientTransform="matrix(0.809 -0.5878 -0.5878 -0.809 159.384 448.8229)">
						<stop  offset="0" style="stop-color:#F8F7F0"/>
						<stop  offset="0.6031" style="stop-color:#FFFFFF"/>
						<stop  offset="1" style="stop-color:#FFFFFF"/>
					</linearGradient>
					<path class="st22" d="M44.42,57.34c0.01,1.35-1.36,1.32-1.36,1.32c-0.05,0-0.09-0.01-0.15-0.01c-0.01,0.05-0.01,0.09-0.04,0.15
						c0,0-0.39,1.3-1.68,0.88c-1.29-0.42-1.4-2-1.13-2.8c0.15-0.45,0.24-0.89,0.56-1.18c0.02-0.03,0.05-0.05,0.08-0.07
						c0.03-0.02,0.06-0.04,0.09-0.05c0.38-0.22,0.82-0.16,1.3-0.17C42.96,55.39,44.42,55.98,44.42,57.34z"/>
					
						<linearGradient id="SVGID_16_" gradientUnits="userSpaceOnUse" x1="-568.3383" y1="-375.6494" x2="-563.7126" y2="-375.6494" gradientTransform="matrix(-0.309 -0.9511 -0.9511 0.309 -489.0077 -368.7971)">
						<stop  offset="0" style="stop-color:#F8F7F0"/>
						<stop  offset="0.6031" style="stop-color:#FFFFFF"/>
						<stop  offset="1" style="stop-color:#FFFFFF"/>
					</linearGradient>
					<path class="st23" d="M43.98,51.12c1.29,0.42,0.84,1.7,0.84,1.7c-0.01,0.05-0.04,0.09-0.06,0.14c0.04,0.03,0.09,0.04,0.13,0.08
						c0,0,1.12,0.78,0.32,1.87c-0.8,1.09-2.34,0.71-3.02,0.21c-0.38-0.29-0.77-0.51-0.95-0.9c-0.02-0.03-0.03-0.06-0.04-0.09
						c-0.01-0.04-0.02-0.07-0.02-0.11c-0.09-0.42,0.1-0.83,0.24-1.28C41.67,51.91,42.69,50.7,43.98,51.12z"/>
				</g>
			</g>
			<g>
				<path class="st6" d="M42.25,54.55c0,1.29-1.04,2.33-2.33,2.33c-1.29,0-2.33-1.04-2.33-2.33c0-1.29,1.04-2.33,2.33-2.33
					C41.21,52.22,42.25,53.26,42.25,54.55z"/>
				<path class="st7" d="M41.84,54.83c0,0.9-0.73,1.63-1.63,1.63c-0.9,0-1.63-0.73-1.63-1.63c0-0.9,0.73-1.63,1.63-1.63
					C41.11,53.2,41.84,53.93,41.84,54.83z"/>
				<path class="st8" d="M42.25,54.55c0,1.29-1.04,2.33-2.33,2.33c-1.29,0-2.33-1.04-2.33-2.33c0-1.29,1.04-2.33,2.33-2.33
					C41.21,52.22,42.25,53.26,42.25,54.55z"/>
			</g>
		</g>
	</g>
</g>
</svg>
